<?xml version="1.0" encoding="UTF-8" standalone="no"?>
<!DOCTYPE svg PUBLIC "-//W3C//DTD SVG 1.1//EN" "http://www.w3.org/Graphics/SVG/1.1/DTD/svg11.dtd">
<svg width="100%" height="100%" viewBox="0 0 1025 817" version="1.1" xmlns="http://www.w3.org/2000/svg" xmlns:xlink="http://www.w3.org/1999/xlink" xml:space="preserve" xmlns:serif="http://www.serif.com/" style="fill-rule:evenodd;clip-rule:evenodd;stroke-linejoin:round;stroke-miterlimit:2;">
    <g id="Tree" transform="matrix(1,0,0,1,0,-80)">
        <path d="M989.4,590.9C999.8,590.9 1008.4,599.4 1008.3,609.9L1008.3,869.4C1008.3,879.9 999.8,888.4 989.3,888.4L36.8,888.4C26.3,888.4 17.8,879.9 17.8,869.4L17.8,609.9C17.8,599.4 26.3,590.9 36.8,590.9L168.8,590.9C154.1,550.8 146.7,508.6 146.7,465.3C146.7,415.9 156.4,367.9 175.5,322.7C193.9,279 220.4,239.8 254,206.2C287.7,172.6 326.9,146.2 370.5,127.7C415.7,108.6 463.6,98.9 513.1,98.9C562.5,98.9 610.5,108.6 655.7,127.7C699.4,146.1 738.6,172.6 772.2,206.2C805.8,239.9 832.2,279.1 850.7,322.7C869.8,367.9 879.5,415.8 879.5,465.3C879.5,508.6 872.1,550.8 857.4,590.9L989.4,590.9ZM339.4,558.9C340.3,558.8 340.8,558.7 341.9,558.7C342.5,558.6 342.8,558.6 343.4,558.5C343.6,558.5 343.6,558.2 343.5,557.6L343.4,557.5C343.4,557.5 342.9,557.6 342.1,557.7C341.1,557.8 340.6,557.9 339.6,558.1C339.9,555.8 340.1,554.6 340.4,552.3L340.4,552.1C340.4,551.9 340.1,551.8 339.6,551.8C339.1,551.8 338.6,551.8 338.1,551.9C338,551.9 337.9,552 337.9,552.1C337.7,553.1 337.6,553.6 337.5,554.5C337.3,556 337.1,557.3 337,558.4C335.8,558.6 334.9,558.8 334.3,559C333.6,559.2 333.3,559.3 333.2,559.4C333.1,559.5 333.1,559.7 333.2,560.1C333.2,560.3 333.3,560.3 333.5,560.3C334,560.2 334.3,560.1 334.8,560C335.6,559.8 335.9,559.7 336.7,559.6C335.6,566.9 335.1,570.7 335.1,570.8C334.9,572.4 334.8,573.6 335,574.5C335.1,574.9 335.3,575.2 335.7,575.5C336.1,575.8 336.6,575.8 337.2,575.7C338.9,575.4 340.5,574.2 341.8,572.4C343.1,570.5 343.8,569.4 343.7,569.1C343.7,568.9 343.5,568.9 343.3,568.9C343.1,569 342.9,569.2 342.7,569.5C341.2,572.1 340,573.5 339,573.7C338.4,573.8 338.1,573.5 337.9,572.7C337.7,571.5 338,568 338.9,562.2C339.2,560.4 339.4,559.3 339.4,558.9ZM311.9,574.1C312.8,572.6 317.2,570.6 318.3,569C319.4,567.3 319.9,565.9 319.6,564.6C319.4,563.9 319,563.4 318.4,563C317.8,562.6 317.1,562.5 316.3,562.7C314.1,563.2 312.2,565.2 310.6,568.8C309,572.4 308.6,575.4 309.2,577.8C309.5,578.9 310.1,579.8 311,580.5C311.9,581.2 313,581.4 314.2,581.1C315.8,580.7 317.1,579.8 318.3,578.2C319.4,576.6 319.9,575.5 319.8,574.9C319.7,574.6 319.6,574.5 319.3,574.6C319,574.7 318.8,575 318.6,575.5C318.2,576.6 317.6,577.6 316.9,578.4C316.1,579.3 315.4,579.8 314.6,580C314,580.2 313.5,580.1 313.1,579.7C312.7,579.3 312.4,578.8 312.3,578.3C312,577.4 311.4,574.9 311.9,574.1ZM312,573.1C312.2,569.8 312.7,567.5 313.4,565.9C314.3,564.5 315.1,563.7 316,563.5C316.4,563.5 316.6,563.5 316.9,563.7C317.2,563.9 317.3,564.2 317.4,564.4C317.6,565.6 317.2,566.9 316.2,568.6C315.2,570.3 313.8,571.8 312,573.1ZM331.4,571.2C331.1,570.1 330.1,568.8 328.3,567.6C326.4,566.1 325.4,565 325.2,564.2C325,563.5 325.2,562.8 325.6,562.3C326.1,561.8 326.6,561.4 327.2,561.3C327.6,561.2 328,561.2 328.4,561.3C328.8,561.4 329,561.6 329.1,561.9C329.2,562.3 329.2,562.5 329.3,562.9C329.5,563.7 330,564 330.7,563.8C331.1,563.7 331.4,563.5 331.6,563.1C331.8,562.7 331.9,562.3 331.8,561.9C331.6,561.3 331.2,560.8 330.3,560.4C329.4,560.1 328.5,560 327.5,560.2C326.1,560.5 325,561.3 324.3,562.5C323.6,563.8 323.3,565 323.6,566.2C323.9,567.5 325.1,569.1 327.3,570.9C328.7,572 329.4,572.9 329.6,573.7C329.8,574.5 329.6,575.2 329.2,575.9C328.8,576.5 328.1,577 327.1,577.2C326.5,577.3 326,577.3 325.7,577.2C325.4,577.1 325.2,576.8 325.1,576.5C325,576.4 325,576.1 325.1,575.8L325.1,575C325,574.7 324.8,574.4 324.5,574.2C324.2,574 323.8,574 323.4,574.1C322.9,574.2 322.6,574.5 322.4,574.9C322.2,575.3 322.1,575.7 322.2,576.1C322.3,576.6 322.8,577.2 323.7,577.7C324.6,578.2 325.7,578.3 327,578C328.5,577.7 329.7,576.9 330.6,575.5C331.4,574.1 331.7,572.7 331.4,571.2ZM347.4,569.8C346.9,569.9 346.5,570.1 346.1,570.6C345.8,571.1 345.7,571.6 345.8,572.1C345.9,572.6 346.2,573 346.6,573.3C347.1,573.6 347.6,573.7 348.1,573.6C348.7,573.5 349.1,573.2 349.4,572.8C349.7,572.3 349.8,571.8 349.7,571.3C349.6,570.8 349.3,570.4 348.9,570.1C348.4,569.8 347.9,569.7 347.4,569.8ZM370.7,566.9C370.7,566.6 370.7,565.9 371,564.8C371.8,559.9 372.2,557.5 373.1,552.6C373.7,549.2 374,547.5 374,547.4C374,547.2 373.9,547.1 373.7,547.1C373.6,547.1 373.4,547.2 373.2,547.4C372.3,548.2 370.4,548.8 367.3,549.3C366.9,549.4 366.7,549.5 366.7,549.8C366.7,550.1 367,550.2 367.5,550.1C368.3,550 369,550 369.5,550.3C370,550.5 370.2,550.9 370.3,551.3C370.4,551.8 370.3,552.4 370.2,553.1C369.7,555.9 369.5,557.3 369,560C368.4,563.7 368,565.9 367.9,566.6C367.8,567.3 367.5,567.9 367.1,568.4C366.7,568.9 366.1,569.2 365.3,569.4C364.8,569.5 364.6,569.7 364.6,569.9C364.7,570.2 364.9,570.3 365.3,570.2C365.5,570.1 366.1,570 366.9,569.8C367.2,569.7 367.8,569.6 368.5,569.5C369.8,569.3 370.8,569.2 371.4,569.1C372.4,569 373.1,568.9 373.4,568.9C373.8,568.8 373.9,568.7 373.9,568.4C373.9,568.2 373.6,568.1 373,568.2C372.6,568.2 372.1,568.2 371.6,568C371.1,567.9 370.8,567.5 370.7,566.9ZM410.1,553.2C413.1,551.9 414.9,550.9 415.8,550C416.5,549.1 416.8,548.2 416.7,547.3C416.6,546.2 416.1,545.2 415,544.4C413.9,543.6 412.5,543.3 410.7,543.4C408.5,543.5 406.8,544.2 405.4,545.5C404,546.8 403.4,548.2 403.5,549.7C403.6,550.3 403.9,550.9 404.4,551.4C404.9,551.9 405.6,552.1 406.3,552C407.1,551.9 407.8,551.5 408.7,550.9C409.5,550.2 409.9,549.7 409.9,549.3C409.9,549.1 409.8,549 409.6,549C409.4,549.1 409.2,549.2 408.8,549.6C408.2,550.1 407.6,550.5 407.1,550.5C406.7,550.6 406.3,550.5 406.1,550.2C405.9,550 405.7,549.5 405.7,549C405.6,547.7 406,546.7 406.8,545.7C407.6,544.7 408.7,544.2 410,544.1C411,544.1 411.9,544.3 412.5,544.8C413.1,545.3 413.4,546.1 413.5,547.1C413.5,548 413.2,549 412.6,550C411.9,551 410.1,552.4 407,554.1C406.3,554.4 406,554.7 406,554.9C406,555.2 406.1,555.3 406.4,555.3C406.6,555.3 406.9,555.1 407.5,554.7C408.3,554.2 409,553.9 409.5,553.9C410.4,553.9 411,554.1 411.5,554.7C411.9,555.3 412.2,555.9 412.2,556.5C412.4,558.2 411.8,559.9 410.7,561.8C409.5,563.6 408.1,564.6 406.3,564.8C405.4,564.9 404.5,564.7 403.8,564.3C403.1,563.8 402.7,563.3 402.6,562.6C402.6,562.3 402.6,561.9 402.8,561.4C402.9,561 403,560.7 403,560.5C403,560.2 402.8,559.9 402.5,559.6C402.2,559.4 401.8,559.3 401.3,559.3C400.9,559.4 400.5,559.6 400.2,560C399.9,560.4 399.8,560.9 399.8,561.4C399.9,562.6 400.6,563.7 401.8,564.5C403,565.4 404.6,565.7 406.8,565.5C409.6,565.3 411.7,564.3 413.2,562.6C414.7,560.9 415.4,559.1 415.3,557.2C415.2,556.1 414.8,555.2 414,554.3C413.2,553.4 411.9,553.1 410.1,553.2ZM154.8,465.3C154.8,509.4 162.8,551.8 177.5,590.9L190.8,590.9C175.6,552 167.3,509.6 167.3,465.3C167.3,274.2 322,119.4 513.1,119.4C704.2,119.4 859,274.3 859,465.3C859,509.6 850.6,552 835.6,590.9L848.9,590.9C863.6,551.8 871.6,509.5 871.6,465.3C871.6,267.7 710.8,106.9 513.2,106.9C315.6,106.9 154.8,267.7 154.8,465.3ZM807.6,461.7C806.9,460.9 806.4,460.3 807.8,460.5C810.5,456.5 812.9,452.8 815.4,449C819.9,449.7 820.4,449.4 822.5,445.6C823.1,444.5 824,443.4 824.5,442.2C824.9,441.4 825.1,439.5 824.8,439.4C822,438.1 823.8,435.4 823,433.4L820,433.4C821.2,430.7 825.7,430.5 824,426.3C821.9,426.7 819.9,427 817.9,427.4C817.4,424.8 816.9,422.5 816.4,419.6C814.3,419.5 811.8,419 809.4,419.4C807,419.9 806,418.7 804.9,417C808.4,415.4 808.4,415.4 811.9,415.6C814.8,415.8 817.2,413.7 816.8,411.1C815.2,411.3 813.7,411.4 812.1,411.6C811.8,410.5 811.5,409.4 811.1,408C808.6,409.5 807.1,408.9 806.5,406.2C805.2,406.3 804.1,406.5 802.9,406.6C803.3,403.8 803.7,401.2 804.2,397.8C802.2,398.6 801.1,399.1 800,399.4C799.5,399.5 798.9,399.4 798.4,399.4C798.4,398.8 798.2,398.1 798.5,397.8C800.7,395.1 798.6,394 797,392.5C796.1,393.2 795.4,393.8 794.7,394.4C792.9,393.1 792.3,389.7 789.3,392.1C789,391 788.8,390.2 788.6,389.7C787,389.3 785.6,388.9 784.2,388.6C784.3,386 784,383.8 781.1,383.5C779.2,383.3 779.4,378.5 776.3,381.6C776.4,380.5 776.5,379.7 776.6,378.6C774.9,378.8 773.5,379 771.7,379.2C777.6,374.5 778,373.8 776.4,370.3C774.7,370.7 772.9,371.1 770.9,371.6C772.5,368.3 774.2,365.3 771.9,361.7C770.2,362.6 768.5,363.4 766.2,364.5C766.4,363.1 766.6,362.2 766.7,361.3C766.8,360.6 767.2,359.8 767,359.2C766.3,356.9 765.3,354.7 764.4,352.2C763.3,352.4 761.7,352.7 760.2,353C759.2,347.9 759.2,347.8 754.6,349.8C752.9,350.5 751.3,351.4 750.4,351.8C749.6,349.4 749,347.4 748.2,345.6C748,345.3 746.6,345.6 745.3,345.6C744.5,343.9 743.5,341.6 742.2,339.6C741.8,338.9 740.3,339 739.3,339C738.6,339 737.9,339.4 737.2,339.7C738.9,337.4 738.1,335.6 736.3,334.5C735.7,334.1 734.3,335 733,335.4C730.1,333 726.7,330.2 723.4,327.5C722.5,328.1 721.8,328.7 720.6,329.5C720.2,327.6 719.9,326.2 719.6,324.5C718,324.9 716.5,325.2 715.3,325.4C715.5,321.9 715.7,318.5 715.9,314.8L709.2,314.8L709.2,309C705.6,309.4 702.4,309.7 699.5,310C698.5,307.3 697.6,304.9 696.6,302.4C694.4,303 692.3,303.7 690.2,304.3C689.6,303.3 689.1,302.5 688.3,301.4C687.2,303 686.3,304.3 685.5,305.5C684.6,303.6 683.8,302 683,300.4C682.1,301.6 681.1,302.7 680.1,304C678.3,301 676.6,302.5 675,304.6C672,302.9 671.1,303.4 670.5,306.4C668.8,307 667.5,307.5 666.2,308C665.6,306.9 664.9,305.7 664.2,304.5C663.8,304.8 663.5,305 663.1,305.3C662.4,307.2 661.8,309 661.2,310.7C657.9,308.6 654.8,306.7 651.5,304.6C651,305.5 650.4,306.4 649.8,307.4C648.5,306.2 647.1,304.9 645.2,303.1C644.1,305.6 643.2,307.7 642.1,310.3C641.7,306.6 642,303.2 638.6,301.5C637,304.7 637.2,307.3 639.3,309.5C640.7,310.9 640.4,311.7 639,312C636.4,310.6 633.8,309.3 631,308.6C626.3,307.4 626.1,307.8 626.8,312.9C626.8,313 626.7,313.2 626.6,313.4C625.5,312.6 624.4,311.8 623.2,310.9C622.4,311.8 621.8,312.5 621.2,313.1C619.8,312.3 618,310.6 617.3,311C615.7,311.8 614.8,313.8 613.4,315.5C613.6,312.5 613.2,310 609.8,309.6C608.7,312.1 608.6,314.1 611,315.7C611.7,316.1 612,317.4 612.2,318.3C612.5,319.6 612.5,321 612.7,322.3L612.1,322.9C611.5,321.9 610.4,321 610.4,320.1C610.3,317.4 608.9,316.2 606.6,315.7C605.4,315.5 604.2,315.4 603,315.3C601.6,315.3 599.9,314.9 598.9,315.5C598.2,315.9 598.4,317.9 598.1,319.4C593.1,314 587.3,309.9 580.8,307C578.3,305.9 576,304.7 575.1,301.9C574.3,299.4 573.5,296.7 573.4,294.1C573.4,292.9 575.2,291.7 576.2,290.5C576.9,291.1 577.5,291.8 578.2,292.3C579,292.9 579.8,293.7 580.7,293.9C583.3,294.4 586,294.6 588.9,294.9C588.3,298.3 589,301 593.1,302.3L595.7,293.2C595.5,296.8 595.5,300.4 598.3,300.6C601.7,300.8 602.8,297.3 602.5,293.7C603.4,294 604,294.3 604.5,294.3C609.2,294.1 609.2,294.1 612.6,298C612.7,298.1 613,298.2 613.4,298.4C614.5,297.3 615.8,296.1 617,294.9C618.8,293 620.6,291 622.5,289.2C622.9,288.8 623.9,288.9 624.5,289.1C624.9,289.3 625,290.3 624.9,290.9C624.5,294.4 625.3,297.5 627.8,300C634.5,295.8 634.5,295.8 633.6,288.9C635.2,291.5 636.7,294.1 638.3,296.7L639.4,296.7C640.5,294.7 641.6,292.7 642.9,290.3C644.2,293.7 645.5,297.2 646.8,300.7C653.2,297.1 653.2,297.1 653.5,293.6C656.3,292.2 659,290.8 661.8,289.4C662.5,289.7 663.3,290.3 664.1,290.6C665.8,291.3 671,289.1 670.6,287.7C670,285.5 671.4,285.5 672.4,284.9C673.2,284.4 674,284 674.6,283.3C675.8,281.8 677.1,281.6 678.8,282.6C679.4,283 680.6,283.5 680.9,283.2C682.7,281.3 684.3,279.2 686.4,276.6C686,276.7 686.4,276.5 686.8,276.6C689.8,277.2 692,276.4 692.7,273C692.7,272.8 692.9,272.5 693.1,272.3C697,267.8 697.1,266.5 693.5,261.3C694.9,260.9 696.2,260.6 697.7,260.1C697.2,261.8 696.9,262.9 696.7,263.5C698.1,264.4 699.2,265 700.1,265.7C702,267.2 704.3,267 705.5,264.9C706.6,262.9 707.4,260.6 708.5,258.1C705.8,257.3 703.5,256.6 700.5,255.7C702.9,254.4 705,253.4 707,252.3C708.6,251.4 709.9,250.4 709.4,248C706.4,248.7 704.7,247 704.1,244.3L700.8,244.3C702.4,241.9 704.6,240 705.1,237.7C705.6,235.3 704.4,232.6 703.9,230C702.5,230.2 701.6,230.4 700.8,230.5C701.8,228.6 703.3,227.3 704.4,225.8C705,224.9 705.2,223.6 705.7,222.2L701.8,222.2C703.4,217.4 703.4,217.1 700.5,216.4C700.9,215 701.3,213.7 701.7,212.3C700.5,211.9 699.6,211.7 698.9,211.2C697.6,210.3 696,209.2 695.6,207.9C695,206 696.8,205.4 698.4,204.8C700.8,203.8 703,202.5 702.2,198.9C700.1,199 698,199.2 696.1,199.3C695.8,197.6 695.5,196 695.2,194.1C691.6,195 688.5,195.9 685.3,196.7C683.9,190.4 682.1,188.8 679.2,191.4C678.7,190.6 678.3,189.7 677.8,188.5C673.4,191.4 671.4,186.3 668,185.8C669.5,180.5 668.6,179.4 662.2,179C662.4,177.2 662.4,174.7 660,175.1C655.8,175.9 651.2,176.1 648.2,180.2C648.4,179.1 648.7,177.9 649.4,177.1C651.4,174.9 650.2,172.8 649.5,170.7C649.3,170.2 648.6,169.8 648.2,169.3C647.1,170.7 646,172 644.9,173.4C644.7,173.7 644.6,174 644.4,174.4C643.1,173.3 641.8,172.4 640.4,171.2C638.9,172.4 637.4,173.7 635.9,174.9C635.9,174.6 636,174.2 636,173.9C634.8,173.6 633.3,172.6 632.5,173.1C630.9,174 629.1,175.4 631.1,177.8C631.5,178.2 631.3,179.1 631.4,179.7C630.8,179.8 630,180.1 629.5,179.9C628.1,179.3 626.8,178.5 625.1,177.6C624.7,180.1 624.4,182 624,184C622.3,183.6 620.5,183.1 618.6,182.6C618.3,184 618.1,185 617.9,185.9C614.3,185.5 614.3,185.5 613.9,188C609.7,190.2 608.8,186.5 607.4,184.1C603.8,184.7 600.9,187.8 597.3,186.2C596.7,184 596.2,182 595.5,179.7C591.8,182.1 593.2,185.6 592.8,188.4C591.5,186.5 590.2,184.8 588.8,182.8C587.5,184.5 586.7,185.7 585.7,187C583.9,185.8 582.1,185 581,187.9C580.9,188 580.4,188.2 580.2,188.1C577.5,187.4 577.6,189.4 577.3,191.1C577.2,191.8 576.5,192.6 575.9,193C574.9,193.7 573.7,194.1 572.6,194.7C572.6,194.9 572.7,195.1 572.8,195.3C570.8,195 568.9,194.7 566.8,194.4C566.7,195.7 566.7,196.6 566.5,197.5C566.3,198.3 566,199.1 565.6,200.2C564.5,199.2 563.8,198.6 562.8,197.7C561.6,199.3 560.6,200.8 559.6,202.2C557.5,201.4 555.2,200.4 552.3,199.3C551.7,200.5 550.9,202.3 550,204C549.3,203 548.5,202 547.6,200.8C546.3,202 545.3,203 544.3,204C543.5,203.3 542.8,202.7 541.7,201.7C540.9,203.6 540.2,205.1 539.8,206.1C538.1,206.8 536.8,207.8 535.4,207.9C533.8,208 532.2,207.2 530.3,206.8C529.9,208.7 529.7,210.2 529.4,211.7C528.1,209.4 529.1,205.9 525.3,204.9C524.7,207.7 524.1,210.3 523.6,212.7C521,211.7 518.6,210.8 516.1,210C512.8,209 512.6,209.2 512.3,212.8C512.2,213.3 512.1,213.7 512.1,214C509.9,213.6 507.7,213.3 504.6,212.7C503.5,212.3 501.2,210.6 499.2,210.8C496.7,211.1 495.3,205.9 492.6,209.6C489.2,207 489.2,207 487,210.2C486.4,208.8 485.8,207.2 485,205.3C481.4,209.2 486.7,211.1 485.4,214.2C485,214.3 484.3,214.4 483.3,214.5C484.6,211.6 483.2,210.1 481.1,209.1C480,208.5 478.8,208 477.6,207.5C475.9,208.5 475.4,206.3 474.5,205.4C470.9,207.1 470.9,207.1 469.6,205.9C471.2,202.8 471,202.3 467.8,200.3C467.2,201 466.7,201.8 466.1,202.5C464.1,201.7 463.3,197.7 460.4,200.8C457.7,196.9 456.6,196.6 454.6,199.1C450.8,195 450.8,195 448.4,200.5C448.2,201 447.5,201.1 446.4,201.9C447.5,198 447.6,195 444.4,192.7C443.9,194 443.8,195 443.3,195.7C442.4,197.3 444.7,200.1 442.1,200.7C440.5,201.1 438.6,199.8 436.9,199.2C431.5,197.4 431.8,196.7 430.9,202.6C428.8,203 426.4,202.7 424.8,203.8C423.2,204.8 422.4,207.2 421.1,209.2C420.1,209.1 418.4,208.9 416.9,208.7C416.5,210.3 416.2,211.7 415.8,213.3C414.4,212.1 413.5,211.4 412.3,210.4C411.4,211.6 410.6,212.7 410,213.5C409.4,211.9 408.8,210.3 408.1,208.6C407.8,208.7 407.5,208.7 407.2,208.8C406.8,210 406.4,211.2 405.9,212.6C404.9,212.5 404,212.4 403.2,212.4C402.9,210.4 402.5,208.7 402.2,206.9C400.6,207.2 399.5,207.5 398.3,207.8C392.9,209.2 391.8,208.6 390.5,203.2C390.3,202.5 390.1,201.9 389.9,201C386.2,203 387.1,206.8 386.5,210.4C385.2,207.7 384.2,205.7 382.8,202.9C381.1,205.2 380,206.7 378.8,208.2C377.7,207 377,206.2 375.8,204.9C374.9,206.7 373.8,208 373.7,209.4C373.5,210.8 374.3,212.2 374.9,214.4C372.3,213.3 370.7,212.7 368.8,211.9C366.8,216 369.3,219.2 370.7,223.1C369.6,222.6 369,221.9 368.3,221.9C367,221.9 365.3,221.8 364.6,222.6C363.2,224.2 361.3,224.6 359.5,225.2L356.5,226.4C355.9,226.7 355.2,226.9 354.6,227.2C354,227.5 353.1,227.8 353,228.2C352.5,230.2 352.3,232.3 352,234.7C351.4,233.5 350.7,232.2 350.1,231C349.7,230.7 349.4,230.4 349,230.1C348.3,231.3 347.5,232.6 346.6,234.2C345.1,233 343.7,231.8 342.1,230.5L340,233.8C336.9,233.2 336.5,233.4 333.3,237.1C332.5,236.6 331.7,236 330.3,235C329.8,236.8 329.3,238.3 329.1,239.8C329,240.6 329.6,241.5 329.9,242.4C328.9,242.3 327.9,242.2 326.9,242C326.3,241.9 325.8,241.8 325,241.6C324.9,243.1 324.7,244.4 324.6,245.1C322.7,246.3 321,247 319.7,248.3C318.3,249.6 317.2,250 315.7,248.6C319.4,245.1 318.5,242.8 316.2,239.8C313,240.9 313.5,244.3 312.8,246.2C311.5,244.8 310.3,243.4 309,242C306.8,244.1 305.5,245.5 304.4,246.5C303,245.9 301.4,244.6 300.7,245C299.2,245.8 297.9,247.3 298.6,249.6C298.8,250.3 298,251.3 297.7,252.2C296,251.7 294.7,251.3 294,251.1C292.7,252.7 291.7,253.9 290.5,255.3C290.5,256.7 292.8,258.9 289.6,260.1C287.8,260.8 286,261.3 284.1,261.9C284.3,262.8 284.6,263.8 284.8,264.6C283.9,264.8 282.5,264.8 282.1,265.4C281.6,266.2 281.8,267.5 281.7,268.6C277.6,267.8 277.4,268.1 278.9,273.2C273.3,272 275.5,276.7 274.7,279.2C272.4,278.9 270,278.5 266.9,278.1C267.9,280.9 268.5,282.9 269.2,284.8C267.6,284.7 266,284.6 263.8,284.4C265.2,287.4 266.4,289.6 267.5,291.9L266.9,292.8C265.3,291.9 263.7,291.1 261.9,290.1C261.5,291.6 261.2,292.9 260.8,294.4C258.9,292 257.4,293.5 256.2,294.7C255.2,293.5 254.3,292.4 253,290.7C252.3,293.1 251.8,294.7 251.3,296.3C243.6,294.1 243.6,294.1 242.3,298.3C239.5,295.9 238,297.7 237.1,299.9C235.9,299.7 234.9,299.5 233.9,299.3C233.6,301.1 233.3,303 232.9,305.3C232.2,305.1 230.7,304.7 228.1,304.1C228.9,307.3 229.5,309.9 230.1,312.4C229,312.3 227.7,312.2 226.4,312.1C226,315.2 226.6,316.6 228.9,318.1C229.5,318.5 230.2,319.1 230.3,319.7C230.9,321.9 233.4,324.1 235.3,323.2C238.1,322 239.8,324.4 242,324.8C242.5,324.9 242.8,326.5 243.2,327.4C241.9,327.7 241.1,327.9 240.5,328C240.4,330.6 240.3,332.9 240.2,335.2C238,335 236.2,334.8 234.3,334.6C233.9,338.3 235.6,340 238.2,341.3C239.6,342 240.8,343.1 242.1,344C242,344.3 242,344.7 241.9,345.1C239.7,346.1 237.5,346.9 235.4,348C234.8,348.2 234.1,349.2 234.2,349.7C235,352.9 235.8,356.1 237.1,359.1C237.5,360 239.4,360.5 240.6,360.4C241.6,360.3 242.4,359.1 243.7,358C244.3,358.4 245.6,359.2 246.9,360C246.3,363.8 246.1,367.4 249.2,370.1C251.8,368.4 254.8,367.2 254.5,363.2C254.4,362.3 254.7,361.3 254.8,360.4C255.7,360.8 256.6,361 257.4,361.4C258.1,361.7 258.6,362.5 259.3,362.8C260.3,363.2 261.6,363.8 262.4,363.4C265.5,362 269.7,361.5 269.5,356.8C272.7,357.3 275.5,357.7 278.4,358.1C278.6,358.4 278.8,358.8 279,359.1C279.7,358 280.4,357 281.1,355.9C281.2,356 281.3,356 281.4,356.1C280.7,359.8 280,363.5 279.3,367.3C278.3,366.9 276.8,366.3 275,365.6C274.9,367.2 274.9,368.3 274.7,369.4C274.5,370.3 274.2,371.2 273.7,371.9C272.6,373.3 271.3,374.7 270.1,376.1C270.3,376.3 270.4,376.5 270.6,376.7C269.7,376.9 268.8,377 267.4,377.2C267.8,379 268.1,380.5 268.6,382.5C267.2,382.9 265.7,383.2 264.2,383.5C266.8,380.6 266.5,377.9 265.2,374.9C261.8,376.5 262.5,379.9 261.8,382.9C260.7,380.5 259.8,378.6 258.8,376.4C257,378 255.9,379.1 254.7,380.2C254,379.4 253.4,378.6 252.9,378C248.2,379 251.9,383.2 250.2,385.5C248.6,384.6 247.2,383.8 245.2,382.7C245.8,386.3 242,389.2 246.3,392.7C244.2,392.1 242.9,391.8 240.9,391.2C241.1,394.7 241.3,397.8 241.5,400.9C240.4,400.8 238.9,400.6 237.2,400.5C238.1,405.1 241.5,405 244.6,405.3C240.2,407.5 235.5,409 233.3,413.8L227.5,413.8L227.5,418.7C220.8,418.7 220.1,419.2 218.9,424.8C217.4,425 216,425.1 214.5,425.3C215.4,428.6 217.6,430.5 220,429.3C223,427.7 225.2,429.9 227.9,429.8C225,431.7 222,433.2 219,434.4C216.7,435.3 216.3,436.4 217.6,438.6C218.1,439.5 218.3,441.3 217.8,442.2C216.3,444.8 214.9,448 210.9,446.4C210.8,446.4 210.4,446.7 209.8,447C210.4,447.9 210.7,449.1 211.4,449.4C214,450.4 216.8,451.1 219.4,451.9C219.1,454.3 221.3,454.4 223,455C224.6,455.6 226.3,456.1 228,456.7C225.5,458 223.1,460.2 221.4,456.2C221.2,455.5 219.7,455 218.8,455.1C216.3,455.4 213.8,456 211,456.6C212.4,459.4 213.3,461.6 214.6,463.6C216,465.9 219,466.1 220.9,464.4C221.5,464 222.6,463.3 222.7,463.4C223.6,464.3 224.5,465.4 225.1,466.6C225.8,468.1 225.9,470 226.8,471.5C227.8,473.2 229.6,473.8 231.3,472.6C232.4,471.8 233.2,470.7 234.7,469.3C236.8,470.2 239.1,471.7 239.2,475.9C239.3,478.4 240.9,480.8 241.9,483.3C247.3,480.4 250.3,477.1 247.2,470.9C247.5,470.8 247.9,470.7 248.2,470.6C251.5,472.4 254.7,474.2 258.2,476.1C259.1,475.6 260.2,474.8 261.2,474.2C262.5,475.9 263.8,477.4 265,479C266.9,477.7 268.5,476.6 270.1,475.4C271.4,478.4 273.3,477.2 275.2,476C275.2,480.2 277.2,481.8 280.5,480.4C281.2,481.3 281.9,482.1 282.6,483C284,482.3 285.2,481.6 285.8,481.2C287.3,482.3 288.6,483.7 289.7,483.6C290.6,483.5 291.3,481.6 292,480.6C293.7,481.1 295.6,481.7 297.5,482.3C296.7,485.9 299.5,487.2 301.8,489.1C302.8,488.2 303.7,487.4 304.5,486.5C305.2,485.7 305.7,484.6 306.3,483.6C305.8,488.7 305.8,488.7 311.5,492.5C313.9,490.6 315.7,488.5 315.4,485C315.3,484.3 316.6,483.5 317.2,482.8C316.3,492.2 318,491.9 324.4,495.6C325.2,493 326.6,490.5 326.6,488C326.6,484 328.4,481.7 331.4,479.7C331.4,480.8 331.3,481.7 331.2,483.1C333.4,483.1 335.9,483.9 337.2,482.9C338.8,481.7 340.6,479.5 339.2,476.6C339.1,476.3 339.4,475.7 339.6,475.3C340.1,474.1 340.5,472.8 341.2,471.7C342.4,469.9 342.1,466.8 345.2,466.3C346,467.3 346.8,468.3 347.7,469.5C352.4,463.9 357.2,466.2 361.1,469.5C365.2,473 370.2,472.9 374.6,474.9C375.1,475.1 375.8,475 376.4,474.9C384.1,473.1 391.8,474.4 399.4,474.9C404.1,475.2 408.6,477.8 413.3,478.4C417.9,479 420.7,481.6 423.2,485.1C424.4,486.9 425.5,488.8 426.7,490.6C431,497 435.6,502.9 442.9,505.9C446.5,507.4 449.6,510 452.9,512.2C453.7,512.8 454.2,513.9 454.9,514.8C456.4,516.8 457.6,519.3 459.5,520.6C463.6,523.4 466.7,526.8 468.9,531.3C470.1,533.7 471.7,535.9 472.8,538.3C473.9,540.8 475.2,543.5 475.3,546.2C475.4,552 474.8,557.7 474.5,563.4C459.9,564.4 445.4,565.2 430.9,566.2C402.9,568.1 375,571.1 347.4,576.3C334.6,578.7 321.9,581.5 309.8,586.8C307.4,587.8 305.2,589.1 303,590.3C303,590.5 303.1,590.7 303.2,590.9L771.8,590.9C770.1,589.9 769.2,589.1 768.1,588.7C762.9,586.6 757.8,584.1 752.4,582.5C735.4,577.6 718.2,574.3 700.8,571.9C700.8,571.8 700.7,571.7 700.7,571.6C700.4,570.9 699.9,570.5 699.2,570.5C698.2,570.5 697.7,569.9 697.4,569.1C697.1,568.5 696.8,567.8 696.5,567.2C696.2,566.6 696.2,566 696.2,565.4C696.3,564.7 696.1,564 696.1,563.3L696.1,559.3C696.1,557.8 696.6,556.6 696.9,555.2C697.3,553.3 697.5,551.5 697.4,549.6C697.4,549.3 697.3,549.1 697.3,549L697.7,548.6C697.9,548.4 698.1,548.2 698.3,547.9C698.5,547.5 698.7,547.1 698.8,546.7C698.9,546.2 699.2,546.5 699.5,546.2C699.6,546.2 699.4,545.9 699.5,545.8C699.5,545.7 699.7,545.8 699.7,545.8C700,545.6 699.9,545.2 700,544.9C700.3,543.8 701.7,542.8 701.2,541.8C701.1,541.6 701.2,541.6 701.3,541.4C701.4,541.3 701.1,541.2 701.1,541.1C701.2,540.5 701.3,540 701.1,539.4C700.8,538.7 701.2,537.9 701.2,537.1C701.2,536.8 701.6,534.3 701.5,534.2C701.3,534 701.2,533.6 701.2,533.4C701.2,533.2 701.3,532.7 701.2,532.6C700.3,531.9 700.1,530.5 699.9,529.4C699.9,529.1 699.8,528.4 699.8,528.2C699.9,528 700.1,527.8 699.9,527.5C699.7,527.2 699.5,527 699.5,526.7C699.5,526.4 699.6,524.9 699.5,524.8C699.3,524.7 699.1,524.7 698.9,524.7C698.7,524.7 698.5,524.4 698.6,524.3C698.8,524.1 698.7,523.1 698.5,522.8C698.3,522.6 698.2,522.1 698.5,522C697.9,521.3 698.2,520.7 698.3,519.9C698.4,518.9 698.6,517.9 698.7,516.8C698.8,516.5 698.9,516.4 699.1,516.2C699.8,515.7 700.6,515.5 701.4,515.3C702,515.2 702.5,514.9 702.9,514.4C703.2,514 703.4,513.7 703.7,513.4C704.2,512.8 704.3,512.2 703.8,511.4C703.8,511.3 703.7,511.2 703.7,511.1C703.7,510.9 703.6,510.6 703.6,510.4L703.6,509.7C703.3,510.3 702.7,510.3 702.2,510.4C701.5,510.5 701.2,510 700.8,509.6C701.3,509.2 701.8,508.7 702.3,508.3C703.5,507.2 703.9,505.8 703.7,504.2C703.6,503.8 703.4,503.4 703.1,503C702.9,502.7 702.5,502.7 702.2,502.5L702.3,502.4C702.8,502.3 702.9,502.1 702.6,501.7C702.2,501.1 701.4,500.8 700.4,501.1C699.4,501.4 698.4,501.9 697.5,502.6C697.3,502.7 697.2,502.8 697,502.9C696.7,503.1 696.4,503.1 696.1,502.8C696,502.6 695.8,502.5 695.7,502.3C695.3,501.8 694.8,501.6 694.2,501.8C694,501.9 693.9,501.9 693.7,502C693,502.4 692.2,502.4 691.4,502.2C691.1,502.1 690.8,502.2 690.5,502.3C690.4,502.4 690.2,502.5 690.1,502.5C688.8,502.8 687.7,503.5 686.8,504.4C686.3,504.9 685.9,505.5 685.5,506.1C684.6,507.4 683.9,508.7 683.9,510.3C683.9,511.4 683.4,512 682.8,512.7C682.3,513.3 681.9,513.9 682,514.7C682,515.3 682.1,515.8 682.2,516.4C682.3,516.9 682.3,517.3 682.3,517.8C682.3,518.1 682.3,518.5 682.2,518.8L681.9,520C681.7,520.4 681.6,520.9 681.5,521.3C681.5,521.6 681.3,521.8 681,521.9C680.7,522 680.4,522.2 680.1,522.4C679.2,523.1 678.2,523.6 677.1,523.8C677,523.8 676.9,523.9 676.8,523.9C675.4,524.4 674.1,525 672.7,525.5C672.2,525.7 671.6,525.7 671.1,525.8C670.3,525.9 669.6,525.9 668.9,525.9C668.4,525.9 667.8,525.8 667.3,525.7C665.7,525.3 664,525.3 662.4,525.2C661.5,525.2 660.6,525.1 659.7,525.3C658.3,525.6 657,525.6 655.7,524.9L655.7,525.3L655.6,525.3L654.7,525C654.5,524.9 654.2,525 654,525L653.5,525.5C653.5,525.5 653.6,525.7 653.8,525.9C653.2,525.7 652.7,525.5 652.2,525.4C651,525.1 649.8,524.7 648.6,524.4C647.9,524.2 647.2,523.8 646.7,523.2C646.3,522.8 645.8,522.4 645.5,521.9C645.3,521.6 645.2,521.2 645.2,520.9C645.3,520.1 644.9,519.5 644.5,518.9C644.2,518.3 643.7,517.9 643.3,517.4C643,517.1 642.8,516.8 642.7,516.5C642.2,514.8 641.2,513.4 640.2,512C639.6,511.2 638.8,510.9 637.8,510.9L637.6,510.9C637.5,511.5 636.9,511.2 636.6,511.3C636.3,511.4 636,511.4 636,511.8C636,512.2 635.7,512.4 635.4,512.5C634.8,512.8 635.2,513.2 634.8,513.7C634.6,513.9 634.3,514 634,514C634.2,514.2 634.3,514.5 634.2,514.8C634.1,515 633.8,515.2 633.5,515.2C633.6,515.5 633.7,515.9 633.8,516.2C633.9,516.3 633.9,516.5 633.8,516.7C633.6,517 633.1,516.8 632.8,517C632.7,517.1 633.1,517.4 633.1,517.5C633.2,517.7 633.1,517.8 633.1,518C633.2,518.6 633.8,519.3 634,519.8C634.1,520 634.3,520.1 634.5,520.3C634.7,520.4 634.8,520.7 634.7,520.9C635,521.2 635.2,521.4 635.5,521.6C635.3,521.5 635,521.5 634.8,521.5C635.5,522.2 636.1,523 636.8,523.8C636.6,524.1 636.9,524.2 637.1,524.4C637.3,524.6 637.5,524.8 637.4,525C637.5,525 637.6,525.1 637.7,525.2C637.6,525.2 637.4,525.3 637.3,525.3C637.6,525.5 637.8,525.7 638.1,525.9C638,526 637.8,526 637.7,526.1C637.8,526.3 638,526.4 638.2,526.6L637.6,526.6C637.7,527.1 638.2,527.5 638.7,527.7C638.6,527.8 638.4,527.9 638.3,528C638.6,528.2 639,528.4 639.3,528.7C639,528.9 638.7,529 638.4,529.1C638.9,529.4 639.4,529.7 639.9,529.9C639.6,530 639.3,530.2 639,530.3C639.2,530.4 639.3,530.4 639.5,530.5C639.2,530.6 638.9,530.9 638.7,531.2C639.3,531.2 639.8,531.3 640.3,531.3C640.1,531.3 640.1,531.6 640.2,531.7C640.3,531.8 640.4,531.9 640.6,531.9C641,532 641.4,532 641.8,532C641.8,532.2 642,532.3 642.2,532.3L643.7,532.6L643.7,532.9L645,532.9L645,533.2L646,533.2C646,533.4 646.2,533.5 646.4,533.5C646.7,533.5 647.1,533.5 647.4,533.4C646.9,533.9 647,534.6 646.8,535.3C646.6,536 645.4,536.8 645.3,537.5C645.2,538.1 645.2,538.8 644.9,539.4C644.5,540.2 643.2,540.4 643,541.3C642.8,542 642.1,541.9 641.7,543.2C641.5,543.8 641.7,543.9 641.6,544.7C641.5,545.4 640.2,545.7 640.7,546.6C641.5,548 640.1,547.6 640.4,550.1C640.8,552.9 640.1,553.3 639.7,554.7C639.6,555.2 639.8,555.7 639.7,556.2C639.6,556.6 639.5,556.8 639.5,557.2C639.5,557.5 639.5,557.9 639.4,558.2C639.3,558.9 639.1,559.6 638.8,560.2C638.4,560.9 638.1,561.6 638,562.4C637.9,563 637.7,563.5 637.5,564.1C637.4,564.4 637.4,564.6 637.4,564.8C637.4,565.1 637.3,565.3 637.2,565.6C628.4,565 619.6,564.5 610.8,563.9C609.6,563.8 608.2,563 607.3,562C604.2,558.6 601.3,555 596.4,554.2C595.6,554.1 594.9,553.5 594.3,553C588.3,547.6 581.3,548.6 574.4,550C570.3,550.9 568.8,550.6 566.7,546.9C565.8,545.3 565,544.4 563.1,545.1C562.1,545.5 560.9,545.5 559.8,545.6C557,546 555.1,544.9 554,542C552.5,538.3 550.9,534.5 548.9,531.1C543.6,522 538.2,512.9 532.3,504.1C528.2,498 522.2,494.6 515,494C509.7,493.6 504.4,493.2 499.1,493.1C495.5,493 493,491.3 491.1,488.4C488.9,485.2 487.6,481.6 488,477.6C488.4,473.3 489.1,469.1 489.6,464.9C490.3,459.4 491.5,454 489.5,448.3C487.8,443.6 489.8,439.2 493.7,436.2C496.2,434.4 498.9,432.5 501.8,431.6C509.7,429.2 517.8,427.3 525.9,425.4C533.5,423.6 541.2,422.1 548.8,420.3C551.7,419.6 554.1,418.1 555.5,415C559.4,406.2 565.7,400.4 575.2,398.6C578.1,398.1 580.9,397.5 583.8,397.1C585,397 586.2,397.4 586.9,397.5C586.7,398.9 586.2,400.2 586.6,400.6C588.4,402.6 590.3,404.4 593.4,403.6C594.3,403.4 595.7,403.7 596.3,404.4C598.2,406.4 599.6,409 601.6,410.9C604.9,414 608.5,416.7 612.2,419.7C613.4,418.1 614.2,416.9 615.1,415.7C615.2,416 615.2,416.2 615.3,416.5C616.8,416.2 618.2,416 619.9,415.6C622.9,417.7 623.6,417.3 625.2,412.2C625.7,414.5 626.3,416.8 626.8,419.1C631,418.5 631.7,413 636.2,413.6C635.8,416.6 636,419.5 639.1,421C641.3,419.5 643.3,418 642,414.8C643.1,414.7 644.2,414.9 644.8,414.5C645.5,414.1 645.7,412.9 646.2,412.1C646.6,412.3 647.1,412.5 647.5,412.7C645.7,416.5 644.2,420.2 649.3,422.3C652.5,420.3 651.8,416.9 651.5,413.7C651.8,413.6 652.2,413.6 652.5,413.5C653.4,416 654.3,418.6 655.3,421.5C656.7,420.4 657.6,419.3 658.8,418.8C660.7,418.1 663.2,416.8 664.4,417.5C667,419.1 668.6,419.2 670.2,416.2C669.9,420.2 668.1,424.5 673.6,426.2C674.1,425.5 674.7,424.9 675,424.2C676,421.8 677.6,422.2 679.4,423C680.5,423.5 681.7,423.7 683,424C683.8,426.3 684.8,428.9 685.3,430.3C688.8,430.3 691.3,430.2 693.7,430.3C694.2,430.3 694.8,430.9 695,431.3C696.4,434.2 698.6,435.3 701.8,434.3C699.5,437.3 702.6,439.2 703.2,441.6C703.8,444 706.1,444.3 708.1,442.9C710.9,440.9 711.7,441.3 712,444.8C712.3,447.8 714.3,449.8 716.2,449.1C717.7,448.5 719.3,448 720.1,447.7C721.9,449.3 723.1,450.3 724.3,451.3C723,453.9 725.1,456 726.3,457.6C727.8,459.6 730.3,461 732.9,458.6C734,460.8 733,464.9 737.3,462.9C738.2,465 739,467.3 741.1,465.8C742.5,467 743.6,468.6 744.8,468.8C746.7,469 747.2,470.5 748.2,471.6C749.7,473.1 751.4,474.4 752.9,475.8C753.6,476.5 754.1,477.3 754.7,478C755.3,478.8 755.7,480.1 756.4,480.3C759.2,481.2 762,481.8 765,482.5C764,484.9 764.3,487.4 768,488.8C768.9,487.4 769.9,486 771.2,484.1C771.3,488.7 773.6,491.3 777.6,493.2C779.1,491.2 780.7,489 782.3,486.8C782.9,487.2 783.8,487.7 784.7,488.2C785.6,487.3 786.5,486.5 787.4,485.6C789.7,487 792.1,488.2 794.1,486C796.2,483.6 797.7,480.7 799.5,477.9C797.7,476.7 796.2,475.8 794.1,474.4C798.8,470 803.1,465.9 807.6,461.7ZM374.2,299.2C375.4,299.6 376.8,299.6 377.7,300.4C378.7,301.3 379.2,302.8 380,304C378.7,304.9 377.4,305.8 376,306.8C375.1,305.6 373.9,304.2 373.3,302.6C373,301.7 373.9,300.3 374.2,299.2ZM375.5,349C374.5,351.2 373.6,353.2 370.6,351.2C370.2,350.9 369,351.6 368.1,351.8C367.7,351.8 367.4,351.9 367,351.9C366.6,351.9 366.3,352 365.9,352C366,351.7 366.1,351.3 366.2,351C366.3,350.6 366.4,350.3 366.4,349.9C366.5,348.9 366.9,347.8 366.5,347C365.5,344.6 364.2,344.8 362.9,347.1C361.8,345.7 360.7,344.4 359.2,342.7C357.9,344.6 356.9,346 355.7,347.8C355.8,344.9 356.3,342.1 353.3,340.2C352,342.6 351,344.8 352.9,347.4C353.4,348.1 353.3,349.2 353.5,350.2C350.8,348.4 348.9,346.8 346.7,345.7C344.6,344.7 342.1,343 340.7,346.1C339.3,344.5 338.1,343 336.7,341.7C334.5,339.6 334.1,339.8 332.7,343.8C331.3,341.5 330.3,339.7 329.2,337.9C329.5,337.6 329.7,337.3 330,337C328.1,336.7 326.2,336.5 323.6,336.1C325.6,334.4 327.3,333.7 329.4,334.7C331.6,335.7 333.6,336.4 335.2,333.8C336.9,335.1 338.3,336.3 339.8,337.5C343.9,333.4 344.2,329.9 340.9,324.5C341.7,324.2 342.5,323.9 343.5,323.6C343.4,326.7 345,326.8 346.8,326.6C348.4,327.4 350.2,329.3 351.3,328.9C353,328.3 354.2,326.2 355.4,324.6C356,323.8 356.1,322.5 356.5,321.5C357.4,319.6 358.8,317.5 355,316.4C357.3,313.7 359.4,311.4 361.8,308.6C367.8,313.1 373.4,317.1 378.8,321.3C379.6,321.9 380.2,323.4 380.2,324.4C380,332.9 379,341.2 375.5,349ZM371.2,454C372.6,451.5 373.9,449.3 375.3,446.7C376.6,447 378.6,447.4 380.6,447.8C379.1,450.3 377.6,452.8 375.7,455.8C374.3,455.3 372.6,454.6 371.2,454ZM443.4,422.5C447.1,424.2 449.2,427.1 451.5,429.9C453.4,431.9 453.6,434.4 452.3,436.8C450.8,439.7 449.2,442.6 447.3,445.3C445.1,448.4 444.5,451.7 445.5,455.3C448.4,466.3 449.2,477.6 448.6,489.6C447.5,488.5 446.7,487.7 446,486.8C439.9,479.6 433.9,472.4 427.9,465.1C424.9,461.4 421.1,460.2 416.5,460.2C406.7,460.1 397.1,459.6 386.9,459.3C387.2,457.6 387.6,456 388,453.9C390,455.3 391.3,456.2 393,457.4C394,456.1 395.1,455 395.7,453.7C397.3,450.1 399.2,449.2 402.9,449.8C404.1,450 405.9,449.6 406.6,448.7C408.1,446.9 409.1,444.5 410.3,442.4C411.9,442.3 413.6,442.2 415.2,442.1C415.3,443.4 415.2,444.8 415.4,446.1C415.4,446.5 415.5,446.9 415.7,447.3C416.4,448.9 417.9,450.1 419.1,451.6C420.4,450.6 421.2,450 422.1,449.3C425.1,447 425.2,445.9 423.2,442.6C422.7,441.8 422.6,440.8 422.7,439.7C426.7,442.7 426.7,442.7 430.9,440C431.4,439.7 432.1,439.3 432.5,439.5C436.1,441 438.1,438.5 440.6,436.6C440.1,436 439.7,435.5 439.3,434.9C442,433.5 444.9,432.4 444.2,428.7C444.1,428 441.7,427.9 440,427.4C440,426.9 439.9,425.7 440,424.5C440.2,422.2 440.5,421.2 443.4,422.5ZM393,267.1C390.3,262.2 388,268.5 384.7,267.5C386.1,264.1 387.7,260.9 388.6,257.6C389.9,252.9 395.2,256.4 396.7,253.1C398.8,255.7 401,258.4 403,260.9C402.4,263.2 401.8,265.7 401.3,268C400.2,266.7 399,265 397.5,263.1C395.9,264.6 394.5,265.7 393,267.1ZM652.2,566.9C648.6,566.6 644.9,566.4 641.4,566.1C641.3,565.7 641.3,565.3 641.4,564.9C641.9,562.9 642.9,561.1 644.2,559.4C644.7,558.7 644.6,558 645.5,557.5C645.9,557.3 645.7,556.4 646.1,556.5C647.2,556.7 647.5,555.4 647.7,555.3C648.4,555 648.5,554.4 649.2,554.4C650,554.3 649,554.3 649.9,554.1C651.5,553.8 651.7,554.5 651.9,554.6C652.1,554.7 652.2,555.2 652.2,555.4C652.3,556.1 652.1,556.7 652.2,557.4C652.2,558.1 652.5,558.7 652.4,559.3C652.2,560.2 653.5,561 653.6,561.9C653.7,562.5 653.9,563.1 654.2,563.6C654.6,564.3 654.8,565.1 654.8,565.9C654.8,566.4 654.9,566.8 655.2,567.2L652.2,566.9ZM659.5,564.7C659.3,564.7 659.2,564.6 659.2,564.5C658.4,563 657.7,561.5 657.7,559.8C657.7,558.4 658.2,557.2 659.2,556.3C659.4,556.1 659.7,556 660,555.9C661,555.5 662.1,555.1 663.1,554.6C663.7,554.4 664,553.7 664.7,553.5C665.2,553.4 665,553.2 665.4,553.1C665.6,553.1 665.9,553.2 666,553.1C666.1,553 666.2,552.8 666.4,552.7C666.8,552.4 667.2,553.1 667.7,553.1C667.8,553.1 667.7,552.6 667.9,552.6C668.1,552.5 668,552.9 668.2,552.9C668.3,552.9 668.4,552.5 668.5,552.6C668.7,552.7 668.8,552.9 669,553C669.2,553 669.2,553.3 669.3,553.3C669.4,553.3 669.4,552.9 669.5,552.9C669.7,552.8 669.8,553.4 670,553.4C670.1,553.4 670.1,553.2 670.2,553.2C670.4,553.2 670.4,553.8 670.7,553.8C670.8,553.8 670.8,553.5 670.9,553.5C671.1,553.5 671.1,553.9 671.3,553.9C671.4,553.9 671.5,553.6 671.6,553.6C672.2,553.8 672.5,554.2 673,554.4C673.1,554.4 673.2,554.2 673.3,554.2C673.5,554.2 673.4,554.6 673.6,554.6C674,554.7 674.5,555.5 674.9,555C675,554.9 675.3,555 675.3,555C675.2,555.7 676.7,555.2 677.4,555C675.8,556.1 676.4,558.1 676.7,558.9C677,559.7 676.8,561.4 676.9,561.9C677,562.4 677.5,563.3 677.7,563.9C677.9,564.5 676.9,564.6 677.7,564.9C677.6,565 677.7,567 678.4,567.2C677.2,567.6 679.7,569 679.6,569L679.6,569.5C673.6,568.9 667.5,568.3 661.5,567.8C661.7,567.7 661.7,567.5 661.7,567.3C661.7,566.9 661.6,566.5 661.4,566.2C661,565.7 660.6,565.3 660.2,564.9C660.1,564.8 659.7,564.8 659.5,564.7ZM461.6,412.3C461.3,411.7 461.7,410.7 461.8,410.2C463.7,410 465.4,409.8 467.3,409.6C467,410.7 466.8,412.3 466.2,413.6C465.7,414.6 464.8,415.4 464,416.3C463.1,415 462.2,413.7 461.6,412.3ZM400.1,249.5C399.4,249.7 398.4,248.1 396.9,246.7C398.8,246.9 399.8,247.3 400.7,247.1C403.7,246.4 406,247.6 407.5,250.1C408.8,252.3 410.1,254.1 412.9,253.1C414.3,257.4 414.3,257.3 418.5,256C420.4,255.4 422.4,255.6 424.7,255.4C427.4,259.2 428,259.2 431.9,254.3C432.5,255.3 433.1,256.2 433.3,256.5C432.4,257.8 431.3,258.7 431.2,259.7C431,261.3 428.4,262.6 430.4,264.5C431,265 431.5,265.7 432.1,266.2C434.3,267.7 434.3,267.7 435.3,271.2C434.3,270.1 433.7,269.4 432.9,268.5C432.1,269.1 431.3,269.8 430.3,270.5C430.2,269.1 430,267.8 429.7,265.7C426.1,266.9 422.8,268 419.3,269.1L419.3,260.8C415.8,261 416.4,264.2 414.8,265.9C413.9,264.8 413,263.7 411.9,262.4C415.3,260.3 414,257.8 412.1,255.7C411.4,254.9 409.8,255 407.9,254.4C406.8,251.6 404.8,248.7 400.1,249.5ZM531.7,331.7C530,337.4 536.5,336.7 537.7,341C536.1,340.7 535.1,340.7 534.2,340.4C532,339.8 530.4,340.1 530,342.8C529.6,345.5 527.4,344.3 525.9,344.5C523.8,344.7 521.5,343.9 520.2,346.4C516.2,344.3 514.8,348.4 512,350.2C511.9,348.2 510.4,345.9 514.3,346.2C516.5,346.4 518.7,341.5 518.1,338.4C518.6,338.4 519.1,338.4 519.5,338.5C523.8,339.9 523.7,339.8 526.2,336C527.3,334.4 529.3,333.5 531.7,331.7ZM380.7,303.9C381.2,303.8 381.9,303.7 382.7,303.6C383.2,305.1 383.7,306.5 384.2,308C383.8,308.1 383.5,308.3 383.2,308.5C382.2,307 381.3,305.5 380.3,304C380.4,304 380.6,303.9 380.7,303.9ZM380.1,304C380.2,303.9 380.2,304 380.2,304L380.1,304ZM469,407.1C469.3,405.4 469.6,403.9 469.8,402.5C471.4,403.1 473,403.8 475.2,404.6C472.9,405.5 471.1,406.3 469,407.1ZM581.1,326C585.4,328.1 586.6,332.3 587.5,336.7C587.6,337.1 587,337.7 587,337.7C585.3,337.8 583.7,337.4 582.9,338.1C582.2,338.6 582.4,340.4 582.2,341.5C579,339.4 575.7,341.7 572.3,342.8C571.4,343.1 570.4,343.5 569.5,343.8C569.6,342.9 569.8,341.9 569.8,340.9L569.8,334.2C565.9,335.5 566,338.5 564.9,341C563.6,339.5 562.6,338.3 561.4,336.9C560.4,337.7 559.5,338.4 558.5,339.3C557.7,338.4 556.9,337.5 555.7,336.2C554.4,337.7 553.1,339.1 551.7,340.7C552.3,337.8 552.7,335.2 549.6,333.1C548.7,335.6 547.9,337.7 547.1,339.8C544.2,338.6 541.7,337.6 539.3,336.7C539.5,334.4 539.7,332.5 539.9,330.3C540.9,329.9 542.1,329.4 543.3,328.9C543.3,329.2 543.2,329.4 543.2,329.7C545,330.1 547,331.2 548.7,330.8C550.5,330.4 552,328.7 551.5,326.1C551.4,325.7 552.6,324.9 553.3,324.4C555.4,323 557.6,321.7 557.2,317.5C559.5,320.9 562,319.9 564.5,319.5C566,319.3 567.7,319.6 569.1,320.2C573.2,322 577.2,324 581.1,326ZM599.8,322.4C602.3,322.9 604.4,323.4 606.8,323.9C606.9,324.7 607.1,325.6 607.3,326.4C606.1,327.2 605.2,327.8 604.1,328.6C602.9,326.8 601.5,324.8 599.8,322.4ZM685,569.4C685,568.2 684.5,567.1 684.8,565.9C684.8,565.5 684.7,565 684.7,564.6C684.7,563.1 684.9,561.5 684.9,559.9C684.9,558.9 685.1,558 685.5,557.1C685.7,556.7 685.7,556.2 685.9,555.7C686.1,556.8 687.7,557.3 686.9,558.3C687.5,558.1 686.7,561 687.2,560.6C686.8,561.2 688,562.4 688.2,563C688.4,563.6 689.1,565 689.1,566.5C689,568 692,567.9 691.6,569C691.3,569.7 691.8,570.4 692.2,571C689.8,570.7 687.5,570.5 685.1,570.2L685.1,570.1C685,569.9 685,569.6 685,569.4ZM763,375.3C764.1,374.8 765.8,374 767.5,373.2C767.8,378.4 764.3,375.3 763,375.3ZM763,375.3C762.9,375.4 762.8,375.5 762.6,375.5C762.7,375.4 762.8,375.3 763,375.3ZM466.4,342.5C465.7,342.6 464.6,343 464.1,342.9C461.4,341.2 459.1,340.9 457.8,344.6C456.4,343.5 455.2,342.5 453.5,341.1C452.5,343.3 451.7,345.2 450.9,347.1C450.6,344.1 450.4,341.4 447,339.5C447.4,343.4 445.3,344.6 442.3,345.2C437.9,346.1 439,341.6 436.4,339.3C435.5,341.5 434.7,343.2 434,344.9C433.2,344.2 432,342.6 430.9,342.6C429.9,342.6 428.8,344.2 427.5,345.3C425.9,343.1 424.4,343.5 423.3,345.9C421.4,349.7 421.1,349.8 417.4,347C416.3,348.7 415.1,350.3 413.8,352.2C413,351 412,349.7 411,348.3C409,349.7 407.2,351 405.3,352.3C405,351.1 404.8,350 404.4,349C404.1,348.3 403.1,347.2 403,347.3C400.3,349 399.9,346.2 399,345C394.3,338.6 391.6,331.2 390.7,323.3C389.8,315.9 393.8,310.3 400.4,309.6C400.4,311.9 400.2,314.2 400.4,316.5C400.6,319.9 403.1,320.8 406.1,321.2C405.8,322 405.6,322.5 405.3,323.2C408,324.9 410.7,326.4 413.8,324C414.9,325.3 415.8,326.4 417.2,328.2C418.9,325.8 420.5,323.7 422,321.6C421.8,321.3 421.7,321.1 421.5,320.8L424.3,321.5C420.7,326.6 420.1,330.8 427.3,332.3C429.4,329.7 431.6,327 434,324.1C435,324.8 436,325.5 437.2,326.4C437.9,325.8 438.5,325.2 439.3,324.5C443.5,327.8 447.7,331.2 452.3,334.9C453.2,333.3 454.1,331.7 454.7,330.7C455.7,333.4 456.9,336.5 458.2,340C460.5,338.7 462,337.6 463.6,336.9C463.9,336.7 465,337.4 465.2,337.9C465.7,339.1 465.9,340.4 466.4,342.5ZM404.5,260.5C405.5,259.9 406.2,259.4 406.7,259.1C407.9,260.8 409,262.3 410.4,264.2C410.1,264.5 409.3,265.4 408.2,266.7C406.9,264.5 405.8,262.6 404.5,260.5ZM394.4,556.3C394,558.3 393.4,560.2 392.4,562.1C391.6,563.8 390.6,565 389.5,565.9C388.3,566.8 387.3,567.3 386.3,567.4C385.4,567.5 384.7,567.5 384,567.2C383.4,566.9 383,566.5 382.9,565.8C382.9,565.5 383,565.2 383.1,564.9C383.3,564.4 383.3,564.1 383.3,563.9C383.3,563.5 383.1,563.2 382.8,563C382.5,562.7 382.1,562.6 381.7,562.7C380.6,562.8 380.1,563.6 380.3,564.9C380.5,565.9 381,566.8 382.1,567.4C383.2,568 384.6,568.2 386.5,568C390.3,567.5 393.1,565.7 395.2,562.5C397.2,559.3 398.1,556 397.8,552.7C397.5,550.2 396.6,548.2 395.1,546.9C393.6,545.6 391.7,545 389.4,545.3C387.1,545.6 385.1,546.6 383.6,548.4C382.1,550.2 381.5,552.1 381.7,554.1C381.9,555.8 382.7,557.1 384,558.1C385.3,559.1 386.9,559.4 389,559.2C391,559 392.8,558 394.4,556.3ZM385.1,554.2C384.8,552.2 385.1,550.3 386.1,548.9C386.9,547.3 388.1,546.4 389.7,546.2C391,546 392.2,546.4 393.2,547.3C394.2,548.2 394.7,549.5 394.9,551.1C395.1,553 394.7,554.6 393.6,555.9C392.5,557.2 391.2,557.9 389.7,558.1C388.7,558.2 387.7,557.9 386.8,557.3C385.8,556.6 385.3,555.6 385.1,554.2ZM431.8,554.2C434.1,546.3 435.3,542.2 435,541.6C435,541.4 434.8,541.3 434.4,541.3C433.9,541.4 433.5,541.4 433.4,541.5C431.9,542.6 431.2,543.2 429.8,544.4C427.6,546.3 425.1,548.6 422.3,551.3C420.4,553.2 419,554.4 418.8,554.7C418.7,555 418.6,555.4 418.6,555.6C422.4,555.4 424.3,555.3 428.2,555.1L428.6,555.1C428.5,555.4 428.2,556.2 427.9,557.6C427.4,559.6 427.1,560.9 426.9,561.3C426.7,561.7 426.4,562 426.1,562.3C425.8,562.6 425.3,562.7 424.7,562.8C424,562.9 423.7,563.1 423.7,563.3C423.7,563.5 424.1,563.6 424.9,563.6C425.1,563.6 425.7,563.5 426.9,563.4C427.5,563.4 428.1,563.3 428.7,563.3L432.4,563.3C433,563.3 433.2,563.1 433.2,562.9C433.2,562.6 432.9,562.5 432.3,562.5C431.4,562.5 430.8,562.3 430.5,561.9C430.2,561.5 430,561.1 430,560.7C430,560.2 430.1,559.7 430.3,559L431.3,555L433.1,555C433.6,555 434,555.1 434.3,555.2C434.6,555.4 434.8,555.6 435,555.9C435.2,556.3 435.3,556.6 435.3,557.1C435.3,557.5 435.3,557.8 435.2,558.1L435.2,558.4C435.3,558.7 435.4,558.8 435.6,558.8C435.7,558.7 435.9,558.6 436,558.4C436.6,556.2 437,555.1 437.6,552.8C437.8,552.3 437.9,551.9 437.9,551.6C437.9,551.3 437.8,551.2 437.5,551.2C437.3,551.2 437.2,551.4 437.1,551.7C437,552.3 436.8,552.8 436.3,553.3C435.9,553.8 435.3,554.1 434.6,554.1C433.5,554.1 432.9,554.1 431.8,554.2ZM420.3,554.9C426.1,549.1 430.1,545.7 431.8,544.4C431.7,544.7 431.4,546 430.7,548.5C430,550.9 429.7,552.1 429.1,554.4C426.6,554.5 425.4,554.6 422.9,554.7C422.4,554.8 421.5,554.8 420.3,554.9ZM994.4,869.4L994.4,609.9C994.4,607.2 992.1,604.9 989.4,604.9L36.9,604.9C34.1,604.9 31.9,607.1 31.9,609.9L31.9,869.4C31.9,872.2 34.1,874.4 36.9,874.4L989.4,874.4C992.1,874.4 994.4,872.1 994.4,869.4Z" style="fill:rgb(33,87,43);"/>
    </g>
    <g id="Text" transform="matrix(1,0,0,1,0,-80)">
        <g>
            <path d="M54,796.4L62.1,796.6L74.5,796.4C76,796.4 76.7,796.7 76.7,797.3C76.7,797.7 76.3,798 75.5,798.1C72.2,798.5 70.2,799.7 69.3,801.7C68.5,803.7 68.1,810.9 68.1,823.4C68.1,828 68.2,833.2 68.5,838.9C68.7,844.7 69,848.1 69.3,849.2C69.6,850.3 70.2,851.2 71,852C71.8,852.7 73.4,853.2 75.6,853.5C76.3,853.6 76.7,853.9 76.7,854.3C76.7,854.8 76.4,855.1 75.7,855.1L64.7,855L55.3,855.1C54.3,855.1 53.7,854.8 53.7,854.2C53.7,853.6 54.1,853.3 54.9,853.3C57.7,853.2 59.3,852.3 59.7,850.5C60.2,848.7 60.4,843 60.4,833.5C60.4,824.3 60.3,816.8 60.2,811C60,805.3 59.6,801.8 58.8,800.5C58,799.2 56.5,798.4 54.3,798.1C53.5,798 53.1,797.6 53.1,797.1C53.1,796.7 53.4,796.4 54,796.4Z" style="fill:rgb(33,87,43);fill-rule:nonzero;"/>
            <path d="M98.3,797.2C100.1,799.6 103.2,803.3 107.5,808.4L121.7,824.9L135.4,840.7C135.7,835.3 135.8,828.4 135.8,819.8C135.8,813.4 135.7,809.1 135.4,806.9C135.1,804.7 134.1,802.9 132.4,801.4C130.7,799.9 128.6,799.2 126,799.2C124.8,799.2 124.2,798.9 124.2,798.4C124.2,798.1 124.3,797.9 124.6,797.8C124.9,797.7 126.8,797.5 130.6,797.4C134.3,797.3 137.5,797.2 140,797.2L147,797.2C147.9,797.2 148.4,797.5 148.4,798C148.4,798.5 148,798.7 147.2,798.8C144.2,799.1 142.1,799.9 140.7,801.1C139.4,802.3 138.6,804.1 138.3,806.4C138,808.7 137.9,816.5 137.9,829.8L137.5,853.3C137.5,854.5 137.2,855.1 136.6,855.1C136.4,855.1 136.2,855 136,854.9C135.7,854.8 134.4,853.3 132,850.4C129.6,847.5 126.6,844.1 123.1,840.1C119.6,836.1 116.8,832.9 114.8,830.4C110.4,825 107.6,821.7 106.4,820.5C102.1,815.9 99.6,813 98.8,811.7C98.3,810.8 97.8,810.4 97.4,810.4C97.1,810.4 96.9,811 96.9,812.1L97,819C97,827.7 97.2,834.7 97.7,839.9C98.2,845.1 98.7,848.2 99.2,849.1C99.7,850 100.6,850.9 101.9,851.8C103.2,852.7 104.6,853.2 106,853.2C108,853.2 108.9,853.6 108.9,854.3C108.9,854.8 108.4,855.1 107.3,855.1L85.9,855.1C84.9,855.1 84.4,854.8 84.4,854.3C84.4,853.7 84.9,853.4 85.9,853.4C89.5,853.4 92,852.6 93.2,851C94.4,849.4 95,846 95,840.7L95,825C95,815.8 94.8,810.4 94.3,808.7C93.8,807.1 92.7,805.1 90.9,802.7C89.1,800.3 87.1,799 84.9,798.7C83.9,798.6 83.4,798.3 83.4,797.9C83.4,797.3 84.1,797.1 85.4,797.1L98.3,797.2Z" style="fill:rgb(33,87,43);fill-rule:nonzero;"/>
            <path d="M185.6,800C186.4,799.2 186.9,798.4 187.2,797.5C187.4,796.8 187.8,796.4 188.2,796.4C188.4,796.4 188.7,796.5 189,796.8C189.2,797.9 189.5,800 189.9,803.2L191,811.6C191,812.1 190.7,812.4 190,812.4C189.6,812.4 189.3,812.1 189.1,811.5C187.5,807.6 185.2,804.4 182.1,801.8C179,799.3 175.7,798 172,798C168.4,798 165.7,799.1 163.9,801.2C162.1,803.4 161.2,805.7 161.2,808.1C161.2,811.1 162.2,813.3 164.2,814.9C166.2,816.5 170.3,818.2 176.5,820.2C181.1,821.6 184.5,823 186.7,824.3C189,825.6 190.9,827.5 192.4,829.9C193.9,832.3 194.7,834.9 194.7,837.6C194.7,842.3 192.8,846.5 188.9,850.2C185,853.9 180.3,855.8 174.6,855.8C169.5,855.8 164.4,854.2 159.3,851C158.3,851.8 157.6,852.8 157.3,853.9C157.1,854.8 156.7,855.3 156.1,855.3C155.6,855.3 155.3,854.7 155.1,853.5C154.9,852.3 154.5,846.5 153.8,836.3C153.9,835.9 154.2,835.8 154.7,835.8C155.1,835.8 155.5,836.1 155.8,836.8C160.4,848.3 166.7,854 174.9,854C179,854 182.1,852.8 184.4,850.3C186.7,847.9 187.8,845 187.8,841.9C187.8,839.7 187.2,837.7 186,835.9C184.8,834.1 183.1,832.6 181.1,831.5C179.1,830.4 175.9,829.1 171.5,827.7C165.9,825.9 162,824.2 160,822.6C158,821 156.5,819.2 155.5,817.1C154.6,815.1 154.1,813.1 154.1,811.2C154.1,807.3 155.9,803.8 159.5,800.7C163.1,797.6 167.4,796.1 172.6,796.1C174.6,796.1 176.6,796.4 178.8,797C181,797.8 183.3,798.7 185.6,800Z" style="fill:rgb(33,87,43);fill-rule:nonzero;"/>
            <path d="M202.4,796.9L224.7,796.9C226,796.9 226.6,797.2 226.6,797.7C226.6,798.2 226.1,798.5 225.2,798.6C223.1,798.8 221.5,799.4 220.5,800.3C219.5,801.2 218.7,802.9 218.2,805.3C217.7,807.7 217.4,812.8 217.4,820.7C217.4,830.2 217.7,836.7 218.2,840.3C218.7,843.9 220.5,846.8 223.4,849C226.3,851.2 230.2,852.2 235.2,852.2C240.4,852.2 244.4,851.2 247.1,849.2C249.8,847.2 251.6,844.3 252.4,840.4C253.2,836.5 253.6,828 253.6,814.9C253.6,808.2 252.9,803.8 251.5,801.7C250.1,799.6 248,798.6 245.3,798.6C244.2,798.6 243.7,798.3 243.7,797.7C243.7,797.1 244.4,796.8 245.9,796.8L263.7,796.8C264.5,796.8 264.9,797.1 264.9,797.7C264.9,798.1 264.6,798.4 263.9,798.5C261.6,798.8 260,799.5 258.9,800.6C257.8,801.7 257.2,803.7 256.8,806.6C256.5,809.5 256.3,813.7 256.3,819.3C256.3,826.3 256,832.2 255.5,837C255,841.9 253.9,845.5 252.1,847.9C250.4,850.3 247.8,852.2 244.3,853.7C240.8,855.2 236.6,855.9 231.6,855.9C226.4,855.9 222,855.1 218.4,853.4C214.8,851.8 212.3,849.6 211,846.9C209.7,844.2 209.1,840.1 209.1,834.7L209.3,822.4C209.3,811.5 208.8,804.8 207.9,802.3C207,799.9 205,798.6 201.9,798.5C200.9,798.5 200.4,798.3 200.4,797.8C200.5,797.2 201.2,796.9 202.4,796.9Z" style="fill:rgb(33,87,43);fill-rule:nonzero;"/>
            <path d="M303.9,825.2C308,827 310.9,828.8 312.5,830.8C314.1,832.7 315.3,835.8 316.1,839.8C317.1,845.1 318.5,848.7 320.3,850.6C322.1,852.4 324.4,853.4 327.3,853.5C328.1,853.6 328.5,853.8 328.5,854.4C328.5,855 328,855.2 327.1,855.2C318.8,855.2 313.8,854.9 312,854.4C310.2,853.9 308.9,850.8 308.1,845.3C307.3,839.9 306.5,836 305.6,833.5C304.7,831 303.3,829.1 301.4,827.8C299.5,826.5 296.5,825.8 292.4,825.8C290.9,825.8 289.1,826 287.2,826.3C287.1,828.2 287,830.1 287,832.1C287,839.7 287.1,844.6 287.3,846.9C287.5,849.1 288.1,850.8 289.2,851.8C290.3,852.8 292,853.4 294.5,853.4C295.6,853.4 296.1,853.7 296.1,854.2C296.1,854.8 295.4,855.1 294.1,855.1L272.1,855.1C270.8,855.1 270.2,854.8 270.2,854.2C270.2,853.7 270.7,853.4 271.7,853.4C274,853.4 275.5,853.1 276.4,852.4C277.3,851.7 278,850.7 278.5,849.2C279,847.8 279.3,845.2 279.3,841.4L279.2,832.3L279.2,818.5C279.2,811.5 279,806.8 278.7,804.5C278.4,802.2 277.8,800.7 277,799.9C276.2,799.1 274.3,798.5 271.4,798.1C270.8,798 270.5,797.8 270.5,797.3C270.5,796.8 271.1,796.6 272.4,796.6L298.7,796C306,796 311.2,797.4 314.5,800.2C317.8,803 319.4,806.4 319.4,810.4C319.4,812.9 318.7,815.3 317.4,817.4C316.1,819.5 314.5,821 312.7,822C310.8,822.9 307.9,824 303.9,825.2ZM287,824.1C292.7,824 297,823.6 299.8,822.9C302.6,822.2 305.1,820.7 307.1,818.4C309.1,816.1 310.1,813.3 310.1,810.2C310.1,806.9 309,803.9 306.8,801.4C304.6,798.9 301,797.7 296.1,797.7C293.4,797.7 290.5,798.1 287.3,798.8C286.9,807 286.8,813.4 286.8,818.3C286.7,819.9 286.8,821.8 287,824.1Z" style="fill:rgb(33,87,43);fill-rule:nonzero;"/>
            <path d="M357.8,795.7L359.9,795.7C363.2,802.5 367.8,814.1 373.6,830.5C377.4,841 379.9,847.5 381.3,849.9C382.7,852.3 384.9,853.6 388,853.9C389,854 389.5,854.3 389.5,854.9C389.5,855.3 389.2,855.5 388.7,855.5L388.1,855.5C385.4,855.3 381.9,855.1 377.7,855.1C371.2,855.1 367.1,855.2 365.3,855.4C364.4,855.4 363.9,855.1 363.9,854.6C363.9,854.2 364.2,854 364.9,853.9C367.4,853.7 369.2,853.2 370.1,852.6C371.1,852 371.5,851 371.5,849.7C371.5,848.4 370.6,845.2 368.8,840.1L366.2,832.5C364.7,832.5 357.8,832.6 345.5,832.8C342.4,841 340.9,846.2 340.9,848.3C340.9,850.1 341.7,851.5 343.2,852.3C344.7,853.2 346.2,853.7 347.7,853.8C348.8,853.9 349.3,854.2 349.3,854.8C349.3,855 349.1,855.2 348.8,855.4C344.1,855.2 341.2,855.1 340.2,855.1C335.2,855.1 331.9,855.2 330.2,855.3C329.3,855.3 328.8,855 328.8,854.5C328.8,854 329.2,853.7 330,853.6C333.4,853.2 336,850.8 337.8,846.7C339.6,842.5 342.4,835 346.3,824.2C349.9,814.2 353.7,804.7 357.8,795.7ZM356.1,805.4C353.3,811 350.1,819.2 346.4,829.9C349.5,829.8 351.6,829.7 353,829.7L365.5,829.9C364.4,826.8 362.9,822.7 360.9,817.6C358.4,811.6 356.8,807.5 356.1,805.4Z" style="fill:rgb(33,87,43);fill-rule:nonzero;"/>
            <path d="M407.5,797.2C409.3,799.6 412.4,803.3 416.7,808.4L430.9,824.9L444.6,840.7C444.9,835.3 445,828.4 445,819.8C445,813.4 444.9,809.1 444.6,806.9C444.3,804.7 443.3,802.9 441.6,801.4C439.9,799.9 437.8,799.2 435.2,799.2C434,799.2 433.4,798.9 433.4,798.4C433.4,798.1 433.5,797.9 433.8,797.8C434.1,797.7 436,797.5 439.8,797.4C443.5,797.3 446.7,797.2 449.2,797.2L456.2,797.2C457.1,797.2 457.6,797.5 457.6,798C457.6,798.5 457.2,798.7 456.4,798.8C453.4,799.1 451.3,799.9 449.9,801.1C448.6,802.3 447.8,804.1 447.5,806.4C447.2,808.7 447.1,816.5 447.1,829.8L446.7,853.3C446.7,854.5 446.4,855.1 445.8,855.1C445.6,855.1 445.4,855 445.2,854.9C444.9,854.8 443.6,853.3 441.2,850.4C438.8,847.5 435.8,844.1 432.3,840.1C428.8,836.1 426,832.9 424,830.4C419.6,825 416.8,821.7 415.6,820.5C411.3,815.9 408.8,813 408,811.7C407.5,810.8 407,810.4 406.6,810.4C406.3,810.4 406.1,811 406.1,812.1L406.2,819C406.2,827.7 406.4,834.7 406.9,839.9C407.4,845.1 407.9,848.2 408.4,849.1C408.9,850 409.8,850.9 411.1,851.8C412.4,852.7 413.8,853.2 415.2,853.2C417.2,853.2 418.1,853.6 418.1,854.3C418.1,854.8 417.6,855.1 416.5,855.1L395.1,855.1C394.1,855.1 393.6,854.8 393.6,854.3C393.6,853.7 394.1,853.4 395.1,853.4C398.7,853.4 401.2,852.6 402.4,851C403.6,849.4 404.2,846 404.2,840.7L403.8,825.1C403.8,815.9 403.6,810.5 403.1,808.8C402.6,807.2 401.5,805.2 399.7,802.8C397.9,800.4 395.9,799.1 393.7,798.8C392.7,798.7 392.2,798.4 392.2,798C392.2,797.4 392.9,797.2 394.2,797.2L407.5,797.2Z" style="fill:rgb(33,87,43);fill-rule:nonzero;"/>
            <path d="M509,800.5C510.6,799 511.6,798.1 511.8,797.6C512.1,796.9 512.5,796.5 513.1,796.5C513.7,796.5 514,797 514.1,798.1L515.1,813.6C515.1,814.5 515.1,815 515,815.2C514.9,815.4 514.7,815.5 514.4,815.5C513.9,815.5 513.4,814.9 512.9,813.6C510.9,808.9 508.2,805 504.7,802C501.2,799 497.3,797.5 493.2,797.5C489.6,797.5 486.3,798.7 483.2,801C480.2,803.3 477.8,806.6 476.2,811C474.5,815.3 473.7,819.9 473.7,824.9C473.7,833.3 476,840.2 480.7,845.4C485.3,850.7 490.5,853.3 496.2,853.3C500.1,853.3 503.7,852.1 506.9,849.6C510.2,847.1 512.6,844.3 514.3,841.1C514.7,840.2 515.2,839.8 515.7,839.8C516.4,839.8 516.7,840.2 516.7,840.9C516.7,841.8 515.6,843.6 513.3,846.5C511,849.4 508.1,851.8 504.4,853.6C500.7,855.4 496.8,856.3 492.6,856.3C487.6,856.3 482.9,855 478.5,852.5C474,850 470.5,846.5 467.9,842.1C465.3,837.7 464,832.4 464,826.5C464,820.6 465.3,815.3 467.8,810.6C470.3,805.9 473.9,802.2 478.5,799.6C483.1,797 487.8,795.7 492.7,795.7C495.3,795.7 498,796.1 500.7,796.9C503.3,797.6 506.1,798.9 509,800.5Z" style="fill:rgb(33,87,43);fill-rule:nonzero;"/>
            <path d="M569,797.4C569.9,800.7 570.7,805.4 571.5,811.4C571.4,811.6 571.2,811.8 571,811.8C570.8,811.8 570.6,811.7 570.3,811.4C568.3,808.1 566.3,805.6 564.4,803.9C562.5,802.2 560.7,801 558.8,800.2C556.9,799.4 553.7,799.1 549.1,799.1C544.8,799.1 541.3,799.4 538.8,799.9C538.6,800.2 538.4,800.7 538.4,801.5C538.4,801.7 538.4,802.1 538.3,802.6C538,805 537.9,811.4 537.9,821.9C537.9,822.3 537.9,823 538,823.8C540.3,823.9 541.8,823.9 542.6,823.9C546.3,823.9 549,823.3 550.7,822.2C552.4,821.1 553.8,818.7 555.1,815C555.3,814.4 555.6,814.1 556,814.1C556.6,814.1 556.8,814.5 556.8,815.4L556.6,817.2C556.4,819.5 556.2,822 556.2,824.5C556.2,828.5 556.3,832.2 556.4,835.4C556.4,836.4 556.1,836.9 555.6,836.9C555.2,836.9 554.9,836.5 554.8,835.8C554.2,832.3 552.9,829.8 550.9,828.2C548.9,826.6 544.6,825.9 537.9,825.9C537.8,828.1 537.8,831.6 537.8,836.4C537.8,842.7 538,846.6 538.5,848.3C538.9,850 540,851.3 541.7,852.3C543.4,853.3 546.3,853.8 550.3,853.8C561.8,853.8 569.3,849.8 572.6,841.9C573,840.9 573.4,840.4 573.9,840.4C574.4,840.4 574.6,840.7 574.6,841.4C574.6,841.8 574.5,842.1 574.4,842.6C574.2,843.2 573.8,845.3 573.1,848.9C573,849.7 572.4,852 571.4,855.8L552.8,855.8C550.1,855.8 546.2,855.7 541,855.5C535.8,855.3 531.2,855.2 527.3,855.1C523.3,855.1 521.2,855 521.1,854.9C520.9,854.8 520.8,854.6 520.8,854.4C520.8,853.8 521.3,853.5 522.3,853.5C525.6,853.5 527.8,852.6 528.8,850.9C529.8,849.2 530.4,844.9 530.4,838.2L530.4,829.1L530.5,820.6C530.5,818.9 530.4,815.6 530.2,810.8C530,806 529.8,803.3 529.7,802.6C529.5,801.9 529.1,801.2 528.3,800.6C527.5,799.9 525.9,799.3 523.3,798.6C522.5,798.4 522.1,798.1 522.1,797.6C522.1,797.1 522.6,796.8 523.7,796.8L532.8,797.3C536,797.4 543.9,797.5 556.4,797.5C564.6,797.3 568.9,797.4 569,797.4Z" style="fill:rgb(33,87,43);fill-rule:nonzero;"/>
            <path d="M630,795.7L632.1,795.7C635.4,802.5 640,814.1 645.8,830.5C649.6,841 652.1,847.5 653.5,849.9C654.9,852.3 657.1,853.6 660.2,853.9C661.2,854 661.7,854.3 661.7,854.9C661.7,855.3 661.4,855.5 660.9,855.5L660.3,855.5C657.6,855.3 654.1,855.1 649.9,855.1C643.4,855.1 639.3,855.2 637.5,855.4C636.6,855.4 636.1,855.1 636.1,854.6C636.1,854.2 636.4,854 637.1,853.9C639.6,853.7 641.4,853.2 642.3,852.6C643.3,852 643.7,851 643.7,849.7C643.7,848.4 642.8,845.2 641,840.1L638.4,832.5C636.9,832.5 630,832.6 617.7,832.8C614.6,841 613.1,846.2 613.1,848.3C613.1,850.1 613.9,851.5 615.4,852.3C616.9,853.1 618.4,853.7 619.9,853.8C621,853.9 621.5,854.2 621.5,854.8C621.5,855 621.3,855.2 621,855.4C616.3,855.2 613.4,855.1 612.4,855.1C607.4,855.1 604.1,855.2 602.4,855.3C601.5,855.3 601,855 601,854.5C601,854 601.4,853.7 602.2,853.6C605.6,853.2 608.2,850.8 610,846.7C611.8,842.5 614.6,835 618.5,824.2C622.1,814.2 625.9,804.7 630,795.7ZM628.3,805.4C625.5,811 622.3,819.2 618.6,829.9C621.7,829.8 623.8,829.7 625.2,829.7L637.7,829.9C636.6,826.8 635.1,822.7 633.1,817.6C630.6,811.6 629,807.5 628.3,805.4Z" style="fill:rgb(33,87,43);fill-rule:nonzero;"/>
            <path d="M721.2,815.5C720.8,815.5 720.4,815 720,814.1C717.6,808.8 714.4,804.6 710.4,801.7C706.4,798.8 702.2,797.3 697.7,797.3C694,797.3 690.4,798.4 686.9,800.7C683.4,802.9 680.6,806.4 678.4,811.1C676.2,815.8 675.1,820.7 675.1,826C675.1,833.5 677.4,840 681.9,845.5C686.4,851 692,853.7 698.8,853.7C701.2,853.7 703.2,853.3 704.9,852.6C706.6,851.9 708.2,850.8 709.7,849.4C711.2,848 712.1,847 712.4,846.3C712.7,845.6 712.9,843.8 712.9,840.9C712.9,836 712.3,832.8 711,831.3C709.7,829.8 707.6,829 704.8,829L703.4,829C702.5,829 702.1,828.7 702.1,828.2C702.1,827.5 702.6,827.2 703.5,827.2L705.9,827.3L715.9,827.2L728.2,826.9C728.9,826.9 729.2,827.2 729.2,827.8C729.2,828.4 728.8,828.8 728,828.8C726.2,829 724.7,829.4 723.5,830C722.3,830.6 721.6,831.3 721.4,832.1C721.1,832.9 721,834.2 721,836.1C721,843 720.8,846.8 720.5,847.5C720.2,848.2 717.4,849.7 712.2,852.2C707,854.6 701.8,855.8 696.6,855.8C687.9,855.8 680.5,853 674.3,847.4C668.1,841.8 665.1,834.8 665.1,826.2C665.1,820.3 666.6,815 669.5,810.3C672.4,805.5 676.4,801.9 681.5,799.2C686.6,796.6 691.7,795.3 697,795.3C701.9,795.3 707.2,796.7 712.9,799.5C714.5,800.3 715.6,800.7 716.3,800.7C717.2,800.7 717.9,800.3 718.4,799.5C718.8,798.8 719.2,798.5 719.6,798.5C720.3,798.5 720.7,799.4 720.8,801.1C721,803.8 721.4,807.9 722.1,813.5C722.2,813.8 722.2,814.1 722.2,814.3C722.1,815.2 721.8,815.5 721.2,815.5Z" style="fill:rgb(33,87,43);fill-rule:nonzero;"/>
            <path d="M782,797.4C782.9,800.7 783.7,805.4 784.5,811.4C784.4,811.6 784.2,811.8 784,811.8C783.8,811.8 783.6,811.7 783.3,811.4C781.3,808.1 779.3,805.6 777.4,803.9C775.5,802.2 773.7,801 771.8,800.2C769.9,799.4 766.7,799.1 762.1,799.1C757.8,799.1 754.3,799.4 751.8,799.9C751.6,800.2 751.4,800.7 751.4,801.5C751.4,801.7 751.4,802.1 751.3,802.6C751,805 750.9,811.4 750.9,821.9C750.9,822.3 750.9,823 751,823.8C753.3,823.9 754.8,823.9 755.6,823.9C759.3,823.9 762,823.3 763.7,822.2C765.4,821.1 766.8,818.7 768.1,815C768.3,814.4 768.6,814.1 769,814.1C769.6,814.1 769.8,814.5 769.8,815.4L769.6,817.2C769.4,819.5 769.2,822 769.2,824.5C769.2,828.5 769.3,832.2 769.4,835.4C769.4,836.4 769.1,836.9 768.6,836.9C768.2,836.9 767.9,836.5 767.8,835.8C767.2,832.3 765.9,829.8 763.9,828.2C761.9,826.6 757.6,825.9 750.9,825.9C750.8,828.1 750.8,831.6 750.8,836.4C750.8,842.7 751,846.6 751.5,848.3C751.9,850 753,851.3 754.7,852.3C756.4,853.3 759.3,853.8 763.3,853.8C774.8,853.8 782.3,849.8 785.6,841.9C786,840.9 786.4,840.4 786.9,840.4C787.4,840.4 787.6,840.7 787.6,841.4C787.6,841.8 787.5,842.1 787.4,842.6C787.2,843.2 786.8,845.3 786.1,848.9C786,849.7 785.4,852 784.4,855.8L765.8,855.8C763.1,855.8 759.2,855.7 754,855.5C748.8,855.3 744.2,855.2 740.3,855.1C736.3,855.1 734.2,855 734.1,854.9C733.9,854.8 733.8,854.6 733.8,854.4C733.8,853.8 734.3,853.5 735.3,853.5C738.6,853.5 740.8,852.6 741.8,850.9C742.8,849.2 743.4,844.9 743.4,838.2L743.4,829.1L743.5,820.6C743.5,818.9 743.4,815.6 743.2,810.8C743,806 742.8,803.3 742.7,802.6C742.5,801.9 742.1,801.2 741.3,800.6C740.5,799.9 738.9,799.3 736.3,798.6C735.5,798.4 735.1,798.1 735.1,797.6C735.1,797.1 735.6,796.8 736.7,796.8L745.8,797.3C749,797.4 756.9,797.5 769.4,797.5C777.6,797.3 781.8,797.4 782,797.4Z" style="fill:rgb(33,87,43);fill-rule:nonzero;"/>
            <path d="M807.3,797.2C809.1,799.6 812.2,803.3 816.5,808.4L830.7,824.9L844.4,840.7C844.7,835.3 844.8,828.4 844.8,819.8C844.8,813.4 844.7,809.1 844.4,806.9C844.1,804.7 843.1,802.9 841.4,801.4C839.7,799.9 837.6,799.2 835,799.2C833.8,799.2 833.2,798.9 833.2,798.4C833.2,798.1 833.3,797.9 833.6,797.8C833.9,797.7 835.8,797.5 839.6,797.4C843.3,797.3 846.5,797.2 849,797.2L856,797.2C856.9,797.2 857.4,797.5 857.4,798C857.4,798.5 857,798.7 856.2,798.8C853.2,799.1 851.1,799.9 849.7,801.1C848.4,802.3 847.6,804.1 847.3,806.4C847,808.7 846.9,816.5 846.9,829.8L846.5,853.3C846.5,854.5 846.2,855.1 845.6,855.1C845.4,855.1 845.2,855 845,854.9C844.7,854.8 843.4,853.3 841,850.4C838.6,847.5 835.6,844.1 832.1,840.1C828.6,836.1 825.8,832.9 823.8,830.4C819.4,825 816.6,821.7 815.4,820.5C811.1,815.9 808.6,813 807.8,811.7C807.3,810.8 806.8,810.4 806.4,810.4C806.1,810.4 805.9,811 805.9,812.1L806,819C806,827.7 806.2,834.7 806.7,839.9C807.2,845.1 807.7,848.2 808.2,849.1C808.7,850 809.6,850.9 810.9,851.8C812.2,852.7 813.6,853.2 815,853.2C817,853.2 817.9,853.6 817.9,854.3C817.9,854.8 817.4,855.1 816.3,855.1L794.9,855.1C793.9,855.1 793.4,854.8 793.4,854.3C793.4,853.7 793.9,853.4 794.9,853.4C798.5,853.4 801,852.6 802.2,851C803.4,849.4 804,846 804,840.7L803.6,825.1C803.6,815.9 803.4,810.5 802.9,808.8C802.4,807.2 801.3,805.2 799.5,802.8C797.7,800.4 795.7,799.1 793.5,798.8C792.5,798.7 792,798.4 792,798C792,797.4 792.7,797.2 794,797.2L807.3,797.2Z" style="fill:rgb(33,87,43);fill-rule:nonzero;"/>
            <path d="M908.7,800.5C910.3,799 911.3,798.1 911.5,797.6C911.8,796.9 912.2,796.5 912.8,796.5C913.4,796.5 913.7,797 913.8,798.1L914.8,813.6C914.8,814.5 914.8,815 914.7,815.2C914.6,815.4 914.4,815.5 914.1,815.5C913.6,815.5 913.1,814.9 912.6,813.6C910.6,808.9 907.9,805 904.4,802C900.9,799 897,797.5 892.9,797.5C889.3,797.5 886,798.7 882.9,801C879.9,803.3 877.5,806.6 875.9,811C874.2,815.3 873.4,819.9 873.4,824.9C873.4,833.3 875.7,840.2 880.4,845.4C885,850.7 890.2,853.3 895.9,853.3C899.8,853.3 903.4,852.1 906.6,849.6C909.9,847.1 912.3,844.3 914,841.1C914.4,840.2 914.9,839.8 915.4,839.8C916.1,839.8 916.4,840.2 916.4,840.9C916.4,841.8 915.3,843.6 913,846.5C910.7,849.4 907.8,851.8 904.1,853.6C900.4,855.4 896.5,856.3 892.3,856.3C887.3,856.3 882.6,855 878.2,852.5C873.7,850 870.2,846.5 867.6,842.1C865,837.7 863.7,832.4 863.7,826.5C863.7,820.6 865,815.3 867.5,810.6C870,805.9 873.6,802.2 878.2,799.6C882.8,797 887.5,795.7 892.4,795.7C895,795.7 897.7,796.1 900.4,796.9C903.1,797.6 905.9,798.9 908.7,800.5Z" style="fill:rgb(33,87,43);fill-rule:nonzero;"/>
            <path d="M952.5,824.6C954.2,822.8 956.7,819.4 960.1,814.6C963.5,809.8 965.5,806.8 966.1,805.6C966.7,804.4 967,803.5 967,802.8C967,801.6 966.4,800.6 965.2,799.9C964,799.2 962.7,798.8 961.4,798.8C960.4,798.8 959.9,798.5 959.9,798C959.9,797.4 960.7,797.2 962.4,797.2L979.2,797.2C980.7,797.2 981.5,797.5 981.5,798.1C981.5,798.6 981.2,798.9 980.5,798.9C978.8,798.9 977.1,799.3 975.5,800.1C973.9,800.9 971.9,802.7 969.6,805.5L961.9,815.9C957.8,821.4 955.6,824.6 955.3,825.5C954.8,826.9 954.6,830.6 954.6,836.6C954.6,844.5 954.9,849.3 955.6,850.7C956.3,852.2 958.4,853.1 962.1,853.4C963,853.5 963.5,853.8 963.5,854.3C963.5,854.9 963,855.2 961.9,855.2L949.9,854.9C947,854.9 944.7,855 942.8,855.1C941.3,855.2 940.4,855.3 939.9,855.3C938.8,855.3 938.2,855 938.2,854.4C938.2,853.9 938.6,853.7 939.5,853.6C942.4,853.5 944.3,852.4 945.2,850.4C946.2,848.4 946.6,845.4 946.6,841.5C946.6,837.2 946.3,833.7 945.8,831C945.7,830.3 944.4,827.9 942,823.7C939.6,819.5 936.6,814.9 933.1,809.9C929.6,804.9 927.1,801.8 925.6,800.7C924.1,799.6 922.6,799 921.2,798.9C920.1,798.8 919.6,798.5 919.6,798C919.6,797.7 919.7,797.5 920,797.4C920.3,797.3 921.1,797.2 922.5,797.2L941.9,797.2C943.2,797.2 944,797.2 944.3,797.3C944.6,797.4 944.7,797.6 944.7,798C944.7,798.5 944.3,798.7 943.6,798.8C939.9,799.1 938,800.2 938,802.2C938,803.2 938.7,804.8 940,807C941.4,809.2 945.6,815.1 952.5,824.6Z" style="fill:rgb(33,87,43);fill-rule:nonzero;"/>
        </g>
        <g>
            <path d="M160.1,642.5C164.1,639 166.4,636.6 166.9,635.3C167.6,633.6 168.7,632.7 170,632.7C171.4,632.7 172.2,634 172.4,636.6L174.8,674.5C174.8,676.7 174.7,678 174.5,678.5C174.3,679 173.8,679.2 172.9,679.2C171.7,679.2 170.5,677.6 169.2,674.5C164.4,663 157.8,653.5 149.2,646.2C140.6,638.9 131.3,635.2 121.2,635.2C112.4,635.2 104.3,638 96.9,643.7C89.5,649.4 83.8,657.5 79.7,668C75.6,678.5 73.6,689.8 73.6,701.9C73.6,722.4 79.3,739.1 90.6,752C101.9,764.8 114.6,771.3 128.5,771.3C138,771.3 146.7,768.3 154.7,762.3C162.7,756.3 168.7,749.4 172.7,741.5C173.8,739.3 174.9,738.2 176.1,738.2C177.7,738.2 178.5,739.1 178.5,740.8C178.5,742.9 175.7,747.5 170.3,754.6C164.8,761.7 157.6,767.4 148.7,771.9C139.8,776.4 130.2,778.5 119.9,778.5C107.8,778.5 96.3,775.4 85.4,769.3C74.5,763.2 65.9,754.7 59.5,743.8C53.1,733 50,720.2 50,705.6C50,691.3 53.1,678.4 59.3,666.9C65.5,655.4 74.2,646.5 85.4,640.1C96.6,633.7 108.2,630.6 120.2,630.6C126.6,630.6 133.1,631.6 139.7,633.6C146.4,635.4 153.2,638.4 160.1,642.5Z" style="fill:rgb(33,87,43);fill-rule:nonzero;"/>
            <path d="M194.5,755.5C197.4,755.5 199.9,756.5 202,758.5C204.1,760.5 205.2,763.1 205.2,766.1C205.2,769.1 204.2,771.6 202.1,773.7C200,775.8 197.5,776.8 194.5,776.8C191.6,776.8 189.1,775.8 187,773.7C184.9,771.6 183.9,769.1 183.9,766.1C183.9,763.2 184.9,760.7 187,758.6C189.1,756.6 191.6,755.5 194.5,755.5Z" style="fill:rgb(33,87,43);fill-rule:nonzero;"/>
            <path d="M326.3,642.5C330.3,639 332.6,636.6 333.1,635.3C333.8,633.6 334.9,632.7 336.2,632.7C337.6,632.7 338.4,634 338.6,636.6L341,674.5C341,676.7 340.9,678 340.7,678.5C340.5,679 340,679.2 339.1,679.2C337.9,679.2 336.7,677.6 335.4,674.5C330.6,663 324,653.5 315.4,646.2C306.8,638.9 297.5,635.2 287.4,635.2C278.6,635.2 270.5,638 263.1,643.7C255.7,649.4 250,657.5 245.9,668C241.8,678.5 239.8,689.8 239.8,701.9C239.8,722.4 245.5,739.1 256.8,752C268.1,764.8 280.8,771.3 294.7,771.3C304.2,771.3 312.9,768.3 320.9,762.3C328.9,756.3 334.9,749.4 338.9,741.5C340,739.3 341.1,738.2 342.3,738.2C343.9,738.2 344.7,739.1 344.7,740.8C344.7,742.9 341.9,747.5 336.5,754.6C331,761.7 323.8,767.4 314.9,771.9C306,776.4 296.4,778.5 286.1,778.5C274,778.5 262.5,775.4 251.6,769.3C240.7,763.2 232.1,754.7 225.7,743.8C219.3,733 216.2,720.2 216.2,705.6C216.2,691.3 219.3,678.4 225.5,666.9C231.7,655.4 240.4,646.5 251.6,640.1C262.8,633.7 274.4,630.6 286.4,630.6C292.8,630.6 299.3,631.6 305.9,633.6C312.5,635.4 319.3,638.4 326.3,642.5Z" style="fill:rgb(33,87,43);fill-rule:nonzero;"/>
            <path d="M365,755.5C367.9,755.5 370.4,756.5 372.5,758.5C374.6,760.5 375.7,763.1 375.7,766.1C375.7,769.1 374.7,771.6 372.6,773.7C370.5,775.8 368,776.8 365,776.8C362.1,776.8 359.6,775.8 357.5,773.7C355.4,771.6 354.4,769.1 354.4,766.1C354.4,763.2 355.4,760.7 357.5,758.6C359.7,756.6 362.1,755.5 365,755.5Z" style="fill:rgb(33,87,43);fill-rule:nonzero;"/>
            <path d="M497.9,701.3C501.9,696.8 508.1,688.7 516.4,677C524.7,665.3 529.6,658 531,655.1C532.5,652.2 533.2,650 533.2,648.3C533.2,645.3 531.7,643 528.7,641.2C525.7,639.4 522.6,638.5 519.5,638.5C517,638.5 515.8,637.8 515.8,636.5C515.8,635.1 517.9,634.4 522,634.4L563,634.4C566.8,634.4 568.6,635.2 568.6,636.7C568.6,637.9 567.8,638.5 566.1,638.5C561.8,638.5 557.7,639.5 553.8,641.4C549.9,643.4 545.1,647.7 539.4,654.5L520.5,680C510.6,693.3 505.2,701.1 504.4,703.4C503.2,706.8 502.7,715.8 502.7,730.4C502.7,749.8 503.5,761.3 505.1,764.9C506.7,768.5 512,770.7 520.9,771.5C523.2,771.7 524.4,772.4 524.4,773.7C524.4,775.1 523.1,775.9 520.6,775.9L491.4,775.2C484.4,775.2 478.6,775.3 474.1,775.6C470.5,775.9 468.2,776 467.1,776C464.3,776 463,775.3 463,773.8C463,772.6 464,772 466.1,772C473.1,771.7 477.7,769.1 480.1,764.2C482.4,759.3 483.6,752 483.6,742.4C483.6,731.8 482.9,723.3 481.6,716.8C481.3,715.1 478.2,709.2 472.3,699.1C466.4,688.9 459.1,677.7 450.5,665.4C441.9,653.1 435.8,645.6 432.1,642.9C428.4,640.2 424.8,638.7 421.4,638.5C418.8,638.3 417.5,637.6 417.5,636.3C417.5,635.5 417.8,635 418.5,634.7C419.2,634.4 421.2,634.3 424.6,634.3L472,634.3C475.3,634.3 477.2,634.4 477.9,634.6C478.6,634.8 478.9,635.4 478.9,636.3C478.9,637.5 478,638.1 476.2,638.3C467.1,639 462.5,641.8 462.5,646.5C462.5,649 464.2,652.8 467.5,658.1C470.8,663.7 480.9,678 497.9,701.3Z" style="fill:rgb(33,87,43);fill-rule:nonzero;"/>
            <path d="M538,725.1C538,718.3 540.1,710.8 544.2,702.6C548.4,694.4 554.4,687.7 562.4,682.4C570.4,677.1 579.4,674.4 589.4,674.4C603.4,674.4 615,679.4 624.1,689.4C633.2,699.4 637.8,710.9 637.8,723.7C637.8,737.4 632.7,749.6 622.6,760.5C612.5,771.4 600.3,776.8 586.1,776.8C572.5,776.8 561.1,772 551.8,762.5C542.6,753.1 538,740.6 538,725.1ZM554.9,722.7C554.9,731 556.2,739.4 558.7,748.1C561.2,756.8 565.2,763.1 570.6,767C576,770.9 581.8,772.9 588,772.9C598,772.9 605.9,768 611.9,758.3C617.9,748.6 620.9,737.4 620.9,724.6C620.9,712.2 617.8,701.4 611.7,692C605.6,682.7 597.6,678 587.7,678C580.3,678 574.1,680.5 569.1,685.5C564.1,690.5 560.5,696.5 558.3,703.4C556.1,710.4 554.9,716.8 554.9,722.7Z" style="fill:rgb(33,87,43);fill-rule:nonzero;"/>
            <path d="M649.5,676.1L687.5,676.1C689.7,676.1 690.8,676.6 690.8,677.5C690.8,678.4 690,678.9 688.4,679.1C684.8,679.5 682.1,680.4 680.4,682.1C678.7,683.7 677.4,686.6 676.5,690.7C675.6,694.8 675.2,703.6 675.2,717.1C675.2,733.3 675.7,744.4 676.6,750.7C677.5,756.9 680.5,761.9 685.4,765.5C690.3,769.1 697.1,771 705.6,771C714.5,771 721.3,769.3 726,765.9C730.7,762.5 733.7,757.5 735.1,750.8C736.5,744.1 737.2,729.6 737.2,707.3C737.2,695.8 736,688.3 733.6,684.7C731.2,681.1 727.7,679.3 723,679.3C721.1,679.3 720.2,678.8 720.2,677.7C720.2,676.7 721.4,676.2 723.9,676.2L754.3,676.2C755.7,676.2 756.4,676.7 756.4,677.7C756.4,678.4 755.8,678.8 754.7,679C750.9,679.6 748,680.8 746.2,682.6C744.4,684.5 743.2,687.9 742.7,692.8C742.1,697.7 741.9,704.9 741.9,714.4C741.9,726.3 741.5,736.4 740.6,744.7C739.7,753 737.8,759.2 734.9,763.3C732,767.4 727.5,770.7 721.6,773.2C715.7,775.7 708.4,777 699.8,777C691,777 683.5,775.6 677.3,772.8C671.1,770 666.9,766.3 664.7,761.6C662.5,757 661.4,750 661.4,740.8L661.7,719.7C661.7,701 660.9,689.6 659.3,685.4C657.7,681.2 654.3,679.1 649,679C647.3,679 646.4,678.6 646.4,677.7C646.4,676.6 647.4,676.1 649.5,676.1Z" style="fill:rgb(33,87,43);fill-rule:nonzero;"/>
            <path d="M784.5,676.6C787.5,680.7 792.8,687.1 800.3,695.7L824.6,723.9L848,750.9C848.5,741.7 848.8,729.8 848.8,715.2C848.8,704.2 848.6,696.9 848.1,693.1C847.6,689.4 846,686.3 843,683.7C840.1,681.2 836.5,679.9 832.1,679.9C830.1,679.9 829.1,679.5 829.1,678.6C829.1,678.1 829.3,677.7 829.7,677.5C830.1,677.3 833.5,677 839.9,676.8C846.3,676.6 851.6,676.5 856,676.5L866.3,676.6L868,676.6C869.6,676.6 870.4,677 870.4,677.9C870.4,678.7 869.7,679.2 868.3,679.3C863.2,679.9 859.5,681.2 857.3,683.3C855,685.4 853.7,688.4 853.3,692.4C852.9,696.4 852.7,709.7 852.7,732.3L852,772.4C852,774.4 851.5,775.4 850.5,775.4C850.2,775.4 849.9,775.3 849.5,775.1C849.1,774.9 846.8,772.3 842.7,767.4C838.6,762.5 833.5,756.7 827.5,749.8C821.5,743 816.8,737.4 813.3,733.2C805.8,724 801,718.4 799,716.3C791.7,708.5 787.3,703.5 786,701.3C785.1,699.8 784.4,699 783.6,699C783,699 782.8,700 782.8,702L783,713.8C783,728.7 783.4,740.7 784.2,749.6C785,758.5 785.9,763.7 786.7,765.3C787.6,766.8 789.1,768.4 791.3,770C793.5,771.6 795.8,772.4 798.3,772.4C801.6,772.4 803.3,773 803.3,774.2C803.3,775.1 802.4,775.6 800.5,775.6L764,775.5C762.3,775.5 761.4,775.1 761.4,774.2C761.4,773.2 762.2,772.7 763.9,772.7C770.1,772.7 774.3,771.3 776.4,768.6C778.5,765.8 779.5,760 779.5,751L778.9,724.3C778.9,708.6 778.5,699.3 777.6,696.5C776.7,693.7 774.8,690.3 771.8,686.2C768.8,682.2 765.4,679.9 761.5,679.4C759.8,679.2 758.9,678.7 758.9,678C758.9,677 760,676.6 762.2,676.6L784.5,676.6Z" style="fill:rgb(33,87,43);fill-rule:nonzero;"/>
            <path d="M969.8,708C969.1,708 968.5,707.2 967.7,705.6C963.6,696.5 958.1,689.4 951.3,684.5C944.5,679.5 937.2,677.1 929.5,677.1C923.2,677.1 917,679 911.1,682.8C905.2,686.6 900.3,692.5 896.6,700.5C892.9,708.5 891,717 891,726C891,738.9 894.8,750 902.5,759.3C910.2,768.7 919.8,773.4 931.4,773.4C935.5,773.4 939,772.8 941.9,771.5C944.8,770.2 947.5,768.4 950.1,766C952.7,763.6 954.2,761.8 954.7,760.7C955.2,759.5 955.5,756.5 955.5,751.5C955.5,743.2 954.4,737.7 952.2,735.1C950,732.5 946.5,731.2 941.6,731.2L939.2,731.3C937.7,731.3 937,730.8 937,729.9C937,728.7 937.8,728.2 939.4,728.2L943.4,728.4L960.6,728.2L981.6,727.7C982.8,727.7 983.3,728.2 983.3,729.3C983.3,730.4 982.6,730.9 981.3,731C978.2,731.3 975.6,732 973.6,733.1C971.6,734.2 970.4,735.4 970,736.7C969.6,738 969.3,740.4 969.3,743.6C969.3,755.4 969,762 968.5,763.1C967.9,764.3 963.2,766.9 954.4,771.1C945.5,775.3 936.6,777.3 927.7,777.3C912.9,777.3 900.2,772.5 889.7,763C879.2,753.5 873.9,741.4 873.9,726.8C873.9,716.8 876.4,707.7 881.4,699.6C886.4,691.5 893.2,685.2 901.9,680.7C910.6,676.2 919.4,674 928.3,674C936.7,674 945.8,676.4 955.5,681.2C958.2,682.6 960.2,683.3 961.3,683.3C962.9,683.3 964.1,682.6 964.9,681.2C965.7,680 966.3,679.5 967,679.5C968.2,679.5 968.8,681 969,683.9C969.3,688.5 970,695.5 971.2,705C971.3,705.5 971.4,706 971.4,706.4C971.4,707.4 970.9,708 969.8,708Z" style="fill:rgb(33,87,43);fill-rule:nonzero;"/>
        </g>
    </g>
</svg>
