<?xml version="1.0" encoding="utf-8"?>
<!-- Generator: Adobe Illustrator 22.0.1, SVG Export Plug-In . SVG Version: 6.00 Build 0)  -->
<svg version="1.1" xmlns="http://www.w3.org/2000/svg" xmlns:xlink="http://www.w3.org/1999/xlink" x="0px" y="0px"
	 viewBox="0 0 1627.6 488.8" style="enable-background:new 0 0 1627.6 488.8;" xml:space="preserve">
<style type="text/css">
	.st0{fill:#24582C;}
</style>
<g id="Layer_4">
	<path class="st0" d="M1596.5,0h-216.9v0h-14h-21.9h-104.8c0,0,0,0,0,0C981.3,0,725.1,0,469,0c0,0,0,0,0,0H284.3h-21.9h-14.3v0H31.2
		C14,0,0,14,0,31.2v426.4c0,17.3,14,31.2,31.2,31.2h1565.1c17.3,0,31.2-14,31.2-31.2V31.2C1627.7,14,1613.6,0,1596.5,0z
		 M1604.7,457.6c0,4.4-3.8,8.2-8.2,8.2H31.4c-4.6,0-8.2-3.6-8.2-8.2V31.2c0-4.6,3.6-8.2,8.2-8.2h1565.1c4.4,0,8.2,3.8,8.2,8.2V457.6
		z"/>
</g>
<g id="Layer_3">
	<path class="st0" d="M195.3,177.7c-0.1,0-0.3,0.1-0.4,0.1c1,1.5,1.9,3,2.9,4.5c0.3-0.2,0.6-0.4,1-0.5c-0.5-1.5-1-2.9-1.5-4.4
		C196.5,177.5,195.8,177.6,195.3,177.7z"/>
	<path class="st0" d="M185.8,327.8c1.4,0.6,3.1,1.3,4.5,1.8c1.9-3,3.4-5.5,4.9-8c-2-0.4-4-0.8-5.3-1.1
		C188.5,323.1,187.2,325.3,185.8,327.8z"/>
	<path class="st0" d="M207.6,140.9c1.5-1.4,2.9-2.5,4.5-4c1.5,1.9,2.7,3.6,3.8,4.9c0.5-2.3,1.1-4.8,1.7-7.1c-2-2.5-4.2-5.2-6.3-7.8
		c-1.5,3.3-6.8-0.2-8.1,4.5c-0.9,3.3-2.5,6.5-3.9,9.9C202.6,142.3,204.9,136,207.6,140.9z"/>
	<path class="st0" d="M281,216.3c-0.5-2.1-0.7-3.4-1.2-4.6c-0.2-0.5-1.3-1.2-1.6-1c-1.6,0.7-3.1,1.8-5.4,3.1
		c-1.3-3.5-2.5-6.6-3.5-9.3c-0.6,1-1.5,2.6-2.4,4.2c-4.6-3.7-8.8-7.1-13-10.4c-0.8,0.7-1.4,1.3-2.1,1.9c-1.2-0.9-2.2-1.6-3.2-2.3
		c-2.4,2.9-4.6,5.6-6.7,8.2c-7.2-1.5-6.6-5.7-3-10.8c-1.2-0.3-2-0.5-2.8-0.7c0.2,0.3,0.3,0.5,0.5,0.8c-1.5,2.1-3.1,4.2-4.8,6.6
		c-1.4-1.8-2.3-2.9-3.4-4.2c-3.1,2.4-5.8,0.9-8.5-0.8c0.3-0.7,0.5-1.2,0.8-2c-3-0.4-5.5-1.3-5.7-4.7c-0.2-2.3,0-4.6,0-6.9
		c-6.6,0.7-10.6,6.3-9.7,13.7c0.9,7.9,3.6,15.3,8.3,21.7c0.9,1.2,1.3,4,4,2.3c0.1-0.1,1.1,1,1.4,1.7c0.4,1,0.6,2.1,0.9,3.3
		c1.9-1.3,3.7-2.6,5.7-4c1,1.4,2,2.7,2.8,3.9c1.3-1.9,2.5-3.5,3.6-5.2c3.7,2.8,4,2.7,5.9-1.1c1.1-2.4,2.6-2.8,4.2-0.6
		c1.3-1.1,2.4-2.7,3.4-2.7c1.1,0,2.3,1.6,3.1,2.3c0.7-1.7,1.5-3.4,2.4-5.6c2.6,2.3,1.5,6.8,5.9,5.9c3-0.6,5.1-1.8,4.7-5.7
		c3.4,1.9,3.6,4.6,3.9,7.6c0.8-1.9,1.6-3.8,2.6-6c1.7,1.4,2.9,2.4,4.3,3.5c1.3-3.7,3.6-3.4,6.3-1.7
		C279.2,216.8,280.3,216.4,281,216.3z"/>
	<path class="st0" d="M258,296.3c-2.9-1.3-3.2-0.3-3.4,2c-0.1,1.2,0,2.4,0,2.9c1.7,0.5,4.1,0.6,4.2,1.3c0.7,3.7-2.2,4.8-4.9,6.2
		c0.4,0.6,0.8,1.1,1.3,1.7c-2.5,1.9-4.5,4.4-8.1,2.9c-0.4-0.2-1.1,0.2-1.6,0.5c-4.2,2.7-4.2,2.7-8.2-0.3c-0.1,1.1,0,2.1,0.5,2.9
		c2,3.3,1.9,4.4-1.1,6.7c-0.9,0.7-1.7,1.3-3,2.3c-1.2-1.5-2.7-2.7-3.4-4.3c-0.2-0.4-0.3-0.8-0.3-1.2c-0.2-1.3-0.1-2.7-0.2-4
		c-1.6,0.1-3.3,0.2-4.9,0.3c-1.2,2.1-2.2,4.5-3.7,6.3c-0.7,0.9-2.5,1.3-3.7,1.1c-3.7-0.6-5.6,0.3-7.2,3.9c-0.6,1.3-1.7,2.4-2.7,3.7
		c-1.7-1.2-3-2.1-5-3.5c-0.4,2.1-0.8,3.7-1.1,5.4c10.2,0.3,19.8,0.8,29.6,0.9c4.6,0,8.4,1.2,11.4,4.9c6,7.3,12,14.5,18.1,21.7
		c0.7,0.9,1.5,1.7,2.6,2.8c0.6-12-0.2-23.3-3.1-34.3c-1-3.6-0.4-6.9,1.8-10c1.9-2.7,3.5-5.6,5-8.5c1.3-2.4,1.1-4.9-0.8-6.9
		C263.8,300.9,261.7,298,258,296.3z"/>
	<path class="st0" d="M190.1,222.8c3.5-7.8,4.5-16.1,4.7-24.6c0-1-0.6-2.5-1.4-3.1c-5.4-4.2-11-8.2-17-12.7
		c-2.4,2.8-4.5,5.1-6.8,7.8c3.8,1.1,2.4,3.2,1.5,5.1c-0.4,1-0.5,2.3-1.1,3.1c-1.2,1.6-2.4,3.7-4.1,4.3c-1.1,0.4-2.9-1.5-4.5-2.3
		c-1.8,0.2-3.4,0.1-3.3-3c-1,0.3-1.8,0.6-2.6,0.9c3.3,5.4,3,8.9-1.1,13c-1.5-1.2-2.9-2.4-4.6-3.7c-1.6,2.6-3.6,1.9-5.8,0.9
		c-2.1-1-3.8-0.3-5.8,1.4c2.6,0.4,4.5,0.6,6.4,0.9c-0.3,0.3-0.5,0.6-0.8,0.9c1.1,1.8,2.1,3.6,3.5,5.9c1.4-4,1.8-4.2,4-2.1
		c1.4,1.3,2.6,2.8,4,4.4c1.4-3.1,3.9-1.4,6-0.4c2.2,1.1,4.1,2.7,6.8,4.5c-0.2-1-0.1-2.1-0.6-2.8c-1.9-2.6-0.9-4.8,0.4-7.2
		c3,1.9,2.5,4.7,2.4,7.6c1.2-1.8,2.2-3.2,3.5-5.1c1.5,1.7,2.6,3,3.7,4.4c1.3-2.3,2.6-2.5,3.6-0.1c0.4,0.8,0,1.9-0.1,2.9
		c0,0.4-0.1,0.7-0.2,1.1c-0.1,0.3-0.2,0.7-0.3,1c0.4,0,0.7-0.1,1.1-0.1c0.4,0,0.7-0.1,1.1-0.1c0.9-0.2,2.1-0.9,2.5-0.6
		C188.2,227,189.1,225,190.1,222.8z"/>
	<path class="st0" d="M219.1,134.3c1.3,2.1,2.4,4,3.7,6.2c1.1-1.3,1.9-2.2,2.2-2.5c-1.4-1.9-2.5-3.4-3.7-5.1
		C220.8,133.2,220.1,133.7,219.1,134.3z"/>
	<path class="st0" d="M214.7,123.3c4.7-0.8,6.7,2.1,7.8,4.9c1.9,0.6,3.5,0.5,4.2,1.3c1.9,2.1,3.2,4.6-0.2,6.7c1.1,1.3,2,2.4,2.9,3.5
		c1.6-1.7,1-4.9,4.5-5.1c0,3.1,0,6,0,8.3c3.5-1.1,6.8-2.2,10.4-3.4c0.3,2.1,0.5,3.4,0.6,4.8c1-0.7,1.8-1.4,2.6-2
		c0.8,0.9,1.4,1.6,2.4,2.7c-1-3.5-1-3.5-3.2-5c-0.6-0.5-1.1-1.2-1.7-1.7c-2-1.9,0.6-3.2,0.8-4.8c0.1-1,1.2-1.9,2.1-3.2
		c-0.2-0.3-0.8-1.2-1.4-2.2c-3.9,4.9-4.5,4.9-7.2,1.1c-2.3,0.2-4.3,0-6.2,0.6c-4.2,1.3-4.2,1.4-5.6-2.9c-2.8,1-4.1-0.8-5.4-3
		c-1.5-2.5-3.8-3.7-6.8-3c-0.9,0.2-1.9-0.2-3.8-0.4C213,121.9,214,123.5,214.7,123.3z"/>
	<path class="st0" d="M194.7,177.8L194.7,177.8C194.8,177.8,194.8,177.7,194.7,177.8z"/>
	<path class="st0" d="M276.2,286.1c0.6,1.4,1.5,2.7,2.4,4c0.8-0.9,1.7-1.7,2.2-2.7c0.6-1.3,0.8-2.9,1.1-4c-1.9,0.2-3.6,0.4-5.5,0.6
		C276.3,284.5,275.9,285.5,276.2,286.1z"/>
	<path class="st0" d="M190.6,180.6c1.4-1,2.7-1.9,4-2.8c-0.8-1.2-1.3-2.7-2.3-3.6c-0.9-0.8-2.3-0.8-3.5-1.2
		c-0.3,1.1-1.2,2.5-0.9,3.4C188.5,178,189.7,179.4,190.6,180.6z"/>
	<path class="st0" d="M414.4,196.2c1.7,2.4,3.1,4.4,4.3,6.2c1.1-0.8,2-1.4,3.2-2.2c-0.2-0.8-0.4-1.7-0.5-2.5
		C419,197.2,416.9,196.7,414.4,196.2z"/>
	<path class="st0" d="M577.6,249.1c-0.2,0-0.3,0.1-0.4,0.2C577.4,249.3,577.5,249.2,577.6,249.1z"/>
	<path class="st0" d="M577.6,249.1c1.3,0,4.8,3.1,4.5-2.1C580.4,247.8,578.7,248.6,577.6,249.1z"/>
	<path class="st0" d="M395.7,199.8c-3.9-2-7.9-4-12-5.8c-1.4-0.6-3.1-0.9-4.6-0.7c-2.5,0.4-5,1.4-7.3-2c0.4,4.2-1.8,5.5-3.9,6.9
		c-0.7,0.5-1.9,1.3-1.8,1.7c0.5,2.6-1,4.3-2.8,4.7c-1.7,0.4-3.7-0.7-5.5-1.1c0-0.3,0.1-0.5,0.1-0.8c-1.2,0.5-2.4,1-3.4,1.4
		c-0.2,2.2-0.4,4.1-0.6,6.4c2.4,0.9,4.9,1.9,7.8,3.1c0.8-2.1,1.6-4.2,2.5-6.7c3.1,2.1,2.7,4.7,2.1,7.6c1.4-1.6,2.7-3,4-4.5
		c1.2,1.3,2,2.2,2.8,3.1c1-0.9,1.9-1.6,2.9-2.4c1.2,1.4,2.2,2.6,3.5,4.1c1.1-2.5,1-5.5,4.9-6.8c0,2.7,0,4.7,0,6.7c0,1-0.2,2-0.3,2.9
		c0.9-0.3,1.9-0.7,2.8-1c3.4-1.1,6.7-3.4,9.9-1.3c0.2-1.1,0-2.9,0.7-3.4c0.8-0.7,2.4-0.3,4.1-0.4c0,0,0.6-0.6,0.5-1
		C401.2,206.1,400,201.9,395.7,199.8z"/>
	<path class="st0" d="M346.3,205.5c-2.4,1.8-4.4,2.7-5.5,4.3c-2.5,3.8-2.4,3.9-6.7,2.5c-0.4-0.1-0.9-0.1-1.4-0.1
		c0.6,3.1-1.6,8-3.8,7.8c-3.9-0.3-2.4,2-2.3,4c2.8-1.8,4.2-5.9,8.2-3.8c1.3-2.5,3.6-1.7,5.7-1.9c1.5-0.2,3.7,1,4.1-1.7
		c0.4-2.7,2-3,4.2-2.4c0.9,0.3,1.9,0.3,3.5,0.6C351.1,210.5,344.6,211.2,346.3,205.5z"/>
	<path class="st0" d="M499.6,443.2c0,0.2,0,0.5,0.1,0.7v0.1c2.4,0.3,4.7,0.5,7.1,0.8c-0.4-0.6-0.9-1.3-0.6-2c0.4-1.1-2.6-1-2.5-2.5
		c0-1.5-0.7-2.9-0.9-3.5s-1.4-1.8-1-2.4c-0.5,0.4,0.3-2.5-0.3-2.3c0.8-1-0.8-1.5-1-2.6c-0.2,0.5-0.2,1-0.4,1.4
		c-0.4,0.9-0.6,1.8-0.6,2.8c0,1.6-0.2,3.2-0.2,4.7c0,0.4,0.1,0.9,0.1,1.3C499.1,440.9,499.6,442,499.6,443.2z"/>
	<path class="st0" d="M474.1,438.5c0.2,0.1,0.6,0.1,0.7,0.2c0.4,0.4,0.8,0.8,1.2,1.3c0.2,0.3,0.3,0.7,0.3,1.1c0,0.2,0,0.4-0.2,0.5
		c6,0.5,12.1,1.1,18.1,1.7c0-0.1,0-0.3,0-0.5c0.1,0-2.4-1.4-1.2-1.8c-0.7-0.2-0.8-2.2-0.7-2.3c-0.8-0.3,0.2-0.4,0-1s-0.7-1.5-0.8-2
		s0.1-2.2-0.2-3s-0.9-2.8,0.7-3.9c-0.7,0.2-2.2,0.7-2.1,0c0,0-0.3-0.1-0.4,0c-0.4,0.5-0.9-0.3-1.3-0.4c-0.2,0-0.1-0.4-0.3-0.4
		c-0.1,0-0.2,0.2-0.3,0.2c-0.5-0.2-0.8-0.6-1.4-0.8c-0.1,0-0.2,0.3-0.3,0.3c-0.2,0-0.2-0.4-0.4-0.4c-0.1,0-0.1,0.3-0.2,0.3
		c-0.3,0-0.3-0.6-0.5-0.6c-0.1,0-0.1,0.2-0.2,0.2c-0.2,0-0.3-0.6-0.5-0.5c-0.1,0-0.1,0.4-0.2,0.4c-0.1,0-0.1-0.3-0.3-0.3
		c-0.2-0.1-0.3-0.3-0.5-0.4c-0.1-0.1-0.2,0.3-0.3,0.3c-0.2,0-0.1-0.4-0.3-0.3c-0.2,0-0.1,0.5-0.2,0.5c-0.5,0-0.9-0.7-1.3-0.4
		c-0.2,0.1-0.3,0.3-0.4,0.4s-0.4,0-0.6,0c-0.4,0.1-0.2,0.3-0.7,0.4c-0.7,0.2-1,0.9-1.6,1.1c-1,0.5-2.1,0.9-3.1,1.3
		c-0.3,0.1-0.6,0.2-0.8,0.4c-1,0.9-1.5,2.1-1.5,3.5c0,1.7,0.7,3.2,1.5,4.7C473.8,438.4,473.9,438.5,474.1,438.5z"/>
	<path class="st0" d="M283.6,280.9c2.1-0.8,3.9-1.6,6.2-2.5c-2.2-0.8-3.8-1.5-5.4-2.1C284.2,277.7,283.9,279.2,283.6,280.9z"/>
	<path class="st0" d="M466.8,440.7c1,0.1,2,0.2,3,0.3c-0.3-0.4-0.4-0.8-0.4-1.3c0-0.8-0.2-1.6-0.6-2.3c-0.3-0.5-0.5-1.1-0.6-1.7
		c-0.1-0.9-1.4-1.7-1.2-2.6c0.1-0.6-0.2-1.2-0.2-1.9c-0.1-0.7,0.1-1.3,0-2c0-0.2-0.1-0.7-0.3-0.8s-0.4-0.8-2-0.5
		c-0.9,0.2,0.1,0.2-0.7,0.3c-0.7,0-0.8,0.6-1.5,0.9c-0.2,0.1-0.5,1.4-1.6,1.2c-0.4-0.1-0.2,0.8-0.6,1c-0.9,0.5-0.8,1.2-1.3,1.9
		c-1.3,1.7-2.3,3.5-2.8,5.5c-0.1,0.4-0.1,0.8,0,1.2C459.5,440.2,463.2,440.4,466.8,440.7z"/>
	<g>
		<path class="st0" d="M130.8,442.4c1-1.7,1.4-3,1.2-4.2c-0.1-0.2-0.2-0.5-0.5-0.7s-0.5-0.2-0.9-0.2c-0.9,0.2-1.7,1-2.6,2.4
			c-0.7,1.6-1.2,3.9-1.4,7.2C128.4,445.6,129.8,444.1,130.8,442.4z"/>
		<path class="st0" d="M237.5,428.5c2.5-0.1,3.7-0.2,6.2-0.3c0.6-2.3,0.9-3.5,1.6-5.9c0.7-2.5,1-3.8,1.1-4.1
			c-1.7,1.3-5.7,4.7-11.5,10.5C236.1,428.6,237,428.6,237.5,428.5z"/>
		<path class="st0" d="M15.3,13.3v460h642v-460H15.3z M639.1,316c-0.5,1.2-1.4,2.3-2,3.4c-2.1,3.8-2.6,4.1-7.1,3.4
			c-2.5,3.8-4.9,7.5-7.6,11.5c-1.4-0.2-0.9,0.4-0.2,1.2c-4.5,4.2-8.8,8.3-13.5,12.7c2.1,1.4,3.6,2.3,5.4,3.5
			c-1.8,2.8-3.3,5.7-5.4,8.1c-2,2.2-4.4,1-6.7-0.4c-0.9,0.9-1.8,1.7-2.7,2.6c-0.9-0.5-1.8-1-2.4-1.4c-1.6,2.2-3.2,4.4-4.7,6.4
			c-4-1.9-6.3-4.5-6.4-9.1c-1.3,1.9-2.3,3.3-3.2,4.7c-3.7-1.4-4-3.9-3-6.3c-3-0.7-5.8-1.3-8.6-2.2c-0.7-0.2-1.1-1.5-1.7-2.3
			c-0.6-0.7-1.1-1.5-1.8-2.2c-1.5-1.4-3.2-2.7-4.7-4.2c-1-1.1-1.5-2.6-3.4-2.8c-1.2-0.2-2.3-1.8-3.7-3c-2.1,1.5-2.9-0.8-3.8-2.9
			c-4.3,2-3.3-2.1-4.4-4.3c-2.6,2.4-5.1,1-6.6-1c-1.2-1.6-3.3-3.7-2-6.3c-1.2-1-2.4-2-4.2-3.6c-0.8,0.3-2.4,0.8-3.9,1.4
			c-1.9,0.7-3.9-1.3-4.2-4.3c-0.3-3.5-1.1-3.9-3.9-1.9c-2,1.4-4.3,1.1-4.9-1.3c-0.6-2.4-3.7-4.3-1.4-7.3c-3.2,1-5.4-0.1-6.8-3
			c-0.2-0.4-0.8-1-1.3-1c-2.4-0.1-4.9,0-8.4,0c-0.5-1.4-1.5-4-2.3-6.3c-1.3-0.3-2.5-0.5-3.6-1c-1.8-0.8-3.4-1.2-4.4,1.2
			c-0.3,0.7-0.9,1.3-1.4,2c-5.5-1.7-3.7-6-3.4-10c-1.6,3-3.2,2.9-5.8,1.3c-1.2-0.7-3.7,0.6-5.6,1.3c-1.2,0.5-2.1,1.6-3.5,2.7
			c-1-2.9-1.9-5.5-2.8-8c-0.3,0.1-0.7,0.1-1,0.2c0.3,3.2,1,6.6-2.2,8.6c-5.1-2.1-3.6-5.8-1.8-9.6c-0.4-0.2-0.9-0.4-1.3-0.6
			c-0.5,0.8-0.7,2-1.4,2.4c-0.6,0.4-1.7,0.2-2.8,0.3c1.3,3.2-0.7,4.7-2.9,6.2c-3.1-1.5-3.3-4.4-2.9-7.4c-4.5-0.6-5.2,4.9-9.4,5.5
			c-0.5-2.3-1.1-4.6-1.6-6.9c-1.6,5.1-2.3,5.5-5.3,3.4c-1.7,0.4-3.1,0.6-4.6,0.9c-0.1-0.3-0.1-0.5-0.2-0.8c-0.9,1.2-1.7,2.4-2.9,4
			c-3.7-3-7.3-5.7-10.6-8.8c-2-1.9-3.4-4.5-5.3-6.5c-0.6-0.7-2-1-2.9-0.8c-3.1,0.8-5-1-6.8-3c-0.4-0.4,0.1-1.7,0.3-3.1
			c-0.7-0.1-1.9-0.5-3.1-0.4c-2.9,0.4-5.7,1-8.6,1.5c-9.5,1.8-15.8,7.6-19.7,16.4c-1.4,3.1-3.8,4.6-6.7,5.3
			c-7.6,1.8-15.3,3.3-22.9,5.1c-8.1,1.9-16.2,3.8-24.1,6.2c-2.9,0.9-5.6,2.8-8.1,4.6c-3.9,3-5.9,7.4-4.2,12.1
			c2,5.7,0.8,11.1,0.1,16.6c-0.5,4.2-1.2,8.4-1.6,12.7c-0.4,4,0.9,7.6,3.1,10.8c1.9,2.9,4.4,4.6,8,4.7c5.3,0.1,10.6,0.5,15.9,0.9
			c7.2,0.6,13.2,4,17.3,10.1c5.9,8.8,11.3,17.9,16.6,27c2,3.4,3.6,7.2,5.1,10.9c1.1,2.9,3,4,5.8,3.6c1.1-0.1,2.3-0.1,3.3-0.5
			c1.9-0.7,2.7,0.2,3.6,1.8c2.1,3.7,3.6,4,7.7,3.1c6.9-1.4,13.9-2.4,19.9,3c0.6,0.5,1.3,1.1,2.1,1.2c4.9,0.8,7.8,4.4,10.9,7.8
			c0.9,1,2.3,1.8,3.5,1.9c8.8,0.6,17.6,1.1,26.4,1.7c0.1-0.3,0.2-0.5,0.2-0.8c0-0.2,0-0.4,0.1-0.7c0.2-0.6,0.4-1.1,0.5-1.7
			c0.1-0.8,0.4-1.5,0.8-2.2c0.3-0.6,0.5-1.3,0.6-2c0.1-0.3,0.1-0.7,0.1-1c0-0.4,0.1-0.6,0.2-1c0.1-0.5-0.1-1,0-1.5
			c0.4-1.4,1.1-1.8,0.7-4.6c-0.3-2.5,1.1-2.1,0.3-3.5c-0.5-0.9,0.8-1.2,0.9-1.9c0.1-0.8-0.1-0.9,0.1-1.5c0.4-1.3,1.1-1.2,1.3-1.9
			c0.2-0.9,1.5-1.1,1.9-1.9c0.3-0.6,0.3-1.3,0.4-1.9c0.1-0.7,1.3-1.5,1.5-2.2s0.1-1.4,0.6-1.9c-0.3,0.1-0.7,0.1-1,0.1
			c-0.2,0-0.4-0.1-0.4-0.3c-0.3,0-0.7,0-1,0c0-0.1,0-0.2,0-0.3c-0.4,0-0.9,0-1.3,0c0-0.1,0-0.2,0-0.3c-0.5-0.1-1-0.2-1.5-0.3
			c-0.2,0-0.4-0.1-0.4-0.3c-0.4,0-0.8,0-1.2-0.1c-0.2,0-0.3-0.1-0.4-0.2c-0.1-0.1-0.1-0.4,0.1-0.4c-0.5,0-1-0.1-1.6-0.1
			c0.2-0.3,0.5-0.6,0.8-0.7c-0.2-0.1-0.3-0.1-0.5-0.2c0.3-0.1,0.6-0.3,0.9-0.4c-0.5-0.2-1-0.5-1.5-0.8c0.3-0.1,0.6-0.2,0.9-0.4
			c-0.3-0.3-0.7-0.5-1-0.7c0.1-0.1,0.3-0.2,0.4-0.3c-0.5-0.2-1-0.6-1.1-1.1c0.2,0,0.4,0,0.6,0c-0.2-0.2-0.4-0.3-0.5-0.5
			c0.1-0.1,0.3-0.1,0.4-0.2c-0.3-0.2-0.5-0.4-0.8-0.6c0.1,0,0.3-0.1,0.4-0.1c-0.1-0.1-0.2-0.2-0.3-0.2c0.1-0.2-0.1-0.4-0.3-0.6
			s-0.5-0.3-0.3-0.6c-0.7-0.8-1.3-1.6-2-2.3c0.2,0,0.5,0,0.7,0.1c-0.3-0.2-0.5-0.4-0.8-0.7c0.1-0.2,0-0.5-0.2-0.6
			c-0.2-0.2-0.4-0.3-0.5-0.5c-0.2-0.5-0.8-1.2-0.9-1.8c0-0.2,0.1-0.3,0-0.5c0-0.1-0.4-0.4-0.3-0.5c0.3-0.2,0.8,0,1-0.3
			c0.1-0.2,0.1-0.4,0-0.5c-0.1-0.3-0.2-0.7-0.3-1c0.3,0,0.6-0.2,0.7-0.4c0.1-0.3,0-0.6-0.2-0.8c0.3,0,0.6-0.1,0.8-0.3
			c0.4-0.5,0-0.9,0.6-1.2c0.3-0.1,0.6-0.3,0.6-0.7s0.3-0.4,0.6-0.5c0.3-0.1,0.9,0.2,1-0.4c0,0,0.1,0,0.2,0c1,0,1.8,0.3,2.4,1.1
			c1,1.4,2,2.8,2.5,4.5c0.1,0.3,0.3,0.6,0.6,0.9c0.4,0.5,0.9,0.9,1.2,1.5c0.4,0.6,0.8,1.2,0.7,2c0,0.3,0.1,0.7,0.3,1
			c0.3,0.5,0.8,0.9,1.2,1.3c0.5,0.6,1.2,1,1.9,1.2c1.2,0.3,2.4,0.7,3.6,1c0.5,0.1,1,0.3,1.6,0.5c-0.2-0.2-0.3-0.4-0.3-0.4
			c0.2-0.2,0.3-0.3,0.5-0.5c0.2,0,0.5-0.1,0.7,0c0.3,0.1,0.6,0.2,0.9,0.3h0.1c0-0.1,0-0.2,0-0.4c1.3,0.7,2.6,0.7,4,0.4
			c0.9-0.2,1.8-0.1,2.7-0.1c1.6,0.1,3.3,0.1,4.9,0.5c0.5,0.1,1.1,0.2,1.6,0.2c0.7,0,1.4,0,2.2-0.1c0.5-0.1,1.1-0.1,1.6-0.3
			c1.4-0.5,2.7-1.1,4.1-1.6c0.1,0,0.2-0.1,0.3-0.1c1.1-0.2,2.1-0.7,3-1.4c0.3-0.2,0.6-0.4,0.9-0.5c0.3-0.1,0.5-0.3,0.5-0.6
			c0.1-0.4,0.2-0.9,0.4-1.3c0.1-0.4,0.2-0.8,0.3-1.2c0.1-0.3,0.1-0.7,0.1-1c0-0.5,0-0.9-0.1-1.4c-0.1-0.6-0.2-1.1-0.2-1.7
			c-0.1-0.8,0.3-1.4,0.8-2c0.6-0.7,1.1-1.3,1.1-2.4c0-1.6,0.7-2.9,1.6-4.2c0.4-0.6,0.8-1.2,1.3-1.7c0.9-0.9,2-1.6,3.3-1.9
			c0.1,0,0.3-0.1,0.4-0.2c0.3-0.1,0.6-0.2,0.9-0.1c0.8,0.2,1.6,0.2,2.3-0.2c0.2-0.1,0.3-0.1,0.5-0.2c0.6-0.2,1.1,0,1.5,0.5
			c0.1,0.2,0.3,0.3,0.4,0.5c0.3,0.3,0.6,0.3,0.9,0.1c0.2-0.1,0.3-0.2,0.5-0.3c0.9-0.7,1.9-1.2,2.9-1.5s1.8,0,2.2,0.6
			c0.3,0.4,0.2,0.6-0.3,0.7l-0.1,0.1c0.3,0.2,0.7,0.2,0.9,0.5c0.3,0.4,0.5,0.8,0.6,1.2c0.2,1.6-0.2,3-1.4,4.1
			c-0.5,0.4-1,0.9-1.5,1.3c0.4,0.4,0.7,0.9,1.4,0.8c0.5-0.1,1.1-0.1,1.4-0.7c0,0.3,0,0.5,0,0.7s0.1,0.5,0.1,0.7
			c0,0.1,0.1,0.2,0.1,0.3c0.5,0.8,0.4,1.4-0.1,2c-0.3,0.3-0.5,0.6-0.8,1c-0.4,0.5-0.9,0.8-1.5,0.9c-0.8,0.2-1.6,0.4-2.3,0.9
			c-0.2,0.2-0.3,0.3-0.4,0.6c-0.1,1.1-0.3,2.1-0.4,3.1c-0.1,0.8-0.4,1.4,0.2,2.1c-0.3,0.1-0.2,0.6,0,0.8c0.2,0.3,0.3,1.3,0.1,1.5
			c-0.1,0.1,0.1,0.4,0.3,0.4s0.4,0,0.6,0.1c0.1,0.1,0,1.6,0,1.9c0,0.3,0.2,0.5,0.4,0.8s0,0.5-0.1,0.7c0,0.2,0.1,0.9,0.1,1.2
			c0.2,1.1,0.4,2.5,1.3,3.2c0.1,0.1,0,0.6,0,0.8s0.1,0.6,0.3,0.8c0.1,0.1-0.3,2.6-0.3,2.9c0,0.8-0.4,1.6-0.1,2.3
			c0.2,0.6,0.1,1.1,0,1.7c0,0.1,0.3,0.2,0.2,0.3c-0.1,0.2-0.2,0.2-0.1,0.4c0.5,1-0.9,2-1.2,3.1c-0.1,0.3,0,0.7-0.3,0.9
			c0,0-0.2-0.1-0.2,0c-0.1,0.1,0.1,0.4,0,0.4c-0.3,0.3-0.6,0-0.7,0.5c-0.1,0.4-0.3,0.8-0.5,1.2c-0.2,0.3-0.4,0.5-0.6,0.7
			c-0.1,0.1-0.2,0.2-0.4,0.4c0,0.1,0.1,0.3,0.1,0.6c0.1,1.9-0.1,3.7-0.5,5.6c-0.3,1.4-0.8,2.6-0.8,4.1c0,1.3,0,2.6,0,4
			c0,0.7,0.2,1.4,0.1,2.1c0,0.6,0,1.2,0.3,1.8s0.6,1.3,0.9,1.9c0.3,0.8,0.8,1.4,1.8,1.4c0.7,0,1.2,0.4,1.5,1.1
			c0,0.1,0.1,0.2,0.1,0.3c17.4,2.4,34.6,5.7,51.6,10.6c5.4,1.6,10.5,4.1,15.7,6.2c1.1,0.4,2,1.2,3.7,2.2H117.8
			c-0.1-0.2-0.2-0.4-0.2-0.6c2.2-1.2,4.4-2.5,6.8-3.5c12.1-5.3,24.8-8.1,37.6-10.5c27.6-5.2,55.5-8.2,83.5-10.1
			c14.5-1,29-1.8,43.6-2.8c0.3-5.7,0.9-11.4,0.8-17.2c-0.1-2.7-1.4-5.4-2.5-7.9c-1.1-2.4-2.7-4.6-3.9-7c-2.2-4.5-5.3-7.9-9.4-10.7
			c-1.9-1.3-3.1-3.8-4.6-5.8c-0.7-0.9-1.2-2-2-2.6c-3.3-2.2-6.4-4.8-10-6.3c-7.3-3-11.9-8.9-16.2-15.3c-1.2-1.8-2.3-3.7-3.5-5.5
			c-2.5-3.5-5.3-6.1-9.9-6.7c-4.7-0.6-9.2-3.2-13.9-3.5c-7.6-0.5-15.3-1.8-23,0c-0.6,0.1-1.3,0.2-1.8,0c-4.4-2-9.4-1.9-13.5-5.4
			c-3.9-3.3-8.7-5.6-13.4,0c-0.9-1.2-1.7-2.2-2.5-3.2c-3.1,0.5-2.8,3.6-4,5.4c-0.7,1.1-1.1,2.4-1.6,3.6c-0.2,0.4-0.5,1-0.4,1.3
			c1.4,2.9-0.4,5.1-2,6.3c-1.3,1-3.8,0.2-6,0.2c0.1-1.4,0.2-2.3,0.2-3.4c-3,2-4.8,4.3-4.8,8.3c0,2.5-1.4,5-2.2,7.6
			c-6.4-3.7-8.1-3.4-7.2-12.8c-0.6,0.7-1.9,1.5-1.8,2.2c0.3,3.5-1.5,5.6-3.9,7.5c-5.7-3.8-5.7-3.8-5.2-8.9c-0.6,1-1.1,2.1-1.8,2.9
			c-0.8,0.9-1.7,1.7-2.7,2.6c-2.3-1.9-5.1-3.2-4.3-6.8c-1.9-0.6-3.8-1.2-5.5-1.7c-0.7,1-1.4,2.9-2.3,3c-1.1,0.1-2.4-1.3-3.9-2.4
			c-0.6,0.4-1.8,1.1-3.2,1.8c-0.7-0.9-1.4-1.7-2.1-2.6c-3.3,1.4-5.3-0.2-5.3-4.4c-1.9,1.2-3.8,2.4-5.1-0.6c-1.6,1.2-3.2,2.3-5.1,3.6
			c-1.2-1.6-2.5-3.1-3.8-4.8c-1,0.6-2.1,1.4-3,1.9c-3.5-1.9-6.7-3.7-10-5.5c-0.3,0.1-0.7,0.2-1,0.3c3.1,6.2,0.1,9.5-5.3,12.4
			c-1-2.5-2.6-4.9-2.7-7.4c-0.1-4.2-2.4-5.7-4.5-6.6c-1.5,1.4-2.3,2.5-3.4,3.3c-1.7,1.2-3.5,0.6-4.5-1.1c-0.9-1.5-1-3.4-1.7-4.9
			c-0.6-1.2-1.5-2.3-2.4-3.2c-0.1-0.1-1.2,0.6-1.8,1c-1.9,1.7-4.9,1.5-6.3-0.8c-1.3-2-2.2-4.2-3.6-7c2.8-0.6,5.3-1.2,7.8-1.5
			c0.9-0.1,2.4,0.4,2.6,1.1c1.7,4,4.1,1.8,6.6,0.5c-1.7-0.6-3.4-1.1-5-1.7c-1.7-0.6-3.9-0.7-3.6-3.1c-2.6-0.8-5.4-1.5-8-2.5
			c-0.7-0.3-1-1.5-1.6-2.4c0.6-0.3,1-0.6,1.1-0.6c4,1.6,5.4-1.6,6.9-4.2c0.5-0.9,0.3-2.7-0.2-3.6c-1.3-2.2-0.9-3.3,1.4-4.2
			c3-1.2,6-2.7,8.9-4.6c-2.7,0.1-4.9-2.1-7.9-0.5c-2.4,1.2-4.6-0.7-5.5-4c1.5-0.2,2.9-0.3,4.4-0.5c1.2-5.6,1.9-6.1,8.6-6.1
			c0-1.6,0-3.1,0-4.9c2,0,3.8,0,5.8,0c2.2-4.8,6.9-6.3,11.3-8.5c-3.1-0.3-6.5-0.2-7.4-4.8c1.7,0.1,3.2,0.3,4.3,0.4
			c-0.2-3.1-0.4-6.2-0.6-9.7c2,0.6,3.3,0.9,5.4,1.5c-4.3-3.5-0.5-6.4-1.1-10c2,1.1,3.4,1.9,5,2.8c1.7-2.3-2-6.5,2.7-7.5
			c0.5,0.6,1.1,1.4,1.8,2.2c1.2-1.1,2.3-2.2,4.1-3.8c1,2.2,1.9,4.1,3,6.5c0.7-3,0-6.4,3.4-8c1.3,3,1.6,5.7-1,8.6
			c1.5-0.3,3-0.6,4.4-1c-0.5-2-0.8-3.5-1.2-5.3c1.4-0.2,2.3-0.3,3.2-0.5c-0.2-0.2-0.3-0.4-0.5-0.6c1.2-1.4,2.5-2.8,3.6-4.2
			c0.5-0.7,0.8-1.6,1-2.5c0.2-1.1,0.2-2.2,0.3-3.8c1.8,0.7,3.3,1.3,4.3,1.7c0.7-3.8,1.4-7.5,2.1-11.2c-0.1-0.1-0.2-0.1-0.3-0.2
			c-0.7,1.1-1.4,2.1-2.1,3.2c-0.2-0.3-0.4-0.7-0.6-1c-2.9-0.4-5.7-0.8-8.9-1.3c0.2,4.7-4,5.2-7.1,6.6c-0.8,0.4-2.1-0.2-3.1-0.6
			c-0.7-0.3-1.2-1.1-1.9-1.4c-0.8-0.4-1.7-0.6-2.6-1c-0.1,0.9-0.4,1.9-0.3,2.8c0.3,4-2.7,5.2-5.3,6.9c-3.1-2.7-2.9-6.3-2.3-10.1
			c-1.3-0.8-2.6-1.6-3.2-2c-1.3,1.1-2.1,2.3-3.1,2.4c-1.2,0.1-3.1-0.4-3.5-1.3c-1.3-3-2.1-6.2-2.9-9.4c-0.1-0.5,0.6-1.5,1.2-1.7
			c2.1-1.1,4.3-1.9,6.5-2.9c0.1-0.4,0.1-0.8,0.2-1.1c-1.3-0.9-2.5-2-3.9-2.7c-2.6-1.3-4.3-3-3.9-6.7c1.9,0.2,3.7,0.4,5.9,0.6
			c0.1-2.3,0.2-4.6,0.3-7.2c0.6-0.1,1.4-0.3,2.7-0.6c-0.4-0.9-0.7-2.5-1.2-2.6c-2.2-0.4-3.9-2.8-6.7-1.6c-1.9,0.9-4.4-1.3-5-3.5
			c-0.1-0.6-0.8-1.2-1.4-1.6c-2.3-1.5-2.9-2.9-2.5-6c1.3,0.1,2.6,0.2,3.7,0.3c-0.6-2.5-1.2-5.1-2-8.3c2.6,0.6,4.1,1,4.8,1.2
			c0.4-2.3,0.7-4.2,1-6c1,0.2,2,0.4,3.2,0.6c0.9-2.2,2.4-4,5.2-1.6c1.3-4.2,1.3-4.2,9-2c0.5-1.6,1-3.2,1.7-5.6
			c1.3,1.7,2.2,2.8,3.2,4c1.2-1.2,2.7-2.7,4.6-0.3c0.4-1.5,0.7-2.8,1.1-4.3c1.8,1,3.4,1.8,5,2.7c0.2-0.3,0.4-0.6,0.6-0.9
			c-1.1-2.3-2.3-4.5-3.7-7.5c2.2,0.2,3.8,0.3,5.4,0.4c-0.7-1.9-1.3-3.9-2.3-6.7c3.1,0.4,5.5,0.8,7.8,1.1c0.8-2.5-1.4-7.2,4.2-6
			c-1.5-5.1-1.3-5.4,2.8-4.6c0.1-1.1-0.1-2.4,0.4-3.2c0.4-0.6,1.8-0.6,2.7-0.8c-0.2-0.8-0.5-1.8-0.7-2.7c1.9-0.6,3.7-1.1,5.5-1.8
			c3.2-1.2,0.9-3.4,0.9-4.8c1.2-1.4,2.2-2.6,3.5-4.2c0.7,0.2,2,0.6,3.7,1.1c0.3-0.9,1.1-1.9,0.9-2.6c-0.7-2.3,0.6-3.8,2.1-4.6
			c0.7-0.4,2.3,0.9,3.7,1.5c1.1-1,2.4-2.4,4.6-4.5c1.3,1.4,2.5,2.8,3.8,4.2c0.7-1.9,0.2-5.3,3.4-6.4c2.3,3,3.2,5.3-0.5,8.8
			c1.5,1.4,2.6,1,4-0.3c1.3-1.3,3-2,4.9-3.2c0.1-0.7,0.3-2,0.4-3.5c0.8,0.2,1.3,0.3,1.9,0.4c1,0.2,2,0.3,3,0.4
			c-0.3-0.9-0.9-1.8-0.8-2.6c0.2-1.5,0.7-3,1.2-4.8c1.4,1,2.2,1.6,3,2.1c3.2-3.7,3.6-3.9,6.7-3.3c0.7-1.1,1.4-2.2,2.1-3.3
			c1.6,1.3,3,2.5,4.5,3.7c0.9-1.6,1.7-2.9,2.4-4.1c0.4,0.3,0.7,0.6,1.1,0.9c0.6,1.2,1.3,2.5,1.9,3.7c0.3-2.4,0.5-4.5,1-6.5
			c0.1-0.4,1-0.7,1.6-1c0.6-0.3,1.3-0.5,1.9-0.8c1-0.4,2-0.8,3-1.2c1.8-0.6,3.7-1,5.1-2.6c0.7-0.8,2.4-0.7,3.7-0.7
			c0.7,0,1.3,0.7,2.4,1.2c-1.4-3.9-3.9-7.1-1.9-11.2c1.9,0.8,3.5,1.4,6.1,2.5c-0.6-2.2-1.4-3.6-1.2-5c0.1-1.4,1.2-2.7,2.1-4.5
			c1.2,1.3,1.9,2.1,3,3.3c1.2-1.5,2.3-3,4-5.3c1.4,2.8,2.4,4.8,3.7,7.5c0.6-3.6-0.3-7.4,3.4-9.4c0.2,0.9,0.4,1.5,0.6,2.2
			c1.3,5.4,2.4,6,7.8,4.6c1.2-0.3,2.3-0.6,3.9-0.9c0.3,1.8,0.7,3.5,1,5.5c0.8,0,1.7,0.1,2.7,0.2c0.5-1.4,0.9-2.6,1.3-3.8
			c0.3-0.1,0.6-0.1,0.9-0.2c0.7,1.7,1.3,3.3,1.9,4.9c0.6-0.8,1.4-1.9,2.3-3.1c1.2,1,2.1,1.7,3.5,2.9c0.4-1.6,0.7-3,1.1-4.6
			c1.5,0.2,3.2,0.4,4.2,0.5c1.3-2,2.1-4.4,3.7-5.4c1.6-1.1,4-0.8,6.1-1.2c0.9-5.9,0.6-5.2,6-3.4c1.7,0.6,3.6,1.9,5.2,1.5
			c2.6-0.6,0.3-3.4,1.2-5c0.5-0.7,0.6-1.7,1.1-3c3.2,2.3,3.1,5.3,2,9.2c1.1-0.8,1.8-0.9,2-1.4c2.4-5.5,2.4-5.5,6.2-1.4
			c2-2.5,3.1-2.2,5.8,1.7c2.9-3.1,3.7,0.9,5.7,1.7c0.6-0.7,1.1-1.5,1.7-2.2c3.2,2,3.4,2.5,1.8,5.6c1.3,1.2,1.3,1.2,4.9-0.5
			c0.9,0.9,1.4,3.1,3.1,2.1c1.2,0.5,2.4,1,3.5,1.6c2.1,1,3.5,2.5,2.2,5.4c1-0.1,1.7-0.2,2.1-0.3c1.3-3.1-4-5-0.4-8.9
			c0.8,1.9,1.4,3.5,2,4.9c2.2-3.2,2.2-3.2,5.6-0.6c2.7-3.7,4.1,1.5,6.6,1.2c2-0.2,4.3,1.5,5.4,1.9c3.1,0.6,5.3,0.9,7.5,1.3
			c0-0.3,0.1-0.7,0.2-1.2c0.3-3.6,0.5-3.8,3.8-2.8c2.5,0.8,4.9,1.7,7.5,2.7c0.5-2.4,1.1-5,1.7-7.8c3.8,1,2.8,4.5,4.1,6.8
			c0.3-1.5,0.5-3,0.9-4.9c1.9,0.4,3.5,1.2,5.1,1.1c1.4-0.1,2.7-1.1,4.4-1.8c0.4-1,1.1-2.5,1.9-4.4c1.1,1,1.8,1.6,2.6,2.3
			c1-1,2-2,3.3-3.2c0.9,1.2,1.7,2.2,2.4,3.2c0.9-1.7,1.7-3.5,2.3-4.7c2.9,1.1,5.2,2.1,7.3,2.9c1-1.4,2-2.9,3.2-4.5
			c1,0.9,1.7,1.5,2.8,2.5c0.4-1.1,0.7-1.9,0.9-2.7c0.2-0.9,0.2-1.8,0.3-3.1c2.1,0.3,4,0.6,6,0.9c-0.1-0.2-0.2-0.4-0.2-0.6
			c1.1-0.6,2.3-1,3.3-1.7c0.6-0.4,1.3-1.2,1.4-1.9c0.3-1.7,0.2-3.7,2.9-3c0.2,0.1,0.7-0.1,0.8-0.2c1.1-2.9,2.9-2.1,4.7-0.9
			c1-1.3,1.8-2.5,3.1-4.2c1.4,2,2.7,3.7,4,5.6c0.4-2.8-1-6.3,2.7-8.7c0.7,2.3,1.2,4.3,1.8,6.5c3.6,1.6,6.5-1.5,10.1-2.1
			c1.4,2.4,2.3,6.1,6.5,3.9c0.4-2.5,0.4-2.5,4-2.1c0.2-0.9,0.4-1.9,0.7-3.3c1.9,0.5,3.7,1,5.4,1.4c0.4-2,0.7-3.9,1.1-6.4
			c1.7,0.9,3,1.7,4.4,2.3c0.5,0.2,1.3-0.1,1.9-0.2c-0.1-0.6,0.1-1.5-0.3-1.9c-2-2.4-0.2-3.8,1.4-4.7c0.8-0.5,2.3,0.5,3.5,0.8
			c0,0.3-0.1,0.7-0.1,1c1.5-1.2,3-2.5,4.5-3.7c1.4,1.2,2.7,2.1,4,3.2c0.2-0.4,0.3-0.7,0.5-1c1.1-1.4,2.2-2.7,3.3-4.1
			c0.4,0.5,1.1,0.9,1.3,1.4c0.7,2.1,1.9,4.2-0.1,6.4c-0.7,0.8-1,2-1.2,3.1c3-4.1,7.6-4.3,11.8-5.1c2.4-0.4,2.4,2.1,2.2,3.9
			c6.4,0.4,7.3,1.5,5.8,6.8c3.4,0.5,5.4,5.6,9.8,2.7c0.5,1.2,0.9,2.1,1.4,2.9c2.9-2.6,4.7-1,6.1,5.3c3.2-0.8,6.3-1.7,9.9-2.6
			c0.3,1.9,0.6,3.5,0.9,5.2c1.9-0.1,4-0.3,6.1-0.4c0.8,3.6-1.4,4.9-3.8,5.9c-1.6,0.6-3.4,1.2-2.8,3.1c0.4,1.3,2,2.4,3.3,3.3
			c0.7,0.5,1.6,0.7,2.8,1.1c-0.4,1.4-0.8,2.7-1.2,4.1c2.9,0.7,2.9,1,1.3,5.8c1.1,0,2.1,0,3.9,0c-0.5,1.4-0.7,2.7-1.3,3.6
			c-1.1,1.5-2.6,2.8-3.6,4.7c0.8-0.1,1.7-0.3,3.1-0.5c0.5,2.6,1.7,5.3,1.2,7.7c-0.5,2.3-2.7,4.2-4.3,6.6c1.2,0,2.1,0,3.3,0
			c0.6,2.7,2.3,4.4,5.3,3.7c0.5,2.4-0.8,3.4-2.4,4.3c-2,1.1-4.1,2.1-6.5,3.4c3,0.9,5.3,1.6,8,2.4c-1.1,2.5-1.9,4.8-3,6.8
			c-1.2,2.1-3.5,2.3-5.4,0.8c-0.9-0.7-2-1.3-3.4-2.2c0.2-0.6,0.5-1.7,1-3.4c-1.5,0.5-2.8,0.8-4.2,1.2c3.6,5.2,3.5,6.5-0.4,11
			c-0.2,0.2-0.4,0.5-0.4,0.7c-0.7,3.4-2.9,4.2-5.9,3.6c-0.4-0.1-0.8,0.1-0.4,0c-2.1,2.6-3.7,4.7-5.5,6.6c-0.3,0.3-1.5-0.2-2.1-0.6
			c-1.7-1-3-0.8-4.2,0.7c-0.6,0.7-1.4,1.1-2.2,1.6c-1,0.6-2.4,0.6-1.8,2.8c0.4,1.4-4.8,3.6-6.5,2.9c-0.8-0.3-1.6-0.9-2.3-1.2
			c-2.8,1.4-5.5,2.8-8.3,4.2c-0.3,3.5-0.3,3.5-6.7,7.1c-1.3-3.5-2.6-7-3.9-10.4c-1.3,2.4-2.4,4.4-3.5,6.4c-0.4,0-0.7,0-1.1,0
			c-1.6-2.6-3.1-5.2-4.7-7.8c0.9,6.9,0.9,6.9-5.8,11.1c-2.5-2.5-3.3-5.6-2.9-9.1c0.1-0.6,0-1.6-0.4-1.8c-0.6-0.2-1.6-0.3-2,0.1
			c-1.9,1.8-3.7,3.8-5.5,5.7c-1.2,1.2-2.5,2.4-3.6,3.5c-0.4-0.2-0.7-0.3-0.8-0.4c-3.4-3.9-3.4-3.9-8.1-3.7c-0.5,0-1.1-0.3-2-0.6
			c0.3,3.6-0.8,7.1-4.2,6.9c-2.8-0.2-2.8-3.8-2.6-7.4c-1,3.5-1.8,6.3-2.6,9.1c-4.1-1.3-4.8-4-4.2-7.4c-2.9-0.3-5.6-0.5-8.2-1
			c-0.9-0.2-1.7-1-2.5-1.6c-0.7-0.5-1.3-1.2-2-1.8c-1,1.2-2.8,2.4-2.8,3.6c0.1,2.6,0.9,5.3,1.7,7.8c0.9,2.8,3.2,4,5.7,5.1
			c6.5,2.9,12.3,7,17.3,12.4c0.3-1.5,0.1-3.5,0.8-3.9c1-0.6,2.7-0.2,4.1-0.2c1.2,0.1,2.4,0.2,3.6,0.4c2.3,0.5,3.7,1.7,3.8,4.4
			c0,0.9,1.1,1.8,1.7,2.8c0.2-0.2,0.4-0.4,0.6-0.6c-0.2-1.3-0.2-2.7-0.5-4c-0.2-0.9-0.5-2.2-1.2-2.6c-2.4-1.6-2.3-3.6-1.2-6.1
			c3.4,0.4,3.8,2.9,3.6,5.9c1.4-1.7,2.3-3.7,3.9-4.5c0.7-0.4,2.5,1.3,3.9,2.1c0.6-0.6,1.2-1.3,2-2.2c1.2,0.9,2.3,1.7,3.4,2.5
			c0.1-0.2,0.2-0.4,0.2-0.5c-0.7-5.1-0.5-5.5,4.2-4.3c2.8,0.7,5.4,2,8,3.4c1.4-0.3,1.7-1.1,0.3-2.5c-2.1-2.2-2.3-4.8-0.7-8
			c3.4,1.7,3.1,5.1,3.5,8.8c1.1-2.6,2-4.7,3.1-7.2c1.9,1.8,3.3,3.1,4.6,4.3c0.6-1,1.2-1.9,1.7-2.8c3.3,2.1,6.4,4,9.7,6.1
			c0.6-1.7,1.2-3.5,1.9-5.4c0.4-0.3,0.7-0.5,1.1-0.8c0.7,1.2,1.4,2.4,2,3.5c1.3-0.5,2.6-1,4.3-1.6c0.6-3,1.5-3.5,4.5-1.8
			c1.6-2.1,3.3-3.6,5.1-0.6c1-1.3,2-2.4,2.9-3.6c0.8,1.6,1.6,3.2,2.5,5.1c0.8-1.2,1.7-2.5,2.8-4.1c0.8,1.1,1.3,1.9,1.9,2.9
			c2.1-0.6,4.2-1.3,6.4-1.9c1,2.5,1.9,4.9,2.9,7.6c2.9-0.3,6.1-0.6,9.7-1c0,2,0,3.8,0,5.8c2.1,0,4.2,0,6.7,0
			c-0.2,3.7-0.4,7.1-0.6,10.6c1.2-0.2,2.7-0.5,4.3-0.9c0.3,1.7,0.6,3.1,1,5c1.2-0.8,1.9-1.4,2.8-2c3.3,2.7,6.7,5.5,9.6,7.9
			c1.3-0.4,2.7-1.3,3.3-0.9c1.8,1.1,2.6,2.9,0.9,5.2c0.7-0.3,1.4-0.7,2.1-0.7c1,0,2.5-0.1,2.9,0.6c1.3,2,2.3,4.3,3.1,6
			c1.3,0,2.7-0.3,2.9,0c0.8,1.8,1.4,3.8,2.2,6.2c0.9-0.4,2.5-1.3,4.2-2c4.6-2,4.6-1.9,5.6,3.2c1.5-0.3,3.1-0.6,4.2-0.8
			c0.9,2.5,1.9,4.7,2.6,7c0.2,0.6-0.2,1.4-0.3,2.1c-0.1,0.9-0.3,1.8-0.5,3.2c2.3-1.1,4-1.9,5.7-2.8c2.3,3.6,0.6,6.6-1,9.9
			c2-0.5,3.8-0.9,5.5-1.3c1.6,3.5,1.2,4.2-4.7,8.9c1.8-0.2,3.2-0.4,4.9-0.6c-0.1,1.1-0.2,1.9-0.3,3c3.1-3.1,2.9,1.7,4.8,1.9
			c2.9,0.3,3.2,2.5,3.1,5.1c1.4,0.3,2.8,0.7,4.4,1.1c0.2,0.5,0.4,1.3,0.7,2.4c3-2.4,3.6,1,5.4,2.3c0.7-0.6,1.4-1.2,2.3-1.9
			c1.6,1.5,3.7,2.6,1.5,5.3c-0.3,0.3-0.1,1-0.1,1.6c0.5,0,1.1,0.1,1.6,0c1.1-0.3,2.2-0.8,4.2-1.6c-0.5,3.4-0.9,6-1.3,8.8
			c1.2-0.1,2.3-0.3,3.6-0.4c0.6,2.7,2.1,3.3,4.6,1.8c0.4,1.4,0.7,2.5,1,3.6c1.6-0.2,3.1-0.3,4.7-0.5c0.4,2.6-2,4.7-4.9,4.5
			c-3.5-0.2-3.5-0.2-7,1.4c1.1,1.7,2.1,2.9,4.5,2.4c2.4-0.4,4.9,0.1,7,0.2c0.5,2.9,1,5.2,1.5,7.8c2-0.4,4-0.7,6.1-1.1
			c1.7,4.2-2.8,4.4-4,7.1c1.1,0,2,0,3,0c0.8,2-1,4.7,1.8,6C639.7,313.3,639.5,315.2,639.1,316z M126.9,452.1c0.1,0.5,0.4,1,0.8,1.4
			c0.4,0.4,0.9,0.5,1.5,0.3c0.8-0.2,1.5-0.7,2.3-1.6c0.7-0.8,1.3-1.8,1.7-2.9c0.2-0.5,0.4-0.8,0.7-0.9c0.3-0.1,0.4,0,0.5,0.3
			c0.1,0.6-0.4,1.7-1.5,3.3c-1.2,1.6-2.5,2.5-4.1,2.9c-1.2,0.3-2.3,0.1-3.2-0.6c-0.9-0.7-1.5-1.6-1.8-2.7c-0.6-2.4-0.2-5.4,1.4-9
			c1.6-3.6,3.5-5.6,5.7-6.1c0.8-0.2,1.5-0.1,2.1,0.3c0.6,0.4,1,0.9,1.2,1.6c0.3,1.3-0.2,2.7-1.3,4.4c-1.1,1.6-5.5,3.6-6.4,5.1
			C126,448.7,126.6,451.2,126.9,452.1z M139.7,450.3c0.1,0.3,0.3,0.6,0.6,0.7c0.3,0.1,0.8,0.1,1.4,0c1-0.2,1.7-0.7,2.1-1.3
			c0.4-0.7,0.6-1.4,0.4-2.2s-0.9-1.7-2.3-2.8c-2.2-1.8-3.4-3.4-3.7-4.7c-0.3-1.2,0-2.4,0.7-3.7c0.7-1.2,1.8-2,3.2-2.3
			c1-0.2,1.9-0.1,2.8,0.2c0.9,0.4,1.3,0.9,1.5,1.5c0.1,0.4,0,0.8-0.2,1.2s-0.5,0.6-0.9,0.7c-0.7,0.2-1.2-0.1-1.4-0.9
			c-0.1-0.4-0.1-0.6-0.2-1c-0.1-0.3-0.3-0.5-0.7-0.6s-0.8-0.1-1.2,0c-0.6,0.1-1.1,0.5-1.6,1c-0.4,0.5-0.6,1.2-0.4,1.9
			c0.2,0.8,1.2,1.9,3.1,3.4c1.8,1.2,2.8,2.5,3.1,3.6c0.3,1.5,0,2.9-0.8,4.3c-0.9,1.4-2.1,2.2-3.6,2.5c-1.3,0.3-2.4,0.2-3.3-0.3
			c-0.9-0.5-1.4-1.1-1.5-1.6c-0.1-0.4,0-0.8,0.2-1.2s0.5-0.7,1-0.8c0.4-0.1,0.8-0.1,1.1,0.1c0.3,0.2,0.5,0.5,0.6,0.8
			c0,0.2,0,0.4,0,0.8C139.6,449.9,139.6,450.2,139.7,450.3z M156.7,431.5c0.8-0.1,1.3-0.2,1.3-0.2l0.1,0.1c0.1,0.6,0.1,0.9-0.1,0.9
			c-0.6,0.1-0.9,0.1-1.5,0.2c-1.1,0-1.6,0.1-2.5,0.2c0,0.4-0.2,1.5-0.5,3.3c-0.9,5.8-1.2,9.3-1,10.5c0.2,0.8,0.5,1.1,1.1,1
			c1-0.2,2.2-1.6,3.7-4.2c0.2-0.3,0.4-0.5,0.6-0.6c0.2,0,0.4,0,0.4,0.2c0.1,0.3-0.6,1.4-1.9,3.3c-1.3,1.8-2.9,3-4.6,3.3
			c-0.6,0.1-1.1,0.1-1.5-0.2c-0.4-0.3-0.6-0.6-0.7-1c-0.2-0.9-0.1-2.1,0.1-3.7c0-0.1,0.5-3.9,1.6-11.2c-0.8,0.1-1.1,0.2-1.9,0.4
			c-0.5,0.1-0.8,0.2-1.3,0.3c-0.2,0-0.3,0-0.3-0.2c-0.1-0.4-0.1-0.6,0-0.7c0.1-0.1,0.4-0.2,1.1-0.4c0.6-0.2,1.5-0.4,2.7-0.6
			c0.1-1.1,0.3-2.4,0.5-3.9c0.1-0.9,0.2-1.4,0.4-2.4c0-0.1,0.1-0.2,0.2-0.2c0.5-0.1,1-0.1,1.5-0.1s0.8,0.1,0.8,0.3
			c0,0.1,0,0.1,0,0.2c-0.3,2.3-0.5,3.5-0.8,5.8C155.2,431.7,155.7,431.6,156.7,431.5z M160.7,444.4c0.4-0.5,0.8-0.7,1.3-0.8
			c0.5-0.1,1,0,1.5,0.3c0.4,0.3,0.7,0.7,0.8,1.2c0.1,0.5,0,1-0.3,1.5c-0.3,0.4-0.7,0.7-1.3,0.8c-0.5,0.1-1,0-1.5-0.3
			c-0.4-0.3-0.7-0.7-0.8-1.2S160.4,444.9,160.7,444.4z M184.9,425.1c-0.1-0.4-0.3-0.8-0.8-1c-0.5-0.3-1.2-0.3-2-0.2
			c-0.5,0.1-0.8,0-0.8-0.3s0.2-0.4,0.6-0.5c3.1-0.5,5-1.1,5.9-1.9c0.2-0.2,0.4-0.3,0.5-0.3c0.2,0,0.3,0.1,0.3,0.3
			c0,0.1-0.3,1.8-0.9,5.2c-0.9,4.9-1.3,7.3-2.1,12.2c-0.3,1.1-0.3,1.8-0.3,2.1c0.1,0.6,0.4,1,0.9,1.1c0.5,0.2,1,0.2,1.4,0.2
			c0.6-0.1,0.9,0,0.9,0.2c0,0.3-0.1,0.4-0.5,0.5c-0.3,0-1,0.1-2,0.2c-0.6,0.1-1.6,0.2-2.9,0.4c-0.7,0.1-1.3,0.2-1.6,0.3
			c-0.8,0.2-1.4,0.3-1.6,0.4c-0.4,0.1-0.6,0-0.7-0.3c0-0.2,0.2-0.4,0.7-0.5c0.8-0.2,1.4-0.5,1.8-1c0.4-0.5,0.7-1.1,0.8-1.8
			s0.5-2.9,1.1-6.6c0.5-2.7,0.7-4.1,1.2-6.9C184.9,426.2,185,425.6,184.9,425.1z M198.6,441c0.7,0.3,1.4,0.3,2.3,0.2
			c1-0.1,2-0.6,3.2-1.5c1.1-0.9,2.1-2.1,2.9-3.8c1-1.9,1.6-3.8,2-5.8c-1.6,1.7-3.4,2.7-5.4,2.9c-2.1,0.2-3.7-0.1-5-1.1
			s-2.1-2.3-2.3-4c-0.2-2,0.4-3.9,1.9-5.7s3.5-2.8,5.8-3.1s4.2,0.3,5.7,1.6s2.4,3.3,2.7,5.8c0.3,3.3-0.6,6.6-2.6,9.8
			c-2.1,3.2-4.9,5-8.7,5.5c-1.9,0.2-3.3,0-4.4-0.6c-1.1-0.6-1.6-1.5-1.8-2.5c-0.2-1.3,0.3-2.1,1.4-2.2c0.4-0.1,0.8,0,1.1,0.3
			c0.3,0.2,0.5,0.5,0.5,0.9c0,0.2,0,0.5-0.2,1c-0.1,0.3-0.2,0.6-0.2,0.9C197.6,440.3,198,440.7,198.6,441z M218.4,438.1
			c0.7,0.4,1.6,0.6,2.5,0.5c1.8-0.2,3.2-1.2,4.4-3c1.1-1.9,1.7-3.6,1.5-5.3c0-0.6-0.3-1.2-0.7-1.8c-0.5-0.6-1.1-0.8-2-0.8
			c-0.5,0-1.2,0.3-2,0.8c-0.6,0.4-0.9,0.6-1.1,0.6c-0.3,0-0.4-0.1-0.4-0.4c0-0.2,0.3-0.5,1-0.8c3.1-1.7,4.9-3.1,5.6-4.1
			c0.6-1,0.9-2,0.9-2.9c-0.1-1-0.4-1.8-1-2.3c-0.6-0.5-1.5-0.7-2.5-0.7c-1.3,0.1-2.4,0.6-3.2,1.6c-0.8,1-1.2,2-1.1,3.3
			c0,0.5,0.2,1,0.4,1.2c0.2,0.3,0.6,0.4,1,0.3c0.5,0,1.1-0.4,1.7-0.9c0.4-0.4,0.6-0.5,0.8-0.6c0.2,0,0.3,0.1,0.3,0.3
			c0,0.4-0.4,0.9-1.2,1.6c-0.9,0.6-1.6,1-2.4,1.1c-0.7,0.1-1.4-0.1-1.9-0.6s-0.8-1.1-0.9-1.7c-0.1-1.5,0.5-2.9,1.9-4.2
			c1.4-1.3,3.1-2,5.3-2.1c1.8-0.1,3.2,0.2,4.3,1c1.1,0.8,1.6,1.8,1.7,2.9c0.1,0.9-0.2,1.8-0.9,2.7c-0.9,0.9-2.7,1.9-5.7,3.2
			c1.8-0.1,3.1,0.2,3.9,1.1s1.2,1.8,1.3,2.9c0.1,1.9-0.6,3.7-2.1,5.4s-3.6,2.7-6.4,2.9c-2.2,0.2-3.8-0.1-5-1c-1.2-0.8-1.9-1.9-2-3.1
			c0-0.5,0.1-1,0.4-1.4s0.7-0.6,1.1-0.7c0.5,0,0.9,0.1,1.2,0.3c0.3,0.3,0.5,0.6,0.5,0.9c0,0.2-0.1,0.5-0.2,0.9
			c-0.2,0.5-0.2,0.9-0.2,1.2C217.3,437.1,217.7,437.6,218.4,438.1z M249.2,427.9c0.7,0,1.3-0.3,1.7-0.8c0.5-0.5,0.7-1,0.8-1.6
			c0.1-0.3,0.2-0.5,0.4-0.5c0.3,0,0.4,0.1,0.4,0.4c0,0.3-0.1,0.7-0.3,1.2c-0.6,2.3-1,3.4-1.6,5.6c-0.1,0.2-0.3,0.3-0.4,0.4
			c-0.2,0-0.3-0.1-0.4-0.4c0-0.1,0-0.2,0-0.3c0.1-0.3,0.1-0.6,0.1-1c0-0.5-0.1-0.8-0.3-1.2c-0.2-0.3-0.4-0.5-0.7-0.7
			c-0.3-0.1-0.7-0.2-1.2-0.2c-0.7,0-1.1,0-1.8,0c-0.4,1.6-0.6,2.4-1,4c-0.2,0.7-0.3,1.2-0.3,1.7c0,0.4,0.2,0.8,0.5,1.2
			s0.9,0.6,1.8,0.6c0.6,0,0.9,0.1,0.9,0.4c0,0.2-0.2,0.4-0.8,0.4c-0.3,0-0.9,0-1.8,0c-0.6,0-1.2,0-1.9,0c-0.6,0-1.2,0.1-1.8,0.1
			c-1.2,0.1-1.8,0.2-2,0.2c-0.8,0-1.2-0.1-1.2-0.3s0.3-0.4,1-0.5c0.6-0.1,1.1-0.2,1.4-0.5s0.6-0.6,0.8-1c0.2-0.4,0.5-1.7,1-3.7
			c0.3-1.4,0.6-2.2,0.7-2.5c-0.2,0-0.3,0-0.4,0c-3.9,0.2-5.8,0.3-9.6,0.5c0-0.2,0.1-0.6,0.2-0.9c0.2-0.3,1.6-1.5,3.5-3.4
			c2.8-2.7,5.3-5,7.5-6.9c1.4-1.2,2.1-1.8,3.6-2.9c0.1-0.1,0.5-0.1,1-0.2c0.4,0,0.6,0.1,0.6,0.3c0.3,0.6-0.9,4.7-3.2,12.6
			C247.5,427.9,248.1,427.9,249.2,427.9z"/>
		<path class="st0" d="M209.5,424.9c-0.2-1.6-0.7-2.9-1.7-3.8c-1-0.9-2.2-1.3-3.5-1.1c-1.6,0.2-2.8,1.1-3.6,2.7
			c-1,1.4-1.3,3.3-1,5.3c0.2,1.4,0.7,2.4,1.7,3.1c0.9,0.6,1.9,0.9,2.9,0.8c1.5-0.2,2.8-0.9,3.9-2.2
			C209.3,428.4,209.7,426.8,209.5,424.9z"/>
	</g>
</g>
<g id="Layer_1">
	<g>
		<path class="st0" d="M683.2,251.1l7.9,0.2l12.1-0.2c1.5,0,2.1,0.3,2.1,0.9c0,0.4-0.4,0.7-1.2,0.8c-3.2,0.4-5.2,1.6-6,3.5
			c-0.8,2-1.2,9-1.2,21.2c0,4.5,0.1,9.6,0.4,15.1c0.2,5.7,0.5,9,0.8,10c0.3,1.1,0.9,2,1.7,2.7c0.8,0.7,2.3,1.2,4.5,1.5
			c0.7,0.1,1.1,0.4,1.1,0.8c0,0.5-0.3,0.8-1,0.8l-10.7-0.1l-9.2,0.1c-1,0-1.6-0.3-1.6-0.9c0-0.6,0.4-0.9,1.2-0.9
			c2.7-0.1,4.3-1,4.7-2.7c0.5-1.8,0.7-7.3,0.7-16.6c0-9-0.1-16.3-0.2-22c-0.2-5.6-0.6-9-1.4-10.2c-0.8-1.3-2.2-2-4.4-2.3
			c-0.8-0.1-1.2-0.5-1.2-1C682.3,251.4,682.6,251.1,683.2,251.1z"/>
		<path class="st0" d="M726.4,251.9c1.8,2.3,4.8,6,9,10.9l13.9,16.1l13.4,15.4c0.3-5.3,0.4-12,0.4-20.4c0-6.2-0.1-10.4-0.4-12.6
			c-0.3-2.1-1.3-3.9-2.9-5.4c-1.7-1.5-3.7-2.1-6.2-2.1c-1.2,0-1.8-0.3-1.8-0.8c0-0.3,0.1-0.5,0.4-0.6c0.3-0.1,2.1-0.3,5.9-0.4
			c3.6-0.1,6.7-0.2,9.2-0.2h5.9h1c0.9,0,1.4,0.3,1.4,0.8c0,0.5-0.4,0.7-1.2,0.8c-2.9,0.3-5,1.1-6.3,2.2c-1.3,1.2-2,2.9-2.3,5.2
			c-0.3,2.2-0.4,9.9-0.4,22.8l-0.4,22.9c0,1.2-0.3,1.8-0.9,1.8c-0.2,0-0.4-0.1-0.6-0.2c-0.3-0.1-1.6-1.6-3.9-4.4
			c-2.3-2.8-5.3-6.1-8.7-10c-3.4-3.9-6.1-7-8.1-9.5c-4.3-5.3-7-8.5-8.2-9.7c-4.2-4.5-6.6-7.3-7.4-8.6c-0.5-0.9-1-1.3-1.4-1.3
			c-0.3,0-0.5,0.6-0.5,1.7l0.1,6.7c0,8.5,0.2,15.3,0.7,20.4c0.5,5.1,1,8.1,1.5,9c0.5,0.9,1.4,1.8,2.6,2.6c1.3,0.9,2.6,1.4,4,1.4
			c2,0,2.8,0.4,2.8,1.1c0,0.5-0.5,0.8-1.6,0.8h-20.9c-1,0-1.5-0.3-1.5-0.8c0-0.6,0.5-0.9,1.5-0.9c3.5,0,6-0.8,7.1-2.3
			c1.2-1.6,1.8-4.9,1.8-10V279c0-9-0.2-14.2-0.7-15.9c-0.5-1.6-1.6-3.5-3.3-5.9c-1.8-2.3-3.7-3.6-5.9-3.9c-1-0.1-1.5-0.4-1.5-0.8
			c0-0.6,0.7-0.8,2-0.8L726.4,251.9z"/>
		<path class="st0" d="M811.5,254.6c0.8-0.8,1.3-1.6,1.6-2.4c0.2-0.7,0.6-1.1,1-1.1c0.2,0,0.5,0.1,0.8,0.4c0.2,1.1,0.5,3.1,0.9,6.2
			l1.1,8.2c0,0.5-0.3,0.8-1,0.8c-0.4,0-0.7-0.3-0.9-0.9c-1.6-3.8-3.8-6.9-6.8-9.5c-3-2.4-6.2-3.7-9.9-3.7c-3.5,0-6.1,1.1-7.9,3.1
			c-1.8,2.1-2.6,4.4-2.6,6.7c0,2.9,1,5.1,2.9,6.6s6,3.2,12,5.2c4.5,1.4,7.8,2.7,10,4c2.2,1.3,4.1,3.1,5.6,5.5
			c1.5,2.3,2.2,4.9,2.2,7.5c0,4.6-1.9,8.7-5.7,12.3c-3.8,3.6-8.4,5.5-14,5.5c-5,0-10-1.6-14.9-4.7c-1,0.8-1.7,1.8-2,2.8
			c-0.2,0.9-0.6,1.4-1.2,1.4c-0.5,0-0.8-0.6-1-1.8s-0.6-6.8-1.3-16.8c0.1-0.4,0.4-0.5,0.9-0.5c0.4,0,0.8,0.3,1.1,1
			c4.5,11.2,10.6,16.8,18.6,16.8c4,0,7-1.2,9.3-3.6c2.2-2.3,3.3-5.2,3.3-8.2c0-2.1-0.6-4.1-1.8-5.9c-1.2-1.8-2.8-3.2-4.8-4.3
			c-2-1.1-5.1-2.3-9.4-3.7c-5.5-1.8-9.3-3.4-11.2-5c-2-1.6-3.4-3.3-4.4-5.4c-0.9-2-1.4-3.9-1.4-5.8c0-3.8,1.8-7.2,5.3-10.2
			c3.5-3,7.7-4.5,12.8-4.5c2,0,3.9,0.3,6,0.9C807.1,252.5,809.3,253.3,811.5,254.6z"/>
		<path class="st0" d="M827.9,251.6h21.8c1.3,0,1.9,0.3,1.9,0.8s-0.5,0.8-1.4,0.9c-2,0.2-3.6,0.8-4.6,1.7c-1,0.9-1.8,2.5-2.2,4.9
			c-0.5,2.3-0.8,7.3-0.8,15c0,9.3,0.3,15.6,0.8,19.1c0.5,3.5,2.2,6.3,5.1,8.5c2.8,2.1,6.6,3.1,11.5,3.1c5.1,0,9-1,11.6-2.9
			s4.4-4.8,5.2-8.6c0.8-3.8,1.2-12.1,1.2-24.9c0-6.5-0.7-10.8-2-12.9c-1.4-2-3.4-3-6-3c-1.1,0-1.6-0.3-1.6-0.9
			c0-0.6,0.7-0.9,2.1-0.9h17.4c0.8,0,1.2,0.3,1.2,0.9c0,0.4-0.3,0.7-1,0.8c-2.2,0.3-3.8,1-4.9,2c-1.1,1.1-1.7,3-2,5.9
			c-0.3,2.8-0.5,6.9-0.5,12.4c0,6.8-0.3,12.6-0.8,17.3c-0.5,4.8-1.6,8.3-3.3,10.6c-1.7,2.3-4.2,4.2-7.6,5.7
			c-3.4,1.5-7.5,2.1-12.4,2.1c-5.1,0-9.4-0.8-12.9-2.4c-3.5-1.6-6-3.7-7.2-6.3c-1.3-2.6-1.9-6.6-1.9-11.9l0.2-12
			c0-10.6-0.5-17.2-1.4-19.6c-0.9-2.3-2.8-3.6-5.9-3.7c-1,0-1.5-0.2-1.5-0.7C826.1,251.9,826.8,251.6,827.9,251.6z"/>
		<path class="st0" d="M927,279.2c4,1.8,6.8,3.5,8.4,5.5c1.6,1.9,2.7,4.9,3.5,8.8c1,5.2,2.3,8.7,4.1,10.5c1.8,1.8,4,2.7,6.8,2.8
			c0.8,0.1,1.2,0.3,1.2,0.9s-0.5,0.8-1.4,0.8c-8.1,0-13-0.3-14.7-0.8s-3-3.5-3.8-8.9c-0.8-5.3-1.6-9.1-2.4-11.5
			c-0.9-2.4-2.2-4.3-4.1-5.6c-1.9-1.3-4.8-2-8.8-2c-1.5,0-3.2,0.2-5.1,0.5c-0.1,1.9-0.2,3.7-0.2,5.7c0,7.4,0.1,12.2,0.3,14.4
			c0.2,2.1,0.8,3.8,1.9,4.8c1.1,1,2.7,1.6,5.2,1.6c1.1,0,1.6,0.3,1.6,0.8c0,0.6-0.7,0.9-2,0.9h-21.5c-1.3,0-1.9-0.3-1.9-0.9
			c0-0.5,0.5-0.8,1.5-0.8c2.2,0,3.7-0.3,4.6-1c0.9-0.7,1.6-1.7,2-3.1c0.5-1.4,0.8-3.9,0.8-7.6l-0.1-8.9v-13.5
			c0-6.8-0.2-11.4-0.5-13.7c-0.3-2.2-0.9-3.7-1.7-4.5c-0.8-0.8-2.6-1.4-5.5-1.8c-0.6-0.1-0.9-0.3-0.9-0.8c0-0.5,0.6-0.7,1.9-0.7
			l25.7-0.6c7.1,0,12.2,1.4,15.4,4.1s4.8,6,4.8,10c0,2.4-0.7,4.8-2,6.8c-1.3,2-2.8,3.5-4.6,4.5C933.7,276.9,930.9,278,927,279.2z
			 M910.5,278.1c5.6-0.1,9.8-0.5,12.5-1.2c2.7-0.7,5.2-2.1,7.1-4.4c2-2.2,2.9-5,2.9-8c0-3.2-1.1-6.1-3.2-8.6
			c-2.1-2.4-5.7-3.6-10.4-3.6c-2.6,0-5.5,0.4-8.6,1.1c-0.4,8-0.5,14.2-0.5,19C910.2,274,910.3,275.9,910.5,278.1z"/>
		<path class="st0" d="M979.6,250.4h2c3.2,6.6,7.7,18,13.4,34c3.7,10.2,6.1,16.6,7.5,18.9c1.4,2.3,3.5,3.6,6.5,3.9
			c1,0.1,1.5,0.4,1.5,1c0,0.4-0.3,0.6-0.8,0.6h-0.6c-2.6-0.2-6-0.4-10.1-0.4c-6.3,0-10.3,0.1-12.1,0.3c-0.9,0-1.4-0.3-1.4-0.8
			c0-0.4,0.3-0.6,1-0.7c2.4-0.2,4.2-0.7,5.1-1.3c1-0.6,1.4-1.6,1.4-2.8c0-1.3-0.9-4.4-2.6-9.4l-2.5-7.4c-1.5,0-8.2,0.1-20.2,0.3
			c-3,8-4.5,13.1-4.5,15.1c0,1.8,0.8,3.1,2.2,3.9c1.5,0.9,2.9,1.4,4.4,1.5c1.1,0.1,1.6,0.4,1.6,1c0,0.2-0.2,0.4-0.5,0.6
			c-4.6-0.2-7.4-0.3-8.4-0.3c-4.9,0-8.1,0.1-9.8,0.2c-0.9,0-1.4-0.3-1.4-0.8s0.4-0.8,1.2-0.9c3.3-0.4,5.9-2.7,7.6-6.7
			c1.8-4.1,4.5-11.4,8.3-22C971.8,268.5,975.6,259.2,979.6,250.4z M977.9,259.9c-2.7,5.5-5.9,13.5-9.5,23.9c3-0.1,5.1-0.2,6.4-0.2
			l12.2,0.2c-1.1-3-2.5-7-4.5-12C980.1,265.9,978.6,261.9,977.9,259.9z"/>
		<path class="st0" d="M1028,251.9c1.8,2.3,4.8,6,9,10.9l13.9,16.1l13.4,15.4c0.3-5.3,0.4-12,0.4-20.4c0-6.2-0.1-10.4-0.4-12.6
			c-0.3-2.1-1.3-3.9-2.9-5.4c-1.7-1.5-3.7-2.1-6.2-2.1c-1.2,0-1.8-0.3-1.8-0.8c0-0.3,0.1-0.5,0.4-0.6c0.3-0.1,2.1-0.3,5.9-0.4
			c3.6-0.1,6.7-0.2,9.2-0.2h5.9h1c0.9,0,1.4,0.3,1.4,0.8c0,0.5-0.4,0.7-1.2,0.8c-2.9,0.3-5,1.1-6.3,2.2c-1.3,1.2-2,2.9-2.3,5.2
			c-0.3,2.2-0.4,9.9-0.4,22.8l-0.4,22.9c0,1.2-0.3,1.8-0.9,1.8c-0.2,0-0.4-0.1-0.6-0.2c-0.3-0.1-1.6-1.6-3.9-4.4
			c-2.3-2.8-5.3-6.1-8.7-10c-3.4-3.9-6.1-7-8.1-9.5c-4.3-5.3-7-8.5-8.2-9.7c-4.2-4.5-6.6-7.3-7.4-8.6c-0.5-0.9-1-1.3-1.4-1.3
			c-0.3,0-0.5,0.6-0.5,1.7l0.1,6.7c0,8.5,0.2,15.3,0.7,20.4s1,8.1,1.5,9c0.5,0.9,1.4,1.8,2.6,2.6c1.3,0.9,2.6,1.4,4,1.4
			c2,0,2.8,0.4,2.8,1.1c0,0.5-0.5,0.8-1.6,0.8h-20.9c-1,0-1.5-0.3-1.5-0.8c0-0.6,0.5-0.9,1.5-0.9c3.5,0,6-0.8,7.1-2.3
			c1.2-1.6,1.8-4.9,1.8-10l-0.4-15.2c0-9-0.2-14.2-0.7-15.9c-0.5-1.6-1.6-3.5-3.3-5.9c-1.8-2.3-3.7-3.6-5.9-3.9
			c-1-0.1-1.5-0.4-1.5-0.8c0-0.6,0.7-0.8,2-0.8H1028z"/>
		<path class="st0" d="M1127.1,255.1c1.6-1.5,2.5-2.3,2.7-2.8c0.3-0.7,0.7-1.1,1.3-1.1c0.6,0,0.9,0.5,1,1.6l1,15.1
			c0,0.9,0,1.4-0.1,1.6c-0.1,0.2-0.3,0.3-0.6,0.3c-0.5,0-1-0.6-1.5-1.9c-2-4.6-4.6-8.4-8-11.3s-7.2-4.4-11.2-4.4
			c-3.5,0-6.7,1.2-9.8,3.4c-2.9,2.2-5.3,5.5-6.8,9.8c-1.7,4.2-2.4,8.7-2.4,13.6c0,8.2,2.2,14.9,6.8,20c4.5,5.2,9.6,7.7,15.1,7.7
			c3.8,0,7.3-1.2,10.4-3.6c3.2-2.4,5.6-5.2,7.2-8.3c0.4-0.9,0.9-1.3,1.4-1.3c0.7,0,1,0.4,1,1.1c0,0.9-1.1,2.6-3.3,5.5
			c-2.2,2.8-5.1,5.2-8.7,6.9c-3.6,1.8-7.4,2.6-11.5,2.6c-4.9,0-9.5-1.3-13.8-3.7c-4.4-2.4-7.8-5.9-10.3-10.1
			c-2.5-4.3-3.8-9.5-3.8-15.2c0-5.8,1.3-10.9,3.7-15.5c2.4-4.6,6-8.2,10.4-10.7c4.5-2.5,9.1-3.8,13.9-3.8c2.5,0,5.2,0.4,7.8,1.2
			C1121.5,252.3,1124.2,253.5,1127.1,255.1z"/>
		<path class="st0" d="M1185.6,252.1c0.9,3.2,1.7,7.8,2.4,13.7c-0.1,0.2-0.3,0.4-0.5,0.4c-0.2,0-0.4-0.1-0.7-0.4
			c-2-3.2-3.9-5.7-5.8-7.3c-1.9-1.7-3.6-2.8-5.5-3.6c-1.9-0.8-5-1.1-9.5-1.1c-4.2,0-7.6,0.3-10,0.8c-0.2,0.3-0.4,0.8-0.4,1.6
			c0,0.2,0,0.6-0.1,1.1c-0.3,2.3-0.4,8.6-0.4,18.8c0,0.4,0,1.1,0.1,1.9c2.2,0.1,3.7,0.1,4.5,0.1c3.6,0,6.2-0.6,7.9-1.7s3-3.4,4.3-7
			c0.2-0.6,0.5-0.9,0.9-0.9c0.6,0,0.8,0.4,0.8,1.3l-0.2,1.8c-0.2,2.2-0.4,4.7-0.4,7.1c0,3.9,0.1,7.5,0.2,10.6c0,1-0.3,1.5-0.8,1.5
			c-0.4,0-0.7-0.4-0.8-1.1c-0.6-3.4-1.9-5.9-3.8-7.4c-2-1.6-6.1-2.2-12.7-2.2c-0.1,2.1-0.1,5.6-0.1,10.2c0,6.1,0.2,10,0.7,11.6
			c0.4,1.7,1.5,2.9,3.1,3.9c1.7,1,4.5,1.5,8.4,1.5c11.2,0,18.5-3.9,21.8-11.6c0.4-1,0.8-1.5,1.3-1.5s0.7,0.3,0.7,1
			c0,0.4-0.1,0.7-0.2,1.2c-0.2,0.6-0.6,2.6-1.3,6.1c-0.1,0.8-0.7,3-1.7,6.7h-18.1c-2.6,0-6.4-0.1-11.5-0.3s-9.6-0.3-13.4-0.4
			c-3.9,0-6-0.1-6-0.2c-0.2-0.1-0.3-0.3-0.3-0.5c0-0.6,0.5-0.9,1.5-0.9c3.2,0,5.4-0.9,6.3-2.5c1-1.7,1.6-5.9,1.6-12.4V283l0.1-8.3
			c0-1.7-0.1-4.9-0.3-9.6c-0.2-4.7-0.4-7.3-0.5-8c-0.2-0.7-0.6-1.4-1.4-2c-0.8-0.7-2.3-1.3-4.9-2c-0.8-0.2-1.2-0.5-1.2-1
			s0.5-0.8,1.6-0.8l8.9,0.5c3.1,0.1,10.8,0.2,23,0.2C1181.3,252,1185.5,252.1,1185.6,252.1z"/>
		<path class="st0" d="M1245.1,250.4h2c3.2,6.6,7.7,18,13.4,34c3.7,10.2,6.1,16.6,7.5,18.9c1.4,2.3,3.5,3.6,6.5,3.9
			c1,0.1,1.5,0.4,1.5,1c0,0.4-0.3,0.6-0.8,0.6h-0.6c-2.6-0.2-6-0.4-10.1-0.4c-6.3,0-10.3,0.1-12.1,0.3c-0.9,0-1.4-0.3-1.4-0.8
			c0-0.4,0.3-0.6,1-0.7c2.4-0.2,4.2-0.7,5.1-1.3c1-0.6,1.4-1.6,1.4-2.8c0-1.3-0.9-4.4-2.6-9.4l-2.5-7.4c-1.5,0-8.2,0.1-20.2,0.3
			c-3,8-4.5,13.1-4.5,15.1c0,1.8,0.8,3.1,2.2,3.9c1.5,0.8,2.9,1.4,4.4,1.5c1.1,0.1,1.6,0.4,1.6,1c0,0.2-0.2,0.4-0.5,0.6
			c-4.6-0.2-7.4-0.3-8.4-0.3c-4.9,0-8.1,0.1-9.8,0.2c-0.9,0-1.4-0.3-1.4-0.8s0.4-0.8,1.2-0.9c3.3-0.4,5.9-2.7,7.6-6.7
			c1.8-4.1,4.5-11.4,8.3-22C1237.4,268.5,1241.1,259.2,1245.1,250.4z M1243.5,259.9c-2.7,5.5-5.9,13.5-9.5,23.9
			c3-0.1,5.1-0.2,6.4-0.2l12.2,0.2c-1.1-3-2.5-7-4.5-12C1245.7,265.9,1244.1,261.9,1243.5,259.9z"/>
		<path class="st0" d="M1334.1,269.7c-0.4,0-0.8-0.5-1.2-1.4c-2.3-5.2-5.5-9.3-9.4-12.1c-3.9-2.8-8-4.3-12.4-4.3
			c-3.6,0-7.1,1.1-10.5,3.3c-3.4,2.1-6.1,5.6-8.3,10.1c-2.1,4.6-3.2,9.4-3.2,14.5c0,7.3,2.2,13.7,6.6,19c4.4,5.4,9.9,8,16.5,8
			c2.3,0,4.3-0.4,6-1.1c1.7-0.7,3.2-1.8,4.7-3.1c1.5-1.4,2.3-2.3,2.6-3c0.3-0.7,0.5-2.4,0.5-5.3c0-4.8-0.6-7.9-1.9-9.4
			s-3.3-2.2-6-2.2h-1.4c-0.9,0-1.3-0.3-1.3-0.8c0-0.7,0.5-1,1.4-1l2.3,0.1l9.8-0.1l12-0.3c0.7,0,1,0.3,1,0.9c0,0.6-0.4,1-1.2,1
			c-1.8,0.2-3.2,0.6-4.4,1.2c-1.2,0.6-1.9,1.3-2,2c-0.3,0.8-0.4,2-0.4,3.9c0,6.7-0.2,10.4-0.5,11.1c-0.3,0.7-3,2.1-8.1,4.6
			c-5.1,2.3-10.1,3.5-15.2,3.5c-8.5,0-15.7-2.7-21.8-8.2c-6-5.5-9-12.3-9-20.7c0-5.8,1.5-10.9,4.3-15.5c2.8-4.7,6.7-8.2,11.7-10.8
			c5-2.5,10-3.8,15.1-3.8c4.8,0,10,1.4,15.5,4.1c1.6,0.8,2.6,1.2,3.3,1.2c0.9,0,1.6-0.4,2-1.2c0.4-0.7,0.8-1,1.2-1
			c0.7,0,1.1,0.9,1.2,2.5c0.2,2.6,0.6,6.6,1.3,12.1c0.1,0.3,0.1,0.6,0.1,0.8C1335,269.4,1334.7,269.7,1334.1,269.7z"/>
		<path class="st0" d="M1393.4,252.1c0.9,3.2,1.7,7.8,2.4,13.7c-0.1,0.2-0.3,0.4-0.5,0.4s-0.4-0.1-0.7-0.4c-2-3.2-3.9-5.7-5.8-7.3
			c-1.9-1.7-3.6-2.8-5.5-3.6c-1.9-0.8-5-1.1-9.5-1.1c-4.2,0-7.6,0.3-10,0.8c-0.2,0.3-0.4,0.8-0.4,1.6c0,0.2,0,0.6-0.1,1.1
			c-0.3,2.3-0.4,8.6-0.4,18.8c0,0.4,0,1.1,0.1,1.9c2.2,0.1,3.7,0.1,4.5,0.1c3.6,0,6.2-0.6,7.9-1.7s3-3.4,4.3-7
			c0.2-0.6,0.5-0.9,0.9-0.9c0.6,0,0.8,0.4,0.8,1.3l-0.2,1.8c-0.2,2.2-0.4,4.7-0.4,7.1c0,3.9,0.1,7.5,0.2,10.6c0,1-0.3,1.5-0.8,1.5
			c-0.4,0-0.7-0.4-0.8-1.1c-0.6-3.4-1.9-5.9-3.8-7.4c-2-1.6-6.1-2.2-12.7-2.2c-0.1,2.1-0.1,5.6-0.1,10.2c0,6.1,0.2,10,0.7,11.6
			c0.4,1.7,1.5,2.9,3.1,3.9s4.5,1.5,8.4,1.5c11.2,0,18.5-3.9,21.8-11.6c0.4-1,0.8-1.5,1.3-1.5c0.5,0,0.7,0.3,0.7,1
			c0,0.4-0.1,0.7-0.2,1.2c-0.2,0.6-0.6,2.6-1.3,6.1c-0.1,0.8-0.7,3-1.7,6.7h-18.1c-2.6,0-6.4-0.1-11.5-0.3s-9.6-0.3-13.4-0.4
			c-3.9,0-6-0.1-6-0.2c-0.2-0.1-0.3-0.3-0.3-0.5c0-0.6,0.5-0.9,1.5-0.9c3.2,0,5.4-0.9,6.3-2.5c1-1.7,1.6-5.9,1.6-12.4V283l0.1-8.3
			c0-1.7-0.1-4.9-0.3-9.6s-0.4-7.3-0.5-8c-0.2-0.7-0.6-1.4-1.4-2c-0.8-0.7-2.3-1.3-4.9-2c-0.8-0.2-1.2-0.5-1.2-1s0.5-0.8,1.6-0.8
			l8.9,0.5c3.1,0.1,10.8,0.2,23,0.2C1389.1,252,1393.2,252.1,1393.4,252.1z"/>
		<path class="st0" d="M1418.1,251.9c1.8,2.3,4.8,6,9,10.9l13.9,16.1l13.4,15.4c0.3-5.3,0.4-12,0.4-20.4c0-6.2-0.1-10.4-0.4-12.6
			c-0.3-2.1-1.3-3.9-2.9-5.4c-1.7-1.5-3.7-2.1-6.2-2.1c-1.2,0-1.8-0.3-1.8-0.8c0-0.3,0.1-0.5,0.4-0.6c0.3-0.1,2.1-0.3,5.9-0.4
			c3.6-0.1,6.7-0.2,9.2-0.2h5.9h1c0.9,0,1.4,0.3,1.4,0.8c0,0.5-0.4,0.7-1.2,0.8c-2.9,0.3-5,1.1-6.3,2.2c-1.3,1.2-2,2.9-2.3,5.2
			c-0.3,2.2-0.4,9.9-0.4,22.8l-0.4,22.9c0,1.2-0.3,1.8-0.9,1.8c-0.2,0-0.4-0.1-0.6-0.2c-0.3-0.1-1.6-1.6-3.9-4.4
			c-2.3-2.8-5.3-6.1-8.7-10c-3.4-3.9-6.1-7-8.1-9.5c-4.3-5.3-7-8.5-8.2-9.7c-4.2-4.5-6.6-7.3-7.4-8.6c-0.5-0.9-1-1.3-1.4-1.3
			c-0.3,0-0.5,0.6-0.5,1.7l0.1,6.7c0,8.5,0.2,15.3,0.7,20.4s1,8.1,1.5,9c0.5,0.9,1.4,1.8,2.6,2.6c1.3,0.9,2.6,1.4,4,1.4
			c2,0,2.8,0.4,2.8,1.1c0,0.5-0.5,0.8-1.6,0.8H1406c-1,0-1.5-0.3-1.5-0.8c0-0.6,0.5-0.9,1.5-0.9c3.5,0,6-0.8,7.1-2.3
			c1.2-1.6,1.8-4.9,1.8-10l-0.4-15.2c0-9-0.2-14.2-0.7-15.9c-0.5-1.6-1.6-3.5-3.3-5.9c-1.8-2.3-3.7-3.6-5.9-3.9
			c-1-0.1-1.5-0.4-1.5-0.8c0-0.6,0.7-0.8,2-0.8H1418.1z"/>
		<path class="st0" d="M1517,255.1c1.6-1.5,2.5-2.3,2.7-2.8c0.3-0.7,0.7-1.1,1.3-1.1c0.6,0,0.9,0.5,1,1.6l1,15.1
			c0,0.9,0,1.4-0.1,1.6c-0.1,0.2-0.3,0.3-0.6,0.3c-0.5,0-1-0.6-1.5-1.9c-2-4.6-4.6-8.4-8-11.3s-7.2-4.4-11.2-4.4
			c-3.5,0-6.7,1.2-9.8,3.4c-2.9,2.2-5.3,5.5-6.8,9.8c-1.7,4.2-2.4,8.7-2.4,13.6c0,8.2,2.2,14.9,6.8,20c4.5,5.2,9.6,7.7,15.1,7.7
			c3.8,0,7.3-1.2,10.4-3.6c3.2-2.4,5.6-5.2,7.2-8.3c0.4-0.9,0.9-1.3,1.4-1.3c0.7,0,1,0.4,1,1.1c0,0.9-1.1,2.6-3.3,5.5
			c-2.2,2.8-5.1,5.2-8.7,6.9c-3.6,1.8-7.4,2.6-11.5,2.6c-4.9,0-9.5-1.3-13.8-3.7c-4.4-2.4-7.8-5.9-10.3-10.1
			c-2.5-4.3-3.8-9.5-3.8-15.2c0-5.8,1.3-10.9,3.7-15.5c2.4-4.6,6-8.2,10.4-10.7c4.5-2.5,9.1-3.8,13.9-3.8c2.5,0,5.2,0.4,7.8,1.2
			C1511.6,252.3,1514.3,253.5,1517,255.1z"/>
		<path class="st0" d="M1559.8,278.6c1.7-1.8,4.1-5.1,7.4-9.8c3.3-4.7,5.3-7.6,5.9-8.8s0.9-2,0.9-2.7c0-1.2-0.6-2.1-1.8-2.8
			c-1.2-0.7-2.4-1.1-3.7-1.1c-1,0-1.5-0.3-1.5-0.8c0-0.6,0.8-0.8,2.4-0.8h16.4c1.5,0,2.2,0.3,2.2,0.9c0,0.5-0.3,0.8-1,0.8
			c-1.7,0-3.3,0.4-4.9,1.2c-1.6,0.8-3.5,2.5-5.8,5.3l-7.5,10.1c-4,5.4-6.1,8.5-6.4,9.4c-0.5,1.4-0.7,5-0.7,10.8
			c0,7.7,0.3,12.4,1,13.8c0.7,1.5,2.7,2.3,6.3,2.6c0.9,0.1,1.4,0.4,1.4,0.9c0,0.6-0.5,0.9-1.6,0.9l-11.7-0.3c-2.8,0-5.1,0.1-6.9,0.2
			c-1.5,0.1-2.3,0.2-2.8,0.2c-1.1,0-1.7-0.3-1.7-0.9c0-0.5,0.4-0.7,1.3-0.8c2.8-0.1,4.7-1.2,5.6-3.1c1-2,1.4-4.9,1.4-8.7
			c0-4.2-0.3-7.6-0.8-10.2c-0.1-0.7-1.4-3-3.7-7.1c-2.3-4.1-5.3-8.6-8.7-13.5c-3.4-4.9-5.9-7.9-7.3-9c-1.5-1.1-2.9-1.7-4.3-1.8
			c-1.1-0.1-1.6-0.4-1.6-0.9c0-0.3,0.1-0.5,0.4-0.6s1.1-0.2,2.4-0.2h18.9c1.3,0,2,0,2.3,0.1c0.3,0.1,0.4,0.3,0.4,0.7
			c0,0.5-0.4,0.7-1.1,0.8c-3.6,0.3-5.5,1.4-5.5,3.3c0,1,0.7,2.5,2,4.7C1548.9,263.6,1553,269.3,1559.8,278.6z"/>
	</g>
	<g>
		<path class="st0" d="M786.7,100.9c3.9-3.4,6.1-5.8,6.6-7c0.7-1.7,1.8-2.5,3-2.5c1.4,0,2.1,1.3,2.3,3.8l2.3,37
			c0,2.1-0.1,3.4-0.3,3.9s-0.7,0.7-1.6,0.7c-1.2,0-2.3-1.6-3.6-4.6c-4.7-11.2-11.1-20.5-19.5-27.6c-8.4-7.1-17.5-10.7-27.3-10.7
			c-8.6,0-16.5,2.7-23.7,8.3c-7.2,5.6-12.8,13.5-16.8,23.7c-4,10.2-6,21.3-6,33.1c0,20,5.6,36.3,16.6,48.9
			c11,12.5,23.4,18.8,37,18.8c9.3,0,17.8-2.9,25.6-8.8c7.8-5.9,13.7-12.6,17.6-20.3c1.1-2.1,2.1-3.2,3.3-3.2c1.6,0,2.3,0.9,2.3,2.5
			c0,2-2.7,6.5-8,13.5c-5.4,6.9-12.4,12.5-21.1,16.9c-8.7,4.4-18,6.4-28.1,6.4c-11.8,0-23-3-33.7-9c-10.6-6-19-14.2-25.3-24.9
			c-6.2-10.5-9.3-23-9.3-37.3c0-14,3-26.5,9.1-37.8c6-11.2,14.5-19.9,25.5-26.1c10.9-6.2,22.2-9.3,34-9.3c6.2,0,12.6,1,19,2.9
			C773.3,94,779.9,96.9,786.7,100.9z"/>
		<path class="st0" d="M820.2,211.2c2.8,0,5.3,1,7.3,2.9c2,2,3.1,4.5,3.1,7.4c0,2.9-1,5.4-3,7.4c-2,2-4.5,3-7.4,3
			c-2.8,0-5.3-1-7.3-3c-2-2-3-4.5-3-7.4c0-2.8,1-5.3,3-7.3C815,212.3,817.4,211.2,820.2,211.2z"/>
		<path class="st0" d="M948.8,100.9c3.9-3.4,6.1-5.8,6.6-7c0.7-1.7,1.8-2.5,3-2.5c1.4,0,2.1,1.3,2.3,3.8l2.3,37
			c0,2.1-0.1,3.4-0.3,3.9s-0.7,0.7-1.6,0.7c-1.2,0-2.3-1.6-3.6-4.6c-4.7-11.2-11.1-20.5-19.5-27.6c-8.4-7.1-17.5-10.7-27.3-10.7
			c-8.6,0-16.5,2.7-23.7,8.3c-7.2,5.6-12.8,13.5-16.8,23.7c-4,10.2-6,21.3-6,33.1c0,20,5.6,36.3,16.6,48.9
			c11,12.5,23.4,18.8,37,18.8c9.3,0,17.8-2.9,25.6-8.8c7.8-5.9,13.7-12.6,17.6-20.3c1.1-2.1,2.1-3.2,3.3-3.2c1.6,0,2.3,0.9,2.3,2.5
			c0,2-2.7,6.5-8,13.5c-5.4,6.9-12.4,12.5-21.1,16.9c-8.7,4.4-18,6.4-28.1,6.4c-11.8,0-23-3-33.7-9c-10.6-6-19-14.2-25.3-24.9
			c-6.2-10.5-9.3-23-9.3-37.3c0-14,3-26.5,9.1-37.8c6-11.2,14.5-19.9,25.5-26.1c10.9-6.2,22.2-9.3,34-9.3c6.2,0,12.6,1,19,2.9
			C935.4,94,942,96.9,948.8,100.9z"/>
		<path class="st0" d="M986.6,211.2c2.8,0,5.3,1,7.3,2.9c2,2,3.1,4.5,3.1,7.4c0,2.9-1,5.4-3,7.4c-2,2-4.5,3-7.4,3
			c-2.8,0-5.3-1-7.3-3c-2-2-3-4.5-3-7.4c0-2.8,1-5.3,3-7.3C981.4,212.3,983.7,211.2,986.6,211.2z"/>
		<path class="st0" d="M1116.2,158.3c3.9-4.4,10-12.3,18-23.7s12.9-18.5,14.2-21.4c1.5-2.8,2.1-5,2.1-6.6c0-2.9-1.5-5.2-4.4-6.9
			c-2.9-1.8-6-2.6-9-2.6c-2.4,0-3.6-0.7-3.6-2c0-1.4,2-2,6-2h40c3.7,0,5.5,0.8,5.5,2.2c0,1.2-0.8,1.8-2.4,1.8c-4.2,0-8.2,1-12,2.8
			c-3.8,2-8.5,6.1-14,12.8l-18.4,24.9c-9.7,13-14.9,20.6-15.7,22.8c-1.2,3.3-1.7,12.1-1.7,26.3c0,18.9,0.8,30.1,2.3,33.7
			s6.7,5.7,15.4,6.4c2.2,0.2,3.4,0.9,3.4,2.1c0,1.4-1.3,2.1-3.7,2.1l-28.5-0.7c-6.8,0-12.5,0.1-16.9,0.4c-3.5,0.3-5.8,0.4-6.8,0.4
			c-2.7,0-4-0.7-4-2.1c0-1.2,1-1.8,3-1.8c6.8-0.3,11.3-2.8,13.7-7.6c2.2-4.8,3.4-11.9,3.4-21.3c0-10.3-0.7-18.6-2-25
			c-0.3-1.7-3.3-7.4-9.1-17.3c-5.8-10-12.9-20.9-21.3-32.9s-14.3-19.3-18-22s-7.1-4.1-10.4-4.3c-2.5-0.2-3.8-0.9-3.8-2.1
			c0-0.8,0.3-1.3,1-1.6c0.7-0.3,2.6-0.4,6-0.4h46.2c3.2,0,5.1,0.1,5.8,0.3c0.7,0.2,1,0.8,1,1.7c0,1.2-0.9,1.8-2.6,2
			c-8.9,0.7-13.4,3.4-13.4,8c0,2.4,1.7,6.1,4.9,11.3C1089.8,121.6,1099.7,135.6,1116.2,158.3z"/>
		<path class="st0" d="M1155.4,181.5c0-6.6,2-14,6-22c4.1-8,10-14.5,17.8-19.7c7.8-5.2,16.6-7.8,26.3-7.8c13.7,0,25,4.9,33.9,14.6
			c8.9,9.8,13.4,21,13.4,33.5c0,13.4-5,25.3-14.8,35.9c-9.9,10.6-21.8,15.9-35.6,15.9c-13.3,0-24.4-4.7-33.5-14
			C1159.9,208.8,1155.4,196.6,1155.4,181.5z M1171.9,179.2c0,8.1,1.3,16.3,3.7,24.8c2.4,8.5,6.3,14.6,11.6,18.4
			c5.3,3.8,10.9,5.8,17,5.8c9.8,0,17.5-4.8,23.3-14.2c5.9-9.5,8.8-20.4,8.8-32.9c0-12.1-3-22.6-9-31.8c-6-9.1-13.8-13.7-23.4-13.7
			c-7.2,0-13.3,2.4-18.1,7.3c-4.9,4.9-8.4,10.7-10.5,17.5C1173,167.2,1171.9,173.4,1171.9,179.2z"/>
		<path class="st0" d="M1264.1,133.7h37.1c2.1,0,3.2,0.5,3.2,1.4c0,0.9-0.8,1.4-2.3,1.6c-3.5,0.4-6.1,1.3-7.8,2.9
			c-1.7,1.6-2.9,4.4-3.8,8.4c-0.9,4-1.3,12.6-1.3,25.8c0,15.8,0.5,26.6,1.4,32.8c0.9,6,3.8,10.9,8.6,14.4s11.4,5.4,19.7,5.4
			c8.7,0,15.3-1.7,19.9-5c4.6-3.3,7.5-8.2,8.9-14.7c1.4-6.5,2-20.7,2-42.4c0-11.2-1.2-18.5-3.5-22c-2.3-3.5-5.8-5.3-10.3-5.3
			c-1.9,0-2.7-0.5-2.7-1.6c0-1,1.2-1.5,3.6-1.5h29.7c1.4,0,2,0.5,2,1.5c0,0.7-0.6,1.1-1.7,1.3c-3.7,0.6-6.5,1.8-8.3,3.5
			c-1.8,1.9-2.9,5.2-3.4,10c-0.6,4.8-0.8,11.8-0.8,21.1c0,11.6-0.4,21.5-1.3,29.6c-0.9,8.1-2.7,14.1-5.6,18.1c-2.8,4-7.2,7.2-13,9.7
			c-5.8,2.4-12.9,3.7-21.3,3.7c-8.6,0-15.9-1.4-22-4.1c-6-2.7-10.1-6.3-12.3-10.9c-2.1-4.5-3.2-11.3-3.2-20.3l0.3-20.6
			c0-18.2-0.8-29.4-2.3-33.5c-1.6-4.1-4.9-6.1-10-6.2c-1.7,0-2.5-0.4-2.5-1.3C1261.1,134.2,1262.1,133.7,1264.1,133.7z"/>
		<path class="st0" d="M1395.9,134.2c2.9,4,8.1,10.2,15.4,18.6l23.7,27.5l22.8,26.3c0.5-9,0.8-20.6,0.8-34.8
			c0-10.7-0.2-17.9-0.7-21.6c-0.5-3.6-2-6.6-5-9.2c-2.8-2.4-6.3-3.7-10.6-3.7c-2,0-2.9-0.4-2.9-1.3c0-0.5,0.2-0.9,0.6-1.1
			c0.4-0.2,3.7-0.5,10-0.7c6.2-0.2,11.4-0.3,15.7-0.3l10,0.1h1.7c1.6,0,2.3,0.4,2.3,1.3c0,0.8-0.7,1.3-2,1.4
			c-5,0.6-8.6,1.9-10.7,3.9c-2.2,2-3.5,5-3.9,8.9c-0.4,3.9-0.6,16.9-0.6,38.9l-0.7,39.1c0,2-0.5,2.9-1.5,2.9c-0.3,0-0.6-0.1-1-0.3
			c-0.4-0.2-2.6-2.7-6.6-7.5c-4-4.8-9-10.4-14.8-17.2c-5.9-6.6-10.4-12.1-13.9-16.2c-7.3-9-12-14.4-14-16.5
			c-7.1-7.6-11.4-12.5-12.7-14.6c-0.9-1.5-1.6-2.2-2.3-2.2c-0.6,0-0.8,1-0.8,2.9l0.2,11.5c0,14.5,0.4,26.2,1.2,34.9
			c0.8,8.7,1.7,13.8,2.4,15.3c0.9,1.5,2.3,3,4.5,4.6c2.1,1.6,4.4,2.3,6.8,2.3c3.2,0,4.9,0.6,4.9,1.8c0,0.9-0.9,1.4-2.7,1.4
			l-35.6-0.1c-1.7,0-2.5-0.4-2.5-1.3c0-1,0.8-1.5,2.4-1.5c6,0,10.1-1.4,12.2-4c2-2.7,3-8.4,3-17.2l-0.6-26c0-15.3-0.4-24.4-1.3-27.1
			c-0.9-2.7-2.7-6-5.7-10c-2.9-3.9-6.2-6.1-10-6.6c-1.7-0.2-2.5-0.7-2.5-1.4c0-1,1.1-1.4,3.2-1.4L1395.9,134.2z"/>
		<path class="st0" d="M1576.6,164.8c-0.7,0-1.3-0.8-2-2.3c-4-8.9-9.4-15.8-16-20.6c-6.6-4.9-13.8-7.2-21.3-7.2
			c-6.1,0-12.2,1.9-18,5.6c-5.8,3.7-10.5,9.5-14.1,17.3c-3.6,7.8-5.5,16.1-5.5,24.9c0,12.6,3.7,23.4,11.2,32.5
			c7.5,9.2,16.9,13.8,28.2,13.8c4,0,7.4-0.6,10.2-1.9c2.8-1.3,5.5-3,8-5.4c2.5-2.3,4-4.1,4.5-5.2c0.5-1.2,0.8-4.1,0.8-9
			c0-8.1-1.1-13.5-3.2-16c-2.1-2.5-5.6-3.8-10.3-3.8l-2.3,0.1c-1.5,0-2.1-0.5-2.1-1.4c0-1.2,0.8-1.7,2.3-1.7l3.9,0.2l16.8-0.2
			l20.5-0.5c1.2,0,1.7,0.5,1.7,1.6s-0.7,1.6-2,1.7c-3,0.3-5.6,1-7.5,2c-2,1.1-3.1,2.2-3.5,3.5c-0.4,1.3-0.7,3.6-0.7,6.7
			c0,11.5-0.3,18-0.8,19c-0.6,1.2-5.2,3.7-13.8,7.8c-8.7,4.1-17.4,6-26,6c-14.4,0-26.8-4.7-37.1-14c-10.2-9.3-15.4-21.1-15.4-35.3
			c0-9.8,2.4-18.6,7.3-26.5c4.9-7.9,11.5-14,20-18.4c8.5-4.4,17.1-6.5,25.8-6.5c8.2,0,17.1,2.3,26.5,7c2.6,1.4,4.6,2,5.7,2
			c1.6,0,2.7-0.7,3.5-2c0.8-1.2,1.4-1.7,2-1.7c1.2,0,1.8,1.5,2,4.3c0.3,4.5,1,11.3,2.1,20.6c0.1,0.5,0.2,1,0.2,1.4
			C1578.2,164.3,1577.7,164.8,1576.6,164.8z"/>
	</g>
	<g>
		<path class="st0" d="M706.7,377.9c0.6-0.4,1-0.9,1.4-1.4c0.3-0.4,0.5-0.6,0.7-0.6c0.1,0,0.2,0.1,0.3,0.2c-0.1,0.6-0.3,1.8-0.7,3.6
			l-1,4.6c-0.1,0.3-0.3,0.4-0.7,0.4c-0.2,0-0.3-0.2-0.3-0.5c-0.1-2.2-0.7-4-2-5.3s-2.8-2.1-4.8-2.1s-3.7,0.6-5.1,1.8
			c-1.5,1.2-2.4,2.5-2.8,3.8c-0.6,1.7-0.4,2.9,0.3,3.8c0.7,0.8,2.7,1.9,5.8,2.9c2.2,0.8,3.9,1.6,4.9,2.3c1,0.7,1.7,1.8,2.1,3.1
			c0.4,1.4,0.3,2.7-0.2,4.3c-0.9,2.6-2.8,4.9-5.7,7c-2.8,2.1-5.9,3-9,3c-2.8,0-5.3-0.8-7.6-2.6c-0.7,0.4-1.3,1-1.7,1.7
			c-0.3,0.5-0.6,0.8-0.9,0.8c-0.3,0-0.3-0.3-0.2-1c0.1-0.6,1-3.9,2.6-9.5c0.1-0.2,0.3-0.3,0.6-0.3c0.2,0,0.4,0.2,0.4,0.5
			c0.3,6.4,2.7,9.5,7.2,9.5c2.2,0,4.3-0.6,6-2c1.8-1.4,2.9-2.9,3.6-4.7c0.4-1.3,0.5-2.3,0.2-3.4c-0.3-1-0.9-1.9-1.9-2.5
			c-0.9-0.6-2.4-1.4-4.6-2.1c-2.7-1-4.6-2-5.3-2.8c-0.8-0.9-1.3-1.9-1.4-3c-0.1-1.2,0-2.2,0.3-3.3c0.7-2.2,2.4-4.1,5-5.9
			c2.6-1.7,5.3-2.5,8.2-2.5c1,0,2.2,0.2,3.3,0.5C704.6,376.6,705.6,377.2,706.7,377.9z"/>
		<path class="st0" d="M742,376.4c-0.2,1.9-0.6,4.4-1.4,7.8c-0.1,0.1-0.2,0.2-0.3,0.2s-0.2-0.1-0.3-0.2c-0.5-1.8-1-3.3-1.8-4.2
			c-0.7-0.9-1.5-1.7-2.4-2c-0.9-0.4-2.6-0.6-5.1-0.6c-2.4,0-4.4,0.1-5.9,0.4c-0.2,0.2-0.3,0.4-0.5,0.9c0,0.1-0.1,0.3-0.3,0.6
			c-0.6,1.4-2,4.9-4,10.7c-0.1,0.2-0.2,0.6-0.3,1c1.3,0,2.1,0.1,2.5,0.1c2.1,0,3.7-0.3,4.8-0.9c1.2-0.6,2.4-2,3.9-4
			c0.2-0.3,0.4-0.5,0.6-0.5c0.3,0,0.4,0.2,0.2,0.7l-0.4,0.9c-0.6,1.3-1.2,2.6-1.6,4c-0.8,2.2-1.5,4.3-2,6.1
			c-0.2,0.5-0.4,0.8-0.7,0.8c-0.2,0-0.3-0.2-0.2-0.6c0.3-2,0.1-3.4-0.7-4.2s-3-1.3-6.7-1.3c-0.5,1.2-1.2,3.1-2.1,5.9
			c-1.3,3.5-1.9,5.7-2,6.6c-0.1,0.9,0.2,1.7,0.9,2.2c0.7,0.5,2.2,0.8,4.5,0.8c6.4,0,11.3-2.2,14.7-6.6c0.4-0.5,0.7-0.8,0.9-0.8
			s0.3,0.2,0.2,0.5c-0.1,0.2-0.2,0.4-0.3,0.6c-0.2,0.3-0.8,1.5-2,3.5c-0.2,0.4-1,1.7-2.3,3.9h-10.4c-1.5,0-3.7-0.1-6.5-0.2
			c-2.8-0.1-5.3-0.2-7.6-0.2s-3.4,0-3.5-0.1c-0.1-0.1-0.1-0.2,0-0.3c0.1-0.3,0.4-0.5,0.9-0.5c1.8,0,3.1-0.5,4.1-1.5
			c0.9-0.9,2-3.4,3.4-7l1.8-5l1.8-4.7c0.3-0.9,0.9-2.7,1.8-5.5c0.8-2.6,1.3-4.2,1.3-4.5c0-0.4-0.1-0.7-0.4-1.2
			c-0.3-0.4-1-0.7-2.4-1.2c-0.4-0.1-0.5-0.3-0.4-0.5c0.1-0.3,0.4-0.4,1-0.4l4.9,0.3c1.8,0.1,6.1,0.1,13.1,0.1
			C739.6,376.4,741.9,376.4,742,376.4z"/>
		<path class="st0" d="M773.9,378.1c1.2-0.8,1.9-1.4,2.1-1.7c0.3-0.4,0.6-0.6,0.9-0.6c0.3,0,0.4,0.3,0.2,0.8l-2.5,8.6
			c-0.2,0.5-0.3,0.8-0.4,0.9c-0.1,0.1-0.2,0.2-0.4,0.2c-0.3,0-0.4-0.3-0.4-1c-0.2-2.6-0.9-4.7-2.3-6.4c-1.4-1.7-3.3-2.5-5.5-2.5
			c-2,0-4.1,0.6-6.2,1.9c-2.1,1.3-4.1,3.1-5.9,5.6c-1.8,2.4-3.1,4.9-4.1,7.8c-1.7,4.7-1.7,8.5-0.1,11.4c1.6,2.9,3.9,4.4,7.1,4.4
			c2.2,0,4.4-0.7,6.7-2.1s4.2-2.9,5.8-4.7c0.4-0.5,0.7-0.7,1-0.7c0.3,0,0.5,0.2,0.3,0.6c-0.2,0.5-1.2,1.6-2.9,3.1
			c-1.8,1.6-3.9,2.9-6.3,3.9c-2.4,1-4.7,1.5-7.1,1.5c-2.7,0-5.1-0.7-7.1-2.1s-3.3-3.4-3.9-5.8c-0.6-2.5-0.3-5.3,0.8-8.7
			c1.2-3.3,2.9-6.2,5.2-8.8c2.3-2.6,5-4.6,8.1-6.1c3-1.5,6-2.2,8.7-2.2c1.5,0,2.8,0.2,4.2,0.6C771.4,376.5,772.6,377.3,773.9,378.1z
			"/>
		<path class="st0" d="M782.4,376.1h12.4c0.7,0,1,0.1,0.9,0.4c-0.1,0.3-0.4,0.4-0.9,0.5c-1.3,0.1-2.2,0.4-2.9,0.9
			c-0.7,0.5-1.5,1.5-2.2,2.8c-0.7,1.4-1.9,4.2-3.5,8.6c-1.9,5.2-2.9,8.9-3.4,10.9c-0.4,2,0,3.7,1.2,4.8c1.2,1.2,3.1,1.8,5.9,1.8
			c2.9,0,5.2-0.5,7.2-1.7c1.9-1.2,3.5-2.7,4.7-4.9c1.3-2.2,3.1-6.9,5.7-14.2c1.4-3.8,1.8-6.2,1.5-7.3c-0.3-1.2-1.3-1.8-2.8-1.8
			c-0.6,0-0.8-0.2-0.7-0.5s0.5-0.5,1.4-0.5h9.9c0.4,0,0.6,0.2,0.5,0.5c-0.1,0.2-0.3,0.4-0.7,0.4c-1.4,0.2-2.4,0.5-3.1,1.2
			c-0.8,0.6-1.6,1.7-2.3,3.4c-0.7,1.6-1.7,4-2.7,7c-1.4,3.9-2.6,7.1-3.9,9.9c-1.3,2.7-2.5,4.7-4,6.1c-1.5,1.4-3.3,2.4-5.5,3.3
			c-2.2,0.8-4.7,1.3-7.6,1.3c-2.8,0-5.1-0.4-6.8-1.4c-1.7-0.9-2.6-2.1-2.8-3.7s0.2-3.8,1.3-6.7l2.5-6.8c2.1-6.1,3.1-9.8,3.1-11.1
			c0-1.4-0.9-2.1-2.6-2.1c-0.5,0-0.8-0.1-0.7-0.4C781.3,376.3,781.7,376.1,782.4,376.1z"/>
		<path class="st0" d="M833.1,391.8c1.9,0.9,3.1,2,3.7,3.1c0.5,1,0.6,2.7,0.2,5c-0.5,2.9-0.4,4.9,0.2,6s1.7,1.6,3.3,1.7
			c0.4,0,0.6,0.2,0.5,0.5s-0.4,0.4-0.9,0.4c-4.6,0-7.3-0.1-8.2-0.4c-0.8-0.3-1-2-0.4-5c0.6-2.9,0.9-5.1,0.9-6.5s-0.4-2.4-1.3-3.1
			s-2.3-1-4.6-1c-0.8,0-1.9,0.1-3,0.3c-0.4,1-0.8,2.1-1.3,3.3c-1.5,4.2-2.4,6.9-2.7,8.2c-0.3,1.3-0.3,2.1,0.1,2.7
			c0.4,0.5,1.3,0.8,2.6,0.9c0.6,0,0.8,0.2,0.7,0.4c-0.1,0.3-0.5,0.5-1.3,0.5h-12.2c-0.7,0-1-0.2-0.8-0.5c0.1-0.3,0.4-0.4,0.9-0.4
			c1.3,0,2.2-0.2,2.8-0.5c0.6-0.4,1.3-0.9,1.8-1.8c0.5-0.8,1.3-2.2,2-4.3l1.7-5l2.7-7.7c1.4-3.9,2.2-6.5,2.5-7.8s0.3-2.1,0-2.5
			c-0.3-0.4-1.2-0.7-2.7-1c-0.3,0-0.4-0.2-0.4-0.4c0.1-0.3,0.5-0.4,1.2-0.4l14.7-0.3c4,0,6.7,0.7,8,2.3s1.5,3.5,0.7,5.7
			c-0.5,1.4-1.4,2.7-2.4,3.9c-1.2,1.2-2.3,2-3.5,2.5C837.4,390.6,835.7,391.2,833.1,391.8z M824,391.2c3.1-0.1,5.7-0.3,7.3-0.6
			c1.7-0.4,3.4-1.3,4.9-2.5c1.6-1.3,2.6-2.8,3.3-4.6c0.6-1.9,0.6-3.5-0.1-4.8s-2.5-2.1-5.2-2.1c-1.5,0-3.1,0.2-5.1,0.6
			c-1.8,4.5-3.1,8.2-4.1,10.8C824.7,388.9,824.3,390,824,391.2z"/>
		<path class="st0" d="M855.9,375.9l4.5,0.1l6.9-0.1c0.8,0,1.2,0.2,1,0.5c-0.1,0.2-0.3,0.4-0.8,0.4c-1.9,0.2-3.3,0.8-4.1,2
			c-0.8,1-2.5,5.1-4.9,12.1c-0.9,2.5-1.9,5.5-2.8,8.6c-0.9,3.1-1.5,5.1-1.6,5.8c-0.1,0.6,0.1,1.2,0.4,1.6c0.3,0.4,1,0.6,2.3,0.8
			c0.4,0,0.5,0.2,0.4,0.4c-0.1,0.3-0.3,0.4-0.7,0.4h-6.1l-5.2,0.1c-0.6,0-0.8-0.2-0.7-0.5c0.1-0.3,0.4-0.5,0.8-0.5
			c1.6,0,2.6-0.5,3.3-1.6c0.6-1,1.9-4.1,3.8-9.4c1.8-5.1,3.3-9.3,4.3-12.5s1.5-5.1,1.3-5.9c-0.2-0.7-0.8-1.2-2.1-1.4
			c-0.4-0.1-0.6-0.3-0.5-0.5C855.4,376,855.6,375.9,855.9,375.9z"/>
		<path class="st0" d="M886.4,377.5c-1.3-0.1-2.2-0.1-2.7-0.1c-3.6,0-6.4,0.7-8.5,2.2c-2.1,1.5-3.6,2.8-4.2,4
			c-0.2,0.4-0.5,0.6-0.8,0.6c-0.2,0-0.3-0.1-0.4-0.2c0.7-2,2-4.6,3.8-8c0.8,0,1.3,0,1.5,0c1.3,0,2.9,0.1,5.1,0.2
			c2.3,0.1,5.8,0.2,10.6,0.2c4.9,0,8.1-0.1,9.6-0.2c1.4-0.1,3.3-0.2,5.7-0.2c-0.2,1.2-0.5,2.4-0.9,3.7c-0.4,1.5-0.6,2.5-0.8,3
			c0,0.1-0.1,0.3-0.1,0.4c-0.1,0.4-0.4,0.6-0.7,0.6c-0.2,0-0.3-0.1-0.4-0.2c-0.1-0.1-0.2-0.6-0.4-1.4c-0.4-1.4-0.9-2.3-1.6-3
			c-0.6-0.7-1.6-1.2-2.6-1.4s-3.4-0.3-6.7-0.4c-1,2.5-2.2,5.3-3.3,8.5c-3.7,10.6-5.7,16.8-5.9,18.7c-0.2,1.9,1,2.8,3.9,2.8
			c0.6,0,0.9,0.1,0.8,0.4c-0.1,0.3-0.5,0.5-1.2,0.5h-15.2c-0.4,0-0.5-0.1-0.4-0.4c0.1-0.3,0.5-0.4,1.4-0.4c1.3,0,2.5-0.3,3.6-1
			c1-0.7,1.9-1.7,2.4-2.9c0.5-1.3,1.9-4.8,4-10.8C883.4,387.4,884.9,382.4,886.4,377.5z"/>
		<path class="st0" d="M921.4,391.5c1.3-1,3.4-2.8,6.2-5.6c2.8-2.6,4.5-4.3,5-4.9c0.5-0.6,0.9-1.2,1-1.6c0.2-0.6,0.1-1.3-0.4-1.6
			c-0.5-0.4-1.2-0.6-1.9-0.6c-0.5,0-0.7-0.1-0.7-0.4c0.1-0.3,0.6-0.4,1.6-0.4h9.3c0.8,0,1.3,0.2,1,0.5c-0.1,0.3-0.3,0.4-0.7,0.4
			c-0.9,0-2,0.2-3,0.6c-1,0.4-2.5,1.5-4.3,2.9l-6.3,5.8c-3.4,3-5.1,4.8-5.6,5.3c-0.5,0.7-1.4,2.8-2.5,6.2c-1.6,4.4-2.3,7-2.2,7.9
			s1,1.4,3,1.5c0.5,0,0.7,0.2,0.6,0.5s-0.4,0.5-1,0.5l-6.6-0.1c-1.6,0-2.9,0-4,0.1c-0.8,0.1-1.4,0.1-1.6,0.1c-0.6,0-0.8-0.2-0.7-0.5
			s0.4-0.4,0.8-0.4c1.6-0.1,2.8-0.6,3.8-1.8c0.9-1.2,1.8-2.7,2.5-4.9c0.8-2.4,1.4-4.3,1.6-5.9c0.1-0.4-0.2-1.7-0.7-4
			c-0.5-2.3-1.3-4.8-2.2-7.7s-1.8-4.5-2.4-5.1c-0.6-0.6-1.4-0.9-2.1-1c-0.5,0-0.8-0.2-0.7-0.5c0.1-0.2,0.2-0.3,0.3-0.3
			c0.1,0,0.6-0.1,1.5-0.1h10.8c0.7,0,1.2,0,1.3,0.1c0.1,0,0.2,0.2,0.1,0.4c-0.1,0.3-0.3,0.4-0.7,0.4c-2.1,0.2-3.4,0.8-3.8,1.9
			c-0.2,0.5-0.1,1.5,0.2,2.6C918.3,383,919.5,386.3,921.4,391.5z"/>
		<path class="st0" d="M971.1,377.5c-1.3-0.1-2.2-0.1-2.7-0.1c-3.6,0-6.4,0.7-8.5,2.2c-2.1,1.5-3.6,2.8-4.2,4
			c-0.2,0.4-0.5,0.6-0.8,0.6c-0.2,0-0.3-0.1-0.4-0.2c0.7-2,2-4.6,3.8-8c0.8,0,1.3,0,1.5,0c1.3,0,2.9,0.1,5.1,0.2
			c2.3,0.1,5.8,0.2,10.6,0.2c4.9,0,8.1-0.1,9.6-0.2c1.4-0.1,3.3-0.2,5.7-0.2c-0.2,1.2-0.5,2.4-0.9,3.7c-0.4,1.5-0.6,2.5-0.8,3
			c0,0.1-0.1,0.3-0.1,0.4c-0.1,0.4-0.4,0.6-0.7,0.6c-0.2,0-0.3-0.1-0.4-0.2c-0.1-0.1-0.2-0.6-0.4-1.4c-0.4-1.4-0.9-2.3-1.6-3
			c-0.6-0.7-1.6-1.2-2.6-1.4c-1-0.2-3.4-0.3-6.7-0.4c-1,2.5-2.2,5.3-3.3,8.5c-3.7,10.6-5.7,16.8-5.9,18.7s1,2.8,3.9,2.8
			c0.6,0,0.9,0.1,0.8,0.4c-0.1,0.3-0.5,0.5-1.2,0.5h-15.2c-0.4,0-0.5-0.1-0.4-0.4c0.1-0.3,0.5-0.4,1.4-0.4c1.3,0,2.5-0.3,3.6-1
			c1-0.7,1.9-1.7,2.4-2.9c0.5-1.3,1.9-4.8,4-10.8C968.1,387.4,969.8,382.4,971.1,377.5z"/>
		<path class="st0" d="M1014.2,391.5l2.6-6.8c1-3,1.5-5,1.2-6c-0.3-0.9-1.2-1.5-2.5-1.5c-0.8,0-1.2-0.2-1-0.5
			c0.1-0.3,0.4-0.4,0.9-0.4l7.1,0.2l6.2-0.1c0.5,0,0.6,0.1,0.5,0.4c-0.1,0.3-0.3,0.4-0.6,0.4c-1.3,0-2.3,0.2-3.1,0.5s-1.5,0.9-2,1.9
			c-0.5,0.8-1.6,3.4-3.1,7.4c-1.6,4.1-2.7,7.1-3.4,8.9l-2.2,6.1c-0.6,1.9-0.9,3.1-0.7,3.7c0.2,0.5,0.5,1,1.2,1.4
			c0.6,0.3,1.3,0.5,2,0.6c0.5,0.1,0.7,0.2,0.6,0.4c-0.1,0.3-0.3,0.4-0.8,0.4l-7.6-0.2l-5,0.2c-0.6,0-0.8-0.1-0.7-0.4
			c0.1-0.2,0.3-0.4,0.7-0.4c1.4-0.1,2.3-0.2,2.7-0.5c0.4-0.3,1-0.7,1.5-1.5c0.5-0.7,1-2,1.8-3.8l3.3-8.9c-1.4-0.1-2.8-0.1-4.3-0.1
			c-6.4,0-10.4,0.1-12.3,0.3c-1.3,3.1-2.2,5.8-2.9,7.8c-0.8,2.3-1.3,3.7-1.4,4.2c-0.1,0.5,0,1,0.4,1.5c0.4,0.4,0.9,0.7,1.8,0.9
			c0.5,0.1,0.7,0.3,0.6,0.5c-0.1,0.3-0.3,0.4-0.7,0.4c-0.1,0-0.3,0-0.5,0c-0.8-0.1-2.7-0.1-5.5-0.1c-3,0-4.9,0.1-5.7,0.2
			c-0.1,0-0.3,0-0.4,0c-0.4,0-0.5-0.1-0.4-0.4c0.1-0.3,0.4-0.4,0.9-0.5c1.4-0.1,2.3-0.5,3-1s1.9-2.6,3.4-6.3
			c1.5-3.7,3.1-8.1,4.9-13.2c1.5-4.2,2.2-6.9,2.2-8c0-1-0.7-1.7-2.2-1.8c-0.3,0-0.4-0.2-0.4-0.4c0.1-0.3,0.5-0.5,1.3-0.5l10-0.1
			c0.7,0,1.2,0,1.3,0.1c0.1,0,0.1,0.2,0.1,0.4c-0.1,0.2-0.3,0.4-0.8,0.4c-1.7,0.2-2.8,0.4-3.3,0.8c-0.5,0.4-1.6,3.1-3.4,8
			c-0.2,0.5-0.7,2.3-1.8,5.3c1.7,0.1,3.6,0.2,5.9,0.2C1006.6,391.6,1010.2,391.6,1014.2,391.5z"/>
		<path class="st0" d="M1045.8,391.8c1.9,0.9,3.1,2,3.7,3.1c0.5,1,0.6,2.7,0.2,5c-0.5,2.9-0.4,4.9,0.2,6s1.7,1.6,3.3,1.7
			c0.4,0,0.6,0.2,0.5,0.5s-0.4,0.4-0.9,0.4c-4.6,0-7.3-0.1-8.2-0.4c-0.8-0.3-1-2-0.4-5c0.6-2.9,0.9-5.1,0.9-6.5s-0.4-2.4-1.3-3.1
			c-0.8-0.7-2.3-1-4.6-1c-0.8,0-1.9,0.1-3,0.3c-0.4,1-0.8,2.1-1.3,3.3c-1.5,4.2-2.4,6.9-2.7,8.2c-0.3,1.3-0.3,2.1,0.1,2.7
			c0.4,0.5,1.3,0.8,2.6,0.9c0.6,0,0.8,0.2,0.7,0.4c-0.1,0.3-0.5,0.5-1.3,0.5h-12.2c-0.7,0-1-0.2-0.8-0.5c0.1-0.3,0.4-0.4,0.9-0.4
			c1.3,0,2.2-0.2,2.8-0.5c0.6-0.4,1.3-0.9,1.8-1.8c0.5-0.8,1.3-2.2,2-4.3l1.7-5l2.7-7.7c1.4-3.9,2.2-6.5,2.5-7.8s0.3-2.1,0-2.5
			c-0.3-0.4-1.2-0.7-2.7-1c-0.3,0-0.4-0.2-0.4-0.4c0.1-0.3,0.5-0.4,1.2-0.4l14.7-0.3c4,0,6.7,0.7,8,2.3c1.3,1.6,1.5,3.5,0.7,5.7
			c-0.5,1.4-1.4,2.7-2.4,3.9c-1.2,1.2-2.3,2-3.5,2.5C1050.1,390.6,1048.3,391.2,1045.8,391.8z M1036.7,391.2
			c3.1-0.1,5.7-0.3,7.3-0.6c1.7-0.4,3.4-1.3,4.9-2.5c1.6-1.3,2.6-2.8,3.3-4.6c0.6-1.9,0.6-3.5-0.1-4.8c-0.7-1.4-2.5-2.1-5.2-2.1
			c-1.5,0-3.1,0.2-5.1,0.6c-1.8,4.5-3.1,8.2-4.1,10.8C1037.3,388.9,1037,390,1036.7,391.2z"/>
		<path class="st0" d="M1059.7,392.1c0.7-2.2,2.3-4.6,4.6-7.3c2.3-2.6,5-4.8,8.2-6.6c3.3-1.7,6.4-2.6,9.6-2.6c4.5,0,7.8,1.7,9.5,4.9
			c1.8,3.3,2,7,0.5,11.1c-1.6,4.4-4.6,8.4-9.1,12s-9.1,5.2-13.7,5.2c-4.4,0-7.6-1.6-9.5-4.6C1058,401.1,1057.9,397.1,1059.7,392.1z
			 M1065.4,391.2c-0.9,2.7-1.5,5.5-1.7,8.3c-0.2,2.8,0.4,4.8,1.7,6.2c1.3,1.4,2.9,1.9,4.9,1.9c3.3,0,6.4-1.6,9.4-4.7
			c3-3.1,5.3-6.8,6.8-10.9c1.4-4,1.7-7.6,0.7-10.6c-0.9-3-2.9-4.5-6.2-4.5c-2.4,0-4.7,0.8-6.9,2.4c-2.2,1.6-4.1,3.6-5.6,5.8
			S1066.2,389.3,1065.4,391.2z"/>
		<path class="st0" d="M1102.5,376.1h12.4c0.7,0,1,0.1,0.9,0.4c-0.1,0.3-0.4,0.4-0.9,0.5c-1.3,0.1-2.2,0.4-2.9,0.9s-1.5,1.5-2.2,2.8
			c-0.7,1.4-1.9,4.2-3.5,8.6c-1.9,5.2-2.9,8.9-3.4,10.9c-0.4,2,0,3.7,1.2,4.8c1.2,1.2,3.1,1.8,5.9,1.8c2.9,0,5.2-0.5,7.2-1.7
			c1.9-1.2,3.5-2.7,4.7-4.9c1.3-2.2,3.1-6.9,5.7-14.2c1.4-3.8,1.8-6.2,1.5-7.3c-0.3-1.2-1.3-1.8-2.8-1.8c-0.6,0-0.8-0.2-0.7-0.5
			s0.5-0.5,1.4-0.5h9.9c0.4,0,0.6,0.2,0.5,0.5c-0.1,0.2-0.3,0.4-0.7,0.4c-1.4,0.2-2.4,0.5-3.1,1.2c-0.8,0.6-1.6,1.7-2.3,3.4
			c-0.7,1.6-1.7,4-2.7,7c-1.4,3.9-2.6,7.1-3.9,9.9c-1.3,2.7-2.5,4.7-4,6.1c-1.5,1.4-3.3,2.4-5.5,3.3s-4.7,1.3-7.6,1.3
			c-2.8,0-5.1-0.4-6.8-1.4c-1.7-0.9-2.6-2.1-2.8-3.7c-0.2-1.6,0.2-3.8,1.3-6.7l2.5-6.8c2.1-6.1,3.1-9.8,3.1-11.1
			c0-1.4-0.9-2.1-2.6-2.1c-0.5,0-0.8-0.1-0.7-0.4C1101.5,376.3,1101.8,376.1,1102.5,376.1z"/>
		<path class="st0" d="M1168.1,386.5c-0.2,0-0.3-0.3-0.4-0.8c-0.3-2.9-1.3-5.2-2.9-6.8c-1.7-1.6-3.7-2.4-6.2-2.4
			c-2.1,0-4.3,0.6-6.6,1.9c-2.4,1.3-4.6,3.1-6.7,5.8c-2.1,2.6-3.7,5.3-4.7,8.3c-1.5,4.2-1.5,7.8-0.1,10.8c1.5,3,4,4.6,7.8,4.6
			c1.4,0,2.5-0.2,3.7-0.6c1-0.4,2.2-1,3.3-1.8c1-0.7,1.8-1.4,2.1-1.7s0.7-1.4,1.4-2.9c0.9-2.7,1.3-4.5,0.8-5.3s-1.4-1.3-3-1.3h-0.7
			c-0.5,0-0.6-0.1-0.5-0.4c0.1-0.4,0.4-0.5,0.9-0.5h1.3l5.6-0.1l6.9-0.1c0.4,0,0.5,0.2,0.4,0.5c-0.1,0.3-0.4,0.5-0.8,0.5
			c-1,0.1-2,0.3-2.7,0.6c-0.7,0.3-1.3,0.7-1.6,1.2c-0.3,0.4-0.6,1.2-1,2.2c-1.4,3.9-2.2,6-2.5,6.3c-0.3,0.4-2.1,1.3-5.5,2.6
			c-3.4,1.4-6.5,2-9.4,2c-4.8,0-8.4-1.6-10.7-4.6s-2.6-7-0.9-11.7c1.2-3.3,3-6.2,5.6-8.8c2.5-2.6,5.5-4.7,8.8-6.2
			c3.4-1.5,6.4-2.2,9.3-2.2c2.7,0,5.3,0.7,8,2.3c0.7,0.4,1.3,0.6,1.7,0.6c0.5,0,0.9-0.2,1.5-0.6c0.4-0.4,0.6-0.5,0.8-0.5
			c0.4,0,0.4,0.5,0.2,1.5c-0.4,1.5-1,3.8-1.7,6.8c0,0.2-0.1,0.3-0.1,0.4C1168.7,386.3,1168.4,386.5,1168.1,386.5z"/>
		<path class="st0" d="M1199.1,391.5l2.6-6.8c1-3,1.5-5,1.2-6c-0.3-0.9-1.2-1.5-2.5-1.5c-0.8,0-1.2-0.2-1-0.5
			c0.1-0.3,0.4-0.4,0.9-0.4l7.1,0.2l6.2-0.1c0.5,0,0.6,0.1,0.5,0.4c-0.1,0.3-0.3,0.4-0.6,0.4c-1.3,0-2.3,0.2-3.1,0.5s-1.5,0.9-2,1.9
			c-0.5,0.8-1.6,3.4-3.1,7.4c-1.6,4.1-2.7,7.1-3.4,8.9l-2.2,6.1c-0.6,1.9-0.9,3.1-0.7,3.7c0.2,0.5,0.5,1,1.2,1.4s1.3,0.5,2,0.6
			c0.5,0.1,0.7,0.2,0.6,0.4c-0.1,0.3-0.3,0.4-0.8,0.4l-7.6-0.2l-5,0.2c-0.6,0-0.8-0.1-0.7-0.4c0.1-0.2,0.3-0.4,0.7-0.4
			c1.4-0.1,2.3-0.2,2.7-0.5c0.5-0.3,1-0.7,1.5-1.5c0.5-0.7,1-2,1.8-3.8l3.3-8.9c-1.4-0.1-2.8-0.1-4.3-0.1c-6.4,0-10.4,0.1-12.3,0.3
			c-1.3,3.1-2.2,5.8-2.9,7.8c-0.8,2.3-1.3,3.7-1.4,4.2c-0.1,0.5,0,1,0.4,1.5c0.4,0.4,0.9,0.7,1.8,0.9c0.5,0.1,0.7,0.3,0.6,0.5
			c-0.1,0.3-0.3,0.4-0.7,0.4c-0.1,0-0.3,0-0.5,0c-0.8-0.1-2.7-0.1-5.5-0.1c-3,0-4.9,0.1-5.7,0.2c-0.1,0-0.3,0-0.4,0
			c-0.4,0-0.5-0.1-0.4-0.4c0.1-0.3,0.4-0.4,0.9-0.5c1.4-0.1,2.3-0.5,3-1c0.7-0.5,1.9-2.6,3.4-6.3s3.1-8.1,4.9-13.2
			c1.5-4.2,2.2-6.9,2.2-8c0-1-0.7-1.7-2.2-1.8c-0.3,0-0.4-0.2-0.4-0.4c0.1-0.3,0.5-0.5,1.3-0.5l10-0.1c0.7,0,1.2,0,1.3,0.1
			c0.1,0,0.1,0.2,0.1,0.4c-0.1,0.2-0.3,0.4-0.8,0.4c-1.7,0.2-2.8,0.4-3.3,0.8c-0.5,0.4-1.6,3.1-3.4,8c-0.2,0.5-0.7,2.3-1.8,5.3
			c1.7,0.1,3.6,0.2,5.9,0.2C1191.5,391.6,1194.9,391.6,1199.1,391.5z"/>
		<path class="st0" d="M1258.2,386.5c-0.2,0-0.3-0.3-0.4-0.8c-0.3-2.9-1.3-5.2-2.9-6.8c-1.7-1.6-3.7-2.4-6.2-2.4
			c-2.1,0-4.3,0.6-6.6,1.9c-2.4,1.3-4.6,3.1-6.7,5.8c-2.1,2.6-3.7,5.3-4.7,8.3c-1.5,4.2-1.5,7.8-0.1,10.8c1.5,3,4,4.6,7.8,4.6
			c1.4,0,2.5-0.2,3.7-0.6c1-0.4,2.2-1,3.3-1.8c1.2-0.7,1.8-1.4,2.1-1.7c0.3-0.4,0.7-1.4,1.4-2.9c0.9-2.7,1.3-4.5,0.8-5.3
			s-1.4-1.3-3-1.3h-0.7c-0.5,0-0.6-0.1-0.5-0.4c0.1-0.4,0.4-0.5,0.9-0.5h1.3l5.6-0.1l6.9-0.1c0.4,0,0.5,0.2,0.4,0.5
			c-0.1,0.3-0.4,0.5-0.8,0.5c-1,0.1-2,0.3-2.7,0.6c-0.7,0.3-1.3,0.7-1.6,1.2c-0.3,0.4-0.6,1.2-1,2.2c-1.4,3.9-2.2,6-2.5,6.3
			c-0.3,0.4-2.1,1.3-5.5,2.6c-3.4,1.4-6.5,2-9.4,2c-4.8,0-8.4-1.6-10.7-4.6s-2.6-7-0.9-11.7c1.2-3.3,3-6.2,5.6-8.8
			c2.5-2.6,5.5-4.7,8.8-6.2c3.4-1.5,6.4-2.2,9.3-2.2c2.7,0,5.3,0.7,8,2.3c0.7,0.4,1.3,0.6,1.7,0.6c0.5,0,0.9-0.2,1.5-0.6
			c0.4-0.4,0.6-0.5,0.8-0.5c0.4,0,0.4,0.5,0.2,1.5c-0.4,1.5-0.9,3.8-1.7,6.8c0,0.2-0.1,0.3-0.1,0.4
			C1258.7,386.3,1258.5,386.5,1258.2,386.5z"/>
		<path class="st0" d="M1295.4,376.4c-0.2,1.9-0.6,4.4-1.4,7.8c-0.1,0.1-0.2,0.2-0.3,0.2c-0.1,0-0.2-0.1-0.3-0.2
			c-0.5-1.8-1-3.3-1.8-4.2c-0.7-0.9-1.5-1.7-2.4-2c-0.9-0.4-2.6-0.6-5.1-0.6c-2.4,0-4.4,0.1-5.9,0.4c-0.2,0.2-0.3,0.4-0.5,0.9
			c0,0.1-0.1,0.3-0.3,0.6c-0.6,1.4-2,4.9-4,10.7c-0.1,0.2-0.2,0.6-0.3,1c1.3,0,2.1,0.1,2.5,0.1c2.1,0,3.7-0.3,4.8-0.9
			c1.2-0.6,2.4-2,3.9-4c0.2-0.3,0.4-0.5,0.6-0.5c0.3,0,0.4,0.2,0.2,0.7l-0.4,0.9c-0.6,1.3-1.2,2.6-1.6,4c-0.8,2.2-1.5,4.3-2,6.1
			c-0.2,0.5-0.4,0.8-0.7,0.8c-0.2,0-0.3-0.2-0.2-0.6c0.3-2,0.1-3.4-0.7-4.2s-3-1.3-6.7-1.3c-0.5,1.2-1.2,3.1-2.1,5.9
			c-1.3,3.5-1.9,5.7-2,6.6c-0.1,0.9,0.2,1.7,0.9,2.2c0.7,0.5,2.2,0.8,4.5,0.8c6.4,0,11.3-2.2,14.7-6.6c0.4-0.5,0.7-0.8,0.9-0.8
			c0.2,0,0.3,0.2,0.2,0.5c-0.1,0.2-0.2,0.4-0.3,0.6c-0.2,0.3-0.8,1.5-2,3.5c-0.2,0.4-1,1.7-2.3,3.9h-10.4c-1.5,0-3.7-0.1-6.5-0.2
			c-2.8-0.1-5.3-0.2-7.6-0.2s-3.4,0-3.5-0.1c-0.1-0.1-0.1-0.2,0-0.3c0.1-0.3,0.4-0.5,0.9-0.5c1.8,0,3.1-0.5,4.1-1.5
			c0.9-0.9,2-3.4,3.4-7l1.8-5l1.8-4.7c0.3-0.9,0.9-2.7,1.8-5.5c0.8-2.6,1.3-4.2,1.3-4.5c0-0.4-0.1-0.7-0.4-1.2
			c-0.3-0.4-1-0.7-2.4-1.2c-0.4-0.1-0.5-0.3-0.4-0.5c0.1-0.3,0.4-0.4,1-0.4l4.9,0.3c1.8,0.1,6.1,0.1,13.1,0.1
			C1293,376.4,1295.3,376.4,1295.4,376.4z"/>
		<path class="st0" d="M1309.5,376.3c0.5,1.4,1.5,3.4,2.9,6.2l4.7,9.1l4.5,8.8c1.3-2.9,2.6-6.8,4.3-11.6c1.3-3.6,2-6,2.3-7.1
			c0.3-1.3,0.1-2.2-0.5-3c-0.6-0.8-1.7-1.3-3.1-1.3c-0.6,0-0.9-0.1-0.8-0.4c0.1-0.2,0.2-0.3,0.3-0.3c0.2-0.1,1.3-0.1,3.4-0.2
			c2.1-0.1,3.9-0.1,5.2-0.1h3.4h0.5c0.5,0,0.7,0.1,0.6,0.4c-0.1,0.2-0.3,0.4-0.8,0.4c-1.7,0.2-3,0.6-4.1,1.3c-1,0.6-1.8,1.7-2.3,2.9
			c-0.6,1.3-2.2,5.6-4.8,13l-4.8,13c-0.2,0.6-0.5,0.9-0.8,0.9c-0.1,0-0.2,0-0.3-0.1c-0.1-0.1-0.5-0.9-1.4-2.5
			c-0.7-1.6-1.8-3.5-2.9-5.7c-1.2-2.2-2.1-4-2.7-5.5c-1.4-2.9-2.3-4.8-2.7-5.5c-1.5-2.5-2.3-4.2-2.5-4.9c-0.1-0.5-0.3-0.7-0.5-0.7
			s-0.4,0.3-0.6,0.9l-1.3,3.8c-1.7,4.8-2.9,8.7-3.7,11.6s-1,4.6-0.9,5.1c0.1,0.5,0.4,1,0.9,1.5c0.5,0.5,1.3,0.7,2,0.7
			c1,0,1.6,0.2,1.5,0.6c-0.1,0.3-0.4,0.4-1,0.4h-11.8c-0.5,0-0.8-0.1-0.7-0.4c0.1-0.3,0.4-0.5,0.9-0.5c2,0,3.6-0.4,4.5-1.4
			c0.9-0.9,2-2.8,3-5.7l2.8-8.7c1.8-5.1,2.7-8.2,2.7-9c0-0.9-0.2-2-0.7-3.4s-1.4-2-2.5-2.2c-0.5-0.1-0.7-0.2-0.7-0.4
			c0.1-0.3,0.5-0.4,1.3-0.4L1309.5,376.3z"/>
		<path class="st0" d="M1366.5,376.4c-0.2,1.9-0.6,4.4-1.4,7.8c-0.1,0.1-0.2,0.2-0.3,0.2s-0.2-0.1-0.3-0.2c-0.5-1.8-1-3.3-1.8-4.2
			c-0.7-0.9-1.5-1.7-2.4-2c-0.9-0.4-2.6-0.6-5.1-0.6c-2.4,0-4.4,0.1-5.9,0.4c-0.2,0.2-0.3,0.4-0.5,0.9c0,0.1-0.1,0.3-0.3,0.6
			c-0.6,1.4-2,4.9-4,10.7c-0.1,0.2-0.2,0.6-0.3,1c1.3,0,2.1,0.1,2.5,0.1c2.1,0,3.7-0.3,4.8-0.9c1.2-0.6,2.4-2,3.9-4
			c0.2-0.3,0.4-0.5,0.6-0.5c0.3,0,0.4,0.2,0.2,0.7l-0.4,0.9c-0.6,1.3-1.2,2.6-1.6,4c-0.8,2.2-1.5,4.3-2,6.1
			c-0.2,0.5-0.4,0.8-0.7,0.8c-0.2,0-0.3-0.2-0.2-0.6c0.3-2,0.1-3.4-0.7-4.2c-0.8-0.8-3-1.3-6.7-1.3c-0.5,1.2-1.2,3.1-2.1,5.9
			c-1.3,3.5-1.9,5.7-2,6.6c-0.1,0.9,0.2,1.7,0.9,2.2s2.2,0.8,4.5,0.8c6.4,0,11.3-2.2,14.7-6.6c0.4-0.5,0.7-0.8,0.9-0.8
			s0.3,0.2,0.2,0.5c-0.1,0.2-0.2,0.4-0.3,0.6c-0.2,0.3-0.8,1.5-2,3.5c-0.2,0.4-1,1.7-2.3,3.9H1346c-1.5,0-3.7-0.1-6.5-0.2
			c-2.8-0.1-5.3-0.2-7.6-0.2s-3.4,0-3.5-0.1c-0.1-0.1-0.1-0.2,0-0.3c0.1-0.3,0.4-0.5,0.9-0.5c1.8,0,3.1-0.5,4.1-1.5
			c0.9-0.9,2-3.4,3.4-7l1.8-5l1.8-4.7c0.3-0.9,0.9-2.7,1.8-5.5c0.8-2.6,1.3-4.2,1.3-4.5c0-0.4-0.1-0.7-0.4-1.2
			c-0.3-0.4-1-0.7-2.4-1.2c-0.4-0.1-0.5-0.3-0.4-0.5c0.1-0.3,0.4-0.4,1-0.4l4.9,0.3c1.8,0.1,6.1,0.1,13.1,0.1
			C1364.1,376.4,1366.4,376.4,1366.5,376.4z"/>
		<path class="st0" d="M1386.5,391.8c1.9,0.9,3.1,2,3.7,3.1c0.5,1,0.6,2.7,0.2,5c-0.5,2.9-0.4,4.9,0.2,6c0.6,1,1.7,1.6,3.3,1.7
			c0.4,0,0.6,0.2,0.5,0.5s-0.4,0.4-0.9,0.4c-4.6,0-7.3-0.1-8.2-0.4c-0.8-0.3-1-2-0.4-5c0.6-2.9,0.9-5.1,0.9-6.5s-0.4-2.4-1.3-3.1
			c-0.8-0.7-2.3-1-4.6-1c-0.8,0-1.9,0.1-3,0.3c-0.4,1-0.8,2.1-1.3,3.3c-1.5,4.2-2.4,6.9-2.7,8.2c-0.3,1.3-0.3,2.1,0.1,2.7
			c0.4,0.5,1.3,0.8,2.6,0.9c0.6,0,0.8,0.2,0.7,0.4c-0.1,0.3-0.5,0.5-1.3,0.5h-12.2c-0.7,0-1-0.2-0.8-0.5c0.1-0.3,0.4-0.4,0.9-0.4
			c1.3,0,2.2-0.2,2.8-0.5c0.6-0.4,1.3-0.9,1.8-1.8c0.5-0.8,1.3-2.2,2-4.3l1.7-5l2.7-7.7c1.4-3.9,2.2-6.5,2.5-7.8
			c0.3-1.3,0.3-2.1,0-2.5c-0.3-0.4-1.2-0.7-2.7-1c-0.3,0-0.4-0.2-0.4-0.4c0.1-0.3,0.5-0.4,1.2-0.4l14.7-0.3c4,0,6.7,0.7,8,2.3
			c1.3,1.6,1.5,3.5,0.7,5.7c-0.5,1.4-1.4,2.7-2.4,3.9c-1.2,1.2-2.3,2-3.5,2.5C1390.8,390.6,1389,391.2,1386.5,391.8z M1377.4,391.2
			c3.1-0.1,5.7-0.3,7.3-0.6c1.7-0.4,3.4-1.3,4.9-2.5c1.6-1.3,2.6-2.8,3.3-4.6c0.6-1.9,0.6-3.5-0.1-4.8s-2.5-2.1-5.2-2.1
			c-1.5,0-3.1,0.2-5.1,0.6c-1.8,4.5-3.1,8.2-4.1,10.8C1378,388.9,1377.7,390,1377.4,391.2z"/>
		<path class="st0" d="M1422.3,375.5h1.2c0.5,3.8,0.7,10.2,0.8,19.3c0,5.9,0.2,9.4,0.5,10.7c0.3,1.3,1.3,2.1,2.9,2.2
			c0.5,0,0.7,0.2,0.6,0.5c-0.1,0.2-0.3,0.3-0.5,0.3h-0.3c-1.5-0.1-3.4-0.2-5.7-0.2c-3.6,0-5.9,0.1-6.9,0.2c-0.5,0-0.7-0.1-0.6-0.4
			c0.1-0.2,0.3-0.3,0.7-0.4c1.5-0.1,2.5-0.4,3.1-0.7c0.6-0.3,1.2-0.8,1.4-1.7c0.2-0.7,0.4-2.5,0.3-5.3v-4.2c-0.8,0-4.7,0-11.5,0.1
			c-3.4,4.5-5.1,7.4-5.6,8.6c-0.3,1-0.2,1.8,0.5,2.2c0.6,0.5,1.4,0.7,2.2,0.8c0.6,0,0.8,0.2,0.7,0.5c0,0.1-0.2,0.2-0.4,0.3
			c-2.6-0.1-4.2-0.2-4.7-0.2c-2.7,0-4.6,0-5.7,0.1c-0.5,0-0.7-0.1-0.6-0.4c0.1-0.3,0.4-0.4,0.8-0.5c2-0.2,3.9-1.6,5.7-3.9
			c1.8-2.3,4.8-6.5,9.1-12.5C1414.2,385.8,1418.2,380.5,1422.3,375.5z M1419.3,380.8c-2.6,3.1-6,7.7-10.2,13.6
			c1.7-0.1,2.9-0.1,3.7-0.1l6.9,0.1c0-1.7-0.1-4-0.2-6.8C1419.4,384.3,1419.4,382,1419.3,380.8z"/>
		<path class="st0" d="M1451.6,377.5c-1.3-0.1-2.2-0.1-2.7-0.1c-3.6,0-6.4,0.7-8.5,2.2c-2.1,1.5-3.6,2.8-4.2,4
			c-0.2,0.4-0.5,0.6-0.8,0.6c-0.2,0-0.3-0.1-0.4-0.2c0.7-2,2-4.6,3.8-8c0.8,0,1.3,0,1.5,0c1.3,0,2.9,0.1,5.1,0.2
			c2.3,0.1,5.8,0.2,10.6,0.2c4.9,0,8.1-0.1,9.6-0.2c1.4-0.1,3.3-0.2,5.7-0.2c-0.2,1.2-0.5,2.4-0.9,3.7c-0.4,1.5-0.6,2.5-0.8,3
			c0,0.1-0.1,0.3-0.1,0.4c-0.1,0.4-0.4,0.6-0.7,0.6c-0.2,0-0.3-0.1-0.4-0.2c-0.1-0.1-0.2-0.6-0.4-1.4c-0.4-1.4-0.9-2.3-1.6-3
			c-0.6-0.7-1.6-1.2-2.6-1.4c-1-0.2-3.4-0.3-6.7-0.4c-1,2.5-2.2,5.3-3.3,8.5c-3.7,10.6-5.7,16.8-5.9,18.7c-0.2,1.9,1,2.8,3.9,2.8
			c0.6,0,0.9,0.1,0.8,0.4c-0.1,0.3-0.5,0.5-1.2,0.5h-15.2c-0.4,0-0.5-0.1-0.4-0.4c0.1-0.3,0.5-0.4,1.4-0.4c1.3,0,2.5-0.3,3.6-1
			c1-0.7,1.9-1.7,2.4-2.9s1.9-4.8,4-10.8C1448.6,387.4,1450.2,382.4,1451.6,377.5z"/>
		<path class="st0" d="M1476.4,375.9l4.5,0.1l6.9-0.1c0.8,0,1.2,0.2,1,0.5c-0.1,0.2-0.3,0.4-0.8,0.4c-1.9,0.2-3.3,0.8-4.1,2
			c-0.8,1-2.5,5.1-4.9,12.1c-0.9,2.5-1.9,5.5-2.8,8.6c-0.9,3.1-1.5,5.1-1.6,5.8c-0.1,0.6,0.1,1.2,0.4,1.6c0.3,0.4,1,0.6,2.3,0.8
			c0.4,0,0.5,0.2,0.4,0.4c-0.1,0.3-0.3,0.4-0.7,0.4h-6.1l-5.2,0.1c-0.6,0-0.8-0.2-0.7-0.5s0.4-0.5,0.8-0.5c1.6,0,2.6-0.5,3.3-1.6
			c0.6-1,1.9-4.1,3.8-9.4c1.8-5.1,3.3-9.3,4.3-12.5c1-3.1,1.5-5.1,1.3-5.9c-0.2-0.7-0.8-1.2-2.1-1.4c-0.4-0.1-0.6-0.3-0.5-0.5
			C1475.9,376,1476.1,375.9,1476.4,375.9z"/>
		<path class="st0" d="M1488.4,392.1c0.7-2.2,2.3-4.6,4.6-7.3c2.3-2.6,5-4.8,8.2-6.6c3.3-1.7,6.4-2.6,9.6-2.6c4.5,0,7.8,1.7,9.5,4.9
			c1.8,3.3,2,7,0.5,11.1c-1.6,4.4-4.6,8.4-9.1,12c-4.5,3.6-9.1,5.2-13.7,5.2c-4.4,0-7.6-1.6-9.5-4.6
			C1486.8,401.1,1486.7,397.1,1488.4,392.1z M1494.2,391.2c-0.9,2.7-1.5,5.5-1.7,8.3c-0.2,2.8,0.4,4.8,1.7,6.2s2.9,1.9,4.9,1.9
			c3.3,0,6.4-1.6,9.4-4.7c3-3.1,5.3-6.8,6.8-10.9c1.4-4,1.7-7.6,0.7-10.6c-0.9-3-2.9-4.5-6.2-4.5c-2.4,0-4.7,0.8-6.9,2.4
			c-2.2,1.6-4.1,3.6-5.6,5.8C1496,387.2,1494.9,389.3,1494.2,391.2z"/>
		<path class="st0" d="M1537.7,376.3c0.5,1.4,1.5,3.4,2.9,6.2l4.7,9.1l4.5,8.8c1.3-2.9,2.6-6.8,4.3-11.6c1.3-3.6,2-6,2.3-7.1
			c0.3-1.3,0.1-2.2-0.5-3c-0.6-0.8-1.7-1.3-3.1-1.3c-0.6,0-0.9-0.1-0.8-0.4c0.1-0.2,0.2-0.3,0.3-0.3c0.2-0.1,1.3-0.1,3.4-0.2
			c2.1-0.1,3.9-0.1,5.2-0.1h3.4h0.5c0.5,0,0.7,0.1,0.6,0.4c-0.1,0.2-0.3,0.4-0.8,0.4c-1.7,0.2-3,0.6-4.1,1.3c-1,0.6-1.8,1.7-2.3,2.9
			c-0.6,1.3-2.2,5.6-4.8,13l-4.8,13c-0.2,0.6-0.5,0.9-0.8,0.9c-0.1,0-0.2,0-0.3-0.1c-0.1-0.1-0.5-0.9-1.4-2.5
			c-0.7-1.6-1.8-3.5-2.9-5.7c-1.2-2.2-2.1-4-2.7-5.5c-1.4-2.9-2.3-4.8-2.7-5.5c-1.5-2.5-2.3-4.2-2.5-4.9c-0.1-0.5-0.3-0.7-0.5-0.7
			s-0.4,0.3-0.6,0.9l-1.3,3.8c-1.7,4.8-2.9,8.7-3.7,11.6c-0.7,2.9-1,4.6-0.9,5.1s0.4,1,0.9,1.5c0.5,0.5,1.3,0.7,2,0.7
			c1,0,1.6,0.2,1.5,0.6c-0.1,0.3-0.4,0.4-1,0.4h-11.8c-0.5,0-0.8-0.1-0.7-0.4c0.1-0.3,0.4-0.5,0.9-0.5c2,0,3.6-0.4,4.5-1.4
			c0.9-0.9,2-2.8,3-5.7l2.8-8.7c1.8-5.1,2.7-8.2,2.7-9c0-0.9-0.2-2-0.7-3.4c-0.5-1.4-1.4-2-2.5-2.2c-0.5-0.1-0.7-0.2-0.7-0.4
			c0.1-0.3,0.5-0.4,1.3-0.4L1537.7,376.3z"/>
		<path class="st0" d="M1585.7,377.9c0.6-0.4,1-0.9,1.4-1.4c0.3-0.4,0.5-0.6,0.7-0.6c0.1,0,0.2,0.1,0.3,0.2
			c-0.1,0.6-0.3,1.8-0.7,3.6l-1,4.6c-0.1,0.3-0.3,0.4-0.7,0.4c-0.2,0-0.3-0.2-0.3-0.5c-0.1-2.2-0.7-4-2-5.3s-2.8-2.1-4.8-2.1
			s-3.7,0.6-5.1,1.8c-1.5,1.2-2.4,2.5-2.8,3.8c-0.6,1.7-0.4,2.9,0.3,3.8c0.7,0.8,2.7,1.9,5.8,2.9c2.3,0.8,3.9,1.6,4.9,2.3
			c1,0.7,1.7,1.8,2.1,3.1s0.3,2.7-0.2,4.3c-0.9,2.6-2.8,4.9-5.7,7c-2.8,2.1-5.9,3-9,3c-2.8,0-5.3-0.8-7.6-2.6
			c-0.7,0.4-1.3,1-1.7,1.7c-0.3,0.5-0.6,0.8-0.9,0.8c-0.3,0-0.3-0.3-0.2-1c0.1-0.6,1-3.9,2.6-9.5c0.1-0.2,0.3-0.3,0.6-0.3
			c0.2,0,0.4,0.2,0.4,0.5c0.3,6.4,2.7,9.5,7.2,9.5c2.2,0,4.3-0.6,6-2c1.8-1.4,2.9-2.9,3.6-4.7c0.4-1.3,0.5-2.3,0.2-3.4
			s-0.9-1.9-1.9-2.5c-0.9-0.6-2.4-1.4-4.6-2.1c-2.7-1-4.6-2-5.3-2.8c-0.8-0.9-1.3-1.9-1.4-3c-0.1-1.2,0-2.2,0.3-3.3
			c0.7-2.2,2.4-4.1,5-5.9c2.6-1.7,5.3-2.5,8.2-2.5c1,0,2.2,0.2,3.3,0.5C1583.6,376.5,1584.6,377.2,1585.7,377.9z"/>
	</g>
	<path class="st0" d="M1583.6,350.9H686.8c-2.5,0-4.5-2-4.5-4.5l0,0c0-2.5,2-4.5,4.5-4.5h896.8c2.5,0,4.5,2,4.5,4.5l0,0
		C1588.1,348.8,1586,350.9,1583.6,350.9z"/>
</g>
</svg>
