<?xml version="1.0" encoding="UTF-8" standalone="no"?>
<!DOCTYPE svg PUBLIC "-//W3C//DTD SVG 1.1//EN" "http://www.w3.org/Graphics/SVG/1.1/DTD/svg11.dtd">
<svg width="100%" height="100%" viewBox="0 0 4167 780" version="1.1" xmlns="http://www.w3.org/2000/svg" xmlns:xlink="http://www.w3.org/1999/xlink" xml:space="preserve" xmlns:serif="http://www.serif.com/" style="fill-rule:evenodd;clip-rule:evenodd;stroke-linejoin:round;stroke-miterlimit:2;">
    <g transform="matrix(1,0,0,1,-9.002083,-1.998645)">
        <g transform="matrix(4.166667,0,0,4.166667,19.145833,410.159167)">
            <path d="M0,9.922L266.677,9.922C266.677,9.922 267.286,5.917 267.373,0L76.942,0L76.68,2.436L36.121,2.436L36.555,5.744L-0.695,5.744L0,9.922Z" style="fill-rule:nonzero;"/>
        </g>
        <g transform="matrix(4.166667,0,0,4.166667,9.602083,342.46375)">
            <path d="M0,11.141L269.141,11.141C269.141,11.141 269.664,6.094 267.837,0L78.448,0C77.665,2.961 77.984,4.641 77.984,4.641L37.599,4.641C37.28,6.094 37.135,7.428 37.135,7.428L-0.144,7.428L0,11.141Z" style="fill-rule:nonzero;"/>
        </g>
        <g transform="matrix(4.166667,0,0,4.166667,13.357917,274.77125)">
            <path d="M0,11.139L266.472,11.139C266.472,11.139 265.456,4.757 262.756,0L81.29,0C80.07,2.494 79.866,4.641 79.866,4.641L39.484,4.641C38.643,5.628 38.555,6.5 38.555,6.5L0.956,6.5C-0.524,8.936 0,11.139 0,11.139" style="fill-rule:nonzero;"/>
        </g>
        <g transform="matrix(4.166667,0,0,4.166667,32.817083,207.075)">
            <path d="M0,11.14L256.697,11.14C256.697,11.14 254.172,3.947 250.863,0L83.089,0C81.492,1.334 80.303,3.713 80.303,3.713L41.776,3.713C40.412,5.338 39.455,6.962 39.455,6.962L2.464,6.962C0.899,8.297 0,11.14 0,11.14" style="fill-rule:nonzero;"/>
        </g>
        <g transform="matrix(4.166667,0,0,4.166667,75.356667,139.382917)">
            <path d="M0,11.139L238.129,11.139C238.129,11.139 234.737,4.352 229.773,0L85.412,0C83.119,1.393 81.234,3.714 81.234,3.714L42.243,3.714C39.778,4.874 38.993,6.964 38.993,6.964L2.787,6.964C1.133,8.877 0,11.139 0,11.139" style="fill-rule:nonzero;"/>
        </g>
        <g transform="matrix(4.166667,0,0,4.166667,133.388333,69.747083)">
            <path d="M0,11.607L210.742,11.607C210.742,11.607 203.4,4.179 197.279,0L91.906,0C88.513,1.394 85.411,4.179 85.411,4.179L45.49,4.179C43.081,5.4 40.848,7.894 40.848,7.894L2.784,7.894C0.784,9.403 0,11.607 0,11.607" style="fill-rule:nonzero;"/>
        </g>
        <g transform="matrix(4.166667,0,0,4.166667,222.355417,0.852917)">
            <path d="M0,12.359L166.643,12.359C166.643,12.359 144.359,0.602 123.476,0.29C104.065,0 95.363,4.004 95.363,4.004L58.024,4.004C52.541,5.221 47.347,7.716 47.347,7.716L7.89,7.716C4.148,9.226 0,12.359 0,12.359" style="fill-rule:nonzero;"/>
        </g>
        <g transform="matrix(4.166667,0,0,4.166667,43.575417,472.2275)">
            <path d="M0,9.851L257.597,9.851C257.597,9.851 259.33,5.774 259.919,0L71.51,0C71.829,1.569 72.585,2.829 72.585,2.829L33.527,2.867C33.735,4.441 34.639,5.442 34.639,5.442L-1.916,5.455C-1.741,8.225 0,9.851 0,9.851" style="fill-rule:nonzero;"/>
        </g>
        <g transform="matrix(4.166667,0,0,4.166667,1387.229583,58.841667)">
            <path d="M0,109.78C21.363,109.78 38.618,102.917 51.765,89.186C63.586,76.848 69.501,62.318 69.501,45.597C69.501,31.708 65.504,20.635 57.511,12.383C49.519,4.129 37.859,0 22.533,0L-22.759,0L-22.759,4.248C-18.092,4.678 -15.022,5.25 -13.548,5.971C-12.08,6.693 -11.342,8.444 -11.342,11.221C-11.342,12.29 -11.48,13.531 -11.759,14.946C-12.042,16.366 -12.458,18.112 -13.015,20.196L-32.123,93.834C-33.342,98.536 -35.143,101.715 -37.528,103.367C-38.949,104.388 -41.357,105.133 -44.76,105.613L-44.76,109.78L0,109.78ZM39.054,74.203C30.779,94.289 17.381,104.332 -1.141,104.332C-4.391,104.332 -6.637,103.849 -7.877,102.889C-9.123,101.927 -9.742,100.381 -9.742,98.24C-9.742,97.761 -9.704,97.2 -9.629,96.558C-9.555,95.918 -9.414,95.197 -9.209,94.396L12.257,11.461C12.762,9.537 13.611,8.002 14.807,6.854C15.998,5.708 18.272,5.131 21.619,5.131C31.616,5.131 38.645,8.816 42.706,16.188C45.294,20.997 46.589,27.461 46.589,35.58C46.589,49.15 44.077,62.023 39.054,74.203" style="fill-rule:nonzero;"/>
        </g>
        <g transform="matrix(4.166667,0,0,4.166667,1739.684167,92.408333)">
            <path d="M0,94.071C6.976,101.203 16.022,104.768 27.137,104.768C44.798,104.768 60.427,96.249 74.029,79.207C86.763,63.289 93.132,46.491 93.132,28.808C93.132,16.682 89.534,7.066 82.326,-0.039C75.118,-7.145 65.908,-10.697 54.693,-10.697C37.844,-10.697 22.62,-2.308 9.018,14.461C-3.974,30.544 -10.468,47.556 -10.468,65.506C-10.468,77.419 -6.979,86.94 0,94.071M21.961,31.129C30.792,6.93 41.678,-5.168 54.615,-5.168C60.1,-5.168 64.134,-3.206 66.722,0.72C69.31,4.648 70.605,9.364 70.605,14.865C70.605,20.688 69.638,28.3 67.711,37.701C65.78,47.103 63.118,56.049 59.716,64.544C54.336,78.007 49.137,87.126 44.112,91.909C39.087,96.69 33.506,99.079 27.365,99.079C20.819,99.079 16.301,95.793 13.814,89.224C12.544,85.858 11.911,81.799 11.911,77.043C11.911,64.812 15.261,49.506 21.961,31.129" style="fill-rule:nonzero;"/>
        </g>
        <g transform="matrix(4.166667,0,0,4.166667,2056.187917,70.191667)">
            <path d="M0,107.056L0,102.889C4.061,102.304 6.977,100.643 8.753,97.921C10.527,95.195 12.889,88.493 15.831,77.809L34.411,10.419L33.722,8.737C32.557,5.8 30.956,3.849 28.927,2.888C27.61,2.247 25.169,1.793 21.618,1.524L21.618,-2.724L51.917,-2.724L85.713,73.482L97.969,26.765C98.73,23.881 99.341,21.317 99.799,19.074C100.504,15.657 100.86,13.171 100.86,11.621C100.86,7.616 99.541,4.865 96.905,3.369C95.283,2.462 92.437,1.846 88.378,1.524L88.378,-2.724L120.884,-2.724L120.884,1.524L118.677,1.846C115.477,2.327 113.017,4.21 111.291,7.495C109.563,10.779 107.456,17.125 104.974,26.526L82.822,109.78L78.253,109.78L38.44,18.994L22.913,77.809C21.642,82.672 20.807,86.302 20.4,88.707C20.147,90.203 20.019,91.672 20.019,93.115C20.019,96.959 21.392,99.629 24.131,101.125C25.703,101.984 28.472,102.566 32.427,102.889L32.427,107.056L0,107.056Z" style="fill-rule:nonzero;"/>
        </g>
        <g transform="matrix(4.166667,0,0,4.166667,2469.647917,58.841667)">
            <path d="M0,109.78L0,105.613C3.707,105.133 6.447,104.171 8.224,102.729C9.995,101.286 11.469,98.321 12.636,93.834L31.745,20.196C32.203,18.329 32.581,16.63 32.887,15.107C33.19,13.585 33.342,12.29 33.342,11.221C33.342,8.444 32.643,6.693 31.25,5.971C29.851,5.25 26.772,4.678 21.998,4.248L21.998,0L106.038,0L99.416,31.173L95.232,30.451C95.131,22.494 93.905,16.857 91.577,13.543C87.62,7.934 79.599,5.131 67.521,5.131C63.411,5.131 60.761,5.653 59.567,6.693C58.373,7.735 57.396,9.7 56.635,12.581L47.273,49.042C58.183,48.776 65.249,47.839 68.474,46.236C71.693,44.634 75.258,39.801 79.17,31.734L83.506,32.294L71.936,77.168L67.673,76.366C67.877,74.819 68.019,73.47 68.094,72.318C68.168,71.173 68.207,70.224 68.207,69.476C68.207,63.653 66.683,59.674 63.64,57.536C60.593,55.398 54.654,54.329 45.826,54.329L35.549,94.396C35.294,95.356 35.106,96.292 34.981,97.2C34.851,98.109 34.788,98.829 34.788,99.362C34.788,100.861 35.344,102.087 36.464,103.049C37.581,104.009 39.911,104.491 43.467,104.491C52.906,104.491 60.949,103.104 67.598,100.324C77.952,96.053 86.019,88.333 91.801,77.168L95.615,77.886L86.402,109.78L0,109.78Z" style="fill-rule:nonzero;"/>
        </g>
        <g transform="matrix(4.166667,0,0,4.166667,3151.9775,529.610417)">
            <path d="M0,-115.626C5.936,-115.626 11.57,-114.797 16.897,-113.143C22.227,-111.484 25.296,-110.659 26.108,-110.659C27.732,-110.659 28.984,-111.099 29.88,-111.98C30.763,-112.861 31.642,-114.077 32.504,-115.626L37.15,-115.626L29.232,-79.328L24.74,-79.889C24.839,-86.619 23.979,-92.253 22.152,-96.797C18.751,-105.29 12.301,-109.537 2.817,-109.537C-9.971,-109.537 -20.838,-101.041 -29.764,-84.055C-37.48,-69.203 -41.336,-53.95 -41.336,-38.302C-41.336,-24.945 -37.783,-15.649 -30.679,-10.416C-26.77,-7.532 -22.051,-6.088 -16.519,-6.088C-11.548,-6.088 -7.677,-6.876 -4.909,-8.454C-2.15,-10.027 -0.229,-12.5 0.838,-15.865C0.838,-15.329 2.02,-19.591 4.377,-28.646C6.736,-37.701 7.915,-43.508 7.915,-46.075C7.915,-48.8 7.217,-50.521 5.823,-51.242C4.422,-51.964 1.295,-52.589 -3.577,-53.126L-3.577,-57.293L41.105,-57.293L41.105,-53.126C36.789,-52.644 34.052,-51.788 32.882,-50.562C31.719,-49.332 30.371,-45.699 28.847,-39.663L21.312,-9.774L16.977,-7.694C13.474,-6.036 8.418,-4.34 1.827,-2.605C-4.771,-0.87 -11.601,0 -18.654,0C-31.693,0 -42.605,-3.739 -51.382,-11.217C-60.925,-19.335 -65.696,-30.34 -65.696,-44.23C-65.696,-62.125 -59.962,-78.127 -48.493,-92.228C-35.754,-107.826 -19.589,-115.626 0,-115.626" style="fill-rule:nonzero;"/>
        </g>
        <g transform="matrix(4.166667,0,0,4.166667,3378.959167,49.504167)">
            <path d="M0,112.021L0,108.093C-4.112,107.614 -6.815,107.052 -8.11,106.412C-9.405,105.77 -10.051,104.328 -10.051,102.085C-10.051,100.857 -9.81,99.576 -9.328,98.24C-8.849,96.904 -8.303,95.674 -7.691,94.553L1.445,77.885L35.017,77.885C35.93,84.885 36.433,88.863 36.536,89.824C37.092,94.471 37.374,97.412 37.374,98.64C37.374,102.272 36.447,104.663 34.593,105.811C32.74,106.961 29.584,107.721 25.116,108.093L25.116,112.021L72.388,112.021L72.388,108.093C67.569,107.721 64.447,106.826 63.026,105.412C61.599,103.996 60.388,100.136 59.375,93.831L44.451,0L40.417,0L-17.436,96.477C-19.923,100.698 -22.181,103.582 -24.211,105.13C-25.578,106.197 -27.713,107.187 -30.604,108.093L-30.604,112.021L0,112.021ZM28.161,31.491L33.951,71.395L5.096,71.395L28.161,31.491Z" style="fill-rule:nonzero;"/>
        </g>
        <g transform="matrix(4.166667,0,0,4.166667,3671.570833,58.841667)">
            <path d="M0,109.78L0,105.613C3.702,105.133 6.447,104.171 8.226,102.729C9.993,101.286 11.468,98.321 12.636,93.834L31.741,20.196C32.299,18.112 32.718,16.366 33,14.946C33.277,13.531 33.414,12.29 33.414,11.221C33.414,8.444 32.68,6.693 31.211,5.971C29.735,5.25 26.669,4.678 22.001,4.248L22.001,0L71.479,0L71.479,4.248C66.048,4.838 62.393,5.732 60.518,6.934C58.638,8.136 57.068,11.168 55.8,16.029L35.549,94.396C35.345,95.252 35.183,96.053 35.056,96.799C34.926,97.547 34.868,98.429 34.868,99.443C34.868,101.262 35.626,102.557 37.145,103.331C38.669,104.106 40.804,104.491 43.544,104.491C54.252,104.491 63.496,102.569 71.288,98.721C79.079,94.876 85.942,87.691 91.881,77.168L95.61,77.886L86.476,109.78L0,109.78Z" style="fill-rule:nonzero;"/>
        </g>
        <g transform="matrix(4.166667,0,0,4.166667,1973.676667,634.6)">
            <path d="M0,28.281C-0.1,28.931 -0.15,29.641 -0.15,30.41C-0.15,31.357 0.152,32.008 1.711,32.127L4.678,32.304L4.475,34.374C1.258,34.315 -1.157,34.197 -3.62,34.197C-6.235,34.197 -8.901,34.315 -11.617,34.374L-11.416,32.304L-8.952,32.127C-8.248,32.066 -7.593,31.89 -7.241,31.002C-7.04,30.529 -6.688,29.405 -6.235,26.388L-2.614,2.19C-2.263,-0.117 -2.162,-1.3 -2.162,-2.189C-2.212,-3.253 -2.716,-3.727 -4.073,-3.845L-6.688,-4.022L-6.486,-6.092C-3.872,-6.033 -1.408,-5.915 1.006,-5.915C3.722,-5.915 6.488,-6.033 9.153,-6.093L8.952,-4.022L6.689,-3.845C5.179,-3.727 4.727,-3.549 4.375,-1.241L0,28.281Z" style="fill-rule:nonzero;"/>
        </g>
        <g transform="matrix(4.166667,0,0,4.166667,2119.1,609.2125)">
            <path d="M0,40.467L-15.591,8.697L-19.262,32.126C-19.514,33.841 -19.664,34.847 -19.664,35.853C-19.664,36.917 -19.313,38.1 -17.854,38.22L-15.289,38.397L-15.541,40.467C-17.401,40.408 -19.313,40.29 -21.173,40.29C-23.135,40.29 -25.045,40.408 -27.007,40.467L-26.905,38.397L-24.492,38.22C-23.435,38.159 -22.883,37.331 -22.481,34.906L-17.602,6.094C-17.503,5.68 -17.703,5.148 -17.905,4.732C-18.81,2.84 -20.67,2.189 -21.726,2.071L-23.687,1.893L-23.536,0.001C-21.726,0.06 -19.916,0.178 -18.105,0.178C-16.295,0.178 -14.536,0.06 -12.724,0L3.067,31.888L6.789,8.223C7.09,6.449 7.09,4.556 7.09,3.845C7.09,2.603 5.831,2.189 4.776,2.071L2.663,1.893L2.915,0.001C4.877,0.06 6.888,0.178 8.849,0.178C10.809,0.178 12.822,0.06 14.784,0L14.483,1.893L12.619,2.071C11.815,2.13 11.163,2.307 10.809,2.84C10.458,3.372 10.058,5.087 9.403,9.052L5.077,34.374C4.726,36.444 4.473,38.515 4.273,40.467L0,40.467Z" style="fill-rule:nonzero;"/>
        </g>
        <g transform="matrix(4.166667,0,0,4.166667,2267.442083,755.152917)">
            <path d="M0,-29.583C-1.509,-31.239 -3.719,-32.54 -7.042,-32.54C-10.409,-32.54 -13.527,-29.878 -13.527,-26.033C-13.527,-21.36 -10.359,-19.88 -7.09,-18.46C-2.766,-16.567 1.509,-15.028 1.509,-8.402C1.509,-4.201 -0.905,-0.12 -2.362,1.478C-5.13,4.495 -7.995,6.271 -12.723,6.271C-15.64,6.271 -18.657,5.737 -20.869,3.903L-19.815,-5.918L-18.457,-5.918L-18.457,-1.421C-17.951,-0.12 -16.093,2.957 -10.761,2.957C-5.38,2.957 -3.82,-0.83 -3.82,-4.024C-3.82,-8.698 -5.732,-9.526 -10.007,-11.302C-14.533,-13.254 -18.154,-14.969 -18.154,-21.477C-18.154,-26.742 -15.489,-30.233 -14.23,-31.535C-13.024,-32.778 -9.603,-35.854 -4.928,-35.854C-0.352,-35.854 2.313,-33.488 2.617,-33.251C2.063,-31.002 1.509,-27.572 1.509,-24.554L0,-24.554L0,-29.583Z" style="fill-rule:nonzero;"/>
        </g>
        <g transform="matrix(4.166667,0,0,4.166667,2320.032083,746.763333)">
            <path d="M0,-24.729C0.352,-27.036 0.554,-28.22 0.554,-29.108C0.554,-30.172 0.053,-30.646 -1.305,-30.764L-3.871,-30.941L-3.62,-33.012C-1.006,-32.952 1.459,-32.835 3.873,-32.835C5.08,-32.835 6.336,-32.952 7.393,-33.013L7.694,-32.599L3.37,-5.384C3.221,-4.495 3.221,-3.667 3.221,-2.602C3.221,1.362 5.383,3.55 8.753,3.55C12.172,3.55 17.903,-1.833 18.156,-3.49L21.425,-24.729C21.777,-27.036 21.977,-28.22 21.977,-29.108C21.977,-30.172 21.473,-30.646 20.116,-30.764L17.552,-30.941L17.805,-33.012C20.419,-32.952 22.882,-32.835 25.296,-32.835C28.012,-32.835 30.778,-32.952 33.443,-33.013L33.193,-30.941L30.877,-30.764C29.37,-30.646 28.768,-30.468 28.414,-28.161L23.888,1.362C23.789,2.012 23.688,2.722 23.688,3.491C23.688,4.438 23.938,5.088 25.499,5.208L28.464,5.384L28.214,7.455C25.951,7.396 24.239,7.278 22.176,7.278C20.419,7.278 18.71,7.396 16.948,7.455L16.697,6.982C17.198,4.438 17.501,2.663 17.954,-0.059L17.704,-0.176C14.283,4.083 10.963,8.284 5.532,8.284C0.705,8.284 -3.317,4.674 -3.317,-1.36C-3.317,-2.957 -3.269,-4.495 -2.915,-6.567L0,-24.729Z" style="fill-rule:nonzero;"/>
        </g>
        <g transform="matrix(4.166667,0,0,4.166667,2489.759167,755.881667)">
            <path d="M0,-30.053C0.354,-32.539 -0.2,-33.012 -2.212,-33.129L-4.526,-33.308L-4.273,-35.2C-1.659,-35.141 1.006,-35.023 3.621,-35.023C7.042,-35.023 9.858,-35.141 12.672,-35.201C18.505,-35.319 23.484,-33.604 23.484,-26.917C23.484,-19.522 18.106,-16.682 13.176,-15.796L21.019,0.001C21.726,1.362 22.829,2.9 23.537,3.078L25.395,3.492L25.395,5.266C23.734,5.207 22.126,5.089 20.47,5.089C19.059,5.089 17.653,5.207 16.242,5.266L8.953,-10.174C8.096,-11.95 6.941,-13.902 5.883,-15.796L6.136,-16.801L8.9,-16.801C12.574,-16.801 16.849,-19.641 16.849,-26.326C16.849,-31.118 14.283,-32.656 10.46,-32.656C8.953,-32.656 7.845,-32.597 6.839,-32.479L2.164,-0.827C2.063,-0.177 2.01,0.534 2.01,1.303C2.01,2.25 2.314,2.9 3.873,3.019L6.839,3.196L6.637,5.266C3.421,5.207 1.006,5.089 -1.459,5.089C-4.073,5.089 -6.738,5.207 -9.453,5.266L-9.251,3.196L-6.789,3.019C-6.083,2.959 -5.431,2.782 -5.079,1.895C-4.88,1.422 -4.526,0.297 -4.073,-2.72L0,-30.053Z" style="fill-rule:nonzero;"/>
        </g>
        <g transform="matrix(4.166667,0,0,4.166667,2687.5525,777.823333)">
            <path d="M0,-40.585L-18.252,-4.319C-18.758,-3.312 -19.509,-2.366 -20.616,-2.247L-22.326,-2.07L-22.576,0C-20.568,-0.059 -18.556,-0.177 -16.543,-0.177C-14.632,-0.177 -12.72,-0.059 -10.809,0L-10.559,-2.07L-12.773,-2.247C-13.977,-2.366 -14.935,-2.661 -14.935,-3.371C-14.935,-4.674 -14.531,-5.679 -13.977,-6.803L-9.654,-15.795C-7.795,-15.855 -5.932,-15.974 -4.073,-15.974C-2.21,-15.974 -0.4,-15.855 1.459,-15.795L2.715,-4.081C2.869,-2.839 1.608,-2.307 0.607,-2.247L-1.507,-2.07L-1.507,0C1.006,-0.059 3.572,-0.177 6.086,-0.177C8.599,-0.177 11.117,-0.059 13.63,0L13.63,-2.07L11.767,-2.247C10.058,-2.425 9.307,-3.608 9.051,-5.502L5.233,-36.384C5.079,-37.805 4.978,-39.165 4.829,-40.585L0,-40.585ZM-0.804,-33.9L-0.703,-33.9L1.208,-18.34L-8.498,-18.34L-0.804,-33.9Z" style="fill-rule:nonzero;"/>
        </g>
        <g transform="matrix(4.166667,0,0,4.166667,2864.190417,609.2125)">
            <path d="M0,40.467L-15.59,8.697L-19.259,32.126C-19.514,33.841 -19.663,34.847 -19.663,35.853C-19.663,36.917 -19.312,38.1 -17.853,38.22L-15.286,38.397L-15.537,40.467C-17.4,40.408 -19.312,40.29 -21.17,40.29C-23.134,40.29 -25.041,40.408 -27.006,40.467L-26.904,38.397L-24.492,38.22C-23.433,38.159 -22.879,37.331 -22.48,34.906L-17.602,6.094C-17.501,5.68 -17.703,5.148 -17.901,4.732C-18.806,2.84 -20.669,2.189 -21.724,2.071L-23.683,1.893L-23.534,0.001C-21.724,0.06 -19.913,0.178 -18.103,0.178C-16.293,0.178 -14.536,0.06 -12.72,0L3.067,31.888L6.789,8.223C7.092,6.449 7.092,4.556 7.092,3.845C7.092,2.603 5.835,2.189 4.776,2.071L2.667,1.893L2.918,0.001C4.877,0.06 6.89,0.178 8.849,0.178C10.814,0.178 12.822,0.06 14.786,0L14.482,1.893L12.624,2.071C11.82,2.13 11.165,2.307 10.814,2.84C10.462,3.372 10.058,5.087 9.403,9.052L5.08,34.374C4.728,36.444 4.478,38.515 4.276,40.467L0,40.467Z" style="fill-rule:nonzero;"/>
        </g>
        <g transform="matrix(4.166667,0,0,4.166667,3046.48625,750.954167)">
            <path d="M0,-27.569C0.048,-28.279 -0.405,-28.87 -1.055,-29.344C-2.764,-30.587 -6.336,-31.356 -8.247,-31.356C-18.609,-31.356 -21.122,-19.346 -21.122,-9.111C-21.122,-1.302 -18.305,3.432 -11.363,3.432C-7.694,3.432 -4.627,1.775 -1.507,-0.354L-0.405,-1.123L0.101,-0.591L-0.554,1.716C-4.526,4.793 -9.1,7.278 -13.929,7.278C-23.082,7.278 -28.06,2.308 -28.06,-8.637C-28.06,-22.777 -18.508,-34.847 -6.288,-34.847C-3.269,-34.847 0.501,-34.077 3.418,-32.302C2.614,-28.93 1.81,-25.676 1.507,-22.363L-0.25,-22.363L0,-27.569Z" style="fill-rule:nonzero;"/>
        </g>
        <g transform="matrix(4.166667,0,0,4.166667,3096.1375,756.381667)">
            <path d="M0,-30.173C0.356,-32.659 -0.197,-33.072 -2.21,-33.249L-4.526,-33.428L-4.271,-35.32C-1.656,-35.261 1.006,-35.143 3.621,-35.143C6.288,-35.143 9.003,-35.261 11.671,-35.321C14.786,-35.38 17.906,-35.202 20.973,-35.143L21.473,-34.788C21.021,-31.948 20.568,-28.872 20.217,-25.795L18.609,-25.795L18.609,-28.931C18.609,-30.173 18.657,-31.534 17.906,-31.711C15.238,-32.362 11.517,-32.48 8.801,-32.48C8.146,-32.48 7.496,-32.362 6.841,-32.303L4.579,-17.395L8.902,-17.395C10.915,-17.395 13.582,-17.454 15.941,-17.572L16.197,-17.04L15.489,-14.259C12.677,-14.377 9.807,-14.554 6.943,-14.554L4.174,-14.554L1.762,1.656C2.715,1.893 3.621,2.011 4.526,2.011C7.395,2.011 10.26,1.834 13.129,1.656C14.786,1.538 15.59,0.828 16.042,-0.829L17.15,-4.97L18.96,-4.97C18.257,-1.657 17.752,1.656 17.251,4.969C13.934,5.028 10.765,5.207 7.544,5.146C4.275,5.087 1.059,4.969 -2.21,4.969C-4.271,4.969 -6.384,5.087 -8.445,5.146L-8.195,3.254L-6.789,3.076C-5.628,2.958 -4.824,2.603 -4.372,-0.474L0,-30.173Z" style="fill-rule:nonzero;"/>
        </g>
        <g transform="matrix(4.166667,0,0,4.166667,3354.082917,659.25)">
            <path d="M0,16.449C0.501,13.963 -0.303,13.49 -2.061,13.431L-5.079,13.312L-4.829,11.361C-2.316,11.42 0.202,11.538 2.663,11.538C5.128,11.538 7.641,11.42 10.106,11.36L9.856,13.312L8.599,13.431C7.29,13.549 6.688,14.201 6.336,16.094L5.33,21.773C5.181,22.66 5.027,23.548 5.027,24.494L5.181,25.441C1.257,27.098 -3.37,29.287 -8.902,29.287C-17.901,29.287 -23.987,24.613 -23.987,13.431C-23.987,0.711 -17.602,-8.105 -7.544,-11.772C-5.58,-12.482 -3.418,-12.838 -1.411,-12.838C2.061,-12.838 5.633,-12.068 8.7,-10.293C7.896,-6.921 7.092,-3.667 6.789,-0.354L5.027,-0.354L5.282,-5.56C5.33,-6.27 4.878,-6.861 4.222,-7.335C3.067,-8.164 -0.25,-9.169 -3.269,-9.169C-5.936,-9.169 -9.456,-8.341 -11.719,-6.033C-15.542,-2.128 -17.049,6.805 -17.049,13.135C-17.049,20.707 -14.483,26.506 -7.39,26.506C-5.734,26.506 -2.966,25.856 -1.608,24.79L0,16.449Z" style="fill-rule:nonzero;"/>
        </g>
        <g transform="matrix(4.166667,0,0,4.166667,3442.292083,755.881667)">
            <path d="M0,-30.053C0.352,-32.539 -0.202,-33.012 -2.21,-33.129L-4.526,-33.308L-4.275,-35.2C-1.661,-35.141 1.006,-35.023 3.621,-35.023C7.039,-35.023 9.856,-35.141 12.672,-35.201C18.508,-35.319 23.486,-33.604 23.486,-26.917C23.486,-19.522 18.103,-16.682 13.178,-15.796L21.021,0.001C21.724,1.362 22.831,2.9 23.534,3.078L25.398,3.492L25.398,5.266C23.736,5.207 22.128,5.089 20.467,5.089C19.061,5.089 17.651,5.207 16.245,5.266L8.951,-10.174C8.098,-11.95 6.943,-13.902 5.883,-15.796L6.134,-16.801L8.902,-16.801C12.571,-16.801 16.847,-19.641 16.847,-26.326C16.847,-31.118 14.28,-32.656 10.462,-32.656C8.951,-32.656 7.848,-32.597 6.842,-32.479L2.162,-0.827C2.061,-0.177 2.013,0.534 2.013,1.303C2.013,2.25 2.316,2.9 3.871,3.019L6.842,3.196L6.64,5.266C3.418,5.207 1.006,5.089 -1.459,5.089C-4.073,5.089 -6.736,5.207 -9.451,5.266L-9.254,3.196L-6.789,3.019C-6.086,2.959 -5.431,2.782 -5.079,1.895C-4.877,1.422 -4.526,0.297 -4.073,-2.72L0,-30.053Z" style="fill-rule:nonzero;"/>
        </g>
        <g transform="matrix(4.166667,0,0,4.166667,3656.845833,781.280833)">
            <path d="M0,-42.125C-12.87,-42.125 -21.016,-31.239 -21.016,-16.389C-21.016,-5.976 -15.335,0 -6.587,0C6.086,0 15.089,-11.241 15.089,-26.032C15.089,-36.504 8.45,-42.125 0,-42.125M-1.001,-39.581C5.888,-39.581 8.151,-34.316 8.151,-26.92C8.151,-17.098 4.93,-2.545 -5.33,-2.545C-11.613,-2.545 -14.078,-7.929 -14.078,-14.555C-14.078,-24.14 -11.411,-39.581 -1.001,-39.581" style="fill-rule:nonzero;"/>
        </g>
        <g transform="matrix(4.166667,0,0,4.166667,3761.404583,746.763333)">
            <path d="M0,-24.729C0.352,-27.036 0.554,-28.22 0.554,-29.108C0.554,-30.172 0.053,-30.646 -1.305,-30.764L-3.871,-30.941L-3.621,-33.012C-1.006,-32.952 1.459,-32.835 3.876,-32.835C5.079,-32.835 6.336,-32.952 7.395,-33.013L7.694,-32.599L3.37,-5.384C3.221,-4.495 3.221,-3.667 3.221,-2.602C3.221,1.362 5.383,3.55 8.753,3.55C12.172,3.55 17.906,-1.833 18.156,-3.49L21.425,-24.729C21.777,-27.036 21.979,-28.22 21.979,-29.108C21.979,-30.172 21.473,-30.646 20.116,-30.764L17.554,-30.941L17.805,-33.012C20.419,-32.952 22.884,-32.835 25.296,-32.835C28.012,-32.835 30.78,-32.952 33.443,-33.013L33.192,-30.941L30.877,-30.764C29.37,-30.646 28.768,-30.468 28.416,-28.161L23.89,1.362C23.789,2.012 23.688,2.722 23.688,3.491C23.688,4.438 23.938,5.088 25.498,5.208L28.464,5.384L28.214,7.455C25.951,7.396 24.242,7.278 22.176,7.278C20.419,7.278 18.71,7.396 16.948,7.455L16.697,6.982C17.198,4.438 17.501,2.663 17.954,-0.059L17.703,-0.176C14.285,4.083 10.963,8.284 5.532,8.284C0.708,8.284 -3.317,4.674 -3.317,-1.36C-3.317,-2.957 -3.269,-4.495 -2.913,-6.567L0,-24.729Z" style="fill-rule:nonzero;"/>
        </g>
        <g transform="matrix(4.166667,0,0,4.166667,3941.61375,634.108333)">
            <path d="M0,28.399C-0.101,29.049 -0.149,29.759 -0.149,30.528C-0.149,31.475 0.149,32.126 1.709,32.245L4.675,32.422L4.473,34.492C1.257,34.433 -1.155,34.315 -3.621,34.315C-6.235,34.315 -8.902,34.433 -11.618,34.492L-11.415,32.422L-8.95,32.245C-8.248,32.184 -7.593,32.008 -7.241,31.12C-7.039,30.647 -6.688,29.523 -6.235,26.506L-2.114,-0.827C-1.762,-3.313 -2.316,-3.786 -4.324,-3.904L-7.14,-4.082L-6.89,-5.974C-3.77,-5.915 -1.107,-5.797 1.507,-5.797C4.02,-5.797 7.545,-5.915 10.963,-5.975C17.8,-6.093 21.676,-3.195 21.676,3.846C21.676,11.833 15.59,17.69 9.153,17.69C7.443,17.69 5.782,17.335 4.174,16.625L4.073,14.554C5.128,15.027 6.283,15.265 7.492,15.265C12.422,15.265 15.036,9.525 15.036,3.786C15.036,-2.13 11.464,-3.431 8.45,-3.431C6.938,-3.431 5.83,-3.372 4.776,-3.254L0,28.399Z" style="fill-rule:nonzero;"/>
        </g>
        <g transform="matrix(4.166667,0,0,4.166667,4130.820417,472.77375)">
            <path d="M0,-1.243C1.509,-1.243 2.838,-1.39 2.838,-3.164C2.838,-4.642 1.391,-4.82 0.178,-4.82L-2.246,-4.82L-2.246,-1.243L0,-1.243ZM-2.246,5.706L-4.256,5.706L-4.256,-6.534L0.385,-6.534C3.341,-6.534 4.848,-5.5 4.848,-3.016C4.848,-0.799 3.491,0.117 1.656,0.324L5.087,5.706L2.809,5.706L-0.354,0.472L-2.246,0.472L-2.246,5.706ZM-0.058,-9.758C-4.848,-9.758 -8.572,-6.002 -8.572,-0.622C-8.572,4.405 -5.32,8.514 -0.058,8.514C4.673,8.514 8.397,4.788 8.397,-0.622C8.397,-6.002 4.673,-9.758 -0.058,-9.758M-0.058,10.436C-6.416,10.436 -10.939,5.676 -10.939,-0.622C-10.939,-7.273 -5.912,-11.679 -0.058,-11.679C5.737,-11.679 10.763,-7.273 10.763,-0.622C10.763,6.031 5.737,10.436 -0.058,10.436" style="fill-rule:nonzero;"/>
        </g>
    </g>
</svg>
