<?xml version="1.0" encoding="UTF-8" standalone="no"?>
<!DOCTYPE svg PUBLIC "-//W3C//DTD SVG 1.1//EN" "http://www.w3.org/Graphics/SVG/1.1/DTD/svg11.dtd">
<svg width="100%" height="100%" viewBox="0 0 980 680" version="1.1" xmlns="http://www.w3.org/2000/svg" xmlns:xlink="http://www.w3.org/1999/xlink" xml:space="preserve" xmlns:serif="http://www.serif.com/" style="fill-rule:evenodd;clip-rule:evenodd;stroke-linejoin:round;stroke-miterlimit:2;">
    <g transform="matrix(1.373428,0,0,1.372216,-214.774469,-147.34263)">
        <g id="Tree">
            <path d="M835.6,590.9L190.8,590.9C175.6,552 167.3,509.6 167.3,465.3C167.3,274.2 322,119.4 513.1,119.4C704.2,119.4 859,274.3 859,465.3C859,509.6 850.6,552 835.6,590.9ZM754.879,583.3C754.059,583.015 753.233,582.747 752.4,582.5C735.4,577.6 718.2,574.3 700.8,571.9C700.8,571.8 700.7,571.7 700.7,571.6C700.4,570.9 699.9,570.5 699.2,570.5C698.2,570.5 697.7,569.9 697.4,569.1C697.1,568.5 696.8,567.8 696.5,567.2C696.2,566.6 696.2,566 696.2,565.4C696.3,564.7 696.1,564 696.1,563.3L696.1,559.3C696.1,557.8 696.6,556.6 696.9,555.2C697.3,553.3 697.5,551.5 697.4,549.6C697.4,549.3 697.3,549.1 697.3,549L697.7,548.6C697.9,548.4 698.1,548.2 698.3,547.9C698.5,547.5 698.7,547.1 698.8,546.7C698.9,546.2 699.2,546.5 699.5,546.2C699.6,546.2 699.4,545.9 699.5,545.8C699.5,545.7 699.7,545.8 699.7,545.8C700,545.6 699.9,545.2 700,544.9C700.3,543.8 701.7,542.8 701.2,541.8C701.1,541.6 701.2,541.6 701.3,541.4C701.4,541.3 701.1,541.2 701.1,541.1C701.2,540.5 701.3,540 701.1,539.4C700.8,538.7 701.2,537.9 701.2,537.1C701.2,536.8 701.6,534.3 701.5,534.2C701.3,534 701.2,533.6 701.2,533.4C701.2,533.2 701.3,532.7 701.2,532.6C700.3,531.9 700.1,530.5 699.9,529.4C699.9,529.1 699.8,528.4 699.8,528.2C699.9,528 700.1,527.8 699.9,527.5C699.7,527.2 699.5,527 699.5,526.7C699.5,526.4 699.6,524.9 699.5,524.8C699.3,524.7 699.1,524.7 698.9,524.7C698.7,524.7 698.5,524.4 698.6,524.3C698.8,524.1 698.7,523.1 698.5,522.8C698.3,522.6 698.2,522.1 698.5,522C697.9,521.3 698.2,520.7 698.3,519.9C698.4,518.9 698.6,517.9 698.7,516.8C698.8,516.5 698.9,516.4 699.1,516.2C699.8,515.7 700.6,515.5 701.4,515.3C702,515.2 702.5,514.9 702.9,514.4C703.2,514 703.4,513.7 703.7,513.4C704.2,512.8 704.3,512.2 703.8,511.4C703.8,511.3 703.7,511.2 703.7,511.1C703.7,510.9 703.6,510.6 703.6,510.4L703.6,509.7C703.3,510.3 702.7,510.3 702.2,510.4C701.5,510.5 701.2,510 700.8,509.6C701.3,509.2 701.8,508.7 702.3,508.3C703.5,507.2 703.9,505.8 703.7,504.2C703.6,503.8 703.4,503.4 703.1,503C702.9,502.7 702.5,502.7 702.2,502.5L702.3,502.4C702.8,502.3 702.9,502.1 702.6,501.7C702.2,501.1 701.4,500.8 700.4,501.1C699.4,501.4 698.4,501.9 697.5,502.6C697.3,502.7 697.2,502.8 697,502.9C696.7,503.1 696.4,503.1 696.1,502.8C696,502.6 695.8,502.5 695.7,502.3C695.3,501.8 694.8,501.6 694.2,501.8C694,501.9 693.9,501.9 693.7,502C693,502.4 692.2,502.4 691.4,502.2C691.1,502.1 690.8,502.2 690.5,502.3C690.4,502.4 690.2,502.5 690.1,502.5C688.8,502.8 687.7,503.5 686.8,504.4C686.3,504.9 685.9,505.5 685.5,506.1C684.6,507.4 683.9,508.7 683.9,510.3C683.9,511.4 683.4,512 682.8,512.7C682.3,513.3 681.9,513.9 682,514.7C682,515.3 682.1,515.8 682.2,516.4C682.3,516.9 682.3,517.3 682.3,517.8C682.3,518.1 682.3,518.5 682.2,518.8L681.9,520C681.7,520.4 681.6,520.9 681.5,521.3C681.5,521.6 681.3,521.8 681,521.9C680.7,522 680.4,522.2 680.1,522.4C679.2,523.1 678.2,523.6 677.1,523.8C677,523.8 676.9,523.9 676.8,523.9C675.4,524.4 674.1,525 672.7,525.5C672.2,525.7 671.6,525.7 671.1,525.8C670.3,525.9 669.6,525.9 668.9,525.9C668.4,525.9 667.8,525.8 667.3,525.7C665.7,525.3 664,525.3 662.4,525.2C661.5,525.2 660.6,525.1 659.7,525.3C658.3,525.6 657,525.6 655.7,524.9L655.7,525.3L655.6,525.3L654.7,525C654.5,524.9 654.2,525 654,525L653.5,525.5C653.5,525.5 653.6,525.7 653.8,525.9C653.2,525.7 652.7,525.5 652.2,525.4C651,525.1 649.8,524.7 648.6,524.4C647.9,524.2 647.2,523.8 646.7,523.2C646.3,522.8 645.8,522.4 645.5,521.9C645.3,521.6 645.2,521.2 645.2,520.9C645.3,520.1 644.9,519.5 644.5,518.9C644.2,518.3 643.7,517.9 643.3,517.4C643,517.1 642.8,516.8 642.7,516.5C642.2,514.8 641.2,513.4 640.2,512C639.6,511.2 638.8,510.9 637.8,510.9L637.6,510.9C637.5,511.5 636.9,511.2 636.6,511.3C636.3,511.4 636,511.4 636,511.8C636,512.2 635.7,512.4 635.4,512.5C634.8,512.8 635.2,513.2 634.8,513.7C634.6,513.9 634.3,514 634,514C634.2,514.2 634.3,514.5 634.2,514.8C634.1,515 633.8,515.2 633.5,515.2C633.6,515.5 633.7,515.9 633.8,516.2C633.9,516.3 633.9,516.5 633.8,516.7C633.6,517 633.1,516.8 632.8,517C632.7,517.1 633.1,517.4 633.1,517.5C633.2,517.7 633.1,517.8 633.1,518C633.2,518.6 633.8,519.3 634,519.8C634.1,520 634.3,520.1 634.5,520.3C634.7,520.4 634.8,520.7 634.7,520.9C635,521.2 635.2,521.4 635.5,521.6C635.3,521.5 635,521.5 634.8,521.5C635.5,522.2 636.1,523 636.8,523.8C636.6,524.1 636.9,524.2 637.1,524.4C637.3,524.6 637.5,524.8 637.4,525C637.5,525 637.6,525.1 637.7,525.2C637.6,525.2 637.4,525.3 637.3,525.3C637.6,525.5 637.8,525.7 638.1,525.9C638,526 637.8,526 637.7,526.1C637.8,526.3 638,526.4 638.2,526.6L637.6,526.6C637.7,527.1 638.2,527.5 638.7,527.7C638.6,527.8 638.4,527.9 638.3,528C638.6,528.2 639,528.4 639.3,528.7C639,528.9 638.7,529 638.4,529.1C638.9,529.4 639.4,529.7 639.9,529.9C639.6,530 639.3,530.2 639,530.3C639.2,530.4 639.3,530.4 639.5,530.5C639.2,530.6 638.9,530.9 638.7,531.2C639.3,531.2 639.8,531.3 640.3,531.3C640.1,531.3 640.1,531.6 640.2,531.7C640.3,531.8 640.4,531.9 640.6,531.9C641,532 641.4,532 641.8,532C641.8,532.2 642,532.3 642.2,532.3L643.7,532.6L643.7,532.9L645,532.9L645,533.2L646,533.2C646,533.4 646.2,533.5 646.4,533.5C646.7,533.5 647.1,533.5 647.4,533.4C646.9,533.9 647,534.6 646.8,535.3C646.6,536 645.4,536.8 645.3,537.5C645.2,538.1 645.2,538.8 644.9,539.4C644.5,540.2 643.2,540.4 643,541.3C642.8,542 642.1,541.9 641.7,543.2C641.5,543.8 641.7,543.9 641.6,544.7C641.5,545.4 640.2,545.7 640.7,546.6C641.5,548 640.1,547.6 640.4,550.1C640.8,552.9 640.1,553.3 639.7,554.7C639.6,555.2 639.8,555.7 639.7,556.2C639.6,556.6 639.5,556.8 639.5,557.2C639.5,557.5 639.5,557.9 639.4,558.2C639.3,558.9 639.1,559.6 638.8,560.2C638.4,560.9 638.1,561.6 638,562.4C637.9,563 637.7,563.5 637.5,564.1C637.4,564.4 637.4,564.6 637.4,564.8C637.4,565.1 637.3,565.3 637.2,565.6C628.4,565 619.6,564.5 610.8,563.9C609.6,563.8 608.2,563 607.3,562C604.2,558.6 601.3,555 596.4,554.2C595.6,554.1 594.9,553.5 594.3,553C588.3,547.6 581.3,548.6 574.4,550C570.3,550.9 568.8,550.6 566.7,546.9C565.8,545.3 565,544.4 563.1,545.1C562.1,545.5 560.9,545.5 559.8,545.6C557,546 555.1,544.9 554,542C552.5,538.3 550.9,534.5 548.9,531.1C543.6,522 538.2,512.9 532.3,504.1C528.2,498 522.2,494.6 515,494C509.7,493.6 504.4,493.2 499.1,493.1C495.5,493 493,491.3 491.1,488.4C488.9,485.2 487.6,481.6 488,477.6C488.4,473.3 489.1,469.1 489.6,464.9C490.3,459.4 491.5,454 489.5,448.3C487.8,443.6 489.8,439.2 493.7,436.2C496.2,434.4 498.9,432.5 501.8,431.6C509.7,429.2 517.8,427.3 525.9,425.4C533.5,423.6 541.2,422.1 548.8,420.3C551.7,419.6 554.1,418.1 555.5,415C559.4,406.2 565.7,400.4 575.2,398.6C578.1,398.1 580.9,397.5 583.8,397.1C585,397 586.2,397.4 586.9,397.5C586.7,398.9 586.2,400.2 586.6,400.6C588.4,402.6 590.3,404.4 593.4,403.6C594.3,403.4 595.7,403.7 596.3,404.4C598.2,406.4 599.6,409 601.6,410.9C604.9,414 608.5,416.7 612.2,419.7C613.4,418.1 614.2,416.9 615.1,415.7C615.2,416 615.2,416.2 615.3,416.5C616.8,416.2 618.2,416 619.9,415.6C622.9,417.7 623.6,417.3 625.2,412.2C625.7,414.5 626.3,416.8 626.8,419.1C631,418.5 631.7,413 636.2,413.6C635.8,416.6 636,419.5 639.1,421C641.3,419.5 643.3,418 642,414.8C643.1,414.7 644.2,414.9 644.8,414.5C645.5,414.1 645.7,412.9 646.2,412.1C646.6,412.3 647.1,412.5 647.5,412.7C645.7,416.5 644.2,420.2 649.3,422.3C652.5,420.3 651.8,416.9 651.5,413.7C651.8,413.6 652.2,413.6 652.5,413.5C653.4,416 654.3,418.6 655.3,421.5C656.7,420.4 657.6,419.3 658.8,418.8C660.7,418.1 663.2,416.8 664.4,417.5C667,419.1 668.6,419.2 670.2,416.2C669.9,420.2 668.1,424.5 673.6,426.2C674.1,425.5 674.7,424.9 675,424.2C676,421.8 677.6,422.2 679.4,423C680.5,423.5 681.7,423.7 683,424C683.8,426.3 684.8,428.9 685.3,430.3C688.8,430.3 691.3,430.2 693.7,430.3C694.2,430.3 694.8,430.9 695,431.3C696.4,434.2 698.6,435.3 701.8,434.3C699.5,437.3 702.6,439.2 703.2,441.6C703.8,444 706.1,444.3 708.1,442.9C710.9,440.9 711.7,441.3 712,444.8C712.3,447.8 714.3,449.8 716.2,449.1C717.7,448.5 719.3,448 720.1,447.7C721.9,449.3 723.1,450.3 724.3,451.3C723,453.9 725.1,456 726.3,457.6C727.8,459.6 730.3,461 732.9,458.6C734,460.8 733,464.9 737.3,462.9C738.2,465 739,467.3 741.1,465.8C742.5,467 743.6,468.6 744.8,468.8C746.7,469 747.2,470.5 748.2,471.6C749.7,473.1 751.4,474.4 752.9,475.8C753.6,476.5 754.1,477.3 754.7,478C755.3,478.8 755.7,480.1 756.4,480.3C759.2,481.2 762,481.8 765,482.5C764,484.9 764.3,487.4 768,488.8C768.9,487.4 769.9,486 771.2,484.1C771.3,488.7 773.6,491.3 777.6,493.2C779.1,491.2 780.7,489 782.3,486.8C782.9,487.2 783.8,487.7 784.7,488.2C785.6,487.3 786.5,486.5 787.4,485.6C789.7,487 792.1,488.2 794.1,486C796.2,483.6 797.7,480.7 799.5,477.9C797.7,476.7 796.2,475.8 794.1,474.4C798.8,470 803.1,465.9 807.6,461.7C806.9,460.9 806.4,460.3 807.8,460.5C810.5,456.5 812.9,452.8 815.4,449C819.9,449.7 820.4,449.4 822.5,445.6C823.1,444.5 824,443.4 824.5,442.2C824.9,441.4 825.1,439.5 824.8,439.4C822,438.1 823.8,435.4 823,433.4L820,433.4C821.2,430.7 825.7,430.5 824,426.3C821.9,426.7 819.9,427 817.9,427.4C817.4,424.8 816.9,422.5 816.4,419.6C814.3,419.5 811.8,419 809.4,419.4C807,419.9 806,418.7 804.9,417C808.4,415.4 808.4,415.4 811.9,415.6C814.8,415.8 817.2,413.7 816.8,411.1C815.2,411.3 813.7,411.4 812.1,411.6C811.8,410.5 811.5,409.4 811.1,408C808.6,409.5 807.1,408.9 806.5,406.2C805.2,406.3 804.1,406.5 802.9,406.6C803.3,403.8 803.7,401.2 804.2,397.8C802.2,398.6 801.1,399.1 800,399.4C799.5,399.5 798.9,399.4 798.4,399.4C798.4,398.8 798.2,398.1 798.5,397.8C800.7,395.1 798.6,394 797,392.5C796.1,393.2 795.4,393.8 794.7,394.4C792.9,393.1 792.3,389.7 789.3,392.1C789,391 788.8,390.2 788.6,389.7C787,389.3 785.6,388.9 784.2,388.6C784.3,386 784,383.8 781.1,383.5C779.2,383.3 779.4,378.5 776.3,381.6C776.4,380.5 776.5,379.7 776.6,378.6C774.9,378.8 773.5,379 771.7,379.2C777.6,374.5 778,373.8 776.4,370.3C774.7,370.7 772.9,371.1 770.9,371.6C772.5,368.3 774.2,365.3 771.9,361.7C770.2,362.6 768.5,363.4 766.2,364.5C766.4,363.1 766.6,362.2 766.7,361.3C766.8,360.6 767.2,359.8 767,359.2C766.3,356.9 765.3,354.7 764.4,352.2C763.3,352.4 761.7,352.7 760.2,353C759.2,347.9 759.2,347.8 754.6,349.8C752.9,350.5 751.3,351.4 750.4,351.8C749.6,349.4 749,347.4 748.2,345.6C748,345.3 746.6,345.6 745.3,345.6C744.5,343.9 743.5,341.6 742.2,339.6C741.8,338.9 740.3,339 739.3,339C738.6,339 737.9,339.4 737.2,339.7C738.9,337.4 738.1,335.6 736.3,334.5C735.7,334.1 734.3,335 733,335.4C730.1,333 726.7,330.2 723.4,327.5C722.5,328.1 721.8,328.7 720.6,329.5C720.2,327.6 719.9,326.2 719.6,324.5C718,324.9 716.5,325.2 715.3,325.4C715.5,321.9 715.7,318.5 715.9,314.8L709.2,314.8L709.2,309C705.6,309.4 702.4,309.7 699.5,310C698.5,307.3 697.6,304.9 696.6,302.4C694.4,303 692.3,303.7 690.2,304.3C689.6,303.3 689.1,302.5 688.3,301.4C687.2,303 686.3,304.3 685.5,305.5C684.6,303.6 683.8,302 683,300.4C682.1,301.6 681.1,302.7 680.1,304C678.3,301 676.6,302.5 675,304.6C672,302.9 671.1,303.4 670.5,306.4C668.8,307 667.5,307.5 666.2,308C665.6,306.9 664.9,305.7 664.2,304.5C663.8,304.8 663.5,305 663.1,305.3C662.4,307.2 661.8,309 661.2,310.7C657.9,308.6 654.8,306.7 651.5,304.6C651,305.5 650.4,306.4 649.8,307.4C648.5,306.2 647.1,304.9 645.2,303.1C644.1,305.6 643.2,307.7 642.1,310.3C641.7,306.6 642,303.2 638.6,301.5C637,304.7 637.2,307.3 639.3,309.5C640.7,310.9 640.4,311.7 639,312C636.4,310.6 633.8,309.3 631,308.6C626.3,307.4 626.1,307.8 626.8,312.9C626.8,313 626.7,313.2 626.6,313.4C625.5,312.6 624.4,311.8 623.2,310.9C622.4,311.8 621.8,312.5 621.2,313.1C619.8,312.3 618,310.6 617.3,311C615.7,311.8 614.8,313.8 613.4,315.5C613.6,312.5 613.2,310 609.8,309.6C608.7,312.1 608.6,314.1 611,315.7C611.7,316.1 612,317.4 612.2,318.3C612.5,319.6 612.5,321 612.7,322.3L612.1,322.9C611.5,321.9 610.4,321 610.4,320.1C610.3,317.4 608.9,316.2 606.6,315.7C605.4,315.5 604.2,315.4 603,315.3C601.6,315.3 599.9,314.9 598.9,315.5C598.2,315.9 598.4,317.9 598.1,319.4C593.1,314 587.3,309.9 580.8,307C578.3,305.9 576,304.7 575.1,301.9C574.3,299.4 573.5,296.7 573.4,294.1C573.4,292.9 575.2,291.7 576.2,290.5C576.9,291.1 577.5,291.8 578.2,292.3C579,292.9 579.8,293.7 580.7,293.9C583.3,294.4 586,294.6 588.9,294.9C588.3,298.3 589,301 593.1,302.3L595.7,293.2C595.5,296.8 595.5,300.4 598.3,300.6C601.7,300.8 602.8,297.3 602.5,293.7C603.4,294 604,294.3 604.5,294.3C609.2,294.1 609.2,294.1 612.6,298C612.7,298.1 613,298.2 613.4,298.4C614.5,297.3 615.8,296.1 617,294.9C618.8,293 620.6,291 622.5,289.2C622.9,288.8 623.9,288.9 624.5,289.1C624.9,289.3 625,290.3 624.9,290.9C624.5,294.4 625.3,297.5 627.8,300C634.5,295.8 634.5,295.8 633.6,288.9C635.2,291.5 636.7,294.1 638.3,296.7L639.4,296.7C640.5,294.7 641.6,292.7 642.9,290.3C644.2,293.7 645.5,297.2 646.8,300.7C653.2,297.1 653.2,297.1 653.5,293.6C656.3,292.2 659,290.8 661.8,289.4C662.5,289.7 663.3,290.3 664.1,290.6C665.8,291.3 671,289.1 670.6,287.7C670,285.5 671.4,285.5 672.4,284.9C673.2,284.4 674,284 674.6,283.3C675.8,281.8 677.1,281.6 678.8,282.6C679.4,283 680.6,283.5 680.9,283.2C682.7,281.3 684.3,279.2 686.4,276.6C686,276.7 686.4,276.5 686.8,276.6C689.8,277.2 692,276.4 692.7,273C692.7,272.8 692.9,272.5 693.1,272.3C697,267.8 697.1,266.5 693.5,261.3C694.9,260.9 696.2,260.6 697.7,260.1C697.2,261.8 696.9,262.9 696.7,263.5C698.1,264.4 699.2,265 700.1,265.7C702,267.2 704.3,267 705.5,264.9C706.6,262.9 707.4,260.6 708.5,258.1C705.8,257.3 703.5,256.6 700.5,255.7C702.9,254.4 705,253.4 707,252.3C708.6,251.4 709.9,250.4 709.4,248C706.4,248.7 704.7,247 704.1,244.3L700.8,244.3C702.4,241.9 704.6,240 705.1,237.7C705.6,235.3 704.4,232.6 703.9,230C702.5,230.2 701.6,230.4 700.8,230.5C701.8,228.6 703.3,227.3 704.4,225.8C705,224.9 705.2,223.6 705.7,222.2L701.8,222.2C703.4,217.4 703.4,217.1 700.5,216.4C700.9,215 701.3,213.7 701.7,212.3C700.5,211.9 699.6,211.7 698.9,211.2C697.6,210.3 696,209.2 695.6,207.9C695,206 696.8,205.4 698.4,204.8C700.8,203.8 703,202.5 702.2,198.9C700.1,199 698,199.2 696.1,199.3C695.8,197.6 695.5,196 695.2,194.1C691.6,195 688.5,195.9 685.3,196.7C683.9,190.4 682.1,188.8 679.2,191.4C678.7,190.6 678.3,189.7 677.8,188.5C673.4,191.4 671.4,186.3 668,185.8C669.5,180.5 668.6,179.4 662.2,179C662.4,177.2 662.4,174.7 660,175.1C655.8,175.9 651.2,176.1 648.2,180.2C648.4,179.1 648.7,177.9 649.4,177.1C651.4,174.9 650.2,172.8 649.5,170.7C649.3,170.2 648.6,169.8 648.2,169.3C647.1,170.7 646,172 644.9,173.4C644.7,173.7 644.6,174 644.4,174.4C643.1,173.3 641.8,172.4 640.4,171.2C638.9,172.4 637.4,173.7 635.9,174.9C635.9,174.6 636,174.2 636,173.9C634.8,173.6 633.3,172.6 632.5,173.1C630.9,174 629.1,175.4 631.1,177.8C631.5,178.2 631.3,179.1 631.4,179.7C630.8,179.8 630,180.1 629.5,179.9C628.1,179.3 626.8,178.5 625.1,177.6C624.7,180.1 624.4,182 624,184C622.3,183.6 620.5,183.1 618.6,182.6C618.3,184 618.1,185 617.9,185.9C614.3,185.5 614.3,185.5 613.9,188C609.7,190.2 608.8,186.5 607.4,184.1C603.8,184.7 600.9,187.8 597.3,186.2C596.7,184 596.2,182 595.5,179.7C591.8,182.1 593.2,185.6 592.8,188.4C591.5,186.5 590.2,184.8 588.8,182.8C587.5,184.5 586.7,185.7 585.7,187C583.9,185.8 582.1,185 581,187.9C580.9,188 580.4,188.2 580.2,188.1C577.5,187.4 577.6,189.4 577.3,191.1C577.2,191.8 576.5,192.6 575.9,193C574.9,193.7 573.7,194.1 572.6,194.7C572.6,194.9 572.7,195.1 572.8,195.3C570.8,195 568.9,194.7 566.8,194.4C566.7,195.7 566.7,196.6 566.5,197.5C566.3,198.3 566,199.1 565.6,200.2C564.5,199.2 563.8,198.6 562.8,197.7C561.6,199.3 560.6,200.8 559.6,202.2C557.5,201.4 555.2,200.4 552.3,199.3C551.7,200.5 550.9,202.3 550,204C549.3,203 548.5,202 547.6,200.8C546.3,202 545.3,203 544.3,204C543.5,203.3 542.8,202.7 541.7,201.7C540.9,203.6 540.2,205.1 539.8,206.1C538.1,206.8 536.8,207.8 535.4,207.9C533.8,208 532.2,207.2 530.3,206.8C529.9,208.7 529.7,210.2 529.4,211.7C528.1,209.4 529.1,205.9 525.3,204.9C524.7,207.7 524.1,210.3 523.6,212.7C521,211.7 518.6,210.8 516.1,210C512.8,209 512.6,209.2 512.3,212.8C512.2,213.3 512.1,213.7 512.1,214C509.9,213.6 507.7,213.3 504.6,212.7C503.5,212.3 501.2,210.6 499.2,210.8C496.7,211.1 495.3,205.9 492.6,209.6C489.2,207 489.2,207 487,210.2C486.4,208.8 485.8,207.2 485,205.3C481.4,209.2 486.7,211.1 485.4,214.2C485,214.3 484.3,214.4 483.3,214.5C484.6,211.6 483.2,210.1 481.1,209.1C480,208.5 478.8,208 477.6,207.5C475.9,208.5 475.4,206.3 474.5,205.4C470.9,207.1 470.9,207.1 469.6,205.9C471.2,202.8 471,202.3 467.8,200.3C467.2,201 466.7,201.8 466.1,202.5C464.1,201.7 463.3,197.7 460.4,200.8C457.7,196.9 456.6,196.6 454.6,199.1C450.8,195 450.8,195 448.4,200.5C448.2,201 447.5,201.1 446.4,201.9C447.5,198 447.6,195 444.4,192.7C443.9,194 443.8,195 443.3,195.7C442.4,197.3 444.7,200.1 442.1,200.7C440.5,201.1 438.6,199.8 436.9,199.2C431.5,197.4 431.8,196.7 430.9,202.6C428.8,203 426.4,202.7 424.8,203.8C423.2,204.8 422.4,207.2 421.1,209.2C420.1,209.1 418.4,208.9 416.9,208.7C416.5,210.3 416.2,211.7 415.8,213.3C414.4,212.1 413.5,211.4 412.3,210.4C411.4,211.6 410.6,212.7 410,213.5C409.4,211.9 408.8,210.3 408.1,208.6C407.8,208.7 407.5,208.7 407.2,208.8C406.8,210 406.4,211.2 405.9,212.6C404.9,212.5 404,212.4 403.2,212.4C402.9,210.4 402.5,208.7 402.2,206.9C400.6,207.2 399.5,207.5 398.3,207.8C392.9,209.2 391.8,208.6 390.5,203.2C390.3,202.5 390.1,201.9 389.9,201C386.2,203 387.1,206.8 386.5,210.4C385.2,207.7 384.2,205.7 382.8,202.9C381.1,205.2 380,206.7 378.8,208.2C377.7,207 377,206.2 375.8,204.9C374.9,206.7 373.8,208 373.7,209.4C373.5,210.8 374.3,212.2 374.9,214.4C372.3,213.3 370.7,212.7 368.8,211.9C366.8,216 369.3,219.2 370.7,223.1C369.6,222.6 369,221.9 368.3,221.9C367,221.9 365.3,221.8 364.6,222.6C363.2,224.2 361.3,224.6 359.5,225.2L356.5,226.4C355.9,226.7 355.2,226.9 354.6,227.2C354,227.5 353.1,227.8 353,228.2C352.5,230.2 352.3,232.3 352,234.7C351.4,233.5 350.7,232.2 350.1,231C349.7,230.7 349.4,230.4 349,230.1C348.3,231.3 347.5,232.6 346.6,234.2C345.1,233 343.7,231.8 342.1,230.5L340,233.8C336.9,233.2 336.5,233.4 333.3,237.1C332.5,236.6 331.7,236 330.3,235C329.8,236.8 329.3,238.3 329.1,239.8C329,240.6 329.6,241.5 329.9,242.4C328.9,242.3 327.9,242.2 326.9,242C326.3,241.9 325.8,241.8 325,241.6C324.9,243.1 324.7,244.4 324.6,245.1C322.7,246.3 321,247 319.7,248.3C318.3,249.6 317.2,250 315.7,248.6C319.4,245.1 318.5,242.8 316.2,239.8C313,240.9 313.5,244.3 312.8,246.2C311.5,244.8 310.3,243.4 309,242C306.8,244.1 305.5,245.5 304.4,246.5C303,245.9 301.4,244.6 300.7,245C299.2,245.8 297.9,247.3 298.6,249.6C298.8,250.3 298,251.3 297.7,252.2C296,251.7 294.7,251.3 294,251.1C292.7,252.7 291.7,253.9 290.5,255.3C290.5,256.7 292.8,258.9 289.6,260.1C287.8,260.8 286,261.3 284.1,261.9C284.3,262.8 284.6,263.8 284.8,264.6C283.9,264.8 282.5,264.8 282.1,265.4C281.6,266.2 281.8,267.5 281.7,268.6C277.6,267.8 277.4,268.1 278.9,273.2C273.3,272 275.5,276.7 274.7,279.2C272.4,278.9 270,278.5 266.9,278.1C267.9,280.9 268.5,282.9 269.2,284.8C267.6,284.7 266,284.6 263.8,284.4C265.2,287.4 266.4,289.6 267.5,291.9L266.9,292.8C265.3,291.9 263.7,291.1 261.9,290.1C261.5,291.6 261.2,292.9 260.8,294.4C258.9,292 257.4,293.5 256.2,294.7C255.2,293.5 254.3,292.4 253,290.7C252.3,293.1 251.8,294.7 251.3,296.3C243.6,294.1 243.6,294.1 242.3,298.3C239.5,295.9 238,297.7 237.1,299.9C235.9,299.7 234.9,299.5 233.9,299.3C233.6,301.1 233.3,303 232.9,305.3C232.2,305.1 230.7,304.7 228.1,304.1C228.9,307.3 229.5,309.9 230.1,312.4C229,312.3 227.7,312.2 226.4,312.1C226,315.2 226.6,316.6 228.9,318.1C229.5,318.5 230.2,319.1 230.3,319.7C230.9,321.9 233.4,324.1 235.3,323.2C238.1,322 239.8,324.4 242,324.8C242.5,324.9 242.8,326.5 243.2,327.4C241.9,327.7 241.1,327.9 240.5,328C240.4,330.6 240.3,332.9 240.2,335.2C238,335 236.2,334.8 234.3,334.6C233.9,338.3 235.6,340 238.2,341.3C239.6,342 240.8,343.1 242.1,344C242,344.3 242,344.7 241.9,345.1C239.7,346.1 237.5,346.9 235.4,348C234.8,348.2 234.1,349.2 234.2,349.7C235,352.9 235.8,356.1 237.1,359.1C237.5,360 239.4,360.5 240.6,360.4C241.6,360.3 242.4,359.1 243.7,358C244.3,358.4 245.6,359.2 246.9,360C246.3,363.8 246.1,367.4 249.2,370.1C251.8,368.4 254.8,367.2 254.5,363.2C254.4,362.3 254.7,361.3 254.8,360.4C255.7,360.8 256.6,361 257.4,361.4C258.1,361.7 258.6,362.5 259.3,362.8C260.3,363.2 261.6,363.8 262.4,363.4C265.5,362 269.7,361.5 269.5,356.8C272.7,357.3 275.5,357.7 278.4,358.1C278.6,358.4 278.8,358.8 279,359.1C279.7,358 280.4,357 281.1,355.9C281.2,356 281.3,356 281.4,356.1C280.7,359.8 280,363.5 279.3,367.3C278.3,366.9 276.8,366.3 275,365.6C274.9,367.2 274.9,368.3 274.7,369.4C274.5,370.3 274.2,371.2 273.7,371.9C272.6,373.3 271.3,374.7 270.1,376.1C270.3,376.3 270.4,376.5 270.6,376.7C269.7,376.9 268.8,377 267.4,377.2C267.8,379 268.1,380.5 268.6,382.5C267.2,382.9 265.7,383.2 264.2,383.5C266.8,380.6 266.5,377.9 265.2,374.9C261.8,376.5 262.5,379.9 261.8,382.9C260.7,380.5 259.8,378.6 258.8,376.4C257,378 255.9,379.1 254.7,380.2C254,379.4 253.4,378.6 252.9,378C248.2,379 251.9,383.2 250.2,385.5C248.6,384.6 247.2,383.8 245.2,382.7C245.8,386.3 242,389.2 246.3,392.7C244.2,392.1 242.9,391.8 240.9,391.2C241.1,394.7 241.3,397.8 241.5,400.9C240.4,400.8 238.9,400.6 237.2,400.5C238.1,405.1 241.5,405 244.6,405.3C240.2,407.5 235.5,409 233.3,413.8L227.5,413.8L227.5,418.7C220.8,418.7 220.1,419.2 218.9,424.8C217.4,425 216,425.1 214.5,425.3C215.4,428.6 217.6,430.5 220,429.3C223,427.7 225.2,429.9 227.9,429.8C225,431.7 222,433.2 219,434.4C216.7,435.3 216.3,436.4 217.6,438.6C218.1,439.5 218.3,441.3 217.8,442.2C216.3,444.8 214.9,448 210.9,446.4C210.8,446.4 210.4,446.7 209.8,447C210.4,447.9 210.7,449.1 211.4,449.4C214,450.4 216.8,451.1 219.4,451.9C219.1,454.3 221.3,454.4 223,455C224.6,455.6 226.3,456.1 228,456.7C225.5,458 223.1,460.2 221.4,456.2C221.2,455.5 219.7,455 218.8,455.1C216.3,455.4 213.8,456 211,456.6C212.4,459.4 213.3,461.6 214.6,463.6C216,465.9 219,466.1 220.9,464.4C221.5,464 222.6,463.3 222.7,463.4C223.6,464.3 224.5,465.4 225.1,466.6C225.8,468.1 225.9,470 226.8,471.5C227.8,473.2 229.6,473.8 231.3,472.6C232.4,471.8 233.2,470.7 234.7,469.3C236.8,470.2 239.1,471.7 239.2,475.9C239.3,478.4 240.9,480.8 241.9,483.3C247.3,480.4 250.3,477.1 247.2,470.9C247.5,470.8 247.9,470.7 248.2,470.6C251.5,472.4 254.7,474.2 258.2,476.1C259.1,475.6 260.2,474.8 261.2,474.2C262.5,475.9 263.8,477.4 265,479C266.9,477.7 268.5,476.6 270.1,475.4C271.4,478.4 273.3,477.2 275.2,476C275.2,480.2 277.2,481.8 280.5,480.4C281.2,481.3 281.9,482.1 282.6,483C284,482.3 285.2,481.6 285.8,481.2C287.3,482.3 288.6,483.7 289.7,483.6C290.6,483.5 291.3,481.6 292,480.6C293.7,481.1 295.6,481.7 297.5,482.3C296.7,485.9 299.5,487.2 301.8,489.1C302.8,488.2 303.7,487.4 304.5,486.5C305.2,485.7 305.7,484.6 306.3,483.6C305.8,488.7 305.8,488.7 311.5,492.5C313.9,490.6 315.7,488.5 315.4,485C315.3,484.3 316.6,483.5 317.2,482.8C316.3,492.2 318,491.9 324.4,495.6C325.2,493 326.6,490.5 326.6,488C326.6,484 328.4,481.7 331.4,479.7C331.4,480.8 331.3,481.7 331.2,483.1C333.4,483.1 335.9,483.9 337.2,482.9C338.8,481.7 340.6,479.5 339.2,476.6C339.1,476.3 339.4,475.7 339.6,475.3C340.1,474.1 340.5,472.8 341.2,471.7C342.4,469.9 342.1,466.8 345.2,466.3C346,467.3 346.8,468.3 347.7,469.5C352.4,463.9 357.2,466.2 361.1,469.5C365.2,473 370.2,472.9 374.6,474.9C375.1,475.1 375.8,475 376.4,474.9C384.1,473.1 391.8,474.4 399.4,474.9C404.1,475.2 408.6,477.8 413.3,478.4C417.9,479 420.7,481.6 423.2,485.1C424.4,486.9 425.5,488.8 426.7,490.6C431,497 435.6,502.9 442.9,505.9C446.5,507.4 449.6,510 452.9,512.2C453.7,512.8 454.2,513.9 454.9,514.8C456.4,516.8 457.6,519.3 459.5,520.6C463.6,523.4 466.7,526.8 468.9,531.3C470.1,533.7 471.7,535.9 472.8,538.3C473.9,540.8 475.2,543.5 475.3,546.2C475.4,552 474.8,557.7 474.5,563.4C459.9,564.4 445.4,565.2 430.9,566.2C402.9,568.1 375,571.1 347.4,576.3C337.76,578.107 328.177,580.142 318.864,583.3L754.879,583.3ZM461.6,412.3C461.3,411.7 461.7,410.7 461.8,410.2C463.7,410 465.4,409.8 467.3,409.6C467,410.7 466.8,412.3 466.2,413.6C465.7,414.6 464.8,415.4 464,416.3C463.1,415 462.2,413.7 461.6,412.3ZM443.4,422.5C447.1,424.2 449.2,427.1 451.5,429.9C453.4,431.9 453.6,434.4 452.3,436.8C450.8,439.7 449.2,442.6 447.3,445.3C445.1,448.4 444.5,451.7 445.5,455.3C448.4,466.3 449.2,477.6 448.6,489.6C447.5,488.5 446.7,487.7 446,486.8C439.9,479.6 433.9,472.4 427.9,465.1C424.9,461.4 421.1,460.2 416.5,460.2C406.7,460.1 397.1,459.6 386.9,459.3C387.2,457.6 387.6,456 388,453.9C390,455.3 391.3,456.2 393,457.4C394,456.1 395.1,455 395.7,453.7C397.3,450.1 399.2,449.2 402.9,449.8C404.1,450 405.9,449.6 406.6,448.7C408.1,446.9 409.1,444.5 410.3,442.4C411.9,442.3 413.6,442.2 415.2,442.1C415.3,443.4 415.2,444.8 415.4,446.1C415.4,446.5 415.5,446.9 415.7,447.3C416.4,448.9 417.9,450.1 419.1,451.6C420.4,450.6 421.2,450 422.1,449.3C425.1,447 425.2,445.9 423.2,442.6C422.7,441.8 422.6,440.8 422.7,439.7C426.7,442.7 426.7,442.7 430.9,440C431.4,439.7 432.1,439.3 432.5,439.5C436.1,441 438.1,438.5 440.6,436.6C440.1,436 439.7,435.5 439.3,434.9C442,433.5 444.9,432.4 444.2,428.7C444.1,428 441.7,427.9 440,427.4C440,426.9 439.9,425.7 440,424.5C440.2,422.2 440.5,421.2 443.4,422.5ZM763,375.3C764.1,374.8 765.8,374 767.5,373.2C767.8,378.4 764.3,375.3 763,375.3ZM763,375.3C762.9,375.4 762.8,375.5 762.6,375.5C762.7,375.4 762.8,375.3 763,375.3ZM371.2,454C372.6,451.5 373.9,449.3 375.3,446.7C376.6,447 378.6,447.4 380.6,447.8C379.1,450.3 377.6,452.8 375.7,455.8C374.3,455.3 372.6,454.6 371.2,454ZM393,267.1C390.3,262.2 388,268.5 384.7,267.5C386.1,264.1 387.7,260.9 388.6,257.6C389.9,252.9 395.2,256.4 396.7,253.1C398.8,255.7 401,258.4 403,260.9C402.4,263.2 401.8,265.7 401.3,268C400.2,266.7 399,265 397.5,263.1C395.9,264.6 394.5,265.7 393,267.1ZM469,407.1C469.3,405.4 469.6,403.9 469.8,402.5C471.4,403.1 473,403.8 475.2,404.6C472.9,405.5 471.1,406.3 469,407.1ZM685,569.4C685,568.2 684.5,567.1 684.8,565.9C684.8,565.5 684.7,565 684.7,564.6C684.7,563.1 684.9,561.5 684.9,559.9C684.9,558.9 685.1,558 685.5,557.1C685.7,556.7 685.7,556.2 685.9,555.7C686.1,556.8 687.7,557.3 686.9,558.3C687.5,558.1 686.7,561 687.2,560.6C686.8,561.2 688,562.4 688.2,563C688.4,563.6 689.1,565 689.1,566.5C689,568 692,567.9 691.6,569C691.3,569.7 691.8,570.4 692.2,571C689.8,570.7 687.5,570.5 685.1,570.2L685.1,570.1C685,569.9 685,569.6 685,569.4ZM375.5,349C374.5,351.2 373.6,353.2 370.6,351.2C370.2,350.9 369,351.6 368.1,351.8C367.7,351.8 367.4,351.9 367,351.9C366.6,351.9 366.3,352 365.9,352C366,351.7 366.1,351.3 366.2,351C366.3,350.6 366.4,350.3 366.4,349.9C366.5,348.9 366.9,347.8 366.5,347C365.5,344.6 364.2,344.8 362.9,347.1C361.8,345.7 360.7,344.4 359.2,342.7C357.9,344.6 356.9,346 355.7,347.8C355.8,344.9 356.3,342.1 353.3,340.2C352,342.6 351,344.8 352.9,347.4C353.4,348.1 353.3,349.2 353.5,350.2C350.8,348.4 348.9,346.8 346.7,345.7C344.6,344.7 342.1,343 340.7,346.1C339.3,344.5 338.1,343 336.7,341.7C334.5,339.6 334.1,339.8 332.7,343.8C331.3,341.5 330.3,339.7 329.2,337.9C329.5,337.6 329.7,337.3 330,337C328.1,336.7 326.2,336.5 323.6,336.1C325.6,334.4 327.3,333.7 329.4,334.7C331.6,335.7 333.6,336.4 335.2,333.8C336.9,335.1 338.3,336.3 339.8,337.5C343.9,333.4 344.2,329.9 340.9,324.5C341.7,324.2 342.5,323.9 343.5,323.6C343.4,326.7 345,326.8 346.8,326.6C348.4,327.4 350.2,329.3 351.3,328.9C353,328.3 354.2,326.2 355.4,324.6C356,323.8 356.1,322.5 356.5,321.5C357.4,319.6 358.8,317.5 355,316.4C357.3,313.7 359.4,311.4 361.8,308.6C367.8,313.1 373.4,317.1 378.8,321.3C379.6,321.9 380.2,323.4 380.2,324.4C380,332.9 379,341.2 375.5,349ZM404.5,260.5C405.5,259.9 406.2,259.4 406.7,259.1C407.9,260.8 409,262.3 410.4,264.2C410.1,264.5 409.3,265.4 408.2,266.7C406.9,264.5 405.8,262.6 404.5,260.5ZM466.4,342.5C465.7,342.6 464.6,343 464.1,342.9C461.4,341.2 459.1,340.9 457.8,344.6C456.4,343.5 455.2,342.5 453.5,341.1C452.5,343.3 451.7,345.2 450.9,347.1C450.6,344.1 450.4,341.4 447,339.5C447.4,343.4 445.3,344.6 442.3,345.2C437.9,346.1 439,341.6 436.4,339.3C435.5,341.5 434.7,343.2 434,344.9C433.2,344.2 432,342.6 430.9,342.6C429.9,342.6 428.8,344.2 427.5,345.3C425.9,343.1 424.4,343.5 423.3,345.9C421.4,349.7 421.1,349.8 417.4,347C416.3,348.7 415.1,350.3 413.8,352.2C413,351 412,349.7 411,348.3C409,349.7 407.2,351 405.3,352.3C405,351.1 404.8,350 404.4,349C404.1,348.3 403.1,347.2 403,347.3C400.3,349 399.9,346.2 399,345C394.3,338.6 391.6,331.2 390.7,323.3C389.8,315.9 393.8,310.3 400.4,309.6C400.4,311.9 400.2,314.2 400.4,316.5C400.6,319.9 403.1,320.8 406.1,321.2C405.8,322 405.6,322.5 405.3,323.2C408,324.9 410.7,326.4 413.8,324C414.9,325.3 415.8,326.4 417.2,328.2C418.9,325.8 420.5,323.7 422,321.6C421.8,321.3 421.7,321.1 421.5,320.8L424.3,321.5C420.7,326.6 420.1,330.8 427.3,332.3C429.4,329.7 431.6,327 434,324.1C435,324.8 436,325.5 437.2,326.4C437.9,325.8 438.5,325.2 439.3,324.5C443.5,327.8 447.7,331.2 452.3,334.9C453.2,333.3 454.1,331.7 454.7,330.7C455.7,333.4 456.9,336.5 458.2,340C460.5,338.7 462,337.6 463.6,336.9C463.9,336.7 465,337.4 465.2,337.9C465.7,339.1 465.9,340.4 466.4,342.5ZM374.2,299.2C375.4,299.6 376.8,299.6 377.7,300.4C378.7,301.3 379.2,302.8 380,304C378.7,304.9 377.4,305.8 376,306.8C375.1,305.6 373.9,304.2 373.3,302.6C373,301.7 373.9,300.3 374.2,299.2ZM380.7,303.9C381.2,303.8 381.9,303.7 382.7,303.6C383.2,305.1 383.7,306.5 384.2,308C383.8,308.1 383.5,308.3 383.2,308.5C382.2,307 381.3,305.5 380.3,304C380.4,304 380.6,303.9 380.7,303.9ZM652.2,566.9C648.6,566.6 644.9,566.4 641.4,566.1C641.3,565.7 641.3,565.3 641.4,564.9C641.9,562.9 642.9,561.1 644.2,559.4C644.7,558.7 644.6,558 645.5,557.5C645.9,557.3 645.7,556.4 646.1,556.5C647.2,556.7 647.5,555.4 647.7,555.3C648.4,555 648.5,554.4 649.2,554.4C650,554.3 649,554.3 649.9,554.1C651.5,553.8 651.7,554.5 651.9,554.6C652.1,554.7 652.2,555.2 652.2,555.4C652.3,556.1 652.1,556.7 652.2,557.4C652.2,558.1 652.5,558.7 652.4,559.3C652.2,560.2 653.5,561 653.6,561.9C653.7,562.5 653.9,563.1 654.2,563.6C654.6,564.3 654.8,565.1 654.8,565.9C654.8,566.4 654.9,566.8 655.2,567.2L652.2,566.9ZM531.7,331.7C530,337.4 536.5,336.7 537.7,341C536.1,340.7 535.1,340.7 534.2,340.4C532,339.8 530.4,340.1 530,342.8C529.6,345.5 527.4,344.3 525.9,344.5C523.8,344.7 521.5,343.9 520.2,346.4C516.2,344.3 514.8,348.4 512,350.2C511.9,348.2 510.4,345.9 514.3,346.2C516.5,346.4 518.7,341.5 518.1,338.4C518.6,338.4 519.1,338.4 519.5,338.5C523.8,339.9 523.7,339.8 526.2,336C527.3,334.4 529.3,333.5 531.7,331.7ZM659.5,564.7C659.3,564.7 659.2,564.6 659.2,564.5C658.4,563 657.7,561.5 657.7,559.8C657.7,558.4 658.2,557.2 659.2,556.3C659.4,556.1 659.7,556 660,555.9C661,555.5 662.1,555.1 663.1,554.6C663.7,554.4 664,553.7 664.7,553.5C665.2,553.4 665,553.2 665.4,553.1C665.6,553.1 665.9,553.2 666,553.1C666.1,553 666.2,552.8 666.4,552.7C666.8,552.4 667.2,553.1 667.7,553.1C667.8,553.1 667.7,552.6 667.9,552.6C668.1,552.5 668,552.9 668.2,552.9C668.3,552.9 668.4,552.5 668.5,552.6C668.7,552.7 668.8,552.9 669,553C669.2,553 669.2,553.3 669.3,553.3C669.4,553.3 669.4,552.9 669.5,552.9C669.7,552.8 669.8,553.4 670,553.4C670.1,553.4 670.1,553.2 670.2,553.2C670.4,553.2 670.4,553.8 670.7,553.8C670.8,553.8 670.8,553.5 670.9,553.5C671.1,553.5 671.1,553.9 671.3,553.9C671.4,553.9 671.5,553.6 671.6,553.6C672.2,553.8 672.5,554.2 673,554.4C673.1,554.4 673.2,554.2 673.3,554.2C673.5,554.2 673.4,554.6 673.6,554.6C674,554.7 674.5,555.5 674.9,555C675,554.9 675.3,555 675.3,555C675.2,555.7 676.7,555.2 677.4,555C675.8,556.1 676.4,558.1 676.7,558.9C677,559.7 676.8,561.4 676.9,561.9C677,562.4 677.5,563.3 677.7,563.9C677.9,564.5 676.9,564.6 677.7,564.9C677.6,565 677.7,567 678.4,567.2C677.2,567.6 679.7,569 679.6,569L679.6,569.5C673.6,568.9 667.5,568.3 661.5,567.8C661.7,567.7 661.7,567.5 661.7,567.3C661.7,566.9 661.6,566.5 661.4,566.2C661,565.7 660.6,565.3 660.2,564.9C660.1,564.8 659.7,564.8 659.5,564.7ZM400.1,249.5C399.4,249.7 398.4,248.1 396.9,246.7C398.8,246.9 399.8,247.3 400.7,247.1C403.7,246.4 406,247.6 407.5,250.1C408.8,252.3 410.1,254.1 412.9,253.1C414.3,257.4 414.3,257.3 418.5,256C420.4,255.4 422.4,255.6 424.7,255.4C427.4,259.2 428,259.2 431.9,254.3C432.5,255.3 433.1,256.2 433.3,256.5C432.4,257.8 431.3,258.7 431.2,259.7C431,261.3 428.4,262.6 430.4,264.5C431,265 431.5,265.7 432.1,266.2C434.3,267.7 434.3,267.7 435.3,271.2C434.3,270.1 433.7,269.4 432.9,268.5C432.1,269.1 431.3,269.8 430.3,270.5C430.2,269.1 430,267.8 429.7,265.7C426.1,266.9 422.8,268 419.3,269.1L419.3,260.8C415.8,261 416.4,264.2 414.8,265.9C413.9,264.8 413,263.7 411.9,262.4C415.3,260.3 414,257.8 412.1,255.7C411.4,254.9 409.8,255 407.9,254.4C406.8,251.6 404.8,248.7 400.1,249.5ZM599.8,322.4C602.3,322.9 604.4,323.4 606.8,323.9C606.9,324.7 607.1,325.6 607.3,326.4C606.1,327.2 605.2,327.8 604.1,328.6C602.9,326.8 601.5,324.8 599.8,322.4ZM581.1,326C585.4,328.1 586.6,332.3 587.5,336.7C587.6,337.1 587,337.7 587,337.7C585.3,337.8 583.7,337.4 582.9,338.1C582.2,338.6 582.4,340.4 582.2,341.5C579,339.4 575.7,341.7 572.3,342.8C571.4,343.1 570.4,343.5 569.5,343.8C569.6,342.9 569.8,341.9 569.8,340.9L569.8,334.2C565.9,335.5 566,338.5 564.9,341C563.6,339.5 562.6,338.3 561.4,336.9C560.4,337.7 559.5,338.4 558.5,339.3C557.7,338.4 556.9,337.5 555.7,336.2C554.4,337.7 553.1,339.1 551.7,340.7C552.3,337.8 552.7,335.2 549.6,333.1C548.7,335.6 547.9,337.7 547.1,339.8C544.2,338.6 541.7,337.6 539.3,336.7C539.5,334.4 539.7,332.5 539.9,330.3C540.9,329.9 542.1,329.4 543.3,328.9C543.3,329.2 543.2,329.4 543.2,329.7C545,330.1 547,331.2 548.7,330.8C550.5,330.4 552,328.7 551.5,326.1C551.4,325.7 552.6,324.9 553.3,324.4C555.4,323 557.6,321.7 557.2,317.5C559.5,320.9 562,319.9 564.5,319.5C566,319.3 567.7,319.6 569.1,320.2C573.2,322 577.2,324 581.1,326ZM380.1,304C380.2,303.9 380.2,304 380.2,304L380.1,304Z" style="fill:rgb(33,87,43);"/>
        </g>
    </g>
</svg>
