<?xml version="1.0" encoding="UTF-8" standalone="no"?>
<!DOCTYPE svg PUBLIC "-//W3C//DTD SVG 1.1//EN" "http://www.w3.org/Graphics/SVG/1.1/DTD/svg11.dtd">
<svg width="100%" height="100%" viewBox="0 0 360 92" version="1.1" xmlns="http://www.w3.org/2000/svg" xmlns:xlink="http://www.w3.org/1999/xlink" xml:space="preserve" xmlns:serif="http://www.serif.com/" style="fill-rule:evenodd;clip-rule:evenodd;stroke-linejoin:round;stroke-miterlimit:2;">
    <g transform="matrix(1,0,0,1,179.9,-0.5)">
        <path d="M102,39.7L98.7,39.7L98.7,38.7C101,37.4 103.9,34.6 106.4,31.3L107.4,31.3L107.4,38.3L113.2,38.3L113.2,39.7L107.3,39.7L107.3,50C107.3,52.9 108.1,54.6 110.6,54.6C111.6,54.6 112.3,54.2 113.2,53.2L113.8,53.7C112.4,55.9 110.7,56.9 108,56.9C104.7,56.9 102,55.3 102,51.2L102,39.7ZM100,76.5L110.6,76.5L110.6,79.2L102.8,79.2L102.8,82.6L110,82.6L110,85L102.8,85L102.8,89L111.1,89L111.1,91.6L100,91.6L100,76.5ZM90.9,81.5C90.6,79.9 89.2,78.8 87.6,78.8C84.6,78.8 83.3,81.4 83.3,84.1C83.3,86.7 84.5,89.4 87.6,89.4C89.6,89.4 90.6,88.1 91.2,86.4L93.8,87.5C92.6,90.5 90.6,92 87.6,92C82.7,92 80.3,88.3 80.3,84C80.3,79.8 83,76.1 87.6,76.1C90.6,76.1 92.9,77.7 93.6,80.9L90.9,81.6L90.9,81.5ZM61.5,76.5L64.1,76.5L70.4,87.3L70.4,76.5L73.1,76.5L73.1,91.6L70.5,91.6L64,81L64,91.7L61.4,91.7L61.4,76.7L61.5,76.5ZM46.7,76.5L50.1,76.5L55.1,91.6L52.1,91.6L51.3,88.6L45.5,88.6L44.7,91.6L41.7,91.6L46.7,76.5ZM48.4,79.3L46.3,86.2L50.5,86.2L48.4,79.3ZM24.4,76.5L30.7,76.5C33.9,76.5 35.7,78.5 35.7,81.1C35.7,84.5 33.5,85.3 32.7,85.5L36.1,91.6L33,91.6L30,86.1L27.3,86.1L27.3,91.6L24.5,91.6L24.5,76.6L24.4,76.5ZM27.2,83.5L30.3,83.5C31.8,83.5 32.8,82.7 32.8,81.3C32.8,79.9 31.8,79 29.8,79L27.2,79L27.2,83.5ZM16.2,87C16.2,90 13.8,92 10.2,92C6.5,92 4.1,90 4.1,87L4.1,76.5L6.9,76.5L6.9,86.2C6.9,88.1 7.7,89.2 10.2,89.2C12.6,89.2 13.4,88.1 13.4,86.2L13.4,76.5L16.3,76.5L16.2,87ZM-14,87C-13,88.7 -11.3,89.4 -9.4,89.4C-8,89.4 -6.2,88.9 -6.2,87.4C-6.2,86.3 -7.3,85.9 -9.3,85.4L-11,85.1C-13.4,84.5 -15.5,83.6 -15.5,80.9C-15.5,77.7 -12.5,76.1 -9.7,76.1C-7.1,76.1 -5,77.1 -3.4,79.1L-5.7,81C-6.5,79.6 -7.9,78.8 -9.7,78.8C-11.3,78.8 -12.6,79.4 -12.6,80.4C-12.6,81.7 -11.2,82 -9.5,82.4L-7.6,82.8C-5.4,83.3 -3.2,84.2 -3.2,87C-3.2,90.7 -6.7,92 -9.9,92C-12.5,92 -14.9,90.8 -16.4,88.8L-14,87.1L-14,87ZM-34.4,76.5L-31.8,76.5L-25.4,87.3L-25.4,76.5L-22.8,76.5L-22.8,91.6L-25.4,91.6L-31.8,81L-31.8,91.7L-34.4,91.7L-34.4,76.5ZM-45.6,91.6L-45.6,76.6L-42.8,76.6L-42.8,91.6L-45.6,91.6ZM15.3,67L15.3,65.9L171.8,65.9L171.8,67L15.3,67ZM-108.1,67L-108.1,65.9L0.4,65.9L0.4,67L-108.1,67ZM176.7,49.7C178.4,49.7 179.8,51 179.8,52.9C179.8,54.6 178.4,56 176.7,56C175,56 173.6,54.6 173.6,52.9C173.6,51 175.1,49.7 176.7,49.7ZM176.7,55.4C178,55.4 179.1,54.4 179.1,52.9C179.1,51.5 178.1,50.4 176.7,50.4C175.4,50.4 174.4,51.4 174.4,52.9C174.4,54.4 175.4,55.4 176.7,55.4ZM175.5,51.2L176.8,51.2C177.7,51.2 178.1,51.5 178.1,52.2C178.1,52.9 177.8,53.2 177.3,53.2L178.3,54.7L177.5,54.7L176.6,53.2L176.2,53.2L176.2,54.7L175.5,54.7L175.5,51.2ZM176.2,52.7L176.8,52.7C177.2,52.7 177.5,52.7 177.5,52.2C177.5,51.8 177.1,51.7 176.8,51.7L176.2,51.7L176.2,52.7ZM162.8,31.2C162.8,28.7 162,27.8 159.4,27.7L159.4,26.9L167.4,26.3L168.1,26.3L168.1,51.7C168.1,54.1 168.7,54.7 171.3,55.3L171.3,56.1L159.3,56.1L159.3,55.3C162,54.8 162.8,54 162.8,51.7L162.8,31.2ZM155.8,44.1L155.8,52.6C155.8,54.3 156.1,55 156.8,55C157.6,55 158.1,54.4 158.3,53.3L159.1,53.3C158.9,55.5 157.3,56.8 154.7,56.8C152.5,56.8 151.3,56.1 150.4,54.3L149.9,54.6C148.4,56.1 146.4,56.9 144.3,56.8C141.3,56.8 138.9,54.7 138.9,52.1C138.9,47.2 146.1,46.9 150.4,45.2C150.4,42.1 149.2,40.5 146,40.5C143.5,40.5 141.7,41.5 140.6,43.5L139.9,43.5C140.9,39.7 143.7,37.5 147.9,37.5C151.7,37.5 155.8,39.2 155.8,44.1ZM150.4,53L150.4,46.2C145.9,48.1 144.5,49.2 144.5,51.6C144.5,53.6 145.5,54.8 147,54.8C148.1,54.8 149.1,54.2 150.4,53ZM116.8,42C116.8,40 116.1,39.4 114,39L114,38.2L121.3,37.4L122.1,37.4L122.1,50.6C122.1,52.8 123.5,53.8 125.5,53.8C127.3,53.8 128.4,53 129.9,50.6L129.9,41.6C129.9,40.2 128.9,39.3 127.1,39L127.1,38.2L134.5,37.4L135.3,37.4L135.3,51.7C135.3,54.1 135.8,54.7 138.1,55.3L138.1,56.1L129.9,56.8L129.9,52.4C127.9,55.4 125.6,56.8 122.7,56.8C119,56.8 116.7,54.8 116.7,51.3L116.7,42.1L116.8,42ZM76.6,42C76.6,40 75.9,39.3 73.8,38.9L73.8,38.1L81.1,37.3L81.9,37.3L81.9,50.5C81.9,52.7 83.3,53.7 85.3,53.7C87.1,53.7 88.1,52.9 89.7,50.5L89.7,41.5C89.7,40.1 88.7,39.2 86.9,38.9L86.9,38.1L94.3,37.3L95.1,37.3L95.1,51.6C95.1,54 95.6,54.6 97.9,55.2L97.9,56L89.7,56.7L89.7,52.3C87.7,55.3 85.4,56.7 82.5,56.7C78.8,56.7 76.5,54.7 76.5,51.2L76.5,42L76.6,42ZM70.2,50.8C70.5,53.3 71.7,54.6 74.4,55.2L74.4,56L60.7,56L60.7,55.2C63.7,54.4 64.2,52.6 63.7,49L61.4,33.2L52.4,56L51.4,56L42.4,33.2L42.3,33.2L39.9,49.5C39.4,52.7 40,54.9 43.1,55.2L43.1,56L33.1,56L33.1,55.2C36.1,55 37.4,53.3 38.1,49L40.8,30.9C39.8,29.8 38.3,29 36.8,28.9L36.8,28.2L46.8,28.2L54,46.5L61.4,28.2L70.8,28.2L70.8,29C67.9,29.5 67.3,31 67.6,33.5L70.2,50.8ZM18.4,38L25.8,38L25.8,38.8C23.5,39.4 23,40.1 21.5,43.4L12.5,64C10.5,68.4 8.5,70 4.8,70L3.3,69.9L4.3,64.4C5.5,64.8 6.1,64.9 6.8,64.9C10.1,64.9 12,62.5 14.2,56.6L7.7,42.8C6.5,40.4 5.7,39.4 3.2,39.4L-1.6,39.4L-1.6,49.7C-1.6,52.7 -0.9,54.3 1.6,54.3C2.6,54.3 3.4,53.9 4.2,52.9L4.8,53.4C3.5,55.7 1.8,56.6 -0.9,56.6C-4.3,56.6 -7,55 -7,50.9L-7,39.4L-10.2,39.4L-10.2,38.5C-8,37.2 -5.1,34.3 -2.5,31.1L-1.6,31.1L-1.6,38L14.2,38L14.2,38.8C12.2,39.1 12.2,40.1 13.2,42.4L17.1,50.2L19.5,44.5C21.2,40.7 20.6,39.3 18.4,38.8L18.4,38ZM-12,44.2C-13.5,42.7 -14.8,41.9 -16,41.9C-17.6,41.9 -18.6,42.6 -20,44.5L-20,51.8C-20,53.9 -19.6,54.6 -17,55.1L-17,55.9L-28.4,55.9L-28.4,55.1C-26,54.5 -25.4,53.8 -25.4,51.8L-25.4,42.3C-25.4,40 -26.4,39 -28.6,38.8L-28.6,38L-20.8,37.3L-20,37.3L-20,43C-18.1,39 -16.2,37.3 -14,37.3C-12.8,37.3 -11.6,37.8 -10.8,38.8L-12,44.2ZM-29,45.4L-42.5,45.4C-42.8,51.2 -39.5,54.3 -36.2,54.3C-33.6,54.3 -31.5,53 -29.8,50.3L-29,50.3C-30.6,54.2 -34.4,56.7 -38.6,56.6C-44.2,56.6 -48.3,52.6 -48.3,47.1C-48.3,41.5 -44,37.3 -38.3,37.3C-33.3,37.3 -29.6,40.4 -29,45.4ZM-42.5,44.3L-34.8,44.3C-34.9,40.9 -36.6,38.6 -38.8,38.6C-40.9,38.6 -42.4,40.9 -42.5,44.3ZM-66,26.2L-66,40.6C-64.3,38.6 -61.8,37.4 -59.2,37.3C-54.3,37.3 -50.6,41.3 -50.6,46.5C-50.6,52.1 -53.9,56.6 -62.6,56.6C-66,56.6 -68.7,56.4 -71.4,55.9L-71.4,30.2C-71.4,28.7 -72.4,27.8 -74.1,27.5L-74.1,26.7L-66.9,26.2L-66,26.2ZM-66,41.8L-66,52.3C-66,54.3 -65.3,55.3 -63.2,55.3C-59.2,55.3 -56.6,53 -56.6,47.1C-56.6,42.8 -58.6,39.7 -61.9,39.7C-63.3,39.7 -64.2,40.2 -66,41.8ZM-80.3,26.2C-78.6,26.1 -77.3,27.4 -77.2,29.1L-77.2,29.2C-77.2,31 -78.6,32.4 -80.2,32.4C-81.9,32.4 -83.3,31 -83.4,29.3C-83.4,27.6 -82,26.2 -80.3,26.2ZM-77.6,52.1C-77.6,53.9 -76.7,54.9 -74.7,55.1L-74.7,55.9L-86,55.9L-86,55.1C-83.6,54.6 -83,54 -83,51.7L-83,42C-83,39.8 -83.6,39.2 -86.2,38.7L-86.2,38L-78.4,37.3L-77.6,37.3L-77.6,52.1ZM-99,51.3C-99,53.6 -98,54.3 -94.7,54.3C-91.3,54.3 -89.7,53.3 -87.5,48.7L-86.6,48.7L-87.5,55.9L-108.6,55.9L-108.6,55.1C-105.4,54.3 -105.1,53.6 -105.1,50.6L-105.1,32.8C-105.1,30.4 -105.7,29.7 -108.6,28.9L-108.6,28.1L-95.4,28.1L-95.4,28.9C-98.2,29.7 -98.9,30.2 -98.9,32.6L-99,51.3ZM-115,37C-114.8,37.3 -115.3,37.8 -115.3,37.8L-122.3,45.6C-120.8,52 -120.5,58.7 -121.5,65.2C-127.4,65.2 -138.6,67.2 -148.2,76.2C-152.9,80.7 -156,86.3 -156.6,87C-157.5,87 -158.3,86.4 -158.9,86C-156,80.6 -151.9,76.7 -149.3,74.4C-145.3,70.9 -142.7,69.7 -138.3,67.4C-145.3,69 -151.6,72.8 -156.2,78.3C-158.9,81.8 -160.7,84.9 -160.7,84.9C-161.7,84.3 -162,83.9 -162,83.9C-167.8,77.8 -170.8,68.3 -170.8,57.7C-170.8,51.7 -169.9,46.2 -168.2,41.5L-168.4,37.5L-170,37.5C-170.7,37.5 -171.2,37.3 -171.7,36.9C-172.3,36.6 -172.5,36.3 -172.7,35.9L-173.2,34.9C-173.9,34.7 -174.5,34 -174.5,33.2C-174.5,32.4 -174.3,32 -174.1,31.6C-174.2,31 -174.5,29.6 -174.4,29.1C-175.1,29.1 -175.9,28.1 -176.2,27.4C-176.4,26.8 -176.2,26.2 -175.9,25.8C-176.5,25.8 -176.9,25.5 -177,25.2C-177.3,24.8 -177.2,24.2 -176.9,23.7C-178.4,23.1 -180.2,21 -179.9,17.8C-179.9,15.9 -178.7,13.6 -178.5,13.2L-178.5,11.8C-177.8,11.3 -177.2,11.6 -176.9,11.9L-175.4,10.4C-176.2,9.1 -176.6,7.6 -176.4,6.1C-176.1,3.2 -173.4,1.3 -170.1,1.3C-167.8,1.3 -167.7,1.6 -166.1,1.7C-164.5,1.7 -163.4,1 -163.1,0.5C-162.1,0.9 -161.6,2 -161.8,3.2C-161.1,3.4 -160.2,3.2 -159.5,2.8C-158.8,2.5 -157.8,1.6 -157.6,0.8C-156.4,1.4 -155.5,2.7 -155.6,4.4C-155.6,6.7 -156.7,8.1 -158.7,8.9C-160.3,9.5 -162.2,9.9 -162.5,10.9C-162.6,11.7 -162.5,11.6 -162.3,11.9L-161.1,11.7C-160.6,11.7 -160.1,12.1 -160.1,12.7C-160.3,12.9 -160.5,13.2 -160.5,13.7C-160.5,14.3 -160,15.2 -159.7,16.2C-159.2,17.5 -159.1,18.4 -159.5,20.2C-159.9,21.5 -160.6,22.7 -161.5,23.7C-161.5,24.4 -160.6,26.5 -159.6,29.1L-159.1,28.7C-154.2,25.5 -148.4,24.2 -142.6,25L-141.6,19.9C-141.6,19.9 -141.5,19.3 -141.1,19.3C-140.7,19.3 -140.6,19.9 -140.6,19.9L-139.1,25.7C-135.3,26.8 -132,28.8 -129.3,31.7L-124.4,27.7C-124.4,27.7 -123.9,27.2 -123.6,27.3C-123.3,27.5 -123.6,28.3 -123.6,28.3L-126.3,35.6C-125.5,37 -124.7,38.5 -124.1,40.1L-115.7,37C-115.7,37 -115.2,36.8 -115,37ZM-169.7,14.5L-169.8,14.5C-164.3,14.6 -161.9,17.1 -161.8,19.2C-161.6,18.5 -161.6,17.9 -161.6,17.2C-161.7,16.7 -162.5,15.2 -162.5,14.7C-162.6,14.1 -162.4,13.8 -162.4,13.3C-162.7,13.4 -163.9,13.9 -164.4,13.5C-164.9,13 -164.5,11.9 -165.2,11.7C-166,11.4 -167.1,12.2 -167.8,12.1C-168.5,12 -169.1,11 -169.9,11C-170.6,11 -171,12 -171.9,12.2C-172.6,12.3 -173.5,11.9 -173.9,11.9C-174.4,12 -174.6,12.3 -174.8,12.8C-175.1,13.2 -175.2,13.4 -175.8,13.5C-176.1,13.6 -176.8,13.3 -177.1,13.3C-176.9,13.6 -176.8,14.5 -176.9,15.1C-177.3,15.8 -177.9,16.5 -177.9,17.5C-178,18.2 -177.7,18.6 -177.5,19.2C-177.7,16.3 -174.4,14.4 -169.7,14.5ZM-174,6.8C-174.1,7.6 -173.8,8.6 -173.4,9.1C-173.2,9.4 -172.6,10 -172.2,9.9C-171.7,9.9 -171.1,8.9 -169.7,8.9C-168.9,8.9 -168.3,10.2 -167.5,10.2C-166.9,10.3 -166.6,9.6 -166.1,9.6C-165.6,9.6 -165.4,9.8 -165.1,10.1C-164.8,9.7 -164.6,9.3 -163.8,8.8C-162.9,8.1 -159.8,7.4 -158.4,6.3C-157.8,5.7 -157.6,4.6 -157.8,3.8C-158.3,4.5 -159.7,5.3 -161.1,5.3C-161.8,5.4 -163.4,5.1 -163.9,4.8C-163.7,4.2 -163.6,3.7 -163.9,3.2C-164.3,3.5 -166.2,3.7 -166.9,3.7L-170.3,3.4C-172.8,3.6 -174,5.3 -174,6.8ZM-129,46C-129.1,45.3 -130.7,43.4 -133.7,41.2C-136,39.3 -138.8,38.2 -141.7,37.9C-146.2,37.9 -148.1,41 -148.3,42.6C-148.6,43.6 -148.5,44.7 -148.3,45.2C-149.1,45.9 -149.3,46.3 -149.5,47C-149.6,47.5 -149.5,48.3 -149,48.8C-149.1,48 -148.6,47.3 -148.2,46.8C-147.8,46.2 -147.1,46 -146.5,45.6L-146.4,46.8C-147,47.2 -147.7,47.9 -147.7,48.3L-147.7,50.3L-146.2,49.4L-145.9,50L-146.5,53.6L-145.6,53.4L-144,54.1L-145.5,55.3L-145.5,55.9C-145.5,55.9 -145.3,55.6 -144.8,55.6C-144.2,55.6 -142.9,56.2 -142.9,56.2L-142.9,56.5L-145.6,56.5C-145.7,56.9 -145.4,57.2 -145.2,57.3L-144.2,57L-143.2,57.2L-143.6,57.9C-143.6,57.9 -143.9,58 -144.4,57.9C-144.6,57.9 -144.9,58.3 -144.9,58.6L-144.7,59.6C-144.4,60.8 -143.2,60.6 -143.1,60.6C-142.4,60.5 -139.9,59.6 -139.9,59.6L-142.2,62.9L-141.2,66.3C-139.7,65.7 -135.1,64.1 -130.1,63.3L-131.4,60.7L-133.9,54.8L-133.6,53.9C-133,54.1 -132.2,53.7 -131.6,53.3L-130.1,51.5C-130.5,51.3 -130.8,51.3 -131.1,51.5C-131.4,51.7 -131.6,52.1 -132.1,51.9C-132.5,51.8 -132.3,51.2 -132.2,50.8C-132.2,50.3 -132.8,50.3 -133.2,50.6C-133.6,51 -134.5,50.9 -135,50.3C-135.6,49.7 -138.3,47.5 -139.3,46.9C-140.7,46.2 -142.5,45.9 -143.9,46.2C-144.7,46.3 -145.3,46.7 -145.6,46.5L-146.6,44.9L-146.4,44.9C-146.1,45 -145.7,45.3 -145.3,45.1C-144.8,45 -143.3,44.6 -142,44.6C-140.1,44.7 -138.2,45.1 -136.4,45.8C-136.3,47.1 -133.7,48.8 -132.5,49C-131.5,49.1 -130.8,48.8 -130.2,48.5L-132.8,46.2L-131.4,44.4C-130.6,45.2 -129.8,46.1 -129,47C-128.8,46.7 -129,46.3 -129,46ZM-144.6,48.8C-144.6,48.8 -143.4,48.1 -142.4,47.9C-140.9,47.5 -139.1,48.5 -137.9,49.5L-138.1,49.8L-139.9,50.2C-140.2,49.9 -140.9,49.8 -141.6,49.8L-142.7,50.1L-142.3,50.6L-143.1,50.9C-143.5,50.4 -144.1,49.8 -144.6,49.7L-144.6,48.8ZM-139.2,43C-140,42.4 -142.7,42.5 -143.8,42.8L-144.7,40.4C-144,40 -142.8,39.7 -141.7,39.7C-140.7,39.7 -139.5,39.9 -138.7,40.3L-139.2,43ZM-134,45.3L-134,45.5C-135,44.8 -137.3,43.7 -138,43.5L-137,41C-136,41.3 -133,43.1 -132.7,43.5L-134,45.3ZM-147.2,44.7C-147.7,43.1 -146.5,41.7 -145.9,41.1L-145,43.1C-145.7,43.5 -146.7,44.2 -147.2,44.7ZM-165.6,46.7C-165.4,47.1 -161.4,59.3 -161.3,60.1C-160.8,57.9 -159.8,55.8 -158.3,54.1C-156.9,52.7 -155,52.1 -154,52.1C-154.6,51 -155.1,49.9 -155.5,48.7L-156.1,44.7L-164.5,23C-164.6,22.7 -164.7,22.2 -165,22.1C-165.2,22 -165.8,21.6 -166.1,21.6C-166.4,21.4 -166.9,20.9 -167.1,20.9C-168.2,20.9 -169.5,20.5 -170,20.2C-170.5,21.1 -170.1,21.7 -169.7,22.1C-169.4,22.4 -168.4,22.8 -167.6,22.8L-167.3,27.9C-167.1,28.2 -166.3,28.5 -165.6,28.5L-165.6,28.7L-166.6,29.3C-166.6,29.9 -165.8,46.4 -165.6,46.7ZM-126.6,47.4L-117.8,39L-128.2,43.7C-127.6,44.2 -126.6,46.5 -126.6,47.4ZM-130.7,55C-131.2,55.7 -131,56.4 -130.7,56.9L-128.9,60.2C-128.5,61.5 -128.1,62.1 -127.6,62.9L-125,62.9C-126,60.7 -128.3,56.4 -128.3,56.4L-128.4,52.9C-129.1,53.3 -130.2,54.3 -130.7,55ZM-150.5,46L-153.9,44.4L-153.9,44.6L-153.7,46.8L-151,48.8L-151,47.4C-151,46.9 -150.8,46.4 -150.5,46ZM-155.6,29.8L-149.2,40.8C-148.8,39.8 -147.6,38.5 -146.6,38L-155.6,29.8ZM-173,24.8C-173.4,24.9 -174.2,25.5 -174.6,26.1C-174.4,26.5 -174,27.5 -173.6,27.7C-173.5,27.3 -173,26.6 -172.8,26.4C-172.4,26.2 -172.1,25.9 -171.8,25.9C-171.5,25.7 -171.4,25.6 -171.4,25.3C-171.4,25 -171.4,24.8 -171.6,24.5C-171.3,24.5 -170.8,24.5 -170.6,24.3C-170.4,24 -170.4,23.7 -170.4,23.4C-170.4,23.1 -170.5,23 -170.8,23L-172.5,23L-171.6,22.5C-171.3,22.4 -171.3,22.2 -171.3,22.1L-171.3,21.1C-172.4,21.1 -174.2,22 -174.6,22.4L-174.3,23.3L-174.9,23.3C-175,23.8 -175,24.5 -174.8,24.8L-173,24.8ZM-155.2,67.1C-154.8,63.7 -154.1,61.4 -151.8,59.7C-150.6,58.8 -148.9,58.5 -147.5,58.8L-150,54C-153.1,53.2 -155.4,54.4 -156.4,55.4C-158.5,57.4 -159.4,59.2 -159.9,62.2C-160.5,65.1 -159.8,69.5 -159.8,71.5C-159.8,74.6 -160.4,78.5 -161.2,80.2C-160.5,79.2 -158.3,76.5 -157.5,75.2C-156.3,73.1 -155.5,70.3 -155.2,67.1ZM-134.3,38.9C-133.3,39.2 -131.2,41 -130.6,41.4L-125.3,29.9L-134.3,38.9ZM-154.838,73.348C-154.894,73.399 -154.948,73.45 -155,73.5L-154.9,73.5C-154.88,73.452 -154.859,73.402 -154.838,73.348ZM-154.838,73.348C-152.128,70.872 -145.548,67.784 -143,67C-143.6,67 -144.4,66.8 -144.6,66.2L-147.5,60.4C-148.1,60.1 -149.7,60.3 -150.7,61.1C-152.7,62.7 -153,65.2 -153.3,66.9C-153.493,68.156 -154.246,71.837 -154.838,73.348ZM-142.787,36.498C-142.791,36.498 -142.796,36.499 -142.8,36.5L-142.8,36.6L-142.787,36.498ZM-142.787,36.498C-141.681,36.302 -139.197,36.602 -138.4,37L-141,22.3L-142.787,36.498ZM-169.8,18.9C-168.3,18.8 -166.9,19.3 -165.8,20.3C-165.7,19.6 -165.9,18.9 -166.6,18.3C-167.2,17.8 -168.3,17.3 -169.8,17.3C-171,17.3 -172.1,17.7 -172.8,18.3C-173.3,18.8 -173.5,19.4 -173.3,20.3C-173.103,19.71 -171.747,18.926 -169.8,18.9ZM-167.3,33.5L-167.2,33.5C-167,33.2 -167,33.1 -167,32.7C-167,32.3 -167.3,32.1 -167.5,31.9L-167.4,29.5C-167.5,28.7 -167.7,28.1 -168.1,27.5C-168.5,26.9 -169.4,26 -169.9,25.6C-169.9,26 -170.1,26.3 -170.4,26.3C-170.8,26.4 -172,27.3 -172,27.3L-171.9,31.8C-171.9,31.8 -172.1,31.9 -172.3,32.4C-172.5,32.8 -172.4,33.2 -172.1,33.4C-171.4,33 -170.7,32.8 -169.7,32.8C-168.8,32.7 -167.7,33.3 -167.3,33.5Z"/>
    </g>
</svg>
