<?xml version="1.0" encoding="UTF-8" standalone="no"?>
<!DOCTYPE svg PUBLIC "-//W3C//DTD SVG 1.1//EN" "http://www.w3.org/Graphics/SVG/1.1/DTD/svg11.dtd">
<svg width="100%" height="100%" viewBox="0 0 3073 662" version="1.1" xmlns="http://www.w3.org/2000/svg" xmlns:xlink="http://www.w3.org/1999/xlink" xml:space="preserve" xmlns:serif="http://www.serif.com/" style="fill-rule:evenodd;clip-rule:evenodd;stroke-linejoin:round;stroke-miterlimit:2;">
    <g transform="matrix(14.958482,0,0,14.958482,-23703.724072,-35571.186859)">
        <g transform="matrix(1.069823,0,0,1.885643,-156.694629,-2164.064372)">
            <path d="M1697.005,2415.715L1692.048,2415.715L1692.048,2418.734L1697.005,2418.734C1697.36,2418.734 1697.604,2418.666 1697.738,2418.529C1697.871,2418.393 1697.938,2418.158 1697.938,2417.826L1697.938,2416.623C1697.938,2416.291 1697.871,2416.056 1697.738,2415.92C1697.604,2415.784 1697.36,2415.715 1697.005,2415.715ZM1690.6,2423.241L1690.6,2414.595L1697.57,2414.595C1698.219,2414.595 1698.686,2414.727 1698.973,2414.991C1699.259,2415.256 1699.402,2415.683 1699.402,2416.272L1699.402,2418.202C1699.402,2418.786 1699.259,2419.21 1698.973,2419.474C1698.686,2419.739 1698.219,2419.871 1697.57,2419.871L1692.048,2419.871L1692.048,2423.241L1690.6,2423.241Z" style="fill-rule:nonzero;"/>
            <path d="M1702.331,2423.241L1702.331,2416.141L1709.48,2416.141L1709.48,2417.196L1703.672,2417.196L1703.672,2419.02L1707.173,2419.02L1707.173,2420.075L1703.672,2420.075L1703.672,2422.202L1709.545,2422.202L1709.545,2423.241L1702.331,2423.241Z" style="fill-rule:nonzero;"/>
            <path d="M1713.202,2417.564C1713.234,2417.771 1713.259,2417.981 1713.275,2418.194C1713.292,2418.407 1713.3,2418.619 1713.3,2418.832L1713.3,2423.241L1712.065,2423.241L1712.065,2416.141L1713.087,2416.141L1718.298,2420.779C1718.451,2420.91 1718.596,2421.054 1718.735,2421.212C1718.875,2421.37 1719.012,2421.55 1719.149,2421.752C1719.11,2421.539 1719.082,2421.324 1719.063,2421.106C1719.044,2420.888 1719.034,2420.661 1719.034,2420.427L1719.034,2416.141L1720.269,2416.141L1720.269,2423.241L1719.353,2423.241L1714.036,2418.537C1713.851,2418.363 1713.691,2418.198 1713.558,2418.043C1713.424,2417.887 1713.305,2417.728 1713.202,2417.564Z" style="fill-rule:nonzero;"/>
            <path d="M1724.695,2417.564C1724.727,2417.771 1724.752,2417.981 1724.768,2418.194C1724.785,2418.407 1724.793,2418.619 1724.793,2418.832L1724.793,2423.241L1723.558,2423.241L1723.558,2416.141L1724.58,2416.141L1729.791,2420.779C1729.943,2420.91 1730.089,2421.054 1730.228,2421.212C1730.367,2421.37 1730.505,2421.55 1730.641,2421.752C1730.603,2421.539 1730.575,2421.324 1730.556,2421.106C1730.536,2420.888 1730.527,2420.661 1730.527,2420.427L1730.527,2416.141L1731.762,2416.141L1731.762,2423.241L1730.846,2423.241L1725.529,2418.537C1725.344,2418.363 1725.184,2418.198 1725.05,2418.043C1724.917,2417.887 1724.798,2417.728 1724.695,2417.564Z" style="fill-rule:nonzero;"/>
            <path d="M1741.913,2423.241L1741.913,2414.595L1742.821,2414.595L1749.292,2420.378C1749.439,2420.509 1749.596,2420.667 1749.762,2420.852C1749.928,2421.038 1750.099,2421.242 1750.273,2421.466C1750.23,2421.188 1750.197,2420.897 1750.175,2420.595C1750.153,2420.292 1750.142,2419.873 1750.142,2419.339L1750.142,2414.595L1751.468,2414.595L1751.468,2423.241L1750.658,2423.241L1744.016,2417.229C1743.983,2417.201 1743.934,2417.158 1743.868,2417.098C1743.541,2416.803 1743.299,2416.522 1743.14,2416.255C1743.173,2416.517 1743.198,2416.796 1743.214,2417.094C1743.23,2417.391 1743.239,2417.741 1743.239,2418.145L1743.239,2423.241L1741.913,2423.241Z" style="fill-rule:nonzero;"/>
            <path d="M1754.191,2423.241L1758.298,2416.141L1759.525,2416.141L1763.729,2423.241L1762.273,2423.241L1761.349,2421.58L1756.441,2421.58L1755.533,2423.241L1754.191,2423.241ZM1757.005,2420.558L1760.776,2420.558L1758.887,2417.18L1757.005,2420.558Z" style="fill-rule:nonzero;"/>
            <path d="M1768.351,2417.196L1768.351,2423.241L1767.018,2423.241L1767.018,2417.196L1763.664,2417.196L1763.664,2416.141L1771.721,2416.141L1771.721,2417.196L1768.351,2417.196Z" style="fill-rule:nonzero;"/>
            <rect x="1773.701" y="2416.157" width="1.333" height="7.084" style="fill-rule:nonzero;"/>
            <path d="M1779.459,2422.169L1785.39,2422.169L1785.39,2417.196L1779.459,2417.196L1779.459,2422.169ZM1778.118,2417.826C1778.118,2417.177 1778.241,2416.734 1778.486,2416.497C1778.731,2416.259 1779.189,2416.141 1779.86,2416.141L1784.989,2416.141C1785.66,2416.141 1786.118,2416.259 1786.363,2416.497C1786.609,2416.734 1786.731,2417.177 1786.731,2417.826L1786.731,2421.564C1786.731,2422.213 1786.61,2422.655 1786.367,2422.889C1786.125,2423.124 1785.665,2423.241 1784.989,2423.241L1779.86,2423.241C1779.179,2423.241 1778.718,2423.125 1778.478,2422.893C1778.238,2422.661 1778.118,2422.218 1778.118,2421.564L1778.118,2417.826Z" style="fill-rule:nonzero;"/>
            <path d="M1790.985,2417.564C1791.018,2417.771 1791.042,2417.981 1791.059,2418.194C1791.075,2418.407 1791.083,2418.619 1791.083,2418.832L1791.083,2423.241L1789.848,2423.241L1789.848,2416.141L1790.87,2416.141L1796.081,2420.779C1796.234,2420.91 1796.38,2421.054 1796.519,2421.212C1796.658,2421.37 1796.795,2421.55 1796.932,2421.752C1796.894,2421.539 1796.865,2421.324 1796.846,2421.106C1796.827,2420.888 1796.817,2420.661 1796.817,2420.427L1796.817,2416.141L1798.052,2416.141L1798.052,2423.241L1797.136,2423.241L1791.819,2418.537C1791.634,2418.363 1791.474,2418.198 1791.341,2418.043C1791.207,2417.887 1791.089,2417.728 1790.985,2417.564Z" style="fill-rule:nonzero;"/>
            <path d="M1800.179,2423.241L1804.286,2416.141L1805.513,2416.141L1809.717,2423.241L1808.261,2423.241L1807.337,2421.58L1802.429,2421.58L1801.521,2423.241L1800.179,2423.241ZM1802.993,2420.558L1806.764,2420.558L1804.875,2417.18L1802.993,2420.558Z" style="fill-rule:nonzero;"/>
            <path d="M1811.844,2423.241L1811.844,2416.141L1813.185,2416.141L1813.185,2422.169L1818.707,2422.169L1818.707,2423.241L1811.844,2423.241Z" style="fill-rule:nonzero;"/>
        </g>
        <g transform="matrix(0.766575,0,0,1.216509,411.028094,-527.085802)">
            <rect x="1690.6" y="2414.595" width="1.448" height="8.646" style="fill-rule:nonzero;"/>
            <path d="M1696.531,2423.241L1696.531,2414.595L1697.439,2414.595L1703.909,2420.378C1704.057,2420.509 1704.213,2420.667 1704.38,2420.852C1704.546,2421.038 1704.716,2421.242 1704.891,2421.466C1704.847,2421.188 1704.815,2420.897 1704.793,2420.595C1704.771,2420.292 1704.76,2419.873 1704.76,2419.339L1704.76,2414.595L1706.085,2414.595L1706.085,2423.241L1705.275,2423.241L1698.633,2417.229C1698.6,2417.201 1698.551,2417.158 1698.486,2417.098C1698.159,2416.803 1697.916,2416.522 1697.758,2416.255C1697.791,2416.517 1697.815,2416.796 1697.832,2417.094C1697.848,2417.391 1697.856,2417.741 1697.856,2418.145L1697.856,2423.241L1696.531,2423.241Z" style="fill-rule:nonzero;"/>
            <path d="M1717.946,2415.773L1711.827,2415.773L1711.827,2418.186L1717.275,2418.186C1718.044,2418.186 1718.57,2418.327 1718.854,2418.611C1719.138,2418.895 1719.279,2419.432 1719.279,2420.223L1719.279,2421.196C1719.279,2421.992 1719.14,2422.532 1718.862,2422.816C1718.584,2423.099 1718.055,2423.241 1717.275,2423.241L1712.228,2423.241C1711.443,2423.241 1710.909,2423.098 1710.625,2422.811C1710.341,2422.525 1710.2,2421.987 1710.2,2421.196L1710.2,2420.959L1711.541,2420.648L1711.541,2422.038L1717.979,2422.038L1717.979,2419.437L1712.547,2419.437C1711.762,2419.437 1711.23,2419.294 1710.952,2419.008C1710.674,2418.721 1710.535,2418.183 1710.535,2417.392L1710.535,2416.64C1710.535,2415.849 1710.674,2415.31 1710.952,2415.024C1711.23,2414.738 1711.762,2414.595 1712.547,2414.595L1717.153,2414.595C1717.922,2414.595 1718.452,2414.735 1718.744,2415.016C1719.035,2415.297 1719.181,2415.789 1719.181,2416.492L1719.181,2416.672L1717.946,2417.024L1717.946,2415.773Z" style="fill-rule:nonzero;"/>
            <path d="M1725.095,2414.595L1725.095,2422.038L1731.394,2422.038L1731.394,2414.595L1732.817,2414.595L1732.817,2421.196C1732.817,2421.992 1732.677,2422.532 1732.396,2422.816C1732.115,2423.099 1731.585,2423.241 1730.805,2423.241L1725.676,2423.241C1724.891,2423.241 1724.356,2423.096 1724.073,2422.807C1723.789,2422.518 1723.648,2421.981 1723.648,2421.196L1723.648,2414.595L1725.095,2414.595Z" style="fill-rule:nonzero;"/>
            <path d="M1743.721,2415.715L1738.764,2415.715L1738.764,2418.75L1743.721,2418.75C1744.081,2418.75 1744.326,2418.685 1744.457,2418.554C1744.588,2418.423 1744.654,2418.194 1744.654,2417.867L1744.654,2416.607C1744.654,2416.28 1744.587,2416.049 1744.453,2415.916C1744.32,2415.782 1744.076,2415.715 1743.721,2415.715ZM1737.316,2423.241L1737.316,2414.595L1744.286,2414.595C1744.935,2414.595 1745.402,2414.727 1745.688,2414.991C1745.975,2415.256 1746.118,2415.683 1746.118,2416.272L1746.118,2418.202C1746.118,2418.786 1745.975,2419.21 1745.688,2419.474C1745.402,2419.739 1744.935,2419.871 1744.286,2419.871L1743.018,2419.871L1746.969,2423.241L1744.825,2423.241L1741.308,2419.871L1738.764,2419.871L1738.764,2423.241L1737.316,2423.241Z" style="fill-rule:nonzero;"/>
            <path d="M1751.844,2420.01L1756.498,2420.01L1754.167,2415.584L1751.844,2420.01ZM1748.711,2423.241L1753.431,2414.595L1754.977,2414.595L1759.778,2423.241L1758.191,2423.241L1757.087,2421.114L1751.239,2421.114L1750.134,2423.241L1748.711,2423.241Z" style="fill-rule:nonzero;"/>
            <path d="M1762.576,2423.241L1762.576,2414.595L1763.484,2414.595L1769.954,2420.378C1770.102,2420.509 1770.258,2420.667 1770.425,2420.852C1770.591,2421.038 1770.761,2421.242 1770.936,2421.466C1770.892,2421.188 1770.86,2420.897 1770.838,2420.595C1770.816,2420.292 1770.805,2419.873 1770.805,2419.339L1770.805,2414.595L1772.13,2414.595L1772.13,2423.241L1771.32,2423.241L1764.678,2417.229C1764.645,2417.201 1764.596,2417.158 1764.531,2417.098C1764.204,2416.803 1763.961,2416.522 1763.803,2416.255C1763.836,2416.517 1763.86,2416.796 1763.877,2417.094C1763.893,2417.391 1763.901,2417.741 1763.901,2418.145L1763.901,2423.241L1762.576,2423.241Z" style="fill-rule:nonzero;"/>
            <path d="M1783.934,2415.773L1777.938,2415.773L1777.938,2422.038L1783.934,2422.038L1783.934,2419.871L1785.382,2420.173L1785.382,2421.196C1785.382,2421.992 1785.243,2422.532 1784.964,2422.816C1784.686,2423.099 1784.155,2423.241 1783.369,2423.241L1778.527,2423.241C1777.742,2423.241 1777.207,2423.098 1776.924,2422.811C1776.64,2422.525 1776.498,2421.987 1776.498,2421.196L1776.498,2416.64C1776.498,2415.849 1776.64,2415.31 1776.924,2415.024C1777.207,2414.738 1777.742,2414.595 1778.527,2414.595L1783.369,2414.595C1784.155,2414.595 1784.686,2414.736 1784.964,2415.02C1785.243,2415.304 1785.382,2415.843 1785.382,2416.64L1785.382,2417.458L1783.934,2417.728L1783.934,2415.773Z" style="fill-rule:nonzero;"/>
            <path d="M1789.177,2423.241L1789.177,2414.595L1797.504,2414.595L1797.504,2415.756L1790.625,2415.756L1790.625,2418.161L1794.83,2418.161L1794.83,2419.306L1790.625,2419.306L1790.625,2422.055L1797.57,2422.055L1797.57,2423.241L1789.177,2423.241Z" style="fill-rule:nonzero;"/>
        </g>
        <g transform="matrix(0.200447,0,0,0.200447,1296.447732,1945.359289)">
            <path d="M1669.048,2334.565C1672.398,2334.565 1675.669,2335.425 1678.86,2337.144C1682.052,2338.863 1684.538,2341.323 1686.319,2344.523C1688.1,2347.723 1688.99,2351.06 1688.99,2354.534C1688.99,2357.972 1688.113,2361.278 1686.359,2364.452C1684.604,2367.626 1682.144,2370.09 1678.979,2371.844C1675.814,2373.599 1672.504,2374.476 1669.048,2374.476C1665.592,2374.476 1662.282,2373.599 1659.117,2371.844C1655.952,2370.09 1653.487,2367.626 1651.724,2364.452C1649.961,2361.278 1649.079,2357.972 1649.079,2354.534C1649.079,2351.06 1649.974,2347.723 1651.764,2344.523C1653.554,2341.323 1656.044,2338.863 1659.236,2337.144C1662.427,2335.425 1665.698,2334.565 1669.048,2334.565ZM1669.048,2337.871C1666.244,2337.871 1663.516,2338.59 1660.862,2340.027C1658.209,2341.464 1656.132,2343.518 1654.634,2346.189C1653.135,2348.861 1652.385,2351.642 1652.385,2354.534C1652.385,2357.408 1653.122,2360.163 1654.594,2362.799C1656.066,2365.435 1658.125,2367.489 1660.77,2368.962C1663.414,2370.434 1666.174,2371.17 1669.048,2371.17C1671.922,2371.17 1674.682,2370.434 1677.326,2368.962C1679.971,2367.489 1682.025,2365.435 1683.489,2362.799C1684.952,2360.163 1685.684,2357.408 1685.684,2354.534C1685.684,2351.642 1684.939,2348.861 1683.449,2346.189C1681.959,2343.518 1679.883,2341.464 1677.221,2340.027C1674.558,2338.59 1671.834,2337.871 1669.048,2337.871ZM1660.294,2365.563L1660.294,2344.087L1667.673,2344.087C1670.194,2344.087 1672.019,2344.285 1673.148,2344.682C1674.276,2345.078 1675.175,2345.771 1675.845,2346.758C1676.515,2347.745 1676.85,2348.795 1676.85,2349.905C1676.85,2351.475 1676.291,2352.841 1675.171,2354.005C1674.051,2355.169 1672.566,2355.821 1670.714,2355.962C1671.472,2356.279 1672.081,2356.659 1672.539,2357.099C1673.403,2357.946 1674.461,2359.365 1675.713,2361.358L1678.331,2365.563L1674.1,2365.563L1672.195,2362.177C1670.697,2359.515 1669.489,2357.849 1668.572,2357.179C1667.937,2356.685 1667.011,2356.438 1665.795,2356.438L1663.758,2356.438L1663.758,2365.563L1660.294,2365.563ZM1663.758,2353.476L1667.964,2353.476C1669.974,2353.476 1671.345,2353.176 1672.076,2352.577C1672.808,2351.977 1673.174,2351.184 1673.174,2350.196C1673.174,2349.562 1672.998,2348.993 1672.645,2348.49C1672.292,2347.988 1671.803,2347.613 1671.177,2347.366C1670.551,2347.119 1669.392,2346.996 1667.699,2346.996L1663.758,2346.996L1663.758,2353.476Z" style="fill-rule:nonzero;"/>
        </g>
        <g transform="matrix(1,0,0,1,1,0)">
            <path d="M1603,2421L1597.545,2421C1596.622,2421 1595.803,2420.41 1595.512,2419.535C1593.763,2414.288 1587.806,2396.417 1585.725,2390.174C1585.557,2389.67 1585.641,2389.117 1585.952,2388.686C1586.262,2388.255 1586.761,2388 1587.292,2388C1590.515,2388 1596,2388 1596,2388L1603,2421Z"/>
        </g>
        <path d="M1620.924,2380C1621.674,2380 1622.382,2380.34 1622.852,2380.923C1623.322,2381.507 1623.501,2382.272 1623.341,2383.004L1615.35,2419.408C1615.145,2420.338 1614.322,2421 1613.37,2421L1606.63,2421C1605.678,2421 1604.855,2420.338 1604.65,2419.408L1596.659,2383.004C1596.499,2382.272 1596.678,2381.507 1597.148,2380.923C1597.618,2380.34 1598.326,2380 1599.076,2380L1620.924,2380Z"/>
        <g transform="matrix(-1,0,0,1,3219,0)">
            <path d="M1603,2421L1597.545,2421C1596.622,2421 1595.803,2420.41 1595.512,2419.535C1593.763,2414.288 1587.806,2396.417 1585.725,2390.174C1585.557,2389.67 1585.641,2389.117 1585.952,2388.686C1586.262,2388.255 1586.761,2388 1587.292,2388C1590.515,2388 1596,2388 1596,2388L1603,2421Z"/>
        </g>
    </g>
</svg>
