<?xml version="1.0" encoding="UTF-8" standalone="no"?>
<!DOCTYPE svg PUBLIC "-//W3C//DTD SVG 1.1//EN" "http://www.w3.org/Graphics/SVG/1.1/DTD/svg11.dtd">
<svg width="100%" height="100%" viewBox="0 0 517 105" version="1.1" xmlns="http://www.w3.org/2000/svg" xmlns:xlink="http://www.w3.org/1999/xlink" xml:space="preserve" xmlns:serif="http://www.serif.com/" style="fill-rule:evenodd;clip-rule:evenodd;stroke-linejoin:round;stroke-miterlimit:2;">
    <g transform="matrix(1,0,0,1,-43.2,-458.5)">
        <path d="M441.8,497.7L441.6,497.7C441.4,497.7 441.2,497.5 441.2,497.3L441.2,497.1C455.5,464.5 493.6,449.6 526.2,463.9C541,470.4 552.9,482.3 559.4,497.1C559.5,497.3 559.4,497.5 559.2,497.6L558.9,497.6C553.4,494.6 547.1,493.1 540.9,493.2C533.8,493 526.8,494.9 520.9,498.9L520.5,498.9C508.2,491.3 492.7,491.3 480.4,498.9L480,498.9C474.1,495 467.1,493 460,493.2C453.6,493.2 447.4,494.7 441.8,497.7Z" style="fill-rule:nonzero;"/>
        <path d="M503.8,498.1C503.8,497.9 503.7,497.8 503.5,497.8C502.4,497.7 501.4,497.6 500.3,497.6L497.6,497.6C497.4,497.6 497.3,497.7 497.3,497.9L497.3,550.7C497.3,553.7 494.9,556.1 491.9,556.1C489.6,556.1 487.5,554.6 486.8,552.5C486.1,550.8 484.2,550.1 482.6,550.7C481.2,551.3 480.3,552.8 480.7,554.4C482.7,560.6 489.4,564.1 495.6,562.1C500.5,560.5 503.9,555.9 503.8,550.7L503.8,498.1Z" style="fill-rule:nonzero;"/>
        <path d="M133.1,562.3L122.3,562.3L115.3,539.6L106.4,539.6L103.9,562.3L93.2,562.3L99.5,504.6L120.6,504.6C133.1,504.6 139.1,507.6 137.6,522.3C136.5,532.3 132.6,536.3 125.7,538.3L133.1,562.3ZM117.4,530.6C122.4,530.6 125.9,530.4 126.8,522.1C127.7,513.8 123.7,514 119,514L109.3,514L107.5,530.7L117.4,530.6Z" style="fill-rule:nonzero;"/>
        <path d="M416.2,562.3L405.3,562.3L398.3,539.6L389.5,539.6L387,562.3L376.3,562.3L382.6,504.6L403.7,504.6C416.2,504.6 422.2,507.6 420.7,522.3C419.6,532.3 415.7,536.3 408.8,538.3L416.2,562.3ZM400.2,530.6C405.2,530.6 408.7,530.4 409.6,522.1C410.5,513.8 406.8,514 401.8,514L392.3,514L390.5,530.7L400.2,530.6Z" style="fill-rule:nonzero;"/>
        <path d="M190.5,504.7L201.8,504.7L209.6,546.8L226.2,504.7L237.2,504.7L213.4,562.7L202.3,562.7L190.5,504.7Z" style="fill-rule:nonzero;"/>
        <path d="M247.2,504.7L281.2,504.7L280.2,514.3L257.2,514.3L255.8,528L274.5,528L273.4,537.7L254.7,537.7L253,552.7L276.8,552.7L275.7,562.3L241.1,562.3L247.2,504.7Z" style="fill-rule:nonzero;"/>
        <path d="M336.7,504.7L370.7,504.7L369.7,514.3L346.7,514.3L345.2,528L363.9,528L362.8,537.7L344,537.7L342.3,552.7L366.2,552.7L365.2,562.3L330.4,562.3L336.7,504.7Z" style="fill-rule:nonzero;"/>
        <path d="M425.1,561.3L426.6,551.9C431.9,552.9 437.3,553.4 442.7,553.6C450,553.6 452,552.4 452.6,546.5C453.2,541.1 452.3,540.5 444.1,537.9C431.2,533.7 428.3,531.6 429.6,519.6C430.9,508.1 436.8,504 449.9,504C455.2,504 460.6,504.5 465.8,505.6L464.6,515C459.4,514.2 454.1,513.7 448.8,513.6C443,513.6 441,515.1 440.5,519.7C439.9,525.1 440.9,525.7 448.8,528.2C461.2,532.3 465.1,534.4 463.7,546.5C462.3,559.1 456.4,563 441.5,563C435.9,563 430.4,562.4 425.1,561.3Z" style="fill-rule:nonzero;"/>
        <path d="M150.2,562.3L139.2,562.3L164,504.3L174.5,504.3L185.8,562.3L174.5,562.3L172.7,552.7L154.1,552.7L150.2,562.3ZM167.4,519.5L157.9,543.7L171.2,543.7L167.4,519.5Z" style="fill-rule:nonzero;"/>
        <path d="M324.2,552.7L298.7,552.7L304,504.7L293,504.7L286.8,562.4L314.1,562.4C320.2,562.3 322.8,558.8 324.2,552.7Z" style="fill-rule:nonzero;"/>
        <path d="M44.2,504.7L43.2,514.3L61.1,514.3L55.8,562.5L66.9,562.5L72.1,514.4L81.1,514.4C87.2,514.4 89.9,510.9 91.2,504.7L44.2,504.7Z" style="fill-rule:nonzero;"/>
    </g>
</svg>
