<svg version="1.1" id="Layer_1" xmlns="http://www.w3.org/2000/svg" xmlns:xlink="http://www.w3.org/1999/xlink" x="0px" y="0px" viewBox="0 0 186.4 45.1" style="enable-background:new 0 0 186.4 45.1;" xml:space="preserve">
 <g>
  <path id="logoSymbol" d="M22.5,0C10,0,0,10,0,22.5c0,5.1,1.6,9.9,4.6,13.6l18.7-24.6h-1.9h-1.9c-2.1,0-4.2,0.1-5.5,0.4
		c-0.9,0.1-1.6,0.4-2.2,0.9c-0.7,0.4-1.6,1.6-2.2,2.7c0,0.1-0.1,0.3-0.3,0.6L7.8,16l1.8-7h23.4L14.4,33.7c1.2-0.1,1.6-0.1,2.7-0.1
		c0.7,0,1.9,0,3.4,0.1l3.3,0.1c1.2,0,2.2,0.1,3,0.1c1.6,0,2.8-0.1,3.9-0.4c0.9-0.3,1.6-0.6,2.4-1.2c1.3-0.9,2.5-2.4,3.3-3.7
		c0-0.1,0.1-0.3,0.3-0.6l1,0.3c-0.3,1.2-0.4,1.6-1,2.8c-1,2.2-2.1,3.7-3.7,4.9c-1.6,1.2-3.3,1.8-5.4,1.8h-0.3
		c-1.5,0-2.7-0.1-6.4-0.7c-3.7-0.6-5.7-0.7-7.6-0.7c-1.2,0-2.4,0.1-3.6,0.3c-1.6,0.3-2.2,0.4-3.7,1c4,4.5,10,7.3,16.6,7.3
		c12.4,0,22.5-10,22.5-22.5C44.9,10,34.9,0,22.5,0">
  </path>
  <path id="logoText" d="M120.7,21.1c-0.7,0.4-1.6,0.7-2.7,0.9c-0.4,0-0.9,0.1-1.2,0.1c-0.1,0-0.1,0-0.3,0v-8.1c0.3,0,0.4,0,0.6,0
		c1,0,2.1,0.1,3,0.3c0.6,0.1,1,0.4,1.5,0.7c0.7,0.6,1.2,1.5,1.2,2.7c0,1-0.3,1.8-0.9,2.4C121.4,20.7,121,21,120.7,21.1 M128.9,31.9
		c-0.7-0.7-1.5-1.5-2.5-2.5c-0.6-0.7-1.2-1.3-1.6-1.8l-3.4-4c0.4-0.1,0.6-0.1,0.9-0.3c1-0.4,1.9-0.9,2.7-1.5
		c0.9-0.7,1.3-1.5,1.8-2.5c0.1-0.6,0.3-1,0.3-1.6c0-1.3-0.4-2.5-1.5-3.6c-0.9-0.9-2.1-1.6-3.6-1.9c-1-0.3-1.9-0.3-3.7-0.4
		c-0.6,0-1.3,0-2.1,0h-5.7c0.4,0.3,0.4,0.4,0.7,0.9c0.1,0.3,0.3,0.6,0.4,0.7c0.1,0.4,0.1,1.2,0.1,2.4v14.4c0,1,0,1.6-0.3,2.1
		c-0.1,0.3-0.1,0.4-0.3,0.7s-0.3,0.4-0.7,0.7h6.9c-0.3-0.3-0.4-0.4-0.6-0.7c-0.1-0.1-0.3-0.4-0.3-0.6c-0.1-0.4-0.3-1-0.3-2.1
		c0-0.3,0-0.7,0-1v-4.9l4,4.8c0.1,0.3,0.4,0.6,0.9,1c0.4,0.6,0.9,0.9,1,1.2c0.7,0.7,1.5,1.3,2.2,1.8c0.6,0.3,1.2,0.4,2.1,0.4
		c0.3,0,0.7,0,1.2,0h2.7c-0.3-0.3-0.4-0.4-0.7-0.6C129.6,32.5,129.3,32.2,128.9,31.9 M138.2,15.6c0-1.5,0-1.8,0.3-2.4
		c0-0.3,0-0.4,0.1-0.7c0.3-0.3,0.4-0.6,0.7-0.9h-6.9c0.4,0.4,0.6,0.6,0.7,0.9c0.1,0.3,0.3,0.4,0.3,0.7c0.1,0.6,0.1,1,0.3,2.4
		c0,0.6,0,1,0,1.3v13c0,0.7-0.1,1.6-0.3,2.1c-0.1,0.1-0.1,0.4-0.3,0.6c-0.1,0.3-0.3,0.3-0.6,0.7h6.9c-0.3-0.3-0.4-0.4-0.6-0.7
		c-0.1-0.1-0.3-0.4-0.3-0.6c-0.1-0.4-0.3-1.2-0.3-1.9V16.9L138.2,15.6z M159.1,30.2c-1.3,0.6-2.5,0.7-3.9,0.7
		c-2.2,0-4.2-0.7-5.7-2.4c-1.3-1.5-2.2-3.6-2.2-6c0-2.2,0.7-4.5,1.9-5.8c0.6-0.6,1.2-1.2,1.9-1.6c1.2-0.7,2.7-1,4.2-1
		c1.3,0,2.7,0.3,3.9,0.7c0.7,0.3,1,0.4,1.8,1v-4.2c-0.6-0.1-0.7-0.3-1.3-0.3c-1.2-0.3-2.5-0.4-3.9-0.4c-2.4,0-4.3,0.4-6.3,1.2
		c-1,0.4-2.1,1-3,1.8c-2.7,2.1-4.2,5.2-4.2,9c0,3.4,1.3,6.6,4,8.5c2.1,1.6,4.9,2.5,8.2,2.5c2.1,0,4-0.3,6.1-1c0.1,0,0.1,0,0.3-0.1
		v-3.9c-0.6,0.3-0.7,0.4-1,0.6C160,29.8,159.6,30.1,159.1,30.2 M184.9,15.6c0-0.9,0.1-1.6,0.3-2.2c0.1-0.3,0.1-0.6,0.3-0.7
		c0.3-0.3,0.4-0.6,0.9-0.9h-7.2c0.4,0.3,0.6,0.4,0.7,0.9c0.1,0.3,0.3,0.4,0.3,0.7c0.1,0.4,0.3,1.2,0.3,2.2v5.2h-9.9v-4
		c0-1.2,0-1.9,0-2.5c0-0.3,0.1-0.6,0.1-0.9c0.1-0.4,0.6-1.2,0.9-1.5c0,0,0.1-0.1,0.3-0.3h-7c0.4,0.4,0.6,0.6,0.7,0.9
		c0.1,0.1,0.3,0.4,0.4,0.7c0.1,0.6,0.1,0.9,0.3,2.2v1.3v12c0,1.2,0,1.8-0.1,2.2c0,0.3-0.1,0.6-0.1,0.9c-0.1,0.4-0.4,0.9-0.9,1.2
		c0,0-0.1,0.1-0.3,0.1h6.9c-0.3-0.3-0.4-0.4-0.6-0.7c-0.1-0.1-0.3-0.4-0.3-0.7c-0.1-0.6-0.3-1-0.3-1.9c0-0.4,0-0.9,0-1.3v-5.2h9.9
		v5.4c0,1.2,0,1.6-0.1,2.2c0,0.3-0.1,0.6-0.3,0.9c-0.1,0.4-0.4,0.7-0.7,1.2c0,0-0.1,0.1-0.3,0.3h7c-0.3-0.3-0.4-0.4-0.6-0.7
		c-0.1-0.3-0.3-0.4-0.4-0.7c-0.1-0.4-0.3-0.9-0.3-1.9c0-0.6,0-1,0-1.2v-12L184.9,15.6L184.9,15.6L184.9,15.6z M76.9,30.4
		c-0.9,0.1-2.1,0.3-3.4,0.3c-0.4,0-1,0-1.8,0h-3.3l13.3-19.2H64.5l-2.1,4.6c0.7-0.3,1-0.4,1.6-0.7c1-0.4,2.1-0.7,3.1-0.9
		c0.9-0.1,1.8-0.3,3.1-0.3c0.6,0,1.2,0,1.6,0h2.5L60.9,33.4h18.9l2.2-4.9c-0.7,0.4-1,0.6-1.6,0.9C79.3,29.8,78.1,30.1,76.9,30.4
		 M100.9,12.4c0.1,0.3,0.3,0.4,0.3,0.7c0.1,0.6,0.1,1,0.1,2.2v8.4c0,1.8,0,2.8-0.1,3.7c-0.1,0.6-0.3,1.2-0.6,1.6
		c-0.6,0.9-1.5,1.5-2.7,1.8c-0.4,0.1-1,0.1-1.5,0.1c-1.9,0-3.4-0.7-4.3-1.8c-0.6-0.9-0.7-1.8-0.7-4v-1.8v-6.6c0-1.3,0-1.9,0-2.5
		c0-0.4,0.1-0.7,0.1-1c0.1-0.4,0.4-1.2,0.9-1.6l0.1-0.1h-7c0.4,0.3,0.6,0.6,0.9,0.9c0.1,0.3,0.3,0.4,0.3,0.7c0.1,0.3,0.1,0.6,0.1,1
		c0,0.1,0,0.6,0,1.3v1.2v6.3c0,2.4,0,2.8,0.1,3.9c0.1,1.6,0.6,2.8,1.5,4c1.6,2.1,4.3,3.1,7.8,3.1c1.6,0,3.1-0.3,4.3-0.7
		s2.4-1.2,3.3-2.2c1-1.2,1.6-2.5,1.8-4.2c0.1-1,0.1-2.2,0.1-3.9v-6.3v-1.2v-0.3c0-0.9,0-1.5,0.1-1.9c0.1-0.3,0.1-0.6,0.4-0.9
		c0.3-0.3,0.4-0.6,0.9-0.9h-7C100.6,11.8,100.7,12,100.9,12.4">
  </path>
 </g>
</svg>